<svg width="24" height="23" viewBox="0 0 24 23" fill="none" xmlns="http://www.w3.org/2000/svg">
<path fill-rule="evenodd" clip-rule="evenodd" d="M5.34997 0.911948C4.4062 1.02151 3.44238 1.38651 2.70227 1.91464C2.02434 2.3984 1.3468 3.20725 0.943271 4.0145C0.56908 4.76293 0.308008 5.87884 0.308105 6.72929C0.308203 7.61055 0.491625 8.82332 0.769969 9.7829C1.3557 11.8023 2.6361 14.0247 4.38314 16.0545C4.95729 16.7217 6.05257 17.8889 6.10434 17.8889C6.12895 17.8889 6.14199 16.9955 6.13479 15.8103L6.12209 13.7317L5.78152 13.6446C4.66425 13.3591 3.77157 12.5429 3.39422 11.4619L3.25156 11.0532L3.23736 8.5349C3.22388 6.15008 3.22802 6.00553 3.31545 5.80785C3.53594 5.3094 3.9439 5.03845 4.47392 5.03845C4.72166 5.03845 4.83551 5.06609 5.03791 5.17527C5.32185 5.32847 5.5819 5.63645 5.65765 5.90934C5.68757 6.01706 5.70811 6.73528 5.70825 7.68022L5.70854 9.26991L5.83451 9.41956C5.9973 9.61301 6.24037 9.62566 6.4162 9.44982L6.53564 9.33043L6.53594 7.73481C6.53608 6.79896 6.55671 6.06528 6.5859 5.96033C6.736 5.41989 7.23489 5.03481 7.78501 5.03481C8.13137 5.03481 8.35741 5.12233 8.61736 5.35718C8.9917 5.69542 8.98961 5.68364 9.01695 7.61526L9.04128 9.33457L9.1778 9.45192C9.34205 9.59311 9.54868 9.60269 9.70485 9.47634L9.81972 9.38341L9.84405 7.68834C9.86701 6.08829 9.87417 5.98101 9.97186 5.77433C10.099 5.50523 10.3882 5.22192 10.6447 5.11503C10.9074 5.00561 11.3382 5.01208 11.6019 5.12944C11.8624 5.24538 12.1919 5.59495 12.2824 5.8514C12.3362 6.00373 12.3497 6.52485 12.3496 8.45025C12.3495 11.1547 12.3509 11.1424 11.987 11.8803C11.5437 12.7791 10.7357 13.4261 9.78971 13.6397L9.45483 13.7153V17.2537V20.7921L10.1312 21.2843C11.0645 21.9635 11.8304 22.4623 11.9399 22.4623C11.9904 22.4623 12.3824 22.2273 12.811 21.94L13.5903 21.4177L13.5906 13.3893C13.5908 8.11182 13.6078 5.29992 13.6402 5.1831C13.7044 4.95214 14.0146 4.67151 14.2564 4.62568C14.5084 4.57786 15.1751 4.71803 15.634 4.91527C16.9707 5.48971 17.9106 6.71411 18.1151 8.14738C18.1515 8.4031 18.164 9.75191 18.154 12.3679L18.1394 16.2125L17.9792 16.5378C17.7961 16.9098 17.5326 17.1643 17.1542 17.3348L16.8987 17.4498V18.0586C16.8987 18.3934 16.9169 18.6674 16.9391 18.6674C16.9614 18.6674 17.3609 18.2892 17.827 17.827C21.5021 14.1828 23.3828 10.6517 23.5466 7.08796C23.6738 4.32121 22.0786 1.90797 19.6233 1.15293C18.9206 0.936858 18.5965 0.891222 17.7745 0.892633C17.1194 0.8938 16.9581 0.910537 16.5461 1.0203C15.6772 1.25174 14.8157 1.69254 13.9309 2.35831C13.7302 2.50932 13.2321 2.96749 12.8239 3.37652C12.1802 4.02156 12.0615 4.12013 11.9283 4.12013C11.7954 4.12013 11.6972 4.03893 11.1934 3.51236C9.27768 1.51014 7.39894 0.674083 5.34997 0.911948ZM14.4174 13.0944C14.4174 17.3102 14.4276 20.7595 14.44 20.7595C14.4572 20.7595 15.5368 19.9005 16.0062 19.5135C16.0579 19.4708 16.0716 19.2018 16.0716 18.2339C16.0716 16.706 16.0642 16.7275 16.6269 16.6204C16.9366 16.5613 17.1622 16.3856 17.2611 16.1261C17.3322 15.9395 17.3388 15.5247 17.3263 12.0262L17.3123 8.134L17.1798 7.74478C17.1068 7.53071 16.9645 7.21358 16.8635 7.04004C16.6391 6.65471 16.0914 6.09851 15.7214 5.88035C15.4343 5.71108 14.91 5.51511 14.5999 5.4611L14.4174 5.42933V13.0944ZM4.17378 5.99108L4.05434 6.11047V8.39697C4.05434 9.87831 4.07327 10.7743 4.1081 10.9413C4.32976 12.0043 5.2334 12.7774 6.39645 12.8991C6.65236 12.9259 6.74335 12.9583 6.83433 13.0552L6.9492 13.1774L6.96549 15.9589L6.98184 18.7404L7.37204 19.0809C7.58665 19.2682 7.9515 19.5789 8.18279 19.7714L8.6034 20.1212L8.62773 16.6228C8.65483 12.7234 8.62617 13.0102 8.99793 12.9239C9.10204 12.8998 9.2591 12.8795 9.34691 12.8788C9.57811 12.8771 10.0619 12.7025 10.3494 12.517C10.8683 12.182 11.2458 11.6759 11.4207 11.0808C11.487 10.8549 11.4983 10.4736 11.4983 8.44991V6.08323L11.3857 5.97741C11.2252 5.82668 10.9652 5.83563 10.8134 5.99711L10.6955 6.12254L10.6712 7.83377C10.6437 9.76743 10.6465 9.75196 10.2543 10.0972C9.76314 10.5295 9.07884 10.5029 8.59581 10.0325C8.20483 9.65173 8.18985 9.56503 8.18985 7.68508V6.11047L8.0704 5.99108C7.99738 5.918 7.89506 5.87164 7.8068 5.87164C7.37267 5.87164 7.3628 5.91411 7.36245 7.77884C7.36231 8.71127 7.34173 9.42404 7.31186 9.53156C7.23484 9.80888 6.97805 10.1086 6.68735 10.2605C6.06989 10.5831 5.31801 10.3271 5.00001 9.68618C4.91375 9.51234 4.90372 9.35091 4.88144 7.77689L4.85712 6.05749L4.74225 5.96456C4.57843 5.83203 4.32081 5.844 4.17378 5.99108Z" fill="white"/>
</svg>
