<svg width="26" height="26" viewBox="0 0 26 26" fill="none" xmlns="http://www.w3.org/2000/svg">
<path fill-rule="evenodd" clip-rule="evenodd" d="M21.3899 0.346785C21.2026 0.387118 20.8413 0.5214 20.5871 0.645174C20.2009 0.833169 20.056 0.939038 19.7065 1.28871C19.371 1.62432 19.2481 1.7892 19.0864 2.12082C18.6792 2.95595 18.6125 3.70521 18.8757 4.48847C19.1568 5.32501 19.6494 6.26976 20.4569 7.52131C20.993 8.35201 21.6496 9.27933 21.7738 9.38121C21.8864 9.47346 22.1965 9.49482 22.3364 9.41999C22.4807 9.34273 23.5622 7.78072 24.1733 6.76718C24.5896 6.07646 25.0725 5.09371 25.2608 4.55347C25.6165 3.5337 25.4165 2.46348 24.6991 1.54652C24.2702 0.998443 23.6286 0.576622 22.9432 0.392324C22.5238 0.279497 21.8007 0.258285 21.3899 0.346785ZM22.9883 1.74765C24.3514 2.42135 24.6031 4.23762 23.4712 5.23388C22.2266 6.32945 20.2764 5.6215 19.9935 3.97134C19.819 2.95361 20.4341 1.96489 21.4513 1.62835C21.6676 1.55674 21.832 1.54005 22.1819 1.55411C22.5826 1.57016 22.6732 1.59196 22.9883 1.74765ZM5.94253 7.08143C3.07984 7.44998 0.894295 9.67289 0.586029 12.5295C0.555524 12.8122 0.544674 13.1958 0.561897 13.3819C0.681876 14.6779 1.43279 16.4381 2.92896 18.9306C3.8687 20.4962 5.78013 23.2855 6.09438 23.5499C6.37019 23.782 6.72307 23.8132 7.09916 23.6386C7.29139 23.5494 7.9413 22.6756 9.08109 20.9739C10.9603 18.1683 12.1441 15.9226 12.5894 14.3186C12.7568 13.7153 12.795 12.8479 12.6839 12.1698C12.2741 9.66759 10.3043 7.63267 7.83095 7.15641C7.347 7.06324 6.38168 7.0249 5.94253 7.08143ZM20.3376 8.88388C20.1173 9.00021 19.9059 9.24635 19.9061 9.38603C19.907 9.8839 20.8395 10.2595 22.071 10.258C22.7836 10.2572 23.2533 10.1752 23.7034 9.97322C24.2404 9.73224 24.3874 9.38686 24.0779 9.09319C23.9098 8.93365 23.6499 8.78492 23.5452 8.78838C23.5104 8.78954 23.3725 8.94713 23.2387 9.13853C22.8923 9.63406 22.7384 9.8006 22.5276 9.90817C22.2027 10.0739 21.6623 10.0082 21.4002 9.77102C21.3504 9.72592 21.1643 9.48592 20.9866 9.23769C20.8089 8.98941 20.6299 8.78726 20.5888 8.78843C20.5477 8.78964 20.4347 8.83255 20.3376 8.88388ZM17.3447 9.12647C17.2105 9.18062 17.0841 9.36175 17.0841 9.49988C17.0841 9.55933 17.1358 9.66817 17.1991 9.74173C17.2983 9.85709 17.3586 9.87835 17.6358 9.89601C18.0165 9.92024 18.1716 9.88813 18.3016 9.75813C18.3963 9.6634 18.4265 9.45317 18.3675 9.29933C18.315 9.16247 18.0779 9.07806 17.7555 9.08127C17.5869 9.08297 17.4021 9.10331 17.3447 9.12647ZM7.45983 9.39211C8.15454 9.53934 8.74286 9.85208 9.28548 10.3625C10.0954 11.1244 10.4821 12.0197 10.4855 13.1407C10.4876 13.8429 10.4032 14.2175 10.1019 14.8436C9.13894 16.8449 6.63457 17.5958 4.70188 16.4628C4.22951 16.1859 3.57858 15.5252 3.32228 15.0625C2.99294 14.468 2.86961 14.0184 2.84183 13.311C2.81536 12.6365 2.9041 12.1238 3.13949 11.5916C3.61288 10.5212 4.59251 9.70519 5.74792 9.41892C6.19631 9.30785 7.00259 9.29519 7.45983 9.39211ZM15.6975 9.65494C15.4105 9.83155 15.138 10.1399 15.138 10.2879C15.138 10.5104 15.306 10.6838 15.5214 10.6838C15.6671 10.6838 15.756 10.6389 15.968 10.4589C16.3854 10.1042 16.4356 9.96077 16.2283 9.71444C16.0812 9.53958 15.9151 9.52095 15.6975 9.65494ZM14.5805 11.48C14.3695 11.6911 14.3546 12.3817 14.5568 12.5839C14.6503 12.6774 14.8611 12.707 15.0141 12.6483C15.1586 12.5929 15.2353 12.3587 15.2353 11.9733C15.2353 11.6458 15.2217 11.5902 15.1158 11.4843C14.9597 11.3282 14.7342 11.3264 14.5805 11.48ZM15.1464 13.5209C14.9686 13.7103 15.0054 13.9099 15.2702 14.1931C15.6528 14.6021 15.9012 14.6613 16.1118 14.3937C16.2742 14.1872 16.2362 14.0615 15.9087 13.7203C15.6471 13.4479 15.5864 13.4083 15.4307 13.4083C15.3071 13.4083 15.2197 13.4429 15.1464 13.5209ZM17.0663 14.4336C16.8951 14.5683 16.8873 14.8519 17.0507 15.0054C17.1486 15.0973 17.2189 15.1112 17.5881 15.1112C17.9743 15.1112 18.0238 15.1003 18.1323 14.9917C18.2076 14.9165 18.2517 14.8167 18.2517 14.722C18.2517 14.6272 18.2076 14.5274 18.1323 14.4522C18.0245 14.3443 17.9733 14.3327 17.6037 14.3327C17.2634 14.3327 17.1729 14.3497 17.0663 14.4336ZM19.2154 14.4806C19.0911 14.605 19.0724 14.6534 19.0987 14.7846C19.1486 15.0341 19.2592 15.1047 19.6976 15.1666C20.0507 15.2166 20.1098 15.2136 20.2219 15.1402C20.4584 14.9852 20.4773 14.7086 20.2643 14.52C20.1901 14.4545 19.6405 14.3327 19.4185 14.3327C19.3881 14.3327 19.2967 14.3993 19.2154 14.4806ZM21.367 15.0761C21.1854 15.168 21.0907 15.3668 21.1493 15.5332C21.2179 15.7284 21.7731 16.1329 21.9724 16.1329C22.3191 16.1329 22.4683 15.6892 22.2048 15.4414C22.0458 15.2919 21.6113 15.0136 21.5385 15.0146C21.5102 15.015 21.4331 15.0427 21.367 15.0761ZM22.7636 16.6802C22.7196 16.7137 22.6602 16.804 22.6316 16.8808C22.5873 17.0001 22.6025 17.0701 22.7355 17.3586C22.9733 17.8744 23.2135 18.006 23.4874 17.7705C23.5751 17.695 23.6198 17.6087 23.6198 17.5149C23.6198 17.3262 23.3703 16.7779 23.2443 16.6896C23.121 16.6033 22.8714 16.5984 22.7636 16.6802ZM23.3079 18.8051C23.174 18.939 23.1657 18.9704 23.1657 19.3435C23.1657 19.5613 23.1872 19.7797 23.2133 19.8286C23.2789 19.9511 23.5296 20.0323 23.6735 19.9776C23.8829 19.898 23.9442 19.7463 23.9442 19.3066C23.9442 18.9416 23.9324 18.8899 23.8247 18.7823C23.6641 18.6216 23.4834 18.6296 23.3079 18.8051ZM22.9273 20.8153C22.7628 20.9016 22.4359 21.4578 22.4359 21.6514C22.4359 22.0015 22.8631 22.1469 23.1097 21.8806C23.3116 21.6626 23.5152 21.2209 23.4794 21.0784C23.419 20.8378 23.1388 20.7043 22.9273 20.8153ZM4.04502 22.4281C3.42912 22.6475 2.96871 22.9671 2.80067 23.2921C2.58314 23.7128 2.85584 24.1937 3.50988 24.5429C4.79413 25.2284 7.22931 25.373 8.97449 24.8673C10.0949 24.5427 10.7327 23.9727 10.5728 23.4392C10.4894 23.1607 10.2188 22.8819 9.83745 22.6815C9.49878 22.5035 9.00281 22.3118 8.88108 22.3118C8.84663 22.3118 8.57685 22.6488 8.28162 23.0607C7.9864 23.4726 7.67322 23.8701 7.58564 23.9441C7.09337 24.3602 6.36941 24.3882 5.8192 24.0125C5.6926 23.926 5.42496 23.601 5.06508 23.0965C4.75827 22.6665 4.47443 22.3148 4.43429 22.315C4.39415 22.3153 4.21895 22.3662 4.04502 22.4281ZM21.2207 22.6161C20.8877 22.8345 20.7931 22.9838 20.8484 23.2042C20.8815 23.3362 21.0948 23.4795 21.2583 23.4795C21.3869 23.4795 21.926 23.1225 22.0245 22.9721C22.1789 22.7366 21.9864 22.4089 21.694 22.4093C21.5901 22.4095 21.4276 22.4805 21.2207 22.6161ZM12.4794 23.2358C12.3452 23.29 12.2188 23.4711 12.2188 23.6093C12.2188 23.6687 12.2711 23.7782 12.3352 23.8526C12.4393 23.9737 12.4891 23.9898 12.8095 24.0054C13.2484 24.0268 13.4188 23.9674 13.5047 23.763C13.5899 23.5603 13.5209 23.3552 13.3349 23.2591C13.1839 23.181 12.6512 23.1665 12.4794 23.2358ZM14.6271 23.2438C14.4798 23.3243 14.4082 23.4351 14.4082 23.5821C14.4082 23.8981 14.5854 24.0147 15.0658 24.0147C15.5229 24.0147 15.7187 23.8907 15.7187 23.6011C15.7187 23.31 15.5111 23.1867 15.0253 23.189C14.8598 23.1899 14.6806 23.2145 14.6271 23.2438ZM16.7922 23.248C16.5413 23.3801 16.4964 23.7135 16.7043 23.9016C16.7839 23.9736 16.8847 23.9904 17.2394 23.9904C17.6578 23.9904 17.6813 23.9846 17.7938 23.8538C17.9426 23.6808 17.9428 23.5216 17.7943 23.349C17.6874 23.2248 17.6444 23.2118 17.2956 23.1985C17.0475 23.189 16.8712 23.2064 16.7922 23.248ZM18.9989 23.2358C18.8647 23.29 18.7383 23.4711 18.7383 23.6093C18.7383 23.6687 18.7913 23.7788 18.8561 23.8538C18.9693 23.985 18.9899 23.9899 19.3775 23.9798C19.8713 23.967 20.0194 23.8831 20.043 23.6029C20.0545 23.4659 20.0309 23.3905 19.9494 23.3037C19.8524 23.2005 19.7994 23.1879 19.4718 23.1906C19.269 23.1923 19.0563 23.2127 18.9989 23.2358Z" fill="white"/>
</svg>
