<svg width="26" height="20" viewBox="0 0 26 20" fill="none" xmlns="http://www.w3.org/2000/svg">
<path fill-rule="evenodd" clip-rule="evenodd" d="M4.12029 0.171217C4.09353 0.178369 4.01184 0.197392 3.93872 0.213496C3.74177 0.256895 3.48036 0.509939 3.39239 0.742355C3.32272 0.926458 3.3163 1.63455 3.32841 7.83889L3.34184 14.731L3.49296 14.9179C3.76103 15.2496 3.87532 15.2882 4.70704 15.3284C5.56893 15.3702 5.80758 15.3949 6.60159 15.5246C8.74116 15.8741 10.5956 16.7483 11.9413 18.0416L12.1724 18.2637L12.1712 11.2594C12.1706 7.40714 12.151 4.17307 12.1277 4.0727C12.012 3.57455 10.8682 2.30796 10.0316 1.75161C8.79049 0.926215 7.20708 0.39361 5.55555 0.246094C4.92569 0.189803 4.19366 0.15161 4.12029 0.171217ZM20.7596 0.194425C18.7162 0.3163 17.0873 0.815675 15.6733 1.75371C14.84 2.3066 13.6951 3.57455 13.5794 4.0727C13.5561 4.17307 13.5364 7.40568 13.5358 11.2562L13.5346 18.2571L13.7901 18.0172C15.1771 16.7146 16.9714 15.8732 19.1054 15.5246C19.8994 15.3949 20.1381 15.3702 21 15.3284C21.8317 15.2882 21.946 15.2496 22.2141 14.9179L22.3652 14.731L22.3796 7.86321C22.3897 3.07429 22.3783 0.940957 22.3418 0.815237C22.2803 0.602818 22.0891 0.361645 21.9093 0.269691C21.7149 0.170244 21.4529 0.153069 20.7596 0.194425ZM0.909189 3.34938C0.677698 3.45569 0.57397 3.56418 0.473161 3.8054C0.406944 3.96387 0.398333 4.81807 0.398333 11.2126C0.398333 19.0629 0.383639 18.6241 0.656096 18.9159C0.920526 19.1992 1.20524 19.2337 1.96593 19.0745C4.87174 18.4667 7.92316 18.3843 10.249 18.851C10.5692 18.9153 10.8383 18.9607 10.8471 18.952C10.8792 18.9199 10.3847 18.5173 9.98298 18.2484C8.97703 17.5751 7.67444 17.0976 6.17578 16.8526C5.94162 16.8143 5.2848 16.7518 4.71619 16.7138C4.08034 16.6713 3.60301 16.616 3.47607 16.5704C2.79843 16.3265 2.26082 15.7672 2.05078 15.0876C1.9581 14.7877 1.95523 14.6059 1.95523 9.01814V3.25786L1.52952 3.25893C1.2213 3.25971 1.05009 3.28467 0.909189 3.34938ZM23.7518 9.01814C23.7518 14.6059 23.7489 14.7877 23.6562 15.0876C23.4462 15.7671 22.9097 16.3254 22.2309 16.5707C22.1032 16.6168 21.6353 16.671 21.0029 16.7129C20.4409 16.7501 19.8279 16.8043 19.6406 16.8333C18.1344 17.0665 16.7348 17.5719 15.7263 18.2469C15.3227 18.517 14.8278 18.9198 14.8599 18.952C14.8687 18.9607 15.1378 18.9153 15.458 18.851C17.7839 18.3843 20.8353 18.4667 23.7411 19.0745C24.5018 19.2337 24.7865 19.1992 25.0509 18.9159C25.3234 18.6241 25.3088 19.0644 25.3076 11.202C25.3066 4.28206 25.3026 3.95477 25.2172 3.76872C25.043 3.38937 24.7726 3.25786 24.1669 3.25786H23.7518V9.01814Z" fill="white"/>
</svg>
