<svg width="26" height="26" viewBox="0 0 26 26" fill="none" xmlns="http://www.w3.org/2000/svg">
<path fill-rule="evenodd" clip-rule="evenodd" d="M16.2632 0.536568C13.4305 0.895043 10.8372 2.5456 9.15303 5.06198C8.78487 5.612 8.24959 6.71467 8.03975 7.35529C7.67466 8.46974 7.52437 9.65779 7.61778 10.691C7.64848 11.0308 7.6822 11.3227 7.69266 11.3396C7.72998 11.4001 7.51308 12.3441 7.3481 12.8393C7.11928 13.526 6.81321 14.1471 6.39377 14.7756C6.07743 15.2496 5.76498 15.5815 3.3315 18.0286C0.930327 20.4432 0.617537 20.775 0.586545 20.9403C0.5159 21.3167 0.578663 21.4032 1.81537 22.6334C3.07996 23.8914 3.15129 23.9409 3.55472 23.8394C3.72612 23.7964 4.08586 23.453 6.40248 21.1214C8.13229 19.3803 9.19122 18.352 9.44855 18.1634C10.2123 17.6035 11.0964 17.1633 11.9559 16.915C12.6502 16.7144 12.919 16.6806 13.3687 16.737C14.783 16.9143 16.3429 16.6707 17.7981 16.0453C20.7681 14.769 23.0587 11.9998 23.7241 8.88124C23.8742 8.17787 23.9109 6.78814 23.7986 6.05937C23.7077 5.4695 23.4265 4.5628 23.1854 4.08245C22.2757 2.26949 20.664 1.05346 18.6144 0.633484C18.0398 0.515793 16.8236 0.465631 16.2632 0.536568ZM18.2679 2.04603L18.5296 2.1049L17.6603 2.97525L16.7909 3.84561L16.0007 3.0565C15.5661 2.62252 15.2265 2.25246 15.2461 2.23422C15.2918 2.19155 15.9194 2.05444 16.3277 1.99796C16.739 1.94103 17.9329 1.97062 18.2679 2.04603ZM20.2968 2.88408C20.6192 3.09615 21.2827 3.75925 21.502 4.08858L21.68 4.35583L20.5852 5.45052L19.4905 6.54522L18.6632 5.71894L17.8358 4.89262L18.918 3.80965C19.5132 3.21399 20.013 2.72663 20.0287 2.72663C20.0444 2.72663 20.1651 2.79747 20.2968 2.88408ZM15.0746 5.56048L14.3815 6.25364L13.226 5.09789L12.0706 3.94213L12.2165 3.82152C12.4536 3.62555 13.2173 3.10554 13.4808 2.9607L13.7248 2.82652L14.7463 3.84692L15.7678 4.86732L15.0746 5.56048ZM12.2292 6.145L13.3601 7.27671L12.6662 7.96944L11.9722 8.66211L10.9511 7.64015L9.92997 6.61815L10.0716 6.36306C10.3582 5.84719 10.9605 5.01333 11.0466 5.01333C11.075 5.01333 11.6072 5.52258 12.2292 6.145ZM22.3621 6.31304C22.4522 6.94743 22.3979 8.17461 22.2545 8.74856L22.1417 9.19977L21.3395 8.39583L20.5373 7.59189L21.3876 6.74051C21.8553 6.27222 22.2524 5.88908 22.27 5.88908C22.2876 5.88908 22.329 6.07985 22.3621 6.31304ZM17.6541 6.75326L18.4685 7.56878L17.7746 8.26145L17.0807 8.95417L16.2547 8.12712L15.4288 7.30012L16.1087 6.61893C16.4827 6.2443 16.8001 5.93773 16.8141 5.93773C16.8281 5.93773 17.2061 6.30472 17.6541 6.75326ZM10.1731 8.90562L10.9505 9.68407L10.0752 10.5609L9.20003 11.4377L9.138 11.1325C9.04142 10.6577 9.04556 9.45009 9.14549 8.9299C9.2553 8.35847 9.31728 8.12712 9.36058 8.12712C9.37995 8.12712 9.74557 8.47742 10.1731 8.90562ZM15.3668 10.6689L14.6738 11.3618L13.8466 10.5356L13.0193 9.70951L13.7122 9.01538L14.4051 8.32129L15.2324 9.14859L16.0597 9.97589L15.3668 10.6689ZM21.5336 10.6742C21.5336 10.7502 21.0618 11.499 20.7521 11.9148L20.4493 12.321L19.2887 11.1611L18.1281 10.0012L18.8208 9.30735L19.5134 8.61346L20.5235 9.62267C21.0791 10.1777 21.5336 10.6509 21.5336 10.6742ZM12.8373 11.5698L13.6517 12.3852L12.5688 13.4673C11.9732 14.0624 11.467 14.5493 11.4439 14.5493C11.2574 14.5493 10.277 13.6394 9.95697 13.1693L9.79583 12.9326L10.8842 11.8435C11.4827 11.2445 11.9838 10.7544 11.9977 10.7544C12.0116 10.7544 12.3894 11.1213 12.8373 11.5698ZM18.2742 12.192C19.248 13.1683 19.406 13.3464 19.3418 13.3962C18.6548 13.929 18.3193 14.1578 17.9446 14.3489L17.7555 14.4454L16.738 13.4271L15.7206 12.4088L16.4006 11.7275C16.7745 11.3529 17.0919 11.0463 17.1059 11.0463C17.1198 11.0463 17.6456 11.5619 18.2742 12.192ZM16.2416 15.0422C16.149 15.1299 15.1793 15.2908 14.6005 15.3145C14.0301 15.3378 13.2522 15.2795 13.0378 15.1972C12.9814 15.1755 13.1892 14.9397 13.829 14.2991L14.6968 13.4303L15.487 14.2195C15.9216 14.6534 16.2612 15.0237 16.2416 15.0422ZM8.82958 14.0905C9.118 14.5183 9.74514 15.1532 10.2362 15.5145L10.6399 15.8114L10.1875 16.0233C9.66948 16.266 9.10491 16.6004 8.62373 16.9495L8.2907 17.1911L7.75922 16.6596L7.22778 16.1282L7.44117 15.8349C7.77323 15.3786 8.18532 14.664 8.38538 14.1977C8.48556 13.9642 8.57849 13.7733 8.59187 13.7735C8.60524 13.7737 8.71223 13.9164 8.82958 14.0905ZM20.6821 17.1141C19.8029 17.2356 18.7746 17.7999 18.1787 18.4876C17.5254 19.2418 17.1315 20.2545 17.165 21.0941L17.1791 21.4476L17.4954 21.2526C18.8486 20.4181 20.5933 20.0166 22.1174 20.1888C23.2956 20.3219 24.1891 20.6235 25.2756 21.2546L25.4904 21.3793L25.4599 20.9162C25.34 19.0903 23.9126 17.5004 22.0766 17.1478C21.7457 17.0843 21.0237 17.0668 20.6821 17.1141ZM20.6177 21.6563C19.6276 21.7848 18.532 22.2363 17.7933 22.8201L17.5431 23.018L17.6236 23.1746C17.9185 23.7484 18.5212 24.3967 19.0895 24.7514C20.0398 25.3446 21.2521 25.5408 22.312 25.2731C23.4243 24.9922 24.4802 24.1622 24.9813 23.175C25.0384 23.0623 25.0852 22.9503 25.0852 22.9261C25.0852 22.8604 24.4614 22.4541 24.0256 22.236C23.0039 21.7247 21.7433 21.5102 20.6177 21.6563Z" fill="white"/>
</svg>
