<svg width="26" height="26" viewBox="0 0 26 26" fill="none" xmlns="http://www.w3.org/2000/svg">
<path fill-rule="evenodd" clip-rule="evenodd" d="M20.1786 0.951682L19.8997 1.23051L20.2025 1.536L20.5052 1.84145L20.2026 2.14412L19.8999 2.44679L19.5939 2.14354L19.288 1.84033L18.9989 2.13239L18.7099 2.42446L19.0096 2.72849L19.3092 3.03252L19.2154 3.14671C18.9381 3.48422 18.9873 3.89164 19.3525 4.28203L19.5768 4.52189L17.4953 6.6039L15.4137 8.68586L14.8953 8.42498C14.1274 8.03858 13.5846 7.91043 12.6983 7.90624C12.1128 7.90352 11.9192 7.92196 11.5601 8.01474C10.8474 8.19894 10.3556 8.4314 9.66962 8.9085C9.59441 8.9608 9.22119 8.60461 6.49574 5.87941L3.4071 2.79106L3.13878 3.05607C2.99117 3.20184 2.87041 3.34317 2.87041 3.37013C2.87041 3.39708 3.0044 3.55433 3.16822 3.7196L3.46597 4.02003L3.34084 4.28461C3.00873 4.98658 3.1074 5.88082 3.58143 6.46538C3.65864 6.56065 4.67422 7.56713 5.83825 8.70201C7.42789 10.252 7.96886 10.8083 8.01172 10.9372C8.09166 11.1776 8.08811 11.6439 8.00404 11.9604C7.7867 12.778 7.14677 13.5627 6.38773 13.9423C5.50507 14.3837 4.74355 14.3469 4.10849 13.8322L3.91125 13.6724L3.08677 14.352C2.63328 14.7259 2.11289 15.1781 1.93039 15.357C1.30826 15.9668 0.813266 16.8687 0.60182 17.7778C0.46564 18.3634 0.477365 19.387 0.626925 19.9638C0.762618 20.487 0.919183 20.8781 1.15817 21.2906L1.33497 21.5957L2.40709 20.5244L3.47926 19.453L4.96249 20.9368L6.44568 22.4207L5.37794 23.4892C4.79065 24.077 4.32008 24.5677 4.33224 24.5796C4.3444 24.5916 4.52102 24.6912 4.72473 24.8011C6.63742 25.8317 9.00483 25.4876 10.5361 23.9562C10.8188 23.6736 12.1631 22.0283 12.1631 21.965C12.1631 21.9482 12.0867 21.8281 11.9932 21.698C11.6729 21.2521 11.5778 20.826 11.6766 20.2792C11.9316 18.8671 13.392 17.6734 14.6855 17.8198L14.9607 17.8509L17.296 20.2001C19.3951 22.3117 19.6638 22.5653 19.952 22.7068C20.5623 23.0066 21.1762 23.0161 21.7896 22.7352L22.0597 22.6116L23.4357 23.987L24.8117 25.3624L25.1049 25.0722L25.3982 24.7821L21.1073 20.491L16.8164 16.1998L17.047 15.8561C18.0241 14.3998 18.1531 12.5307 17.3861 10.9434L17.165 10.486L19.259 8.39199L21.353 6.29802L21.5977 6.52693C21.9866 6.89071 22.2476 6.94048 22.6485 6.72733L22.8826 6.60288L23.1671 6.88443L23.4517 7.16604L23.7436 6.87412L24.0355 6.5822L23.743 6.29267L23.4504 6.00318L23.7533 5.69764L24.0561 5.3921L24.3508 5.68416L24.6455 5.97623L24.9346 5.68406L25.2238 5.3919L24.8668 5.03255C24.515 4.67841 24.5106 4.67091 24.5623 4.50968C24.6547 4.22126 24.6778 3.86697 24.6233 3.57267C24.5294 3.06463 24.3662 2.79155 23.8267 2.23982C23.2777 1.67841 22.9404 1.43369 22.5598 1.32067C22.253 1.22959 21.6991 1.22365 21.4162 1.30841L21.2076 1.37088L20.8562 1.02189C20.663 0.829904 20.4942 0.672852 20.4812 0.672852C20.4681 0.672852 20.3319 0.798328 20.1786 0.951682ZM6.53442 7.08576L8.95744 9.50912L8.65881 9.74372L8.36018 9.97833L8.13311 9.76236C6.76003 8.45631 4.2417 5.95788 4.14532 5.80609C4.05234 5.65974 4.01682 5.52779 4.00111 5.2709C3.98408 4.99222 4.03653 4.6624 4.09788 4.6624C4.10532 4.6624 5.20177 5.75291 6.53442 7.08576ZM8.73471 15.07C8.95871 15.1689 9.19531 15.4245 9.19531 15.5676C9.19531 15.6874 9.10744 15.8575 9.00493 15.9362C8.8832 16.0296 8.68893 16.0089 8.43038 15.8747C8.22687 15.7691 8.17058 15.7587 8.0488 15.8044C7.97027 15.8339 7.44623 16.3139 6.88429 16.8711C5.78604 17.9601 5.71117 18.0117 5.23008 18.0117C4.90129 18.0117 4.64654 17.918 4.42094 17.7142C4.20044 17.515 4.17081 17.3067 4.33356 17.0998C4.45723 16.9425 4.71378 16.9265 4.90674 17.0639C5.03503 17.1552 5.14139 17.1827 5.32476 17.1718C5.37823 17.1687 5.85455 16.7345 6.41946 16.174C7.38045 15.2205 7.58582 15.0544 7.906 14.9714C8.10704 14.9192 8.49918 14.9659 8.73471 15.07ZM10.564 16.8135C10.7947 17.0668 10.8633 17.2261 10.8876 17.5648C10.9285 18.1369 10.88 18.2121 9.69794 19.4097C8.54944 20.5732 8.56043 20.5548 8.78584 20.9394C8.99189 21.291 8.84554 21.6131 8.47972 21.6131C8.3339 21.6131 8.27246 21.5775 8.1175 21.4028C8.01484 21.2871 7.90644 21.1022 7.87652 20.9917C7.79692 20.6976 7.84762 20.2256 7.98268 20.0033C8.04466 19.9013 8.5399 19.3675 9.08321 18.8171C10.1788 17.7072 10.1715 17.7198 9.94437 17.3322C9.85621 17.1818 9.82697 17.0788 9.84828 16.9939C9.9306 16.6659 10.3363 16.5636 10.564 16.8135ZM18.8649 19.4162C20.2632 20.8143 21.4072 21.973 21.4072 21.991C21.4072 22.0428 21.1291 22.0904 20.8461 22.087C20.6929 22.0852 20.5011 22.0435 20.3768 21.9851C20.2273 21.9148 19.5312 21.2499 17.9677 19.6843L15.7689 17.4825L16.014 17.1784C16.1488 17.0112 16.2734 16.8743 16.2909 16.8743C16.3083 16.8743 17.4667 18.0182 18.8649 19.4162ZM2.598 21.5073C2.11556 21.9964 1.68372 22.4767 1.63842 22.5749C1.51805 22.8355 1.48789 23.1552 1.55659 23.4416L1.61697 23.6934L1.05171 24.2658C0.472743 24.8519 0.424139 24.9375 0.542998 25.1607C0.628141 25.3205 0.736053 25.3853 0.919767 25.387C1.06685 25.3884 1.15029 25.3247 1.65813 24.823C2.2296 24.2586 2.23101 24.2577 2.38753 24.3122C2.47379 24.3423 2.65605 24.3667 2.79252 24.3664C3.23152 24.3656 3.43922 24.2224 4.39082 23.2646L5.25441 22.3955L4.36484 21.5068L3.47522 20.6182L2.598 21.5073Z" fill="white"/>
</svg>
