<svg width="119" height="119" viewBox="0 0 119 119" fill="none" xmlns="http://www.w3.org/2000/svg">
<path d="M117.211 59.4693C117.211 91.3574 91.3601 117.208 59.472 117.208C27.5838 117.208 1.7334 91.3574 1.7334 59.4693C1.7334 27.5811 27.5838 1.73071 59.472 1.73071C91.3601 1.73071 117.211 27.5811 117.211 59.4693Z" stroke="white" stroke-width="2"/>
<path fill-rule="evenodd" clip-rule="evenodd" d="M57.9582 18.6043C53.2647 19.1759 49.3341 21.0717 46.0706 24.3382C43.1723 27.2391 41.5012 30.3355 40.6489 34.3845C40.2906 36.086 40.2906 39.8959 40.6489 41.5975C41.5021 45.6508 43.1778 48.7537 46.0706 51.6371C49.0079 54.5649 52.2179 56.2801 56.354 57.1321C58.0537 57.4823 61.9027 57.482 63.6812 57.1314C67.6169 56.3559 70.8778 54.6284 73.8025 51.7693C76.7399 48.8979 78.4893 45.6907 79.3511 41.5975C79.7094 39.8961 79.7094 36.086 79.3511 34.3845C78.7908 31.7229 77.7521 29.2475 76.2639 27.0272C75.3457 25.6573 72.4965 22.8292 71.1448 21.9459C68.794 20.4097 66.2594 19.3549 63.76 18.8728C62.5846 18.646 58.9842 18.4794 57.9582 18.6043ZM52.163 62.0213C44.0049 62.9989 36.6387 67.5828 31.8962 74.6331C29.1161 78.7658 27.5218 83.631 27.2387 88.845C27.1522 90.4391 27.1699 90.6272 27.4588 91.1872C27.6679 91.5928 27.965 91.8931 28.3484 92.0866C28.92 92.375 29.1425 92.377 60 92.377C90.8575 92.377 91.08 92.375 91.6516 92.0866C92.035 91.8931 92.3321 91.5928 92.5412 91.1872C92.8302 90.6272 92.8478 90.4391 92.7613 88.845C92.3753 81.7348 89.6342 75.4998 84.6513 70.3973C79.9291 65.5618 73.8256 62.6113 67.1673 61.9451C64.9544 61.7236 54.1904 61.7783 52.163 62.0213Z" fill="white"/>
</svg>
