<svg width="50" height="50" viewBox="0 0 50 50" fill="none" xmlns="http://www.w3.org/2000/svg">
<path fill-rule="evenodd" clip-rule="evenodd" d="M22.7835 0.693288C14.2984 1.56334 6.97736 6.51917 3.19057 13.9561C0.39068 19.455 -0.255286 25.3461 1.28061 31.3744C1.71737 33.0887 2.15441 34.2459 3.05711 36.0778C5.46479 40.9637 9.23997 44.7364 14.1424 47.1557C16.028 48.0861 17.1708 48.512 19.039 48.9807C23.1465 50.011 27.0596 49.9938 31.2462 48.9271C32.9388 48.4959 34.1 48.0573 35.9418 47.1538C40.7406 44.7995 44.5039 41.0696 46.9359 36.2573C50.3901 29.4223 50.5046 21.6014 47.2514 14.7062L46.7321 13.6054L44.9016 15.436L43.0712 17.2664L43.4252 18.2116C43.8541 19.3568 44.2755 20.9445 44.4943 22.2396C44.6983 23.4474 44.7233 26.4604 44.5401 27.7603C43.6075 34.3802 39.5048 40.0225 33.5338 42.8972C28.9834 45.0878 23.7325 45.4234 18.898 43.8325C13.7866 42.1506 9.63016 38.5022 7.31494 33.665C5.11147 29.0612 4.77927 23.8913 6.37431 19.0232C8.36857 12.9364 13.2556 8.17115 19.3632 6.35768C23.5924 5.10195 27.8997 5.24827 32.0083 6.78714L32.9413 7.13653L34.7711 5.30683L36.6008 3.47705L35.5009 2.94898C31.6555 1.10278 26.9427 0.266804 22.7835 0.693288ZM40.248 3.36308C39.6005 3.84343 32.6404 10.8968 32.534 11.1805C32.4733 11.3423 32.4326 12.3626 32.4326 13.7224V15.994L28.2169 20.221C24.7544 23.6928 23.9839 24.5125 23.9036 24.8098C23.6485 25.7557 24.453 26.5589 25.3998 26.3035C25.6946 26.224 26.5254 25.4429 29.9867 21.9908L34.2137 17.7751H36.4853C37.8451 17.7751 38.8654 17.7344 39.0272 17.6737C39.3109 17.5673 46.3643 10.6072 46.8446 9.95975C47.1804 9.50715 47.216 8.94193 46.9355 8.5164C46.6048 8.01474 46.4756 7.98901 44.266 7.98527L42.2258 7.98191L42.2251 5.94166C42.2245 4.08662 42.2076 3.87588 42.039 3.61982C41.6377 3.01129 40.8705 2.90127 40.248 3.36308ZM23.2155 8.03702C23.0835 8.05987 22.6537 8.12612 22.2605 8.1843C17.721 8.85561 13.3532 11.6466 10.7212 15.5576C5.69964 23.0196 7.22248 33.0326 14.2372 38.6753C22.085 44.9881 33.824 43.1414 39.3722 34.7211C40.8499 32.4785 41.8271 29.8031 42.134 27.1595C42.4136 24.7507 42.0448 21.5046 41.2556 19.4288L41.1699 19.2032L40.7585 19.4986C39.9847 20.0543 39.4485 20.1917 37.8333 20.248C37.028 20.276 36.3691 20.3039 36.3691 20.3099C36.3691 20.3159 36.4972 20.6974 36.6537 21.1575C37.158 22.6405 37.2812 23.4275 37.2812 25.168C37.2812 26.3372 37.2354 26.9659 37.1064 27.5683C36.4513 30.6273 34.8455 33.184 32.4461 34.9886C30.8494 36.1894 29.0294 36.9766 27.056 37.3199C25.7162 37.553 23.4161 37.467 22.1114 37.1353C17.3596 35.9269 13.8611 32.2358 12.9338 27.4522C12.7048 26.271 12.6889 24.2974 12.8987 23.0923C13.7467 18.2191 17.3246 14.4183 22.213 13.1974C23.1518 12.9629 23.4421 12.9345 24.9437 12.9307C26.7899 12.9261 27.5376 13.0396 29.0502 13.554C29.5103 13.7105 29.8918 13.8386 29.8978 13.8386C29.9038 13.8386 29.9317 13.1797 29.9597 12.3744C30.016 10.7592 30.1534 10.223 30.7091 9.44916L31.0045 9.03784L30.7789 8.9521C29.1793 8.34397 27.5851 8.07225 25.3758 8.03116C24.3196 8.01158 23.3475 8.01417 23.2155 8.03702ZM24.2716 15.3368C20.7304 15.7414 17.9128 17.6305 16.368 20.636C14.3989 24.467 15.1064 29.0404 18.1368 32.0709C22.0515 35.9855 28.4526 35.8793 32.2302 31.8372C33.9636 29.9824 34.8563 27.699 34.8563 25.12C34.8563 23.9415 34.7402 23.1877 34.3851 22.0639L34.1449 21.3036L30.6724 24.7573C26.5722 28.8354 26.6664 28.7684 25.0397 28.7684C24.1186 28.7684 23.9821 28.744 23.4568 28.4861C22.7246 28.1267 22.081 27.4831 21.7216 26.7509C21.4637 26.2256 21.4393 26.0891 21.4393 25.168C21.4393 23.5413 21.3723 23.6355 25.4504 19.5353L28.9041 16.0628L28.1438 15.8226C26.9293 15.4389 25.2364 15.2266 24.2716 15.3368Z" fill="white"/>
</svg>
