<svg width="56" height="56" viewBox="0 0 56 56" fill="none" xmlns="http://www.w3.org/2000/svg">
<path fill-rule="evenodd" clip-rule="evenodd" d="M26.5579 0.510241C23.4956 1.33318 22.0316 4.98119 23.6533 7.74834C24.067 8.45428 25.0533 9.3247 25.8776 9.71124C26.5654 10.0338 26.6854 10.0546 27.8646 10.0569C29.0961 10.0593 29.1347 10.0518 29.9288 9.65692C31.7013 8.77542 32.7477 7.12953 32.7477 5.22313C32.7477 2.02685 29.6607 -0.323566 26.5579 0.510241ZM23.6763 13.4925C23.2907 13.5476 22.6643 13.7633 22.1422 14.0207C21.067 14.551 20.1069 15.5139 19.6235 16.5465C19.4401 16.9386 18.9894 18.5023 18.5658 20.2171L17.8277 23.2047L18.0273 23.6249C18.1371 23.856 18.3776 24.1369 18.5616 24.2491C18.8818 24.4444 19.2798 24.4533 27.781 24.4536C37.3362 24.454 37.177 24.4632 37.5427 23.8985C37.6352 23.7559 37.7435 23.5064 37.7835 23.3439C37.8824 22.9422 36.5185 17.4559 36.0937 16.5465C35.3672 14.9913 33.6444 13.7231 31.9329 13.4835C31.013 13.3548 24.5909 13.3617 23.6763 13.4925ZM50.9257 27.6459C50.1417 27.9023 49.8166 28.1794 47.0572 30.9449L44.3644 33.6434L44.5829 34.1373C45.1889 35.5071 45.1296 37.2856 44.4293 38.7415C43.7602 40.1326 42.6665 41.1197 41.1324 41.7168L40.4068 41.9993L32.8179 42.0307C25.3698 42.0615 25.2204 42.0579 24.7714 41.8406C24.2404 41.5835 23.8393 40.9668 23.8393 40.4075C23.8393 39.9513 24.1474 39.3607 24.5372 39.0695C24.826 38.8538 25.0059 38.8476 32.4112 38.7944L39.9895 38.7401L40.5212 38.4114C42.1719 37.3906 42.1415 35.133 40.463 34.0891C40.0913 33.8579 39.9651 33.8498 35.844 33.797L31.607 33.7427L30.9009 33.4029C30.1502 33.0417 29.7766 32.7209 28.8648 31.6548C28.4756 31.1998 28.0974 30.8919 27.6698 30.682L27.0442 30.3749L23.7307 30.3391C21.4818 30.3149 20.2252 30.3444 19.8196 30.4306C18.4963 30.7124 17.8916 31.1247 14.1704 34.2827C12.2285 35.9306 10.6486 37.3171 10.6597 37.3637C10.6707 37.4102 12.2531 40.1731 14.1761 43.5033L17.6726 49.5583L27.573 49.5244C36.8089 49.4928 37.5136 49.4773 38.0711 49.2925C39.6686 48.763 39.458 48.9513 47.4947 40.8712C55.9812 32.3387 55.6026 32.7903 55.6109 31.1897C55.6148 30.4528 55.566 30.1583 55.3695 29.7317C54.7474 28.381 53.612 27.6028 52.1638 27.5345C51.6936 27.5124 51.1976 27.5569 50.9257 27.6459ZM4.22988 36.9603C3.10112 37.5641 0.943541 38.848 0.711921 39.0537C0.112558 39.5857 -0.106568 40.6059 0.21381 41.3728C0.305393 41.592 2.12641 44.7982 4.26063 48.4977C6.86689 53.0155 8.24856 55.307 8.46878 55.4768C8.97493 55.8669 9.72465 56.0313 10.2984 55.8779C10.9868 55.6937 13.939 53.9651 14.4073 53.4718C14.8667 52.9881 15.0862 52.3206 14.9843 51.7175C14.9402 51.4565 13.4297 48.7281 10.9161 44.3694C6.4068 36.55 6.60746 36.8237 5.34116 36.7612C4.81252 36.7351 4.56938 36.7786 4.22988 36.9603Z" fill="white"/>
</svg>
