<svg width="62" height="33" viewBox="0 0 62 33" fill="none" xmlns="http://www.w3.org/2000/svg">
<path fill-rule="evenodd" clip-rule="evenodd" d="M30.1708 0.171162C27.3118 1.2414 27.1611 5.04394 29.9283 6.29652C31.5288 7.021 33.5586 6.18894 34.275 4.5148C34.5228 3.93535 34.5226 2.65072 34.2745 2.06046C34.0042 1.41796 33.4648 0.820875 32.8049 0.434187C32.1137 0.0290988 30.8796 -0.09405 30.1708 0.171162ZM24.5237 2.75058C22.857 3.49809 19.8911 5.3623 19.8911 5.66251C19.8911 5.71231 20.1372 5.86325 20.438 5.99785C21.1104 6.29871 23.1076 7.59916 23.3491 7.89333C23.5872 8.1835 23.7965 8.16459 24.3722 7.80119C24.64 7.6321 25.2758 7.28389 25.7851 7.02743C26.2944 6.77097 26.7112 6.54204 26.7112 6.51888C26.7112 6.49572 26.5416 6.13451 26.3342 5.7163C25.8829 4.80601 25.6358 3.54815 25.7538 2.76152C25.8011 2.44676 25.8186 2.1921 25.793 2.1957C25.7672 2.19931 25.196 2.44895 24.5237 2.75058ZM36.6761 2.75997C36.7943 3.54802 36.5475 4.80549 36.096 5.7163C35.8885 6.13451 35.7189 6.49572 35.7189 6.51888C35.7189 6.54204 36.1357 6.77097 36.645 7.02743C37.1544 7.28389 37.7902 7.6321 38.058 7.80119C38.3258 7.97015 38.6001 8.10848 38.6675 8.10848C38.7351 8.10848 39.2139 7.78897 39.7317 7.39829C40.2495 7.00774 41.0928 6.47217 41.6056 6.20799C42.1184 5.94393 42.5381 5.68606 42.5385 5.6351C42.5393 5.50294 40.7098 4.22835 39.6437 3.6184C39.1483 3.33492 38.2586 2.89676 37.6665 2.64455L36.59 2.18618L36.6761 2.75997ZM11.9451 6.70148C6.87579 7.36059 2.54013 11.0482 1.05798 15.9613C-0.0260282 19.5547 0.428731 23.2186 2.37478 26.5687C3.12718 27.8639 5.17424 29.9779 6.50133 30.8297C7.68867 31.592 9.19334 32.2353 10.6261 32.5931C12.2387 32.996 15.1333 32.9866 16.7211 32.5734C21.5834 31.308 25.1285 27.7945 26.4094 22.9712C26.7078 21.8473 26.7507 21.4399 26.7483 19.7541C26.7459 18.0987 26.6985 17.6462 26.4155 16.5749C25.0265 11.3175 20.8641 7.55618 15.5484 6.75501C14.1958 6.55105 13.214 6.53651 11.9451 6.70148ZM47.0751 6.6926C41.7084 7.44976 37.4119 11.2886 36.0145 16.5749C35.7402 17.613 35.6823 18.1281 35.6722 19.6255C35.6651 20.6638 35.7305 21.7541 35.8264 22.1991C36.4404 25.0487 37.731 27.3849 39.7504 29.3032C40.8847 30.3808 41.5519 30.8515 42.8834 31.5138C47.8462 33.9823 53.6756 33.163 57.6619 29.4368C58.9337 28.2479 59.8274 27.0746 60.528 25.6735C63.8708 18.9891 61.0818 11.0083 54.2909 7.82603C52.2026 6.8474 49.257 6.3848 47.0751 6.6926ZM16.3602 9.13883C20.1598 10.1063 23.2648 13.207 24.2844 17.0518C24.671 18.5094 24.6695 21.0097 24.2812 22.4564C23.2393 26.3379 20.4892 29.148 16.5836 30.3223C15.6144 30.6137 15.2019 30.6642 13.7144 30.6735C11.7056 30.686 10.7856 30.4961 9.12398 29.7258C6.08595 28.3174 4.0699 25.9693 3.08124 22.6877C2.61927 21.1542 2.58852 18.632 3.01252 17.0518C4.16551 12.7548 7.7054 9.57776 12.1109 8.88636C13.1944 8.71637 15.1596 8.83309 16.3602 9.13883ZM51.5283 9.14964C55.3131 10.1175 58.3818 13.1913 59.4176 17.0518C59.8416 18.632 59.8109 21.1542 59.3489 22.6877C58.3637 25.9576 56.3413 28.3184 53.3282 29.7155C47.8875 32.2382 41.4603 29.8915 38.8772 24.4396C37.329 21.1719 37.4959 17.4591 39.3376 14.1942C40.0995 12.8436 41.8695 11.0736 43.2201 10.3116C44.4417 9.62255 46.0514 9.05442 47.2438 8.89138C48.4392 8.72782 50.323 8.84145 51.5283 9.14964ZM12.3292 11.0795C7.29452 11.8476 3.92809 16.8649 5.10514 21.8465C5.18441 22.182 5.50997 23.0027 5.82871 23.6703C6.31075 24.6799 6.58471 25.0606 7.45833 25.9342C8.31947 26.7953 8.7279 27.0915 9.72814 27.5807C11.2485 28.3241 12.6948 28.636 14.1145 28.5265C15.5201 28.4181 16.1849 28.2349 17.5662 27.5755C19.7859 26.5158 21.5214 24.3668 22.168 21.8774C22.4519 20.7844 22.4494 18.7444 22.1627 17.6309C21.8793 16.53 21.199 15.1697 20.4741 14.254C18.621 11.9138 15.3127 10.6243 12.3292 11.0795ZM47.5262 11.0723C42.3423 11.8797 39.0101 16.8973 40.2929 21.964C40.3973 22.3764 40.7233 23.2052 41.0175 23.8061C41.4393 24.6674 41.7722 25.1168 42.5926 25.9324C44.338 27.6678 46.3062 28.4924 48.7157 28.498C50.3713 28.5019 51.1308 28.3262 52.6962 27.5769C53.7077 27.0928 54.0835 26.8214 54.9512 25.9487C56.1031 24.7903 56.729 23.7412 57.2267 22.1347C57.6641 20.7236 57.6393 18.6206 57.1684 17.1805C56.3921 14.8063 54.8218 12.9756 52.6405 11.9016C51.0952 11.1407 49.1312 10.8222 47.5262 11.0723ZM12.1802 14.6613C12.8429 15.324 12.7385 15.5704 11.1025 17.2065C9.84666 18.4623 9.59174 18.6603 9.23079 18.6603C8.64439 18.6603 8.18113 18.1729 8.18113 17.5559C8.18113 17.1355 8.30608 16.9545 9.3071 15.925C11.0085 14.175 11.4845 13.9657 12.1802 14.6613ZM47.3102 14.6613C47.9729 15.324 47.8685 15.5704 46.2324 17.2065C45.0141 18.4249 44.7149 18.6603 44.3854 18.6603C43.8125 18.6603 43.3111 18.1506 43.3111 17.5682C43.3111 17.1638 43.4493 16.9634 44.4371 15.935C46.124 14.1786 46.6114 13.9626 47.3102 14.6613ZM17.6631 15.7231C17.8798 15.9266 17.9609 16.1455 17.9609 16.5267C17.9609 17.0387 17.8936 17.1176 14.961 20.0429C12.1917 22.8053 11.9264 23.0355 11.5109 23.0355C10.7734 23.0355 10.2498 22.3689 10.4283 21.6575C10.478 21.4594 11.7042 20.1529 13.4961 18.3886C16.2115 15.7151 16.521 15.4494 16.9232 15.4465C17.2034 15.4445 17.4744 15.5459 17.6631 15.7231ZM52.792 15.7328C53.1778 16.1615 53.2372 16.4403 53.0402 16.8982C52.943 17.1243 51.5629 18.5975 49.9735 20.1723C46.9372 23.1804 46.8555 23.2378 46.098 22.8927C45.7576 22.7375 45.4987 22.2852 45.4987 21.8453C45.4987 21.6551 46.4585 20.6051 48.5513 18.5057C51.4083 15.6397 51.6337 15.4433 52.0676 15.4433C52.3855 15.4433 52.6132 15.5344 52.792 15.7328Z" fill="white"/>
</svg>
