<svg width="13" height="14" viewBox="0 0 13 14" fill="none" xmlns="http://www.w3.org/2000/svg">
<path fill-rule="evenodd" clip-rule="evenodd" d="M5.37251 0.683689C4.2275 0.846452 3.16556 1.32107 2.2953 2.05895C1.97 2.33477 1.45635 2.89435 1.21393 3.23702C-0.31903 5.40393 -0.407838 8.33987 0.991449 10.591L1.18881 10.9085L0.849196 11.9752C0.662395 12.5619 0.513158 13.0447 0.517526 13.048C0.521927 13.0514 0.96023 12.8746 1.49158 12.6551L2.45764 12.2561L2.73523 12.4499C3.76091 13.1665 4.916 13.5321 6.15377 13.5321C9.25924 13.5321 11.8566 11.1391 12.2591 7.90726C12.5765 5.35874 11.3877 2.82694 9.25656 1.51237C8.10705 0.803338 6.67702 0.498201 5.37251 0.683689ZM3.95004 3.68944C4.22099 3.99756 4.67365 4.86063 4.7476 5.21018C4.78612 5.3922 4.77425 5.41459 4.44364 5.7851C4.03355 6.24471 3.98492 6.45841 4.21264 6.80051C4.65222 7.46088 5.84672 8.58194 6.4988 8.94606C7.07442 9.26751 7.34894 9.18269 7.74483 8.56108C7.925 8.27814 7.99235 8.21811 8.12953 8.21811C8.48968 8.21811 9.50615 8.68116 9.73967 8.95161C9.79786 9.01902 9.79767 9.02678 9.72997 9.29612C9.41909 10.5331 8.64239 10.9298 7.39036 10.491C5.61859 9.87013 4.14631 8.77234 3.27914 7.42542C2.78341 6.65546 2.43538 5.54179 2.50088 4.93509C2.56953 4.29908 2.88207 3.84449 3.40599 3.61862C3.6891 3.4966 3.79222 3.51 3.95004 3.68944Z" fill="#267D97"/>
</svg>
