<svg width="73" height="72" viewBox="0 0 73 72" fill="none" xmlns="http://www.w3.org/2000/svg">
<path d="M67.0692 36.3487C67.0692 53.2736 53.3489 66.9939 36.424 66.9939V71.9939C56.1103 71.9939 72.0692 56.035 72.0692 36.3487H67.0692ZM36.424 66.9939C19.4991 66.9939 5.77881 53.2736 5.77881 36.3487H0.778809C0.778809 56.035 16.7377 71.9939 36.424 71.9939V66.9939ZM5.77881 36.3487C5.77881 19.4238 19.4991 5.70349 36.424 5.70349V0.703491C16.7377 0.703491 0.778809 16.6624 0.778809 36.3487H5.77881ZM36.424 5.70349C53.3489 5.70349 67.0692 19.4238 67.0692 36.3487H72.0692C72.0692 16.6624 56.1103 0.703491 36.424 0.703491V5.70349ZM8.96519 17.033L61.3959 57.3988L64.4461 53.4369L12.0154 13.0711L8.96519 17.033Z" fill="white"/>
<path fill-rule="evenodd" clip-rule="evenodd" d="M60.2991 22.6516V23.2622L59.0976 23.3265C58.4368 23.3618 50.1957 23.3886 40.7841 23.3862C23.7235 23.3817 23.6703 23.3822 23.1411 23.5802C22.0302 23.9959 20.6616 25.0416 19.8822 26.0704C18.1515 28.3552 18.0299 30.9916 19.5327 33.6543L19.8321 34.185L19.9847 33.7746C20.1662 33.2862 20.3964 33.1049 20.6423 33.2563C20.9151 33.4244 21.4085 34.2402 21.4696 34.6241C21.632 35.6468 20.8439 37.484 19.3983 39.4525C18.9127 40.1138 18.3703 40.8713 18.1931 41.1359C17.3833 42.345 16.3101 44.7842 15.5692 47.1C14.7893 49.5375 13.7445 54.2631 13.671 55.6855L13.6299 56.4791H19.9378H26.2457V55.7096C26.2457 55.0085 26.2289 54.94 26.0566 54.94C25.905 54.94 25.997 54.7784 26.5195 54.1273C28.2379 51.9854 29.7264 48.1275 30.7709 43.1079L30.981 42.0978L33.7618 42.1307C36.3987 42.1618 36.5784 42.1526 37.2356 41.953C39.6632 41.2156 41.6536 39.1811 41.8062 37.2811C41.8687 36.5018 41.6229 35.4891 41.2013 34.789L40.8815 34.2579H51.408H61.9344V32.4782V30.6986H62.4154H62.8964V28.8228V26.947H62.4154H61.9344V25.1193C61.9344 23.9649 61.899 23.2915 61.8382 23.2915C61.784 23.2915 61.742 23.019 61.742 22.6663V22.041H61.0205H60.2991V22.6516ZM37.3661 34.4412C37.9123 34.6893 38.4419 35.248 38.7346 35.8849C39.407 37.348 38.6519 39.1761 37.1416 39.7411C36.6376 39.9298 36.445 39.9403 33.9824 39.9136C32.5399 39.898 31.341 39.8637 31.318 39.8372C31.2633 39.7744 31.7606 36.4698 31.8244 36.4723C31.8512 36.4734 32.0113 36.7655 32.18 37.1216C32.577 37.9591 32.9772 38.4302 33.5908 38.7821C34.181 39.1205 34.5695 39.1437 34.8731 38.8585C35.2053 38.5464 35.1743 38.084 34.802 37.8004C34.0981 37.264 33.7232 36.8933 33.5584 36.5702C33.3411 36.1441 33.1108 35.3236 33.0379 34.7148L32.9831 34.2579L34.9773 34.26C36.7142 34.2618 37.0224 34.2852 37.3661 34.4412Z" fill="white"/>
</svg>
