<svg width="73" height="73" viewBox="0 0 73 73" fill="none" xmlns="http://www.w3.org/2000/svg">
<path fill-rule="evenodd" clip-rule="evenodd" d="M39.7346 17.1427C39.61 17.2189 39.4657 17.3633 39.4139 17.4636C39.3621 17.5638 38.0961 21.0273 36.6006 25.16C35.1051 29.2927 33.8733 32.6782 33.8634 32.6834C33.8533 32.6886 33.391 32.8406 32.8358 33.0212C30.0918 33.9139 27.5345 35.6683 25.614 37.9755C24.6507 39.1327 23.6262 40.922 23.1257 42.321C22.5823 43.8405 22.2731 45.8786 22.3656 47.3319C22.537 50.0203 23.3666 52.1944 24.7434 53.5627L25.0666 53.8839H24.0692C20.7275 53.8839 17.7736 52.1239 16.1381 49.1583C15.9683 48.8504 15.7415 48.5293 15.6343 48.4449C15.2609 48.1509 14.5905 48.3082 14.3662 48.7424C14.2027 49.0589 14.2224 49.2495 14.4736 49.7811C15.1336 51.1775 16.6755 52.915 18.0702 53.834C19.2996 54.6441 20.4957 55.1526 21.97 55.4921C22.6612 55.6512 22.7914 55.6536 31.903 55.6781C40.3996 55.7009 41.1567 55.6928 41.401 55.5767C41.5471 55.5073 41.716 55.3548 41.7765 55.2378C41.9875 54.8294 41.8599 53.8168 41.5113 53.1327C41.0976 52.3212 40.1313 51.558 39.0084 51.156L38.3435 50.9179L38.4621 50.6438C38.8942 49.6459 39.0928 48.7466 39.0928 47.788C39.0928 47.2229 39.1082 47.1497 39.2223 47.1717C39.2976 47.1862 40.4591 48.8954 41.9994 51.2585C43.4556 53.4924 44.7233 55.3967 44.8166 55.4901C44.984 55.6576 45.0139 55.6599 46.979 55.6599H48.9717L49.1667 55.4766C49.4442 55.2157 49.5339 54.8374 49.3964 54.5079C49.3361 54.3637 48.89 53.6116 48.4049 52.8367C47.9198 52.0617 46.7813 50.2272 45.875 48.7598L44.2271 46.0918V38.6196V31.1473L45.0465 31.145C47.6462 31.1379 49.9441 29.691 51.2404 27.245C51.4315 26.8844 51.4405 26.6719 51.2791 26.3313C51.1359 26.0295 51.0689 25.9962 48.6324 25.0149C46.9875 24.3524 46.8814 24.2979 46.8407 24.0942C46.7664 23.7226 46.4143 23.0819 46.064 22.6811C45.8207 22.4027 45.5534 22.2099 45.0965 21.9833L44.4652 21.6702L44.4223 21.3207C44.3986 21.1285 44.3428 20.5484 44.298 20.0316C44.209 19.0035 44.1116 18.7275 43.7766 18.5541C43.2708 18.2923 42.9505 18.433 42.2351 19.2306C41.9493 19.5493 41.6898 19.7823 41.6584 19.7483C41.627 19.7142 41.4754 19.2273 41.3216 18.6662C41.0035 17.5054 40.8487 17.2025 40.5141 17.0858C40.1815 16.9698 39.995 16.9834 39.7346 17.1427Z" fill="white"/>
<path d="M67.4585 36.3488C67.4585 53.3392 53.6851 67.1127 36.6946 67.1127V72.1127C56.4465 72.1127 72.4585 56.1007 72.4585 36.3488H67.4585ZM36.6946 67.1127C19.7041 67.1127 5.93066 53.3392 5.93066 36.3488H0.930664C0.930664 56.1007 16.9427 72.1127 36.6946 72.1127V67.1127ZM5.93066 36.3488C5.93066 19.3583 19.7041 5.58484 36.6946 5.58484V0.584839C16.9427 0.584839 0.930664 16.5969 0.930664 36.3488H5.93066ZM36.6946 5.58484C53.6851 5.58484 67.4585 19.3583 67.4585 36.3488H72.4585C72.4585 16.5969 56.4465 0.584839 36.6946 0.584839V5.58484ZM9.14287 16.9568L61.7614 57.4671L64.8116 53.5053L12.1931 12.9949L9.14287 16.9568Z" fill="white"/>
</svg>
