<svg width="73" height="73" viewBox="0 0 73 73" fill="none" xmlns="http://www.w3.org/2000/svg">
<path d="M67.1187 36.17C67.1187 53.2909 53.2395 67.17 36.1187 67.17V72.17C56.0009 72.17 72.1187 56.0523 72.1187 36.17H67.1187ZM36.1187 67.17C18.9978 67.17 5.11865 53.2909 5.11865 36.17H0.118652C0.118652 56.0523 16.2364 72.17 36.1187 72.17V67.17ZM5.11865 36.17C5.11865 19.0492 18.9978 5.17004 36.1187 5.17004V0.170044C16.2364 0.170044 0.118652 16.2878 0.118652 36.17H5.11865ZM36.1187 5.17004C53.2395 5.17004 67.1187 19.0492 67.1187 36.17H72.1187C72.1187 16.2878 56.0009 0.170044 36.1187 0.170044V5.17004ZM8.38222 16.6264L61.3742 57.4242L64.4244 53.4624L11.4324 12.6645L8.38222 16.6264Z" fill="white"/>
<path fill-rule="evenodd" clip-rule="evenodd" d="M30.9098 15.2816C30.4977 15.7124 30.2398 16.086 29.9596 16.6581C29.57 17.4535 29.2395 18.5554 29.2395 19.0591C29.2395 19.2814 29.1715 19.389 28.8891 19.6138C28.4749 19.9435 27.9165 20.7772 27.8417 21.1776C27.8054 21.3715 27.8977 21.9103 28.1335 22.8828C29.0688 26.7401 29.2395 27.8709 29.2395 30.213V32.0554L28.2178 33.7707C24.9348 39.2828 21.0519 44.5538 17.57 48.2251C16.237 49.6306 16.2367 49.6282 17.8175 50.7309C18.6338 51.3003 20.0544 52.1702 20.7275 52.513C21.1209 52.7134 21.1381 52.736 21.0474 52.9361C20.8955 53.2708 21.0735 53.5261 21.7836 53.9919C22.7041 54.5957 24.5494 55.5192 24.8354 55.5192C25.2898 55.5192 25.5814 54.9995 25.36 54.5841C25.3127 54.4951 24.7911 54.1745 24.201 53.8716C23.6109 53.5687 23.0043 53.244 22.8531 53.15L22.5781 52.9792L23.0287 52.3645C25.7037 48.7154 28.6624 43.5488 31.2317 38.0398C32.0128 36.3651 32.0754 36.0735 31.7148 35.7886C31.4616 35.5883 31.3539 35.5748 31.0656 35.7067C30.9123 35.777 30.6957 36.1557 30.2056 37.2103C28.739 40.3661 26.9001 43.8768 25.363 46.4555C24.5645 47.7952 22.5043 50.9526 22.1305 51.4097L21.9237 51.6627L21.5986 51.5089C20.684 51.0765 18.2553 49.5373 18.2978 49.4169C18.3118 49.3773 18.7628 48.8567 19.3 48.2602C22.8466 44.3218 27.0167 38.5032 29.8664 33.5165L30.2657 32.8176H35.9423H41.6188L42.228 33.8553C45.4662 39.3709 49.3297 44.7108 52.8698 48.564C53.2718 49.0014 53.6006 49.391 53.6006 49.4296C53.6006 49.5547 51.9099 50.6375 50.4629 51.439L49.9804 51.7063L49.6219 51.2197C48.3505 49.4945 46.3642 46.2776 44.7832 43.3834C43.8965 41.7599 41.9172 37.7773 41.3706 36.5165C41.1675 36.0481 41.0159 35.8175 40.8553 35.7329C40.5473 35.5706 40.4292 35.5813 40.1576 35.796C39.9557 35.9555 39.9313 36.0234 39.9672 36.3255C39.9902 36.5182 40.3891 37.4798 40.8665 38.493C43.298 43.6539 46.2487 48.7895 48.7025 52.1309L49.2935 52.9356L49.1079 53.0944C49.0058 53.1817 48.2395 53.5892 47.405 53.9999C41.288 57.0102 34.7964 57.5695 28.5651 55.623C27.233 55.2069 26.9539 55.1854 26.7227 55.4808C26.5162 55.7445 26.5032 55.8491 26.6393 56.1494C26.7512 56.3959 27.1613 56.5696 28.6551 57.0026C31.2293 57.7489 33.1283 58.0096 35.983 58.0089C38.8579 58.0083 40.7894 57.736 43.4349 56.9587C46.0998 56.1755 49.6315 54.5362 50.5885 53.638C50.8909 53.3543 50.918 53.2952 50.8681 53.0279C50.8057 52.6939 50.7264 52.7645 51.9148 52.0938C52.3088 51.8715 53.1068 51.3733 53.6881 50.9869C55.6917 49.6548 55.689 49.6674 54.3094 48.2154C50.8912 44.6175 46.9868 39.321 43.7393 33.8765L42.6277 32.0129L42.6643 29.9376C42.6906 28.4427 42.7431 27.6303 42.8521 27.0329C42.9696 26.3891 42.9821 26.1566 42.9084 25.9939C42.7132 25.5635 42.097 25.5102 41.8418 25.9017C41.7712 26.0099 41.6299 26.6383 41.528 27.298L41.3424 28.4976H35.9384H30.5342L30.4305 27.714C30.3012 26.7367 29.8425 24.4718 29.4177 22.7125L29.0946 21.3747L29.3281 21.0507C29.789 20.4114 30.2855 20.196 31.2962 20.1968C32.3606 20.1977 33.9646 20.6552 35.3144 21.3427C35.8498 21.6155 36.0986 21.6264 36.4948 21.3946C37.5597 20.7716 39.51 20.1962 40.557 20.1962C41.3966 20.1962 41.7904 20.3115 42.2237 20.6842C42.8326 21.2079 42.8416 21.2696 42.5057 22.6089C42.1825 23.8977 42.1976 24.1471 42.6099 24.3359C42.9094 24.473 43.0269 24.4561 43.2683 24.241C43.4427 24.0857 43.5372 23.8176 43.7788 22.7925C43.9419 22.1007 44.075 21.4527 44.0745 21.3525C44.0729 20.9973 43.6511 20.2636 43.1866 19.8078C42.7791 19.408 42.7081 19.2893 42.6456 18.9037C42.3845 17.2922 41.7503 15.9843 40.7946 15.086C40.1206 14.4525 39.7999 14.5639 39.2743 15.6144C38.8373 16.4878 38.3674 17.8625 38.2367 18.6496L38.131 19.2868L37.1203 19.7104C36.5643 19.9434 36.0336 20.133 35.9409 20.1319C35.8482 20.1308 35.3191 19.9413 34.7652 19.7107L33.7581 19.2915L33.6461 18.6251C33.5029 17.7735 33.1118 16.6271 32.6454 15.6921C32.0356 14.4697 31.7508 14.4023 30.9098 15.2816ZM31.8958 17.1496C32.144 17.8021 32.3558 18.5477 32.3574 18.7742C32.3583 18.903 32.2593 18.9171 31.4659 18.9012L30.5735 18.8833L30.6238 18.5665C30.7302 17.897 31.4336 16.4083 31.5959 16.5091C31.6365 16.5343 31.7714 16.8225 31.8958 17.1496ZM40.783 17.2315C40.9966 17.6564 41.2209 18.2819 41.3144 18.7138C41.3492 18.8744 41.3031 18.8841 40.4373 18.8993C39.5922 18.914 39.5234 18.9032 39.5234 18.7554C39.5234 18.557 39.8974 17.3565 40.1254 16.8231C40.2881 16.4426 40.2999 16.4335 40.4217 16.5962C40.4915 16.6893 40.6541 16.9752 40.783 17.2315ZM41.3599 30.6364L41.384 31.4623H35.9861H30.5882V30.6146V29.7669L35.962 29.7887L41.3358 29.8105L41.3599 30.6364Z" fill="white"/>
</svg>
