<svg width="23" height="15" viewBox="0 0 23 15" fill="none" xmlns="http://www.w3.org/2000/svg">
<path d="M22.0142 14.656C21.9162 14.8521 21.7936 15.0114 21.5485 14.9869C21.3034 14.9747 21.1441 14.8031 21.1441 14.5335C21.1319 14.1781 21.1441 13.835 21.1441 13.4796C21.1441 13.4061 21.1441 13.3326 21.1441 13.2468C14.6617 13.2468 8.19144 13.2468 1.70896 13.2468C1.70896 13.6022 1.70896 13.9453 1.70896 14.2884C1.70896 14.3987 1.70896 14.509 1.69671 14.6193C1.6722 14.8399 1.50064 14.9869 1.29232 14.9992C1.07174 15.0114 0.900185 14.8889 0.851169 14.6806C0.82666 14.607 0.82666 14.5335 0.82666 14.46C0.82666 12.4503 0.82666 10.4406 0.82666 8.44316C0.82666 7.13196 1.78249 6.16388 3.08143 6.16388C8.64485 6.16388 14.2083 6.16388 19.7594 6.16388C20.8991 6.16388 21.7569 6.88688 21.9897 8.00201C21.9897 8.02652 22.0142 8.05103 22.0264 8.07554C22.0142 10.269 22.0142 12.4625 22.0142 14.656ZM21.1319 11.4822C14.6617 11.4822 8.19144 11.4822 1.72122 11.4822C1.72122 11.7763 1.72122 12.0582 1.72122 12.34C8.19144 12.34 14.6617 12.34 21.1319 12.34C21.1319 12.0459 21.1319 11.7641 21.1319 11.4822Z" fill="white" fill-opacity="0.46"/>
<path d="M17.7253 5.28157C18.0194 5.09775 18.0806 4.88943 18.0071 4.61984C17.9091 4.26447 17.8355 3.89684 17.7253 3.54147C17.5537 3.00228 17.1003 2.64691 16.5489 2.63466C15.5685 2.6224 14.5882 2.61015 13.6078 2.63466C12.8358 2.64691 12.3334 3.2106 12.3089 4.00713C12.3089 4.2277 12.3089 4.44828 12.3089 4.66885C12.3089 4.90168 12.3457 5.11001 12.6153 5.25706C11.8065 5.25706 11.0467 5.25706 10.2502 5.25706C10.5565 5.0855 10.5565 4.81591 10.5443 4.54631C10.532 4.21545 10.5443 3.88459 10.4708 3.56598C10.3482 3.02679 9.85806 2.64691 9.30662 2.64691C8.30177 2.63466 7.29693 2.63466 6.27983 2.64691C5.7529 2.65916 5.28724 3.01454 5.12793 3.51696C5.00539 3.92135 4.90735 4.33799 4.80932 4.75463C4.7603 4.97521 4.87059 5.13451 5.09117 5.28157C5.00539 5.28157 4.95637 5.29382 4.90735 5.29382C4.33141 5.29382 3.7432 5.29382 3.16726 5.29382C2.75061 5.29382 2.59131 5.13452 2.59131 4.71787C2.59131 3.90909 2.59131 3.08806 2.59131 2.27928C2.60356 0.943574 3.53488 0 4.87059 0C9.23309 0 13.6078 0 17.9703 0C19.3061 0 20.2374 0.943574 20.2496 2.27928C20.2496 3.08806 20.2496 3.90909 20.2496 4.71787C20.2496 5.12226 20.0903 5.28157 19.6859 5.29382C19.061 5.28157 18.4237 5.28157 17.7253 5.28157Z" fill="white" fill-opacity="0.46"/>
</svg>
