<svg width="18" height="16" viewBox="0 0 18 16" fill="none" xmlns="http://www.w3.org/2000/svg">
<path d="M0.0110973 9.39941C0.033292 9.28844 0.0665841 9.17747 0.0887788 9.06649C0.366212 8.06773 1.254 7.3464 2.28605 7.32421C2.79653 7.31311 3.31811 7.3464 3.82858 7.40189C4.1615 7.43518 4.45004 7.62384 4.71637 7.84578C4.67198 7.90127 4.63869 7.93456 4.5943 7.97895C3.83968 8.77796 3.41798 9.74343 3.27372 10.831C3.15165 11.7188 3.18494 12.6065 3.19604 13.4943C3.19604 13.8384 3.19604 14.1713 3.19604 14.5375C3.11835 14.5486 3.04067 14.5597 2.96299 14.5597C2.34154 14.5597 1.72009 14.5597 1.09864 14.5597C0.54377 14.5597 0.21085 14.2933 0.0332921 13.7718C0.0332921 13.7607 0.0110973 13.7496 0 13.7274C0.0110973 12.2847 0.0110973 10.8421 0.0110973 9.39941Z" fill="white" fill-opacity="0.46"/>
<path d="M8.80019 15.6805C7.72375 15.6805 6.65841 15.6805 5.58196 15.6805C4.94941 15.6805 4.48333 15.3587 4.31687 14.8149C4.28357 14.7151 4.26138 14.6041 4.26138 14.5042C4.26138 13.5055 4.22809 12.4956 4.26138 11.4968C4.32796 9.78785 5.11587 8.51165 6.6584 7.73484C7.19108 7.4685 7.75704 7.33533 8.3452 7.30204C9.09982 7.25765 9.84334 7.24655 10.5869 7.42411C12.2071 7.82362 13.5942 9.39944 13.7052 11.064C13.7829 12.2182 13.7385 13.3834 13.7385 14.5375C13.7385 14.704 13.6608 14.8704 13.5942 15.0258C13.4722 15.3365 13.228 15.5363 12.8951 15.5696C12.307 15.625 11.7077 15.6694 11.1084 15.6805C10.3316 15.7027 9.56591 15.6805 8.7891 15.6805C8.80019 15.6916 8.80019 15.6916 8.80019 15.6805Z" fill="white" fill-opacity="0.46"/>
<path d="M9.01111 0C10.709 0 12.074 1.36497 12.0629 3.06287C12.0629 4.74966 10.6757 6.12573 8.98891 6.11464C7.31322 6.11464 5.94824 4.73857 5.94824 3.06287C5.94824 1.36497 7.31322 0 9.01111 0Z" fill="white" fill-opacity="0.46"/>
<path d="M13.3062 7.84584C13.6613 7.54621 14.0608 7.36865 14.5047 7.33536C15.0706 7.29097 15.6477 7.24658 16.2137 7.39085C17.2679 7.65718 18.0003 8.58936 18.0003 9.6769C18.0003 10.9309 18.0003 12.196 18.0003 13.45C18.0003 14.0382 17.6119 14.5042 17.046 14.5375C16.3357 14.5708 15.6255 14.5486 14.9264 14.5597C14.8931 14.5597 14.8598 14.5486 14.8154 14.5375C14.8154 14.471 14.8154 14.4155 14.8154 14.3489C14.8154 13.4389 14.8376 12.5289 14.8154 11.63C14.7932 10.4648 14.5158 9.35508 13.7722 8.4118C13.6169 8.21205 13.4615 8.04559 13.3062 7.84584Z" fill="white" fill-opacity="0.46"/>
<path d="M2.81863 2.25275C3.88398 2.25275 4.74957 3.11834 4.74957 4.18368C4.74957 5.24903 3.88398 6.11462 2.81863 6.11462C1.75329 6.11462 0.887695 5.24903 0.887695 4.18368C0.887695 3.11834 1.75329 2.25275 2.81863 2.25275Z" fill="white" fill-opacity="0.46"/>
<path d="M15.1927 2.25275C16.258 2.25275 17.1236 3.10724 17.1347 4.18368C17.1347 5.24903 16.2691 6.11462 15.2038 6.12572C14.1384 6.12572 13.2728 5.26013 13.2617 4.19478C13.2617 3.11834 14.1273 2.25275 15.1927 2.25275Z" fill="white" fill-opacity="0.46"/>
</svg>
