<svg width="195" height="222" viewBox="0 0 195 222" fill="none" xmlns="http://www.w3.org/2000/svg">
<path d="M131.643 171.675C135.593 164.049 139.446 156.603 143.038 148.781C146.22 142.133 150.234 135.242 152.161 127.905C152.375 127.09 152.589 126.275 152.982 125.558C154.562 120.129 155.72 113.77 155.213 107.895C154.989 99.3785 152.759 90.6937 148.847 82.951C146.801 79.0304 144.2 75.2716 141.304 72.0505C141.125 71.9522 141.125 71.9522 141.044 71.6746C144.103 68.2236 146.284 63.8241 148.627 59.9798C152.328 54.0832 155.672 47.9899 159.096 42.1742C159.686 41.0989 159.183 39.8904 158.287 39.3988C148.303 32.5219 137.747 26.2636 126.896 20.5429C125.821 19.9529 124.711 20.2764 124.121 21.3517C118.175 30.9134 111.182 41.533 108.56 52.6855C108.462 52.8647 108.462 52.8647 108.364 53.0439L108.265 53.2231C107.71 53.3849 107.253 53.3674 107.074 53.2691C102.622 52.4586 98.2341 52.3824 93.8282 52.763C85.9301 53.5591 78.0605 56.003 71.1504 59.6728C69.2884 60.5166 67.6057 61.4586 65.8247 62.5799C59.4522 66.5447 53.27 72.7125 49.2559 79.6035C46.2599 83.7888 43.7033 88.4484 41.0658 92.8304C36.4965 99.8831 32.0082 107.213 27.8782 114.74C19.1441 130.234 11.046 145.843 3.56639 162.024C2.9764 163.099 3.29993 164.21 4.45609 165.077C20.487 174.106 36.3037 183.951 52.6121 192.899C68.8222 202.026 85.6223 210.078 101.948 218.57C103.023 219.16 104.232 218.657 105.001 217.68C114.452 202.58 123.446 187.463 131.643 171.675ZM121.151 34.4121C121.331 34.5104 121.787 34.5279 122.065 34.447C122.979 34.4819 123.667 33.2274 123.048 32.6549C122.967 32.3773 122.609 32.1806 122.528 31.9031C123.806 29.5733 125.085 27.2436 126.542 25.0121C136.041 30.2237 145.163 35.6954 154.17 41.8031C153.088 43.7744 151.729 45.8266 150.647 47.798C146.82 44.9987 142.698 42.7371 138.675 40.2962C135.01 38.052 131.183 35.2528 126.794 35.1766C126.615 35.0783 126.418 35.4367 126.598 35.535C128.482 38.9005 131.708 40.6704 135.014 42.718C139.477 45.633 144.021 48.8256 148.779 51.203C147.894 52.816 146.911 54.6081 145.846 56.1227C143.683 60.0654 141.063 63.9906 139.339 68.4075C138.443 67.9159 137.368 67.3259 136.194 66.9151C132.922 63.954 129.078 61.6115 125.494 59.6449C122.985 58.2682 120.296 56.7933 117.134 55.7576L116.955 55.6593C115.082 54.3984 113.209 53.1375 111.237 52.0559C115.02 46.4368 118.086 40.4245 121.151 34.4121ZM102.221 213.823C86.5311 205.447 70.957 196.436 54.9721 188.598C39.7739 179.326 23.8064 171.031 8.31319 162.297C15.3995 146.832 23.3009 131.582 31.6417 116.805C36.2459 108.839 41.0292 100.971 45.8126 93.1032C49.0226 88.1027 52.967 83.0387 55.917 77.6623C57.357 75.8876 58.7971 74.113 60.5956 72.5349C70.259 63.8471 82.119 57.5303 95.3999 57.1229C100.621 56.9564 105.905 57.5242 111.074 58.728C111.253 58.8264 111.71 58.8438 111.889 58.9422C112.068 59.0405 112.346 58.9596 112.525 59.0579C116.324 60.2094 120.104 61.8176 123.51 63.6859C127.094 65.6526 130.302 67.8793 133.314 70.4645C133.493 70.5628 133.574 70.8403 133.753 70.9387C133.932 71.037 134.193 71.4129 134.372 71.5112C138.262 75.0448 141.482 79.3761 144.146 83.8692C150.157 94.1622 151.628 105.928 150.359 117.59C149.995 119.955 149.451 122.221 148.808 124.667C148.282 126.476 147.576 128.188 146.87 129.899C144.394 134.836 142.456 140.068 140.258 144.924C136.371 153.284 132.304 161.545 127.879 169.61C120.076 184.681 111.377 199.261 102.221 213.823Z" fill="white" fill-opacity="0.3"/>
<path d="M133.85 130.682C135.165 120.212 133.328 110.81 127.248 102.344C123.427 96.9837 117.242 91.2582 110.611 87.62L110.432 87.5216L110.253 87.4233C103.622 83.785 95.4699 81.6439 88.8961 81.3012C78.489 80.7206 69.5726 84.2224 61.4476 90.9563C52.0967 98.6497 46.2602 110.137 40.9962 121.005C37.8322 127.197 34.8473 133.487 31.8624 139.777C31.6658 140.135 31.5674 140.314 31.3708 140.673C27.8308 147.125 24.6493 153.773 21.5661 160.242C20.9761 161.317 21.4789 162.526 22.7508 162.757C24.3812 163.186 25.734 163.695 27.266 164.302C30.7345 166.905 35.429 168.548 39.0132 170.515C45.2048 173.679 51.4773 177.12 57.5705 180.464C63.6638 183.807 69.8379 187.428 75.8329 190.95C80.0356 193.489 84.4985 196.404 88.9789 198.863C90.6727 200.025 92.1872 201.089 93.9794 202.073C95.0547 202.663 96.2632 202.16 96.7548 201.264C99.1957 197.24 101.637 193.217 103.898 189.095C105.454 186.684 106.831 184.175 108.387 181.765C112.088 175.868 115.79 169.971 119.312 163.977C125.831 153.796 132.384 142.702 133.85 130.682ZM112.153 169.375C108.631 175.37 104.553 181.527 101.21 187.62C98.9832 190.828 96.6582 194.216 94.6106 197.523C93.7146 197.031 92.8185 196.539 92.1017 196.146C88.2747 193.347 83.9736 190.987 79.8517 188.725C73.8568 185.203 67.6827 181.582 61.5894 178.238C55.4962 174.895 49.2237 171.454 43.0321 168.29C39.7079 166.699 35.9619 164.177 32.0018 162.47C30.1287 161.21 27.9607 160.486 25.7927 159.763C26.6952 157.693 27.6959 155.445 28.4192 153.277C33.1851 145.865 36.8932 137.407 40.5663 129.863C45.7145 119.63 50.7992 108.664 58.5547 99.6283C65.4601 91.2926 74.8222 85.7037 85.5417 85.2899C91.6763 85.1583 97.741 86.8538 103.412 89.2661C105.124 89.9719 106.737 90.8569 108.269 91.4643C109.882 92.3493 111.396 93.4135 112.731 94.3794C117.634 97.7686 122.501 102.071 125.686 107.316C131.095 116.58 131.33 127.201 128.09 137.781C124.456 149.078 117.937 159.258 112.153 169.375Z" fill="white" fill-opacity="0.3"/>
<path d="M99.4072 131.837C97.6453 125.274 90.9859 119.988 84.412 119.645C68.6221 118.676 59.4074 137.17 70.2109 148.927C74.8641 154.045 83.0858 154.359 88.6256 150.637C94.1654 146.914 95.1964 139.086 91.5551 133.824C88.093 128.66 80.9466 128.936 77.5573 133.838C74.7406 138.122 79.1796 144.055 83.8519 141.489C84.2278 141.229 83.9677 140.853 83.6902 140.934C78.9783 139.747 77.7761 137.689 80.0029 134.48C81.2463 133.064 82.9115 132.579 84.9178 132.747C87.7392 133.129 89.5599 135.76 90.467 138.356C91.842 143.075 88.5511 147.798 84.3705 149.468C73.968 153.553 67.0153 141.577 69.1739 132.969C71.4657 123.267 82.8276 120.408 90.8113 124.555C100.229 129.489 99.4452 142.816 92.8697 149.701C92.7713 149.88 92.8522 150.158 93.1298 150.077C98.8837 145.539 101.25 138.677 99.4072 131.837Z" fill="white" fill-opacity="0.3"/>
<path d="M99.8958 119.047C100.208 118.053 99.983 116.763 100.018 115.85C100.007 113.745 99.9958 111.641 99.9847 109.536C99.8578 108.068 98.2449 107.183 96.9381 107.865C93.8502 109.668 90.6814 111.193 87.9345 113.65C86.8068 114.43 87.9281 116.211 89.3158 115.807C91.6345 114.981 93.8723 113.877 96.1101 112.773C96.2544 113.785 96.1212 114.878 96.2655 115.89C96.4558 118.092 96.4209 119.006 97.8197 120.706C98.0798 121.082 98.5366 121.099 99.0108 120.66C99.0282 120.203 99.6817 119.862 99.8958 119.047Z" fill="white" fill-opacity="0.3"/>
<path d="M82.668 112.626C82.2461 111.695 81.1708 111.105 80.4714 110.255C78.9743 108.734 77.4771 107.213 75.8817 105.871C74.8238 104.824 73.0602 105.489 72.5511 106.842C71.5963 110.282 70.6415 113.722 70.3227 117.277C70.2704 118.648 72.3575 119.093 72.7683 117.92C73.9483 115.769 74.5906 113.324 75.4122 110.976C76.2099 111.647 76.9093 112.497 77.707 113.168C79.3834 114.787 80.0019 115.36 82.1874 115.626C82.6441 115.644 83.02 115.384 82.8583 114.829C82.8932 113.915 83.0089 113.279 82.668 112.626Z" fill="white" fill-opacity="0.3"/>
<path d="M65.9101 120.219C64.9157 119.907 63.6263 120.132 62.7128 120.097C60.6082 120.108 58.5036 120.119 56.399 120.13C54.9304 120.257 54.0454 121.87 54.7274 123.177C56.5306 126.265 58.0562 129.433 60.5129 132.18C61.3915 133.129 63.1726 132.008 62.6698 130.799C61.8436 128.48 60.7397 126.242 59.6359 124.005C60.6478 123.86 61.7405 123.994 62.7524 123.849C64.9553 123.659 65.8688 123.694 67.569 122.295C67.9448 122.035 67.9623 121.578 67.523 121.104C67.1646 120.907 66.546 120.335 65.9101 120.219Z" fill="white" fill-opacity="0.3"/>
<path d="M59.4882 137.447C58.5572 137.869 57.9672 138.944 57.1171 139.644C55.5962 141.141 54.0752 142.638 52.7335 144.233C51.6867 145.291 52.3512 147.055 53.7041 147.564C57.144 148.519 60.584 149.474 64.1397 149.792C65.51 149.845 65.9557 147.758 64.782 147.347C62.6315 146.167 60.1859 145.524 57.8387 144.703C58.5096 143.905 59.3597 143.206 60.0305 142.408C61.6498 140.732 62.2224 140.113 62.4888 137.928C62.5063 137.471 62.2462 137.095 61.6911 137.257C60.8759 137.043 59.9624 137.008 59.4882 137.447Z" fill="white" fill-opacity="0.3"/>
<path d="M67.1796 154.025C66.8671 155.02 67.0923 156.309 67.0574 157.223C67.0685 159.327 67.0796 161.432 67.0906 163.536C67.2175 165.005 68.8304 165.89 70.1373 165.208C73.2252 163.405 76.3939 161.879 79.1409 159.422C80.0893 158.544 78.968 156.763 77.7595 157.266C75.4408 158.092 73.203 159.196 70.9652 160.299C70.8209 159.288 70.9541 158.195 70.8098 157.183C70.6195 154.98 70.6544 154.067 69.2556 152.366C68.9955 151.991 68.5388 151.973 68.0645 152.412C67.7696 152.95 67.2953 153.389 67.1796 154.025Z" fill="white" fill-opacity="0.3"/>
<path d="M84.131 160.528C84.5529 161.459 85.6282 162.049 86.3276 162.899C87.8247 164.42 89.3218 165.941 90.9173 167.283C91.9751 168.33 93.7387 167.665 94.2479 166.312C95.2027 162.872 96.1574 159.432 96.4763 155.877C96.5286 154.506 94.4415 154.061 94.0307 155.234C92.8507 157.385 92.2084 159.83 91.3868 162.178C90.5891 161.507 89.8897 160.657 89.0919 159.986C87.4156 158.367 86.7971 157.794 84.6116 157.528C84.1549 157.51 83.779 157.77 83.9407 158.325C83.9058 159.239 83.7901 159.875 84.131 160.528Z" fill="white" fill-opacity="0.3"/>
<path d="M100.888 152.935C101.882 153.247 103.172 153.022 104.085 153.057C106.19 153.046 108.295 153.035 110.399 153.024C111.868 152.897 112.753 151.284 112.071 149.977C110.268 146.889 108.742 143.72 106.285 140.973C105.407 140.025 103.626 141.146 104.128 142.355C104.955 144.673 106.058 146.911 107.162 149.149C106.15 149.293 105.058 149.16 104.046 149.304C101.843 149.495 100.929 149.46 99.2292 150.859C98.8533 151.119 98.8359 151.575 99.2752 152.05C99.7319 152.067 100.252 152.819 100.888 152.935Z" fill="white" fill-opacity="0.3"/>
<path d="M107.489 135.805C108.42 135.383 109.01 134.307 109.86 133.608C111.381 132.111 112.902 130.614 114.244 129.018C115.29 127.961 114.626 126.197 113.273 125.688C109.833 124.733 106.393 123.778 102.837 123.459C101.467 123.407 101.021 125.494 102.195 125.905C104.346 127.085 106.791 127.727 109.138 128.549C108.468 129.347 107.617 130.046 106.947 130.844C105.327 132.52 104.755 133.139 104.488 135.324C104.471 135.781 104.731 136.157 105.286 135.995C105.922 136.111 106.836 136.146 107.489 135.805Z" fill="white" fill-opacity="0.3"/>
<path d="M148.989 117.538C151.056 106.547 148.572 94.9249 142.902 85.2853C139.978 80.4164 135.666 75.9518 130.943 72.6609C127.116 69.8616 120.277 64.4772 115.345 66.6673C115.067 66.7482 114.969 66.9274 115.05 67.205C117.015 70.848 122.363 72.1501 125.849 74.296C131.208 77.7027 135.421 82.3464 139.161 87.4295C145.403 96.4506 148.037 106.523 148.174 117.324C148.237 118.058 148.972 117.994 148.989 117.538Z" fill="white" fill-opacity="0.3"/>
<path d="M87.6682 63.14C81.6844 61.7221 76.4285 62.8021 71.0219 65.4316C66.367 67.5409 60.1563 72.0608 59.9469 77.5419C59.8486 77.7211 60.207 77.9178 60.3054 77.7386C64.5843 75.8894 67.9387 71.9007 71.9576 69.6757C76.7282 66.9304 82.4583 65.4111 87.7951 64.6087C88.4485 64.2677 88.3042 63.2558 87.6682 63.14Z" fill="white" fill-opacity="0.3"/>
</svg>
