<svg width="58" height="51" viewBox="0 0 58 51" fill="none" xmlns="http://www.w3.org/2000/svg">
<path fill-rule="evenodd" clip-rule="evenodd" d="M21.1238 0.402075C20.485 0.739373 20.2613 1.28416 20.2613 2.50232V3.50699H15.867C11.6823 3.50699 11.4518 3.51766 11.0341 3.73071C10.7517 3.87474 10.5157 4.11079 10.3716 4.39319C10.1556 4.81673 10.1479 5.03778 10.1479 10.8214C10.1479 16.7737 10.08 18.5079 9.75084 20.9553C8.72828 28.5595 5.58958 35.751 1.51089 39.8354C0.938093 40.4089 0.396639 41.019 0.307619 41.1913C-0.0627974 41.9077 0.282724 42.91 1.03189 43.2922C1.44932 43.5051 1.68015 43.5159 5.80918 43.5159H10.1479V46.1876C10.1479 49.2424 10.2026 49.4795 11.0129 49.9349L11.4562 50.1841H33.5894C55.5525 50.1841 55.7259 50.1824 56.1611 49.9604C56.4435 49.8163 56.6795 49.5803 56.8236 49.2979C57.0455 48.8627 57.0473 48.6891 57.0473 26.8455C57.0473 5.00199 57.0455 4.8284 56.8236 4.39319C56.6795 4.11079 56.4435 3.87474 56.1611 3.73071C55.7437 3.51777 55.5128 3.50699 51.3838 3.50699H47.0451V2.50232C47.0451 1.26438 46.8223 0.73515 46.1589 0.396629C45.6034 0.113233 45.1526 0.113233 44.5972 0.396629C43.9337 0.73515 43.711 1.26438 43.711 2.50232V3.50699H39.4878H35.2647V2.50232C35.2647 1.26438 35.0419 0.73515 34.3785 0.396629C33.823 0.113233 33.3722 0.113233 32.8168 0.396629C32.1533 0.73515 31.9306 1.26438 31.9306 2.50232V3.50699H27.763H23.5954V2.50232C23.5954 1.26438 23.3727 0.73515 22.7092 0.396629C22.1616 0.117345 21.6601 0.119012 21.1238 0.402075ZM20.2613 7.84574C20.2613 8.63325 20.3096 8.94509 20.485 9.28895C20.7366 9.78206 21.3769 10.1751 21.9283 10.1751C22.4798 10.1751 23.12 9.78206 23.3717 9.28895C23.547 8.94509 23.5954 8.63325 23.5954 7.84574V6.84107H27.763H31.9306V7.84574C31.9306 9.08368 32.1533 9.61291 32.8168 9.95143C33.3722 10.2348 33.823 10.2348 34.3785 9.95143C35.0419 9.61291 35.2647 9.08368 35.2647 7.84574V6.84107H39.4878H43.711V7.84574C43.711 8.63325 43.7593 8.94509 43.9347 9.28895C44.1863 9.78206 44.8266 10.1751 45.378 10.1751C45.9295 10.1751 46.5697 9.78206 46.8213 9.28895C46.9967 8.94509 47.0451 8.63325 47.0451 7.84574V6.84107H50.3791H53.7132V10.1751V13.5092H33.5976H13.482V10.1751V6.84107H16.8717H20.2613V7.84574ZM53.6694 17.4268C53.6365 17.7476 53.5803 18.4353 53.5444 18.9549C53.5086 19.4744 53.3791 20.5997 53.2568 21.4554C52.2461 28.5211 49.5305 34.8124 45.5452 39.3205L44.7838 40.1818H25.1802H5.57646L5.96088 39.7095C7.33797 38.0176 9.41765 34.2491 10.5148 31.4577C12.0266 27.611 13.0447 23.0826 13.3132 19.0105C13.3495 18.4603 13.4059 17.7476 13.4386 17.4268L13.498 16.8433H33.6136H53.7292L53.6694 17.4268ZM53.7132 39.6817V46.85H33.5976H13.482V45.183V43.5159H29.6012C48.3043 43.5159 45.9667 43.7147 47.6107 41.9842C49.544 39.9495 51.2622 37.4059 52.7469 34.3812C53.2478 33.3609 53.6702 32.5231 53.6854 32.5197C53.7007 32.5162 53.7132 35.7392 53.7132 39.6817Z" fill="white"/>
<path d="M16.0117 23.5799H19.9516V27.5198H16.0117V23.5799Z" fill="white"/>
<path d="M22.7395 23.5799H26.6794V27.5198H22.7395V23.5799Z" fill="white"/>
<path d="M29.4673 23.5799H33.4072V27.5198H29.4673V23.5799Z" fill="white"/>
<path d="M36.1951 23.5799H40.135V27.5198H36.1951V23.5799Z" fill="white"/>
<path d="M42.9228 23.5799H46.8628V27.5198H42.9228V23.5799Z" fill="white"/>
<path d="M16.0117 30.2659H19.9516V34.2059H16.0117V30.2659Z" fill="white"/>
<path d="M22.7395 30.2659H26.6794V34.2059H22.7395V30.2659Z" fill="white"/>
<path d="M29.4673 30.2659H33.4072V34.2059H29.4673V30.2659Z" fill="white"/>
<path d="M36.1951 30.2659H40.135V34.2059H36.1951V30.2659Z" fill="white"/>
<path d="M42.9228 30.2659H46.8628V34.2059H42.9228V30.2659Z" fill="white"/>
</svg>
