<svg width="214" height="188" viewBox="0 0 214 188" fill="none" xmlns="http://www.w3.org/2000/svg">
<path d="M163.439 115.098C163.222 114.433 161.576 114.726 161.418 114.131C161.26 113.539 162.84 113.042 164.051 111.373C164.27 111.072 165.646 109.175 165.118 108.377C164.117 106.865 157.154 110.631 155.483 108.518C155.116 108.054 154.965 107.258 153.872 105.776C153.437 105.186 153.158 104.901 152.825 104.91C152.352 104.922 152.183 105.513 151.44 106.585C150.325 108.192 149.923 107.99 149.189 109.307C148.644 110.284 148.579 110.909 148.186 110.946C147.63 110.998 147.4 109.781 146.721 109.734C146.027 109.685 145.333 110.888 144.989 111.827C144.344 113.59 144.743 114.938 144.832 116.281C144.928 117.74 144.702 119.877 143.116 122.619L128.16 146.448C131.372 141.59 140.49 128.343 144.163 123.484C145.224 122.082 146.363 120.673 148.117 120.408C149.806 120.153 151.861 120.989 154.729 120.94C155.064 120.934 155.996 120.907 156.223 120.412C156.411 120.004 155.945 119.649 156.114 119.265C156.342 118.75 157.363 118.971 158.756 118.629C159.738 118.388 160.405 117.989 160.979 117.646C161.152 117.543 163.728 115.982 163.439 115.098L163.439 115.098V115.098Z" fill="#F2F2F2"/>
<path d="M124.265 120.661C123.876 120.576 123.544 121.468 123.207 121.374C122.871 121.28 123.083 120.362 122.613 119.286C122.528 119.092 121.995 117.869 121.451 117.897C120.42 117.952 120.259 122.457 118.74 122.667C118.406 122.714 117.972 122.558 116.929 122.667C116.514 122.71 116.294 122.765 116.202 122.931C116.071 123.166 116.313 123.42 116.624 124.094C117.092 125.104 116.876 125.244 117.311 125.984C117.633 126.533 117.921 126.745 117.826 126.949C117.691 127.237 117.027 126.999 116.808 127.318C116.584 127.645 116.974 128.333 117.336 128.772C118.015 129.598 118.792 129.791 119.477 130.135C120.221 130.508 121.204 131.236 122.092 132.805L129.472 147.022C128.015 144.044 124.144 135.746 122.819 132.541C122.437 131.616 122.074 130.65 122.45 129.713C122.812 128.81 123.815 128.043 124.619 126.621C124.713 126.455 124.968 125.99 124.791 125.736C124.645 125.526 124.336 125.652 124.197 125.458C124.009 125.198 124.413 124.76 124.646 123.978C124.811 123.427 124.808 122.984 124.806 122.604C124.805 122.489 124.782 120.774 124.265 120.661L124.265 120.661Z" fill="#F2F2F2"/>
<path d="M131.628 124.13L131.86 121.988L132.002 121.853C132.66 121.231 133.072 120.572 133.226 119.894C133.251 119.786 133.27 119.677 133.29 119.566C133.367 119.125 133.462 118.578 133.886 118.009C134.123 117.692 134.749 116.976 135.396 117.227C135.57 117.292 135.688 117.405 135.77 117.525C135.79 117.504 135.811 117.483 135.834 117.461C136.113 117.19 136.309 117.09 136.497 116.994C136.641 116.921 136.791 116.845 137.043 116.643C137.154 116.554 137.243 116.474 137.318 116.407C137.545 116.205 137.835 115.968 138.232 116.062C138.653 116.177 138.798 116.579 138.894 116.845C139.065 117.319 139.117 117.646 139.152 117.862C139.165 117.941 139.179 118.03 139.191 118.059C139.283 118.292 140.44 118.352 140.876 118.377C141.855 118.43 142.702 118.476 142.906 119.146C143.052 119.626 142.747 120.149 141.974 120.742C141.733 120.927 141.492 121.054 141.283 121.149C141.412 121.271 141.514 121.437 141.521 121.663C141.535 122.198 140.986 122.608 139.89 122.885C139.618 122.955 139.252 123.047 138.772 123.023C138.547 123.012 138.349 122.978 138.18 122.945C138.155 123.041 138.109 123.141 138.026 123.236C137.782 123.515 137.388 123.586 136.853 123.429C136.263 123.264 135.796 123.041 135.385 122.844C135.025 122.673 134.715 122.526 134.455 122.486C133.971 122.419 133.52 122.717 132.98 123.115L131.628 124.13H131.628V124.13Z" fill="#F2F2F2"/>
<path d="M135.488 111.93L133.358 112.249L133.191 112.145C132.423 111.666 131.681 111.435 130.985 111.458C130.875 111.461 130.764 111.471 130.652 111.48C130.207 111.517 129.653 111.564 128.995 111.298C128.629 111.149 127.777 110.725 127.855 110.036C127.874 109.851 127.954 109.708 128.049 109.598C128.024 109.584 127.998 109.569 127.971 109.553C127.637 109.351 127.492 109.188 127.351 109.03C127.243 108.909 127.132 108.784 126.873 108.59C126.759 108.506 126.659 108.44 126.575 108.385C126.322 108.217 126.019 107.996 126.009 107.588C126.014 107.151 126.366 106.91 126.599 106.749C127.014 106.463 127.317 106.33 127.517 106.241C127.59 106.209 127.673 106.172 127.698 106.154C127.899 106.006 127.664 104.871 127.578 104.444C127.381 103.483 127.21 102.652 127.807 102.285C128.234 102.022 128.817 102.184 129.587 102.781C129.827 102.967 130.011 103.168 130.156 103.347C130.242 103.191 130.376 103.049 130.593 102.986C131.107 102.837 131.643 103.263 132.189 104.253C132.325 104.499 132.507 104.83 132.606 105.3C132.652 105.521 132.669 105.721 132.681 105.892C132.78 105.892 132.888 105.911 133.001 105.968C133.333 106.133 133.502 106.496 133.485 107.053C133.476 107.666 133.378 108.174 133.292 108.622C133.217 109.013 133.154 109.35 133.182 109.612C133.239 110.097 133.642 110.457 134.164 110.879L135.488 111.93H135.488Z" fill="#F2F2F2"/>
<path d="M135.775 105.532L136.007 103.39L136.15 103.256C136.808 102.634 137.22 101.974 137.374 101.296C137.399 101.188 137.418 101.079 137.437 100.968C137.514 100.528 137.61 99.9802 138.033 99.4116C138.27 99.0948 138.897 98.3788 139.544 98.6289C139.718 98.6943 139.836 98.8074 139.918 98.9273C139.938 98.9065 139.959 98.8857 139.982 98.8632C140.261 98.5919 140.456 98.4925 140.644 98.3967C140.789 98.3231 140.938 98.2473 141.191 98.0452C141.302 97.9566 141.391 97.8768 141.465 97.8098C141.692 97.6073 141.982 97.3701 142.38 97.464C142.801 97.5792 142.946 97.9811 143.041 98.2471C143.212 98.7217 143.265 99.048 143.3 99.2644C143.313 99.3435 143.327 99.4325 143.338 99.4615C143.43 99.6939 144.588 99.754 145.023 99.7791C146.002 99.8322 146.85 99.8782 147.053 100.549C147.2 101.028 146.895 101.551 146.122 102.144C145.881 102.329 145.64 102.456 145.43 102.552C145.559 102.674 145.662 102.84 145.668 103.065C145.683 103.6 145.134 104.011 144.038 104.287C143.766 104.357 143.399 104.449 142.92 104.426C142.694 104.415 142.496 104.38 142.328 104.348C142.303 104.444 142.257 104.544 142.173 104.638C141.93 104.918 141.536 104.989 141.001 104.831C140.411 104.667 139.944 104.443 139.533 104.246C139.173 104.075 138.863 103.929 138.603 103.889C138.119 103.821 137.668 104.12 137.128 104.517L135.775 105.532H135.775V105.532Z" fill="#F2F2F2"/>
<path d="M128.867 146.57L128.49 146.198L128.497 145.669L128.49 146.198L127.967 146.142C127.969 146.093 127.966 145.978 127.962 145.798C127.942 144.813 127.879 141.814 128.297 137.207C128.588 133.99 129.075 130.726 129.745 127.501C130.415 124.272 131.111 121.869 131.67 119.938C132.092 118.482 132.517 117.1 132.933 115.755C134.042 112.159 135.089 108.763 135.738 104.889C135.883 104.024 136.184 102.224 135.567 100.1C135.209 98.8675 134.596 97.7076 133.745 96.6534L134.569 95.9878C135.509 97.1527 136.186 98.4373 136.584 99.8054C137.268 102.161 136.94 104.123 136.782 105.065C136.122 109.007 135.064 112.436 133.944 116.066C133.531 117.407 133.107 118.782 132.687 120.233C132.133 122.146 131.443 124.528 130.782 127.716C130.12 130.901 129.639 134.126 129.35 137.302C128.938 141.851 129 144.805 129.021 145.776C129.031 146.294 129.033 146.402 128.867 146.57V146.57Z" fill="#F2F2F2"/>
<path d="M131.484 97.8727C131.441 97.8632 131.399 97.8527 131.356 97.84C130.487 97.5963 129.789 96.8879 129.283 95.7348C129.046 95.1926 128.99 94.6219 128.878 93.4839C128.861 93.3084 128.783 92.4205 128.879 91.2438C128.94 90.4748 129.023 90.166 129.232 89.9235C129.465 89.6534 129.778 89.4986 130.109 89.421C130.118 89.3192 130.151 89.2196 130.217 89.1253C130.489 88.7337 130.945 88.8946 131.192 88.9784C131.316 89.0231 131.472 89.0799 131.646 89.1093C131.92 89.1568 132.084 89.1085 132.332 89.0368C132.569 88.9679 132.865 88.8822 133.272 88.8895C134.077 88.9005 134.672 89.2622 134.869 89.3812C135.903 90.0027 136.26 90.9943 136.674 92.1425C136.756 92.3726 137.028 93.2045 137.092 94.2757C137.138 95.0485 137.036 95.3649 136.92 95.5911C136.683 96.0561 136.32 96.2717 135.419 96.7252C134.477 97.2004 134.004 97.4382 133.617 97.5605C132.716 97.8435 132.15 98.0212 131.484 97.8727L131.484 97.8727H131.484Z" fill="#F2F2F2"/>
<path d="M36.5814 93.5044C35.8829 93.475 35.5803 95.1193 34.9682 95.0592C34.3582 94.9992 34.4463 93.3458 33.3072 91.6264C33.1018 91.3163 31.8073 89.3624 30.875 89.5775C29.108 89.9853 30.1969 97.8268 27.6317 98.652C27.0687 98.8332 26.27 98.6956 24.4991 99.2C23.7946 99.4007 23.4303 99.5623 23.3215 99.8774C23.167 100.324 23.6619 100.69 24.4052 101.762C25.52 103.368 25.1901 103.674 26.1662 104.823C26.8909 105.676 27.4532 105.955 27.35 106.336C27.204 106.876 25.9836 106.665 25.7014 107.285C25.4133 107.917 26.2966 108.989 27.056 109.64C28.4812 110.862 29.8834 110.96 31.1723 111.347C32.573 111.768 34.4948 112.728 36.5077 115.174L53.589 137.53C50.1639 132.82 40.9498 119.639 37.6853 114.497C36.7429 113.012 35.8228 111.451 36.189 109.715C36.5416 108.044 38.0439 106.412 39.0029 103.709C39.1149 103.393 39.4155 102.51 39.0321 102.125C38.7152 101.806 38.2195 102.118 37.9192 101.825C37.5164 101.431 38.0812 100.552 38.2486 99.1276C38.3666 98.1234 38.227 97.359 38.107 96.7016C38.0708 96.5034 37.5114 93.5434 36.5815 93.5044L36.5814 93.5044H36.5814Z" fill="#F2F2F2"/>
<path d="M28.0712 132.146C27.8553 132.48 28.575 133.103 28.3689 133.386C28.1635 133.668 27.3773 133.148 26.2048 133.211C25.9934 133.222 24.6608 133.294 24.4974 133.814C24.1877 134.798 28.3505 136.527 28.0154 138.024C27.9419 138.352 27.6439 138.705 27.3806 139.719C27.2758 140.123 27.25 140.348 27.3732 140.493C27.5481 140.698 27.8703 140.56 28.6107 140.504C29.7209 140.421 29.776 140.671 30.6215 140.524C31.2492 140.414 31.5485 140.219 31.7057 140.379C31.9283 140.606 31.4726 141.144 31.6955 141.462C31.9229 141.786 32.7035 141.661 33.2423 141.477C34.2533 141.13 34.7058 140.47 35.2678 139.949C35.8786 139.383 36.9043 138.717 38.6855 138.434L54.5864 136.501C51.2864 136.823 42.1588 137.543 38.6928 137.661C37.6922 137.695 36.6607 137.696 35.9144 137.016C35.1959 136.361 34.8284 135.152 33.7783 133.902C33.6556 133.756 33.309 133.353 33.0093 133.43C32.7614 133.494 32.7713 133.827 32.5408 133.89C32.2316 133.974 31.9628 133.443 31.3122 132.95C30.8533 132.602 30.4379 132.45 30.0806 132.32C29.9729 132.28 28.3587 131.701 28.0712 132.146L28.0712 132.146H28.0712Z" fill="#F2F2F2"/>
<path d="M33.8992 126.465L31.9743 125.497L31.8981 125.317C31.546 124.482 31.0729 123.866 30.4916 123.483C30.3992 123.423 30.3037 123.367 30.2064 123.309C29.8209 123.083 29.3417 122.802 28.9574 122.206C28.7437 121.873 28.2926 121.035 28.7532 120.517C28.8756 120.377 29.0228 120.306 29.1638 120.271C29.1515 120.245 29.1394 120.218 29.1262 120.189C28.9698 119.832 28.9452 119.615 28.9214 119.405C28.903 119.244 28.8844 119.077 28.7836 118.77C28.7394 118.635 28.6958 118.524 28.6592 118.43C28.549 118.147 28.4285 117.792 28.6556 117.453C28.9111 117.098 29.3381 117.104 29.6208 117.107C30.1252 117.113 30.4494 117.178 30.6643 117.221C30.7428 117.237 30.8313 117.255 30.8622 117.255C31.1122 117.25 31.5739 116.187 31.75 115.787C32.1427 114.889 32.4825 114.112 33.1817 114.156C33.6821 114.187 34.0653 114.655 34.3503 115.587C34.4388 115.877 34.4738 116.148 34.4895 116.377C34.6489 116.299 34.8403 116.261 35.0542 116.334C35.5601 116.508 35.7524 117.166 35.6276 118.289C35.5973 118.569 35.5552 118.944 35.3655 119.385C35.276 119.593 35.1743 119.766 35.085 119.912C35.1662 119.97 35.2436 120.048 35.3033 120.159C35.4794 120.485 35.4079 120.879 35.0731 121.325C34.7123 121.82 34.3394 122.179 34.011 122.495C33.7247 122.772 33.4789 123.011 33.3503 123.241C33.1175 123.67 33.2393 124.197 33.4225 124.842L33.8992 126.465L33.8992 126.465Z" fill="#F2F2F2"/>
<path d="M23.8252 118.575L23.3776 120.682L23.2224 120.802C22.5045 121.354 22.0281 121.968 21.8058 122.627C21.7704 122.732 21.7404 122.839 21.7098 122.947C21.5886 123.377 21.438 123.912 20.9593 124.435C20.6915 124.726 19.9954 125.375 19.3776 125.061C19.2106 124.978 19.1049 124.854 19.0357 124.726C19.0131 124.745 18.9901 124.763 18.9655 124.783C18.6602 125.025 18.4558 125.104 18.2589 125.18C18.1076 125.239 17.9514 125.299 17.6795 125.475C17.5603 125.552 17.4639 125.622 17.3827 125.681C17.1366 125.86 16.8239 126.066 16.438 125.933C16.0306 125.775 15.9275 125.361 15.8591 125.087C15.7369 124.597 15.7175 124.267 15.7047 124.048C15.7002 123.968 15.6947 123.878 15.6867 123.849C15.6185 123.608 14.473 123.431 14.0423 123.362C13.0737 123.21 12.2355 123.078 12.1007 122.391C12.0038 121.899 12.3599 121.41 13.1891 120.897C13.4474 120.738 13.6998 120.636 13.9182 120.562C13.8022 120.428 13.7167 120.253 13.7333 120.027C13.7734 119.494 14.3607 119.141 15.479 118.976C15.757 118.935 16.1308 118.88 16.6054 118.952C16.8288 118.986 17.0221 119.04 17.1866 119.09C17.2213 118.997 17.2773 118.902 17.3695 118.816C17.6405 118.563 18.0396 118.532 18.5557 118.743C19.1263 118.966 19.5677 119.236 19.9573 119.473C20.2976 119.68 20.5912 119.857 20.8459 119.923C21.3203 120.04 21.7993 119.788 22.3767 119.447L23.8252 118.575L23.8252 118.575H23.8252Z" fill="#F2F2F2"/>
<path d="M17.9329 116.065L16.008 115.098L15.9318 114.917C15.5797 114.083 15.1066 113.466 14.5253 113.084C14.4329 113.023 14.3374 112.967 14.2401 112.91C13.8546 112.684 13.3754 112.402 12.9911 111.807C12.7774 111.474 12.3262 110.636 12.7869 110.118C12.9093 109.977 13.0565 109.907 13.1975 109.872C13.1852 109.845 13.1731 109.819 13.1599 109.79C13.0035 109.433 12.9788 109.215 12.9551 109.005C12.9367 108.844 12.918 108.678 12.8173 108.37C12.7731 108.235 12.7295 108.124 12.6929 108.031C12.5827 107.747 12.4621 107.393 12.6893 107.053C12.9448 106.699 13.3717 106.704 13.6545 106.708C14.1589 106.714 14.4831 106.779 14.698 106.822C14.7764 106.838 14.8649 106.855 14.8959 106.855C15.1459 106.85 15.6076 105.787 15.7837 105.388C16.1764 104.49 16.5162 103.712 17.2154 103.756C17.7158 103.787 18.099 104.256 18.3839 105.188C18.4725 105.478 18.5075 105.748 18.5231 105.978C18.6826 105.9 18.874 105.862 19.0878 105.935C19.5938 106.109 19.786 106.767 19.6613 107.89C19.631 108.17 19.5889 108.545 19.3992 108.986C19.3097 109.193 19.208 109.366 19.1187 109.513C19.1999 109.57 19.2773 109.648 19.3369 109.759C19.513 110.086 19.4416 110.48 19.1068 110.925C18.746 111.421 18.3731 111.779 18.0447 112.096C17.7583 112.373 17.5126 112.612 17.384 112.841C17.1512 113.271 17.273 113.798 17.4562 114.443L17.9329 116.065L17.9329 116.065H17.9329Z" fill="#F2F2F2"/>
<path d="M53.9509 136.91L53.4704 137.133L52.9772 136.941L53.4704 137.133L53.2352 137.604C53.19 137.584 53.0809 137.547 52.9111 137.488C51.9812 137.161 49.1505 136.17 44.9812 134.165C42.0708 132.765 39.1835 131.165 36.398 129.409C33.6083 127.65 31.6015 126.156 29.9884 124.956C28.7719 124.051 27.627 123.169 26.5121 122.308C23.533 120.01 20.7188 117.839 17.3175 115.875C16.5584 115.436 14.9779 114.523 12.7717 114.357C11.4921 114.261 10.191 114.429 8.90532 114.857L8.57056 113.852C9.99084 113.38 11.4314 113.195 12.8522 113.302C15.2983 113.486 17.0204 114.481 17.8479 114.959C21.3092 116.958 24.1504 119.149 27.158 121.47C28.2691 122.327 29.4088 123.206 30.6205 124.107C32.2185 125.296 34.2079 126.776 36.9619 128.513C39.7139 130.248 42.566 131.828 45.4396 133.211C49.5564 135.19 52.345 136.167 53.2611 136.488C53.7501 136.66 53.8526 136.696 53.9509 136.91L53.9509 136.91L53.9509 136.91Z" fill="#F2F2F2"/>
<path d="M9.25511 117.402C9.23141 117.438 9.20657 117.474 9.17971 117.51C8.64701 118.239 7.73926 118.644 6.48183 118.714C5.89093 118.746 5.33682 118.599 4.23176 118.305C4.06124 118.26 3.20251 118.021 2.13365 117.52C1.4351 117.193 1.17479 117.007 1.02096 116.726C0.849302 116.414 0.814047 116.066 0.857177 115.729C0.764952 115.685 0.68338 115.619 0.618138 115.524C0.346709 115.132 0.657007 114.762 0.82201 114.56C0.90752 114.459 1.01514 114.333 1.10382 114.18C1.24433 113.94 1.25655 113.769 1.27615 113.512C1.29474 113.266 1.31784 112.959 1.46747 112.58C1.75966 111.83 2.307 111.399 2.48726 111.257C3.43175 110.506 4.48563 110.518 5.70583 110.533C5.95016 110.537 6.82479 110.573 7.85037 110.889C8.59028 111.117 8.85112 111.322 9.0223 111.51C9.37479 111.895 9.44949 112.311 9.55858 113.314C9.67388 114.363 9.73113 114.889 9.70994 115.294C9.65925 116.238 9.62744 116.83 9.25508 117.402L9.2551 117.402H9.25511Z" fill="#F2F2F2"/>
<path d="M21.3682 147.67C21.3682 147.84 21.6058 147.976 21.9018 147.976H191.888C192.184 147.976 192.421 147.84 192.421 147.67C192.421 147.501 192.184 147.365 191.888 147.365H21.9018C21.6058 147.365 21.3682 147.501 21.3682 147.67Z" fill="#CCCCCC"/>
<path d="M85.0642 47.3759C89.5949 47.3759 93.2677 43.703 93.2677 39.1723C93.2677 34.6416 89.5949 30.9688 85.0642 30.9688C80.5335 30.9688 76.8606 34.6416 76.8606 39.1723C76.8606 43.703 80.5335 47.3759 85.0642 47.3759Z" fill="#FF6884"/>
<path d="M122.05 146.294C122.096 146.687 122.11 147.052 122.083 147.411H102.353C102.173 147.052 102.02 146.68 101.887 146.294C99.475 139.363 103.442 127.826 98.4118 110.721C94.677 98.0279 87.7058 88.0995 84.4562 83.4743C80.4622 77.7857 75.9366 72.5357 70.6933 64.1491C69.5569 62.3349 68.3873 60.3678 67.1778 58.2213C66.7724 57.5035 62.1006 49.1767 62.5259 48.9175C62.7253 48.7979 63.9614 50.4792 64.38 51.0441C68.0749 56.0415 70.2215 58.2279 73.2984 61.8231C75.1657 64.0029 77.3721 66.6943 80.4689 70.8478C88.4103 81.4873 92.3776 86.8037 93.7599 90.7843C94.1254 91.8476 96.0725 97.6027 99.7409 104.74C101.615 108.382 102.552 110.203 103.064 110.056C104.512 109.638 102.559 94.559 96.4181 79.487C95.3681 76.9218 94.584 75.2803 93.0954 72.1769C90.6764 67.113 77.2059 38.9692 67.3041 22.1228C66.0614 20.0029 64.8718 18.069 63.7753 16.3744C63.5626 16.0554 63.3566 15.743 63.1573 15.444C61.775 13.3839 60.5522 11.7557 59.5355 10.7058C58.9972 10.1475 57.6282 8.56588 54.8836 5.38934C53.7937 4.12668 52.9962 3.18968 52.458 2.50517C52.3782 2.40551 52.3051 2.30581 52.2453 2.21942C51.594 1.36881 51.408 0.956749 51.5608 0.737476C51.7801 0.425115 52.6241 0.604559 53.5478 0.930181C53.6475 0.963402 53.7538 1.00327 53.8535 1.04314C54.857 1.41529 55.8738 1.90044 56.2127 2.06658C59.3228 3.56182 62.3598 6.23995 65.1708 9.42318C66.2142 10.5994 67.2177 11.8421 68.1879 13.1181C71.3113 17.2383 74.036 21.724 76.0961 25.4123C78.6214 29.9578 80.1366 33.3006 80.1366 33.3006C87.1875 48.871 95.0093 66.681 95.4213 66.5282C95.8732 66.362 87.2008 44.1926 84.6755 32.1508C83.8315 28.117 83.6787 25.2196 84.7884 24.6614C84.8283 24.6414 84.8682 24.6215 84.9147 24.6082C85.0875 24.5484 85.247 24.555 85.3334 24.5617C85.3334 24.5617 86.3634 24.4288 87.4467 24.6614C88.7957 24.9538 90.3308 28.7085 91.8261 33.9784C95.7137 47.5618 99.4086 71.18 99.4086 71.18C103.104 94.8049 108.712 113.924 110.041 113.711C110.779 113.592 109.722 107.657 110.706 97.7621C111.397 90.8242 112.181 91.0369 114.693 78.4901C118.681 58.5868 120.674 48.6384 120.674 48.5853C120.654 48.1666 120.601 47.3226 120.727 46.4454C120.86 45.4951 121.199 44.4982 122.003 43.9334C123.226 43.0695 125.193 43.4416 125.991 43.9334C126.629 44.3321 126.954 45.0631 127.027 46.1131C127.466 52.7188 117.976 71.8712 114.693 97.7621C113.058 110.661 112.161 117.699 114.693 127.002C117.199 136.226 121.565 142.101 122.05 146.294L122.05 146.294Z" fill="#CCCCCC"/>
<path d="M154.863 144.26L156.537 139.095L171.786 145.78L170.653 149.28L154.863 144.26Z" fill="#A0616A"/>
<path d="M167.053 143.438L167.172 145.503L168.237 145.914C168.237 145.914 166.842 145.859 165.691 148.027L166.617 148.698C166.617 148.698 167.286 149.972 169.174 150.532L174.298 151.856L174.924 150.127L171.622 148.526C171.622 148.526 171.032 147.754 175.552 147.007C175.552 147.007 177.078 146.678 177.275 142.486C177.302 141.91 176.964 141.371 176.423 141.169C176.125 141.057 175.806 141.067 175.563 141.401C174.945 142.25 174.903 143.299 173.91 143.617C172.917 143.935 167.053 143.438 167.053 143.438H167.053Z" fill="#2F2E41"/>
<path d="M145.497 155.609L147.554 150.585L162.258 158.398L160.864 161.802L145.497 155.609Z" fill="#A0616A"/>
<path d="M157.715 155.706L157.678 157.775L158.708 158.265C158.708 158.265 157.321 158.105 156.01 160.18L156.883 160.92C156.883 160.92 157.455 162.24 159.296 162.94L164.305 164.646L165.06 162.969L161.888 161.124C161.888 161.124 161.357 160.31 165.921 159.905C165.921 159.905 167.467 159.692 167.979 155.526C168.049 154.954 167.752 154.391 167.229 154.149C166.94 154.015 166.621 154.001 166.353 154.315C165.673 155.116 165.553 156.158 164.538 156.401C163.524 156.643 157.715 155.706 157.715 155.706Z" fill="#2F2E41"/>
<path d="M118.866 101.29C119.452 101.856 120.96 100.619 121.016 101.431C121.072 102.244 119.675 105.099 119.172 105.739C118.922 106.058 118.616 106.329 118.368 106.649C118.121 106.97 117.93 107.363 117.97 107.766C118.038 108.467 118.747 108.931 118.986 109.594C119.263 110.366 118.851 111.201 118.441 111.911C118.088 112.524 117.721 113.14 117.218 113.638C116.716 114.136 116.057 114.511 115.35 114.535C114.45 114.564 113.634 114.036 112.916 113.492C112.226 112.97 111.555 112.407 111.032 111.717C110.509 111.026 110.139 110.195 110.12 109.33C110.096 108.244 110.626 107.201 111.367 106.408C112.109 105.614 113.05 105.038 113.999 104.509C115.597 103.619 117.254 102.836 118.957 102.167" fill="#2F2E41"/>
<path d="M115.834 111.025C118.68 111.025 120.987 108.718 120.987 105.872C120.987 103.027 118.68 100.72 115.834 100.72C112.989 100.72 110.682 103.027 110.682 105.872C110.682 108.718 112.989 111.025 115.834 111.025Z" fill="#A0616A"/>
<path d="M123.37 120.458L128.723 129.602L138.744 134.899L136.14 137.316L126.4 133.641L119.654 124.977L120.2 120.762L123.37 120.458Z" fill="#A0616A"/>
<path d="M112.346 111.73L117.001 112.948L116.935 115.184L120.88 121.925C120.88 121.925 124.613 126.204 121.407 129.308L123.366 131.51L110.089 137.05L104.253 120.597L109.576 114.245L112.346 111.73V111.73Z" fill="#FFCA2C"/>
<path d="M116.103 115.67C116.103 115.67 118.914 112.462 121.095 115.427C123.277 118.391 124.364 121.773 124.364 121.773L119.216 124.229L116.103 115.67Z" fill="#FFCA2C"/>
<path d="M109.089 136.295C109.089 136.295 120.694 129.614 123.06 130.796L127.527 136.33L131.722 136.442L150.007 134.535L159.076 140.075L155.227 144.561L148.982 141.519L139.713 144.798C139.713 144.798 143.093 145.189 143.201 147.47L150.397 151.183L145.356 155.919L135.565 150.824C135.565 150.824 118.787 149.826 113.579 144.164C108.372 138.502 109.089 136.295 109.089 136.295V136.295Z" fill="#2F2E41"/>
<path d="M112.565 109.816L113.325 108.255C113.325 108.255 119.066 102.997 120.732 104.7L120.923 106.933C120.923 106.933 121.949 106.779 121.635 105.288C121.321 103.798 121.925 104.449 121.925 104.449C121.925 104.449 123.249 104.232 122.269 103.131C121.29 102.03 121.28 99.9151 117.932 100.87C116.073 101.401 113.748 102.548 112.048 103.463C110.141 104.49 109.554 107.01 110.898 108.709C111.3 109.217 111.84 109.627 112.565 109.816V109.816Z" fill="#2F2E41"/>
<path d="M142.127 139.393C142.851 138.37 142.153 136.633 140.568 135.511C138.983 134.39 137.112 134.309 136.389 135.332C135.665 136.354 136.363 138.092 137.948 139.214C139.533 140.335 141.404 140.415 142.127 139.393Z" fill="#A0616A"/>
<path d="M131.051 111.45L131.564 112.991H131.051C131.051 112.991 131.693 116.459 129.638 116.972C127.583 117.486 125.687 114.211 125.687 114.211L124.758 114.661C124.758 114.661 125.528 118.513 122.703 119.027C119.877 119.541 118.85 116.202 118.85 116.202L112.171 116.715L112.428 114.661L118.478 115.265C118.478 115.265 118.336 113.633 121.932 113.376L127.069 112.349L131.051 111.45Z" fill="#2F2E41"/>
<path d="M109.667 119.549L109.505 122.323L118.425 119.446L118.499 122.259L107.849 129.733C107.849 129.733 104.752 125.338 104.386 123.817C104.02 122.297 104.211 119.953 104.211 119.953L109.667 119.549Z" fill="#A0616A"/>
<path d="M111.006 114.971C111.006 114.971 107.867 111.897 106.22 114.423C104.574 116.95 103.7 121.368 103.7 121.368L110.217 120.679L111.006 114.971Z" fill="#FFCA2C"/>
<path d="M108.173 112.21C108.902 114.174 108.961 116.38 108.337 118.38C109.823 118.086 111.067 116.969 111.745 115.614C112.423 114.259 112.586 112.693 112.46 111.183L112.456 111.138C112.26 108.869 113.553 106.729 115.677 105.907C117.109 105.351 118.439 104.533 119.568 103.491C120.205 102.903 120.822 102.118 120.685 101.262C120.558 100.472 119.84 99.9312 119.157 99.5162C117.597 98.5686 115.875 97.811 114.055 97.6766C112.236 97.5422 110.303 98.1035 109.074 99.452C107.844 100.8 107.501 102.99 108.53 104.497C108.075 104.523 107.661 104.89 107.582 105.34C107.502 105.789 107.765 106.276 108.184 106.457C107.902 106.372 107.636 106.703 107.668 106.996C107.699 107.289 107.918 107.523 108.132 107.725C108.437 108.013 108.778 108.321 108.646 108.832C108.593 109.037 108.468 109.217 108.305 109.352C107.91 109.68 107.395 109.74 106.901 109.793C107.779 110.322 108.315 111.371 108.23 112.392" fill="#2F2E41"/>
<path d="M120.507 121.52C121.872 120.139 122.256 118.306 121.365 117.426C120.474 116.545 118.645 116.951 117.281 118.332C115.916 119.713 115.532 121.546 116.423 122.427C117.314 123.307 119.143 122.901 120.507 121.52Z" fill="#A0616A"/>
<path d="M196.857 55.2674C196.118 55.6828 194.925 54.0396 194.654 54.8433C194.384 55.6471 195.039 58.8904 195.377 59.6682C195.545 60.0548 195.782 60.4084 195.947 60.7964C196.112 61.1844 196.2 61.6305 196.054 62.0261C195.801 62.7144 194.964 62.9945 194.549 63.5995C194.066 64.3042 194.261 65.2533 194.487 66.0773C194.682 66.7876 194.889 67.5042 195.264 68.1382C195.639 68.7721 196.204 69.3242 196.91 69.5339C197.808 69.801 198.769 69.4836 199.636 69.1253C200.469 68.7808 201.293 68.3903 202.001 67.8329C202.71 67.2756 203.301 66.5358 203.549 65.669C203.859 64.5818 203.6 63.3919 203.062 62.3973C202.524 61.4027 201.728 60.5741 200.912 59.7918C199.537 58.4742 198.073 57.2488 196.535 56.1264" fill="#2F2E41"/>
<path d="M207.852 111.055L206.311 125.44C206.311 125.44 209.907 132.889 206.054 141.879L205.797 147.016L201.431 146.503L202.458 142.136L200.146 124.412L198.348 111.569L207.852 111.055Z" fill="#FFB6B6"/>
<path d="M195.523 110.798C195.523 110.798 196.55 122.1 194.495 128.008C194.495 128.008 195.523 136.999 192.697 146.503V153.579L188.074 152.667L188.33 126.21L187.046 111.826L195.523 110.798Z" fill="#FFB6B6"/>
<path d="M194.866 66.8079C196.168 68.4481 198.464 68.9235 200.316 67.9471C202.961 66.5535 206.572 64.9562 207.21 66.2325C208.238 68.2874 208.238 70.2817 208.238 70.2817L209.265 94.2308C209.265 94.2308 209.779 103.901 203.357 103.047C196.935 102.194 186.918 105.79 186.918 105.79L187.941 95.18L190.673 91.1799L191.78 79.7035L189.872 70.4708L192.183 69.4433C192.183 69.4433 192.44 67.6453 193.211 67.6453C193.982 67.6453 194.168 65.918 194.845 66.7816L194.866 66.8079Z" fill="#FFCA2C"/>
<path d="M208.366 93.8452L208.88 122.495C208.88 122.495 204.256 129.687 199.376 123.779L196.55 109.514L196.036 126.091C196.036 126.091 189.101 129.687 187.046 126.862L186.918 105.789L191.67 96.157L208.366 93.8452Z" fill="#2F2E41"/>
<path d="M205.949 143.989C205.949 143.989 207.595 145.218 207.082 146.759C206.568 148.3 202.715 154.208 199.376 153.438C196.037 152.667 197.578 150.869 197.578 150.869L201.431 145.218C201.431 145.218 202.972 145.475 203.743 145.989C204.513 146.502 205.949 143.989 205.949 143.989Z" fill="#2F2E41"/>
<path d="M192.697 151.383C192.697 151.383 195.523 154.208 193.982 155.493C192.44 156.777 181.909 157.804 182.166 156.263C182.423 154.722 187.817 150.355 187.817 150.355C187.817 150.355 189.358 149.842 189.872 151.126C190.385 152.41 192.697 151.383 192.697 151.383Z" fill="#2F2E41"/>
<path d="M198.704 66.0457C201.666 66.0457 204.068 63.644 204.068 60.6813C204.068 57.7186 201.666 55.3169 198.704 55.3169C195.741 55.3169 193.339 57.7186 193.339 60.6813C193.339 63.644 195.741 66.0457 198.704 66.0457Z" fill="#FFB6B6"/>
<path d="M204.751 69.0826C203.499 70.8687 202.859 73.0754 202.961 75.2543C201.541 74.5666 200.583 73.1137 200.257 71.5704C199.931 70.0271 200.179 68.4066 200.703 66.9188C200.709 66.9039 200.714 66.8891 200.719 66.8742C201.515 64.641 200.776 62.1451 198.854 60.7569C197.558 59.8206 196.433 58.6458 195.571 57.2992C195.083 56.539 194.669 55.5854 195.033 54.7591C195.369 53.9977 196.235 53.6418 197.032 53.4037C198.852 52.86 200.786 52.5506 202.655 52.8947C204.523 53.2387 206.322 54.3132 207.205 55.9952C208.088 57.6773 207.856 59.9729 206.423 61.2199C206.875 61.366 207.195 61.8451 207.157 62.3187C207.118 62.7922 206.725 63.2135 206.256 63.2849C206.562 63.2741 206.743 63.6777 206.634 63.9641C206.524 64.2506 206.243 64.4286 205.974 64.5761C205.591 64.7861 205.166 65.0058 205.165 65.5558C205.164 65.7764 205.243 65.9904 205.371 66.1697C205.683 66.6041 206.185 66.7997 206.669 66.9834C205.646 67.2849 204.829 68.1998 204.646 69.251" fill="#2F2E41"/>
<path d="M203.179 99.2597C202 100.135 200.593 100.236 200.036 99.4861C199.479 98.7359 199.984 97.4185 201.163 96.5431C201.629 96.1869 202.174 95.9476 202.751 95.8451L207.792 92.1997L209.453 94.6017L204.307 97.9405C204.042 98.464 203.655 98.9164 203.179 99.2597Z" fill="#FFB6B6"/>
<path d="M206.355 69.5713C206.355 69.5713 210.421 69.6997 211.192 72.5252C211.962 75.3508 213.503 81.3732 213.246 89.7352C213.246 89.7352 214.531 95.1294 211.192 94.8725L206.568 96.9274L203.486 92.8176L206.054 89.7352L206.355 69.5713Z" fill="#FFCA2C"/>
<path d="M89.2725 160.626L85.4281 152.314L81.1633 154.459L83.5598 161.972L87.8369 164.061L89.2725 160.626Z" fill="#FFB6B6"/>
<path d="M58.931 136.842C59.2734 136.997 60.315 137.619 61.5956 137.409C62.4696 137.266 63.0567 136.8 63.2508 136.655C65.6589 134.851 72.9959 133.308 78.4903 135C79.7345 135.383 80.4912 135.811 81.0893 136.453C81.9373 137.364 82.0773 138.288 82.7526 140.575C83.1219 141.826 83.5886 143.046 83.9689 144.294C86.1954 151.599 87.6561 152.628 86.8327 154.425C85.9192 156.419 83.0062 157.586 81.6101 156.837C81.0383 156.531 80.9531 156.027 80.447 154.89C78.9631 151.556 77.8201 151.67 76.8113 149.162C75.6335 146.233 76.5466 144.475 75.545 144.039C74.6162 143.636 73.6523 145.07 70.8763 146.446C69.6061 147.076 68.7877 147.281 66.2733 147.966C56.4817 150.634 56.2205 150.973 54.4802 150.846C53.7188 150.79 48.3149 150.395 47.3217 147.624C45.7675 143.289 55.8454 135.452 58.931 136.842H58.931Z" fill="#2F2E41"/>
<path d="M86.9337 161.368C87.4479 161.326 88.0492 161.277 88.4059 160.8C88.6473 160.478 88.7406 160.008 88.6166 159.617C88.4735 159.165 88.0915 158.977 88.13 158.919C88.1885 158.832 89.1179 159.204 90.0231 159.936C90.1939 160.074 90.9641 160.711 91.7781 161.988C92.4303 163.012 92.259 163.11 92.6805 163.716C93.9746 165.577 95.9503 165.172 96.4754 166.673C96.678 167.252 96.6058 167.947 96.2698 168.411C95.5952 169.342 93.9789 169.172 93.0994 169.068C90.9811 168.818 89.6258 167.929 88.1688 167.119C83.2137 164.364 79.9662 164.123 80.0025 162.762C80.0094 162.504 80.1242 162.567 81.1314 161.015C82.1254 159.484 82.2751 159.02 82.6642 159.007C83.2498 158.987 83.2698 160.027 84.4537 160.8C85.5028 161.485 86.6005 161.395 86.9337 161.368Z" fill="#2F2E41"/>
<path d="M71.9045 177.026L73.391 167.989L68.6577 167.369L66.4219 174.931L68.7878 179.062L71.9045 177.026Z" fill="#FFB6B6"/>
<path d="M59.6401 140.308C59.8368 140.628 60.3495 141.728 61.527 142.273C62.3306 142.645 63.0777 142.59 63.32 142.579C66.3254 142.439 73.2631 145.281 76.8594 149.767C77.6738 150.782 78.0596 151.561 78.1938 152.429C78.384 153.658 77.9812 154.501 77.2557 156.773C76.8588 158.016 76.5595 159.288 76.1736 160.534C73.914 167.828 74.5448 169.5 72.8543 170.525C70.9787 171.662 67.9131 170.991 67.1782 169.588C66.8773 169.013 67.0894 168.549 67.3091 167.324C67.9534 163.732 66.9437 163.184 67.5175 160.542C68.1874 157.458 69.9305 156.515 69.3462 155.593C68.8043 154.737 67.2011 155.383 64.1314 154.963C62.7268 154.77 61.9343 154.481 59.4691 153.636C49.869 150.345 49.4627 150.478 48.0941 149.396C47.4953 148.922 43.1037 145.521 43.9796 142.711C47.9969 129.824 57.8679 137.425 59.6401 140.308Z" fill="#2F2E41"/>
<path d="M69.0392 176.327C69.4883 176.581 70.0135 176.878 70.5762 176.684C70.957 176.552 71.2981 176.216 71.4153 175.822C71.5506 175.368 71.3402 174.998 71.4042 174.972C71.5017 174.933 72.0621 175.762 72.3998 176.876C72.4635 177.087 72.7432 178.046 72.6996 179.56C72.6646 180.773 72.4677 180.758 72.4761 181.496C72.502 183.763 74.3643 184.537 73.9558 186.074C73.7982 186.667 73.3481 187.202 72.8098 187.397C71.7288 187.788 70.4869 186.74 69.8174 186.16C68.205 184.764 67.5827 183.267 66.832 181.779C64.2791 176.716 61.7269 174.694 62.5214 173.588C62.6717 173.379 62.7315 173.495 64.4362 172.777C66.1187 172.068 66.5032 171.768 66.8325 171.975C67.328 172.288 66.7606 173.16 67.3062 174.464C67.7896 175.62 68.7483 176.162 69.0393 176.327H69.0392Z" fill="#2F2E41"/>
<path d="M55.2101 97.3223L61.8134 96.8506L63.8573 100.152L69.989 101.882L67.7093 117.84L69.402 134.825C69.402 134.825 61.3418 140.401 60.7129 142.917C60.084 145.432 44.6763 140.401 44.6763 140.401L49.9432 124.129L49.4715 111.394L48.0565 104.004L54.5026 101.017L55.2101 97.3223H55.2101Z" fill="#3F3D56"/>
<path d="M52.2231 102.039C52.2231 102.039 46.9611 101.96 46.2511 104.161C45.5411 106.363 43.1828 121.613 43.1828 121.613L41.3748 128.295L49.4717 124.286L47.7422 121.617L53.4022 110.765L52.2231 102.039Z" fill="#3F3D56"/>
<path d="M55.4421 126.487C56.3121 126.488 57.121 125.986 57.4592 125.185C57.715 124.578 57.6909 123.997 57.4995 123.498C57.5611 123.473 57.6222 123.446 57.6852 123.423C57.5926 123.386 57.5025 123.344 57.4126 123.301C57.0991 122.676 56.4983 122.223 55.7826 122.113C54.8961 121.163 54.3512 119.891 54.3455 118.491C54.3338 115.604 56.675 113.194 59.5603 113.124C59.583 113.124 59.6057 113.124 59.6284 113.123C60.9204 113.108 62.0924 113.831 62.747 114.945C63.129 115.595 63.8348 116.032 64.6435 116.032C65.2626 116.032 65.8211 115.776 66.2203 115.364C67.0901 114.467 68.1793 113.799 69.4118 113.595C70.2213 113.46 71.059 113.409 71.9162 113.452C77.7837 113.744 82.8318 118.944 82.9571 124.818C83.0967 131.359 77.8355 136.706 71.3254 136.706C67.938 136.706 64.8902 135.258 62.7646 132.947C61.821 131.921 60.4986 131.346 59.1047 131.36C59.0905 131.361 59.0763 131.361 59.0621 131.361C56.8045 131.361 54.9744 129.53 54.9744 127.273C54.9744 127.148 54.9806 127.024 54.9922 126.902C55.0141 126.674 55.2127 126.487 55.4421 126.487Z" fill="#FFCA2C"/>
<path d="M74.7842 123.028L35.636 115.639L35.4788 118.469L74.3125 127.745L74.7842 123.028Z" fill="#FFCA2C"/>
<path d="M36.1077 116.11L35.636 115.639C35.636 115.639 33.5921 114.695 33.5921 114.538C33.5921 114.44 30.574 113.417 28.3159 112.666C27.0549 112.247 25.7231 113.077 25.5435 114.394L25.2605 116.469C25.0913 117.709 26.0275 118.826 27.2788 118.876L32.806 119.097L35.4788 118.469L36.1077 116.11Z" fill="#FFCA2C"/>
<path d="M74.7056 123.892L74.799 123.501L35.6257 116.012L35.5574 116.503L74.7056 123.892Z" fill="#3F3D56"/>
<path d="M74.6159 124.636L74.7056 124.207L35.5831 116.787L35.5574 117.289L74.6159 124.636Z" fill="#3F3D56"/>
<path d="M74.5262 125.528L74.5485 124.836L35.5525 117.352L35.5575 117.761L74.5262 125.528Z" fill="#3F3D56"/>
<path d="M74.4218 126.563L74.3913 125.936L35.4956 117.916L35.4622 118.069L74.4218 126.563Z" fill="#3F3D56"/>
<path d="M74.4211 127.191L74.3913 126.723L35.5541 118.175L35.5193 118.329L74.4211 127.191Z" fill="#3F3D56"/>
<path d="M51.9258 101.037L53.8737 99.958L54.7186 117.211L54.424 119.333C54.424 119.333 49.5062 105.773 51.9258 101.037H51.9258Z" fill="#3F3D56"/>
<path d="M59.1041 95.6716C61.7959 95.6716 63.978 93.4895 63.978 90.7977C63.978 88.1059 61.7959 85.9238 59.1041 85.9238C56.4123 85.9238 54.2302 88.1059 54.2302 90.7977C54.2302 93.4895 56.4123 95.6716 59.1041 95.6716Z" fill="#FFB6B6"/>
<path d="M54.424 93.7061L55.5892 94.6363L54.2667 89.6184C54.2667 89.6184 57.9615 89.5397 58.2759 87.4959C58.2759 87.4959 61.1845 87.4173 61.9706 87.4173C62.7567 87.4173 63.1114 92.6188 63.1114 92.6188C63.1114 92.6188 64.6434 88.3606 63.0712 86.1595C61.499 83.9584 62.0492 85.2948 61.7348 84.5086C61.4203 83.7225 58.1973 82.9996 56.1534 83.8011C54.1095 84.6027 54.0309 85.7454 53.402 85.7559C52.7731 85.7664 50.572 88.9109 52.6159 91.4264C54.6598 93.942 54.424 93.7061 54.424 93.7061V93.7061Z" fill="#2F2E41"/>
<path d="M69.828 125.689C70.4057 125.228 70.8313 124.675 71.0712 124.128L76.8519 120.085L74.8474 117.391L69.1993 121.782C68.6129 121.895 67.979 122.187 67.4013 122.648C66.0816 123.701 65.5549 125.236 66.2251 126.075C66.8952 126.915 68.5082 126.742 69.828 125.689Z" fill="#FFB6B6"/>
<path d="M47.6813 119.539C47.2526 120.141 46.9955 120.79 46.9152 121.382L42.4695 126.859L45.1377 128.898L49.3602 123.122C49.893 122.853 50.4221 122.398 50.8508 121.796C51.83 120.42 51.9143 118.8 51.0391 118.177C50.1639 117.554 48.6605 118.164 47.6813 119.539L47.6813 119.539Z" fill="#FFB6B6"/>
<path d="M67.4736 102.904C67.4736 102.904 68.8886 100.545 70.3036 101.96C71.4232 103.08 77.5636 110.205 80.0779 113.13C80.7712 113.937 81.1519 114.965 81.1519 116.028C81.1519 117.674 80.2435 119.184 78.7903 119.956L70.9324 124.129L68.7313 120.827L75.4919 115.953L65.1152 110.293L67.4736 102.904H67.4736Z" fill="#3F3D56"/>
<path d="M42.6263 124.636L41.3748 128.295L44.9909 130.181L47.7422 128.295L49.4717 124.286L44.362 122.792" fill="#3F3D56"/>
<path d="M181.876 67.0073C181.73 65.4714 182.404 64.1509 183.381 64.0579C184.359 63.9649 185.27 65.1345 185.416 66.6709C185.483 67.2839 185.402 67.9039 185.18 68.4792L185.718 74.9945L182.655 75.1819L182.45 68.739C182.123 68.2158 181.926 67.622 181.876 67.0073L181.876 67.0073Z" fill="#FFB6B6"/>
<path d="M198.563 70.0984C198.563 70.0984 193.559 67.1549 192.529 67.5964C191.499 68.0379 186.495 75.5438 186.495 75.5438L186.035 74.174L182.521 74.5135C182.521 74.5135 180.461 84.0798 185.023 83.1968C189.586 82.3137 197.092 74.072 197.092 74.072L198.563 70.0984Z" fill="#FFCA2C"/>
<path d="M174.658 71.173L181.576 69.5647L182.072 71.0018L185.419 70.0978L187.626 69.5013L189.77 65.3366L188.249 60.9277L183.72 60.8853L182.335 61.1576L178.471 61.9176C178.144 62.4586 178.323 63.1627 178.868 63.4823L179.047 63.5871L173.611 64.5283C173.611 64.5283 171.875 67.6183 174.658 71.173V71.173Z" fill="#3F3D56"/>
<path d="M182.334 61.1576L185.419 70.0978L187.626 69.5013L189.77 65.3366L188.249 60.9277L183.72 60.8853L182.334 61.1576Z" fill="#2F2E41"/>
<path d="M181.164 61.5302C181.641 61.4248 181.984 61.1464 181.931 60.9083C181.878 60.6702 181.45 60.5626 180.974 60.668C180.497 60.7734 180.154 61.0519 180.207 61.29C180.259 61.5281 180.688 61.6356 181.164 61.5302Z" fill="#3F3D56"/>
</svg>
