<?xml version="1.0" encoding="utf-8"?>
<!-- Generator: Adobe Illustrator 21.0.0, SVG Export Plug-In . SVG Version: 6.00 Build 0)  -->
<svg version="1.1" id="Layer_1" xmlns="http://www.w3.org/2000/svg" xmlns:xlink="http://www.w3.org/1999/xlink" x="0px" y="0px"
	 viewBox="0 0 94.3 25.8" style="enable-background:new 0 0 94.3 25.8;" xml:space="preserve">
<style type="text/css">
	.st0{fill:#FFFFFF;}
</style>
<g>
	<path class="st0" d="M16.1,8.7c0.1,0.1,0.1,0.1,0.1,0.1c0.1,0,0.1,0,0.1-0.1c0.1-0.1,0.1-0.1,0.1-0.2c0-0.1,0.1-0.3,0.1-0.5
		c0-0.2,0-0.4-0.1-0.5c0-0.1-0.1-0.2-0.1-0.2c0-0.1-0.1-0.1-0.1-0.1c-0.1,0-0.1,0-0.1,0.1C16,7.4,16,7.4,16,7.6
		c0,0.1-0.1,0.3-0.1,0.5c0,0.2,0,0.4,0.1,0.5C16,8.7,16,8.7,16.1,8.7z"/>
	<path class="st0" d="M19.4,7.4c0-0.1-0.1-0.1-0.1-0.1c-0.1,0-0.1,0-0.1,0.1c-0.1,0.1-0.1,0.1-0.1,0.2c0,0.1-0.1,0.3-0.1,0.5
		c0,0.2,0,0.4,0.1,0.5c0,0.1,0.1,0.2,0.1,0.2c0.1,0.1,0.1,0.1,0.1,0.1c0.1,0,0.1,0,0.1-0.1c0.1-0.1,0.1-0.1,0.1-0.2
		c0-0.1,0.1-0.3,0.1-0.5c0-0.2,0-0.4-0.1-0.5C19.5,7.4,19.5,7.4,19.4,7.4z"/>
	<path class="st0" d="M13,2.6C7.4,2.6,2.9,7.1,2.9,12.6S7.4,22.7,13,22.7s10.1-4.5,10.1-10.1S18.6,2.6,13,2.6z M17.2,7.6
		c0.1-0.1,0.2-0.1,0.3-0.2c0.1-0.1,0.2-0.2,0.2-0.3h0.3v2h-0.4V7.6c-0.2,0.1-0.3,0.2-0.5,0.3V7.6z M15.8,7.3C15.9,7.1,16,7,16.2,7
		c0.2,0,0.3,0.1,0.4,0.2c0.1,0.2,0.2,0.4,0.2,0.8c0,0.4-0.1,0.7-0.2,0.8c-0.1,0.1-0.3,0.2-0.4,0.2c-0.2,0-0.3-0.1-0.5-0.2
		c-0.1-0.2-0.2-0.4-0.2-0.8C15.5,7.7,15.6,7.4,15.8,7.3z M9.8,16c-2.4-0.4-4.4-2.4-4.6-4.9C5,8.7,6.4,6.7,8.1,5.9
		c-0.9,2.3-0.6,4.4,1.2,6.2c1.8,1.7,3.9,1.9,6.2,1C14.5,15.1,12.3,16.4,9.8,16z M18.1,19.3c-1.2,1.1-2.7,1.3-3.3,1.4
		c-0.3,0.1-0.6,0.1-1.2,0.1c0-0.1-0.7,0-1.2-0.2c0,0,0,0,0,0s0,0,0,0c0,0,3-0.2,5-1.7c1.4-1,2.4-3.5,2.4-3.5
		C19.9,16,19.7,17.9,18.1,19.3z M19.7,8.9c-0.1,0.1-0.3,0.2-0.4,0.2c-0.2,0-0.3-0.1-0.5-0.2c-0.1-0.2-0.2-0.4-0.2-0.8
		c0-0.4,0.1-0.7,0.2-0.8C19,7.1,19.1,7,19.3,7c0.2,0,0.3,0.1,0.4,0.2C19.9,7.4,20,7.7,20,8.1C20,8.4,19.9,8.7,19.7,8.9z"/>
	<path class="st0" d="M16,7.6C16,7.4,16,7.4,16.1,7.4c0-0.1,0.1-0.1,0.1-0.1c0.1,0,0.1,0,0.1,0.1c0.1,0,0.1,0.1,0.1,0.2
		c0.1,0.1,0.1,0.3,0.1,0.5c0,0.2-0.1,0.4-0.1,0.5c-0.1,0.1-0.1,0.1-0.1,0.2c0,0.1-0.1,0.1-0.1,0.1c-0.1,0-0.1,0-0.1-0.1
		C16,8.7,16,8.7,16,8.6c-0.1-0.1-0.1-0.3-0.1-0.5C15.9,7.8,16,7.7,16,7.6z"/>
	<path class="st0" d="M19.5,8.6c-0.1,0.1-0.1,0.1-0.1,0.2c0,0.1-0.1,0.1-0.1,0.1c-0.1,0-0.1,0-0.1-0.1c-0.1,0-0.1-0.1-0.1-0.2
		C19,8.4,19,8.3,19,8.1c0-0.2,0.1-0.4,0.1-0.5c0.1-0.1,0.1-0.1,0.1-0.2c0-0.1,0.1-0.1,0.1-0.1c0.1,0,0.1,0,0.1,0.1
		c0.1,0,0.1,0.1,0.1,0.2c0.1,0.1,0.1,0.3,0.1,0.5C19.6,8.3,19.5,8.4,19.5,8.6z"/>
</g>
<g>
	<g>
		<path class="st0" d="M27,6.8h2.2l2.7,4.8l2.6-4.8h2.2L37.1,17h-2.3l-0.3-6.7l-2.1,4h-1.2L29,10.4L28.7,17h-2.2L27,6.8z"/>
		<path class="st0" d="M40.1,13.4c0-0.5,0.1-1,0.3-1.5c0.2-0.5,0.5-0.9,0.8-1.2c0.3-0.3,0.7-0.6,1.2-0.8c0.5-0.2,1-0.3,1.6-0.3
			c0.6,0,1.1,0.1,1.6,0.3c0.5,0.2,0.9,0.5,1.2,0.8c0.3,0.3,0.6,0.8,0.8,1.2c0.2,0.5,0.3,1,0.3,1.5c0,0.5-0.1,1-0.3,1.5
			c-0.2,0.5-0.5,0.9-0.8,1.2c-0.3,0.3-0.7,0.6-1.2,0.8c-0.5,0.2-1,0.3-1.6,0.3c-0.6,0-1.1-0.1-1.6-0.3s-0.9-0.5-1.2-0.8
			c-0.3-0.3-0.6-0.8-0.8-1.2C40.2,14.4,40.1,13.9,40.1,13.4z M44,15.3c0.3,0,0.5-0.1,0.7-0.2c0.2-0.1,0.4-0.3,0.5-0.4
			c0.1-0.2,0.3-0.4,0.3-0.6c0.1-0.2,0.1-0.5,0.1-0.7c0-0.2,0-0.5-0.1-0.7c-0.1-0.2-0.2-0.4-0.3-0.6c-0.1-0.2-0.3-0.3-0.5-0.4
			c-0.2-0.1-0.5-0.2-0.7-0.2c-0.3,0-0.5,0.1-0.7,0.2c-0.2,0.1-0.4,0.3-0.5,0.4c-0.1,0.2-0.3,0.4-0.3,0.6c-0.1,0.2-0.1,0.5-0.1,0.7
			c0,0.2,0,0.5,0.1,0.7c0.1,0.2,0.2,0.4,0.3,0.6c0.1,0.2,0.3,0.3,0.5,0.4C43.5,15.3,43.7,15.3,44,15.3z"/>
		<path class="st0" d="M50.5,13.4c0-0.5,0.1-1,0.3-1.5c0.2-0.5,0.5-0.9,0.8-1.2c0.3-0.3,0.7-0.6,1.2-0.8c0.5-0.2,1-0.3,1.6-0.3
			s1.1,0.1,1.6,0.3c0.5,0.2,0.9,0.5,1.2,0.8s0.6,0.8,0.8,1.2c0.2,0.5,0.3,1,0.3,1.5c0,0.5-0.1,1-0.3,1.5c-0.2,0.5-0.5,0.9-0.8,1.2
			c-0.3,0.3-0.7,0.6-1.2,0.8c-0.5,0.2-1,0.3-1.6,0.3s-1.1-0.1-1.6-0.3s-0.9-0.5-1.2-0.8c-0.3-0.3-0.6-0.8-0.8-1.2
			C50.6,14.4,50.5,13.9,50.5,13.4z M54.4,15.3c0.3,0,0.5-0.1,0.7-0.2c0.2-0.1,0.4-0.3,0.5-0.4c0.1-0.2,0.3-0.4,0.3-0.6
			c0.1-0.2,0.1-0.5,0.1-0.7c0-0.2,0-0.5-0.1-0.7c-0.1-0.2-0.2-0.4-0.3-0.6c-0.1-0.2-0.3-0.3-0.5-0.4c-0.2-0.1-0.5-0.2-0.7-0.2
			c-0.3,0-0.5,0.1-0.7,0.2c-0.2,0.1-0.4,0.3-0.5,0.4c-0.1,0.2-0.3,0.4-0.3,0.6c-0.1,0.2-0.1,0.5-0.1,0.7c0,0.2,0,0.5,0.1,0.7
			c0.1,0.2,0.2,0.4,0.3,0.6c0.1,0.2,0.3,0.3,0.5,0.4C53.9,15.3,54.1,15.3,54.4,15.3z"/>
		<path class="st0" d="M61.3,9.8h2.1l0.1,0.8c0.2-0.3,0.5-0.5,0.9-0.7c0.4-0.2,0.8-0.3,1.2-0.3c0.8,0,1.5,0.2,2,0.7
			c0.5,0.5,0.7,1.2,0.7,2.2V17H66v-4.1c0-0.4-0.1-0.7-0.3-0.9c-0.2-0.2-0.5-0.4-0.8-0.4c-0.2,0-0.5,0-0.6,0.1
			c-0.2,0.1-0.3,0.2-0.5,0.3c-0.1,0.1-0.2,0.3-0.3,0.5c-0.1,0.2-0.1,0.4-0.1,0.6V17h-2.2V9.8z"/>
		<path class="st0" d="M80.9,15.1c-0.2,0.3-0.5,0.6-0.8,0.8c-0.3,0.3-0.6,0.5-1,0.7c-0.4,0.2-0.8,0.3-1.2,0.5
			c-0.4,0.1-0.9,0.2-1.4,0.2c-0.8,0-1.5-0.1-2.1-0.4c-0.6-0.3-1.2-0.6-1.7-1.1c-0.5-0.5-0.8-1-1.1-1.7c-0.3-0.6-0.4-1.4-0.4-2.1
			c0-0.8,0.1-1.5,0.4-2.1c0.3-0.7,0.6-1.2,1.1-1.7c0.5-0.5,1-0.9,1.7-1.1c0.6-0.3,1.4-0.4,2.1-0.4c0.9,0,1.8,0.2,2.5,0.5
			c0.7,0.3,1.3,0.8,1.8,1.5l-1.6,1.5c-0.3-0.4-0.7-0.8-1.1-1c-0.4-0.3-0.9-0.4-1.5-0.4c-0.5,0-0.9,0.1-1.2,0.3
			c-0.4,0.2-0.7,0.4-0.9,0.7c-0.3,0.3-0.5,0.6-0.6,1c-0.1,0.4-0.2,0.8-0.2,1.2c0,0.4,0.1,0.9,0.2,1.3c0.1,0.4,0.3,0.7,0.6,1
			c0.3,0.3,0.6,0.5,0.9,0.7c0.4,0.2,0.8,0.2,1.2,0.2c0.4,0,0.7,0,1-0.1c0.3-0.1,0.5-0.2,0.7-0.3c0.2-0.1,0.4-0.3,0.6-0.4
			c0.2-0.2,0.3-0.3,0.5-0.5L80.9,15.1z"/>
		<path class="st0" d="M83.3,13.4c0-0.5,0.1-1,0.3-1.5c0.2-0.5,0.5-0.9,0.8-1.2c0.3-0.3,0.7-0.6,1.2-0.8c0.5-0.2,1-0.3,1.6-0.3
			c0.6,0,1.1,0.1,1.6,0.3c0.5,0.2,0.9,0.5,1.2,0.8s0.6,0.8,0.8,1.2c0.2,0.5,0.3,1,0.3,1.5c0,0.5-0.1,1-0.3,1.5
			c-0.2,0.5-0.5,0.9-0.8,1.2c-0.3,0.3-0.7,0.6-1.2,0.8c-0.5,0.2-1,0.3-1.6,0.3c-0.6,0-1.1-0.1-1.6-0.3s-0.9-0.5-1.2-0.8
			c-0.3-0.3-0.6-0.8-0.8-1.2C83.4,14.4,83.3,13.9,83.3,13.4z M87.2,15.3c0.3,0,0.5-0.1,0.7-0.2c0.2-0.1,0.4-0.3,0.5-0.4
			c0.1-0.2,0.3-0.4,0.3-0.6c0.1-0.2,0.1-0.5,0.1-0.7c0-0.2,0-0.5-0.1-0.7c-0.1-0.2-0.2-0.4-0.3-0.6c-0.1-0.2-0.3-0.3-0.5-0.4
			c-0.2-0.1-0.5-0.2-0.7-0.2c-0.3,0-0.5,0.1-0.7,0.2c-0.2,0.1-0.4,0.3-0.5,0.4c-0.1,0.2-0.3,0.4-0.3,0.6c-0.1,0.2-0.1,0.5-0.1,0.7
			c0,0.2,0,0.5,0.1,0.7s0.2,0.4,0.3,0.6c0.1,0.2,0.3,0.3,0.5,0.4C86.7,15.3,86.9,15.3,87.2,15.3z"/>
	</g>
</g>
</svg>
