<svg width="88" height="86" viewBox="0 0 88 86" fill="none" xmlns="http://www.w3.org/2000/svg">
<path fill-rule="evenodd" clip-rule="evenodd" d="M12.0182 0.737858C11.309 1.3407 11.1098 1.83094 10.989 3.27115L10.8394 5.0569L8.49172 5.17401C5.51116 5.32288 3.45045 6.4721 1.99668 8.79621L1.01452 10.3667L0.92915 44.8658C0.833401 83.4937 0.705208 81.2607 3.15607 83.683C5.57025 86.0694 4.26674 85.9731 34.138 85.9731C63.5837 85.9731 62.5392 86.0421 64.7395 83.9541C65.3361 83.3882 66.1397 82.3477 66.5259 81.6419C67.201 80.407 67.2316 79.9302 67.3312 69.0492C67.388 62.8289 67.3374 57.7398 67.2189 57.7398C67.1004 57.7398 63.3305 61.431 58.8417 65.9423C54.3528 70.4535 50.0444 74.5605 49.2677 75.069C47.1287 76.4697 36.1769 79.9845 33.9588 79.9825C29.8043 79.9787 26.1671 76.1373 26.5511 72.1587L26.6731 70.894H19.7853C13.0306 70.894 12.8806 70.8795 12.014 70.1426C10.8017 69.1118 10.8017 67.5429 12.014 66.512C12.8871 65.7696 12.9893 65.7607 20.6331 65.7607H28.3687L29.1759 63.3679C29.6199 62.0518 29.9039 60.8968 29.8072 60.8012C29.7104 60.7056 25.8698 60.6273 21.2728 60.6273C16.6759 60.6273 12.6781 60.5375 12.3892 60.4281C12.1 60.3184 11.6385 59.7983 11.3632 59.2721C10.9517 58.4851 10.9328 58.1486 11.2574 57.3738C11.4746 56.856 11.9147 56.2932 12.2354 56.1235C12.5732 55.9448 17.0764 55.8149 22.9265 55.8149H33.0344L35.444 53.5033C36.7693 52.2318 37.8537 51.0768 37.8537 50.9366C37.8537 50.7964 32.3103 50.6815 25.5351 50.6815C17.0193 50.6815 12.9663 50.5689 12.4061 50.3164C11.3162 49.8256 10.7868 48.3038 11.322 47.2008C12.1133 45.5697 12.2399 45.5575 28.441 45.5588L43.5337 45.5598L55.4963 33.603L67.4588 21.6462L67.3263 16.192C67.2069 11.2843 67.1196 10.5974 66.4529 9.33392C64.942 6.47017 62.6476 5.1416 59.1945 5.13038L57.0036 5.12332V3.6584C57.0036 1.3468 56.0266 0.0195143 54.3112 0.000264382C53.7702 -0.00583144 53.0821 0.307943 52.6072 0.777641C51.9529 1.42412 51.8104 1.88291 51.8104 3.3443V5.12332H49.2138H46.6172V3.22174C46.6172 1.54924 46.514 1.23964 45.762 0.655084C44.6814 -0.185177 43.6895 -0.189027 42.6198 0.642571C41.9203 1.18638 41.7642 1.60122 41.6834 3.12902L41.5863 4.9629L39.1108 5.05594L36.6352 5.14898L36.4902 3.16335C36.3276 0.944475 35.5706 -0.0183439 34.0039 0.000264382C32.3395 0.020156 31.3622 1.37343 31.3622 3.6584V5.12332H28.9733H26.5845L26.393 3.27853C26.2427 1.82676 26.0217 1.28007 25.356 0.711871C24.2553 -0.227206 23.0898 -0.203785 22.0972 0.777641C21.4429 1.42412 21.3004 1.88291 21.3004 3.3443V5.12332H18.7038H16.1072V3.3443C16.1072 1.88291 15.9647 1.42412 15.3104 0.777641C14.3097 -0.211806 13.1513 -0.225923 12.0182 0.737858ZM78.0428 19.6753C77.2073 19.9044 76.0171 20.4735 75.3982 20.9404C74.3083 21.7623 68.2851 27.9955 68.1193 28.4735C68.0742 28.6034 70.4199 31.0617 73.3316 33.936L78.6261 39.1624L82.693 35.039C86.9813 30.6917 87.8563 29.2592 87.8239 26.6422C87.7635 21.7806 82.9273 18.3358 78.0428 19.6753ZM33.8494 26.1305C34.2259 26.391 34.6265 26.9698 34.7401 27.4164C34.9773 28.351 34.25 29.9692 33.4574 30.2698C32.5872 30.6 12.8741 30.4983 12.2354 30.1604C11.9147 29.9907 11.4746 29.428 11.2574 28.9102C10.9322 28.1337 10.9517 27.7985 11.3684 27.0019C11.6466 26.4702 12.0598 25.9617 12.2866 25.8712C12.5135 25.7811 17.3039 25.6957 22.932 25.6819C31.4609 25.6608 33.2792 25.7355 33.8494 26.1305ZM52.2135 44.0268L40.4484 55.6596L45.8058 60.9482L51.1632 66.2365L63.0082 54.5315L74.8532 42.8263L69.5834 37.6102C66.6853 34.7413 64.2383 32.3941 64.1462 32.3941C64.054 32.3941 58.6842 37.6288 52.2135 44.0268ZM44.5221 36.3901C45.9593 37.8104 45.2929 40.0915 43.2984 40.5792C42.8924 40.6783 35.8089 40.7181 27.5572 40.6674C12.6038 40.5756 12.5521 40.5731 11.8423 39.8714C10.8199 38.8601 10.8958 37.3044 12.014 36.3538L12.8978 35.6024H28.3116H43.7256L44.5221 36.3901ZM35.9514 60.1625C35.1351 61.1878 31.6868 71.339 31.6868 72.7157C31.6868 73.7988 32.8965 75.0648 33.9315 75.0648C35.124 75.0648 46.1151 71.1901 46.8444 70.5128L47.6127 69.7996L42.3312 64.5717C39.4263 61.6964 36.9491 59.344 36.8261 59.344C36.7031 59.344 36.3094 59.7123 35.9514 60.1625Z" fill="white"/>
</svg>
