<svg width="306" height="335" viewBox="0 0 306 335" fill="none" xmlns="http://www.w3.org/2000/svg">
<g clip-path="url(#clip0_878_777)">
<path d="M30.2251 319.524C30.3572 324.445 31.1831 329.322 32.6784 334.013C32.7116 334.122 32.7484 334.229 32.7842 334.338H41.9386C41.929 334.241 41.9191 334.132 41.9095 334.013C41.2991 327.009 44.7861 284.886 48.9939 277.596C48.6252 278.187 29.5153 297.268 30.2251 319.524Z" fill="#E6E6E6"/>
<path d="M30.912 334.013C30.9886 334.122 31.0682 334.231 31.1497 334.338H38.0177C37.9656 334.245 37.9053 334.137 37.8353 334.013C36.7008 331.969 33.3428 325.858 30.2258 319.524C26.8774 312.716 23.8028 305.65 24.0617 303.092C23.9815 303.669 21.6634 321.252 30.912 334.013Z" fill="#E6E6E6"/>
<path d="M142.232 326.811C142.299 329.312 142.718 331.79 143.478 334.173C143.495 334.228 143.514 334.283 143.532 334.338H148.183C148.178 334.289 148.173 334.233 148.168 334.173C147.858 330.614 149.63 309.214 151.767 305.51C151.58 305.81 141.871 315.504 142.232 326.811Z" fill="#E6E6E6"/>
<path d="M142.581 334.173C142.62 334.228 142.66 334.284 142.702 334.338H146.191C146.164 334.291 146.134 334.236 146.098 334.173C145.522 333.135 143.816 330.03 142.232 326.811C140.531 323.353 138.969 319.763 139.1 318.463C139.06 318.756 137.882 327.69 142.581 334.173Z" fill="#E6E6E6"/>
<path d="M114.697 184.281L102.858 192.686L110.224 193.474L120.485 184.807L114.697 184.281Z" fill="#3F3D56"/>
<path d="M68.3785 327.799L75.4991 327.799L78.8866 300.384L68.3772 300.384L68.3785 327.799Z" fill="#9F616A"/>
<path d="M66.562 325.479L80.5851 325.478H80.5856C82.9557 325.478 85.2286 326.418 86.9045 328.091C88.5804 329.764 89.522 332.033 89.5222 334.398V334.688L66.5624 334.689L66.562 325.479Z" fill="#2F2E41"/>
<path d="M63.9019 229.878C63.9019 229.878 60.8159 233.36 65.9258 246.934L65.0257 321.36L81.5855 321.037L85.2256 284.733L91.853 231.754L63.9019 229.878Z" fill="#2F2E41"/>
<path d="M47.3683 218.129C46.39 218.127 45.4511 217.744 44.7511 217.061C44.0511 216.379 43.6449 215.451 43.6189 214.475L42.8418 185.242L56.1389 160.061C56.4408 159.494 56.8826 159.013 57.4225 158.664C57.9624 158.314 58.5826 158.108 59.2245 158.065L69.3581 157.416L68.4831 216.342L47.6979 218.115C47.5876 218.125 47.4777 218.129 47.3683 218.129Z" fill="#FFBD00"/>
<path d="M97.5325 240.168L97.3512 240.14C76.1666 236.915 60.1803 233.824 60.0213 233.793L59.8228 233.754L65.3761 220.272C65.3323 218.863 64.1301 179.3 66.4314 167.934C68.6591 156.93 79.1599 155.127 80.3565 154.957L81.558 150.983L96.7378 158.868L99.3853 167.963L99.923 192.89L97.5325 240.168Z" fill="#3F3D56"/>
<path d="M76.6718 202.429C66.8917 202.429 58.9351 191.815 58.9351 178.768C58.9351 165.721 66.8917 155.107 76.6718 155.107C86.4519 155.107 94.4085 165.721 94.4085 178.768C94.4085 191.815 86.4519 202.429 76.6718 202.429ZM76.6718 157.424C68.1714 157.424 61.2558 166.999 61.2558 178.768C61.2558 190.538 68.1714 200.113 76.6718 200.113C85.1722 200.113 92.0878 190.538 92.0878 178.768C92.0878 166.999 85.1722 157.424 76.6718 157.424Z" fill="#FFBD00"/>
<path d="M106.675 188.862C105.991 188.861 105.315 189.002 104.689 189.276C104.063 189.549 103.5 189.949 103.036 190.45H77.5212L68.1753 192.436L69.7097 204.25L102.956 197.113C103.506 197.733 104.204 198.206 104.984 198.488C105.765 198.771 106.604 198.853 107.425 198.729C108.246 198.604 109.022 198.276 109.683 197.775C110.345 197.274 110.87 196.615 111.21 195.859C111.551 195.103 111.697 194.274 111.634 193.448C111.571 192.622 111.302 191.824 110.851 191.128C110.4 190.432 109.781 189.86 109.052 189.464C108.323 189.068 107.505 188.861 106.675 188.862Z" fill="#9F616A"/>
<path d="M104.802 149.309C109.604 144.516 109.604 136.744 104.802 131.95C99.9996 127.157 92.2138 127.157 87.4116 131.95C82.6095 136.744 82.6095 144.516 87.4116 149.309C92.2138 154.103 99.9996 154.103 104.802 149.309Z" fill="#9F616A"/>
<path d="M84.5415 130.817L83.9453 129.619L86.945 128.132C86.945 128.132 90.254 122.757 96.2419 124.268C102.23 125.778 104.924 126.682 104.924 126.682L107.916 128.185L106.414 129.676L109.108 130.58L107.308 131.473L109.402 132.674L108.275 138.833C108.275 138.833 106.403 134.162 102.803 135.947C99.2037 137.732 92.6197 135.024 92.6197 135.024L86.8996 146.074C86.8996 146.074 85.7195 142.2 83.6156 143.233C83.6155 143.233 78.2404 134.689 84.5415 130.817Z" fill="#2F2E41"/>
<path d="M191.389 206.383L190.863 196.544L185.559 192.242L182.486 201.353L165.298 224.235C164.486 224.365 163.727 224.724 163.113 225.271C162.499 225.818 162.054 226.528 161.832 227.319C161.61 228.11 161.619 228.948 161.859 229.734C162.099 230.52 162.56 231.22 163.186 231.753C163.812 232.286 164.578 232.629 165.394 232.74C166.209 232.852 167.039 232.728 167.786 232.384C168.534 232.039 169.166 231.488 169.609 230.796C170.053 230.104 170.288 229.3 170.287 228.478C170.287 228.42 170.281 228.364 170.279 228.307L191.389 206.383Z" fill="#FFB7B7"/>
<path d="M201.603 330.394L197.539 330.394L195.605 314.745L201.604 314.745L201.603 330.394Z" fill="#FFB7B7"/>
<path d="M202.64 334.327L189.534 334.326V334.161C189.534 332.811 190.072 331.515 191.028 330.561C191.985 329.606 193.282 329.069 194.635 329.069H194.636L202.64 329.07L202.64 334.327Z" fill="#2F2E41"/>
<path d="M220.5 330.394L216.436 330.394L214.502 314.745L220.501 314.745L220.5 330.394Z" fill="#FFB7B7"/>
<path d="M221.537 334.327L208.431 334.326V334.161C208.431 332.811 208.969 331.515 209.925 330.561C210.882 329.606 212.179 329.069 213.532 329.069H213.533L221.537 329.07L221.537 334.327Z" fill="#2F2E41"/>
<path d="M216.204 165.278C217.925 158.186 219.383 150.187 216.138 143.655C213.886 139.123 205.556 137.597 200.781 139.229C196.006 140.862 192.553 145.292 191.035 150.122C189.516 154.952 189.693 160.156 190.355 165.178C199.137 165.009 207.919 164.841 216.204 165.278Z" fill="#2F2E41"/>
<path d="M206.296 164.024C211.259 161.316 213.083 155.105 210.37 150.151C207.657 145.197 201.435 143.377 196.472 146.085C191.509 148.793 189.685 155.004 192.398 159.957C195.111 164.911 201.333 166.732 206.296 164.024Z" fill="#FFB8B8"/>
<path d="M213.903 152.949C213.936 151.228 213.622 149.519 212.979 147.922C212.337 146.325 211.38 144.873 210.164 143.653C208.949 142.433 207.5 141.469 205.904 140.819C204.308 140.168 202.597 139.845 200.873 139.868C199.15 139.89 197.448 140.259 195.87 140.951C194.291 141.643 192.868 142.644 191.686 143.896C190.503 145.148 189.584 146.624 188.984 148.238C188.384 149.851 188.115 151.568 188.193 153.287C196.958 153.305 205.724 153.324 213.903 152.949Z" fill="#2F2E41"/>
<path d="M184.939 216.641C184.939 216.641 183.273 240.802 184.177 248.173C185.081 255.543 194.928 319.978 194.928 319.978L202.356 319.965L204.561 244.032L213.345 320.703L221.026 319.906L225.383 244.908C225.383 244.908 224.7 216.83 219.146 214.015L184.939 216.641Z" fill="#2F2E41"/>
<path d="M196.59 240.591C191.134 240.59 185.758 239.29 180.905 236.8L180.799 236.746L184.905 209.553L184.638 177.144C184.631 176.255 184.801 175.373 185.139 174.55C185.477 173.727 185.976 172.979 186.606 172.35C187.237 171.721 187.986 171.224 188.811 170.888C189.636 170.551 190.52 170.382 191.411 170.391L213.442 170.592C214.417 170.601 215.38 170.81 216.271 171.207C217.162 171.603 217.962 172.179 218.62 172.897C219.279 173.615 219.783 174.461 220.1 175.381C220.417 176.302 220.541 177.278 220.464 178.249L218.402 204.23L225.22 225.318L224.035 226.89C220.84 231.144 216.697 234.597 211.933 236.975C207.169 239.353 201.916 240.591 196.59 240.591Z" fill="#3F3D56"/>
<path d="M182.425 198.35L184.733 174.837L185.475 173.783C185.983 173.062 186.63 172.447 187.376 171.975C188.123 171.503 188.956 171.183 189.827 171.034C190.698 170.884 191.59 170.907 192.452 171.102C193.314 171.298 194.129 171.661 194.85 172.171L195.485 172.622L194.858 196.45L182.425 198.35Z" fill="#3F3D56"/>
<path d="M277.018 313.225C282.986 311.58 285.532 320.626 279.579 322.324C273.612 323.97 271.065 314.923 277.018 313.225Z" fill="#3F3D56"/>
<path d="M243.929 324.869C249.897 323.223 252.443 332.269 246.491 333.967C240.523 335.613 237.976 326.567 243.929 324.869Z" fill="#3F3D56"/>
<path d="M230.537 229.46L230.63 229.434L246.001 271.092L248.028 270.523L232.546 228.567C232.512 227.92 232.258 227.304 231.826 226.822C231.393 226.339 230.809 226.019 230.169 225.913C222.481 224.7 219.365 231.512 219.365 231.512L219.396 231.557L235.112 274.147L237.138 273.578L221.885 232.242C226.529 227.657 230.537 229.46 230.537 229.46Z" fill="#3F3D56"/>
<path d="M248.155 327.212C245.961 327.193 243.832 326.475 242.075 325.164C240.319 323.852 239.028 322.015 238.391 319.921C235.457 310.335 228.535 287.369 227.618 281.136C226.423 273.021 233.152 270.713 233.302 270.664C233.484 270.603 236.189 269.847 239.933 268.801C246.298 267.023 255.917 264.336 256.271 264.177C257.761 263.66 259.343 263.456 260.916 263.577C262.489 263.698 264.02 264.143 265.413 264.882C266.849 265.636 268.117 266.674 269.138 267.932C270.16 269.19 270.915 270.642 271.356 272.2L281.257 307.362C281.869 309.518 281.697 311.819 280.774 313.861C279.85 315.903 278.234 317.554 276.211 318.522C268.571 322.186 257.366 327.073 248.305 327.211C248.255 327.212 248.205 327.212 248.155 327.212Z" fill="#FFBD00"/>
<path d="M228.903 228.019L223.925 198.998L223.37 189.203L215.323 191.834L222.11 229.836C221.836 230.575 221.771 231.376 221.922 232.15C222.073 232.924 222.435 233.641 222.967 234.224C223.499 234.807 224.181 235.232 224.939 235.454C225.698 235.675 226.502 235.685 227.265 235.481C228.028 235.277 228.72 234.867 229.266 234.297C229.811 233.727 230.189 233.018 230.358 232.247C230.527 231.477 230.481 230.675 230.224 229.93C229.968 229.184 229.51 228.523 228.903 228.019V228.019Z" fill="#FFB7B7"/>
<path d="M225.287 197.177L212.727 196.495L209.777 172.841L210.064 172.593C210.771 171.98 211.592 171.513 212.481 171.219C213.369 170.924 214.307 170.808 215.241 170.876C216.175 170.944 217.086 171.196 217.922 171.616C218.758 172.037 219.502 172.618 220.113 173.326L220.694 174.001L220.702 174.044L225.287 197.177Z" fill="#3F3D56"/>
<path d="M276.431 312.722L263.594 269.353L233.409 277.868L233.228 277.231L264.044 268.538L264.137 268.852L277.067 312.534L276.431 312.722Z" fill="#3F3D56"/>
<path d="M48.3264 215.02L46.9595 185.269L60.9606 157.95L61.5507 158.252L47.6302 185.414L48.9888 214.989L48.3264 215.02Z" fill="#3F3D56"/>
<path d="M305.668 335H0.331528C0.243601 335 0.159275 334.965 0.0971019 334.903C0.0349285 334.841 0 334.757 0 334.669C0 334.581 0.0349285 334.497 0.0971019 334.435C0.159275 334.373 0.243601 334.338 0.331528 334.338H305.668C305.756 334.338 305.841 334.373 305.903 334.435C305.965 334.497 306 334.581 306 334.669C306 334.757 305.965 334.841 305.903 334.903C305.841 334.965 305.756 335 305.668 335Z" fill="#CCCCCC"/>
<path d="M69.8731 206.464L66.9553 197.801L66.2495 168.921L67.4927 164.824C67.9402 163.349 68.6814 161.979 69.6718 160.797C70.6622 159.616 71.8814 158.645 73.2565 157.945C74.6316 157.245 76.1341 156.829 77.6741 156.722C79.2142 156.615 80.7599 156.82 82.2188 157.323C83.6777 157.827 85.0196 158.62 86.1642 159.654C87.3089 160.688 88.2326 161.942 88.8801 163.34C89.5276 164.739 89.8855 166.254 89.9324 167.794C89.9793 169.335 89.7142 170.868 89.153 172.304L82.4894 189.349L82.8281 190.005L97.2648 189.888L102.393 199.102L69.8731 206.464Z" fill="#3F3D56"/>
<path d="M161.841 268.116L161.83 268.118L145.829 271.315L132.065 276.849C131.887 276.92 131.696 276.956 131.504 276.954C131.313 276.952 131.123 276.913 130.947 276.838C130.77 276.762 130.61 276.654 130.476 276.517C130.341 276.38 130.235 276.218 130.164 276.041C130.147 275.999 130.132 275.956 130.119 275.913L120.064 242.304C119.958 241.955 119.987 241.58 120.145 241.253C120.303 240.925 120.579 240.668 120.918 240.534L134.934 234.899L134.944 234.897L150.945 231.7L164.71 226.167C165.069 226.022 165.472 226.026 165.828 226.178C166.184 226.329 166.466 226.616 166.611 226.975C166.628 227.016 166.642 227.059 166.655 227.102L176.711 260.712C176.817 261.06 176.788 261.435 176.629 261.763C176.471 262.09 176.196 262.347 175.857 262.481L161.841 268.116Z" fill="#E5E5E5"/>
<path d="M144.67 245.54C141.001 244.247 137.208 243.115 133.399 242.175L133.208 242.127L135.142 248.592L144.996 245.655L144.67 245.54ZM135.293 248.313L133.536 242.44C137.162 243.341 140.77 244.416 144.27 245.637L135.293 248.313ZM163.898 254.279C162.19 253.315 160.457 252.392 158.7 251.509C158.215 251.266 157.729 251.026 157.242 250.789C154.266 249.344 151.246 248.027 148.179 246.837L148.143 246.823L135.721 250.527L139.113 261.866L164.128 254.409L163.898 254.279ZM139.264 261.586L136 250.677L148.134 247.06C151.091 248.208 154.014 249.48 156.903 250.875C157.405 251.117 157.905 251.362 158.403 251.612C160.143 252.481 161.861 253.392 163.557 254.345L139.264 261.586ZM163.898 254.279C162.19 253.315 160.457 252.392 158.7 251.509C158.215 251.266 157.729 251.026 157.242 250.789C154.266 249.344 151.246 248.027 148.179 246.837L148.143 246.823L135.721 250.527L139.113 261.866L164.128 254.409L163.898 254.279ZM139.264 261.586L136 250.677L148.134 247.06C151.091 248.208 154.014 249.48 156.903 250.875C157.405 251.117 157.905 251.362 158.403 251.612C160.143 252.481 161.861 253.392 163.557 254.345L139.264 261.586ZM144.67 245.54C141.001 244.247 137.208 243.115 133.399 242.175L133.208 242.127L135.142 248.592L144.996 245.655L144.67 245.54ZM135.293 248.313L133.536 242.44C137.162 243.341 140.77 244.416 144.27 245.637L135.293 248.313ZM144.67 245.54C141.001 244.247 137.208 243.115 133.399 242.175L133.208 242.127L135.142 248.592L144.996 245.655L144.67 245.54ZM135.293 248.313L133.536 242.44C137.162 243.341 140.77 244.416 144.27 245.637L135.293 248.313ZM163.898 254.279C162.19 253.315 160.457 252.392 158.7 251.509C158.215 251.266 157.729 251.026 157.242 250.789C154.266 249.344 151.246 248.027 148.179 246.837L148.143 246.823L135.721 250.527L139.113 261.866L164.128 254.409L163.898 254.279ZM139.264 261.586L136 250.677L148.134 247.06C151.091 248.208 154.014 249.48 156.903 250.875C157.405 251.117 157.905 251.362 158.403 251.612C160.143 252.481 161.861 253.392 163.557 254.345L139.264 261.586ZM129.033 266.978L129.098 267.192L137.603 264.657L138.535 267.774L130.03 270.309L130.094 270.524L138.815 267.925L137.754 264.378L129.033 266.978ZM141.332 269.282L141.983 271.46L142.193 271.375L141.611 269.432L174.775 259.546L174.71 259.331L141.332 269.282ZM173.135 254.065L173.07 253.85L139.692 263.8L140.753 267.347L174.132 257.397L174.067 257.182L140.904 267.068L139.972 263.951L173.135 254.065ZM148.345 244.422C143.262 242.472 138.041 240.903 132.724 239.728L132.073 237.552L131.864 237.636L132.52 239.829L132.74 239.962C138.036 241.136 143.237 242.701 148.301 244.645L148.337 244.659L168.52 238.642L168.456 238.427L148.345 244.422ZM132.924 249.019L124.419 251.554L124.483 251.769L133.204 249.17L129.979 238.393L129.77 238.477L132.924 249.019ZM169.099 240.576L151.355 245.866L151.644 245.987C154.366 247.13 157.08 248.394 159.787 249.778C160.172 249.975 160.557 250.174 160.941 250.376C162.852 251.378 164.748 252.435 166.63 253.549L166.839 253.6L172.492 251.915L172.427 251.7L166.788 253.381C164.926 252.279 163.048 251.229 161.151 250.233C160.772 250.033 160.392 249.836 160.012 249.641C157.362 248.283 154.698 247.036 152.019 245.902L169.164 240.791L169.099 240.576ZM130.673 272.459L130.738 272.674L139.243 270.138L139.89 272.301L140.099 272.217L139.394 269.859L130.673 272.459ZM125.062 253.704L125.126 253.919L133.631 251.384L136.895 262.293L128.39 264.828L128.455 265.043L137.175 262.443L133.783 251.104L125.062 253.704ZM144.67 245.54C141.001 244.247 137.208 243.115 133.399 242.175L133.208 242.127L135.142 248.592L144.996 245.655L144.67 245.54ZM135.293 248.313L133.536 242.44C137.162 243.341 140.77 244.416 144.27 245.637L135.293 248.313ZM163.898 254.279C162.19 253.315 160.457 252.392 158.7 251.509C158.215 251.266 157.729 251.026 157.242 250.789C154.266 249.344 151.246 248.027 148.179 246.837L148.143 246.823L135.721 250.527L139.113 261.866L164.128 254.409L163.898 254.279ZM139.264 261.586L136 250.677L148.134 247.06C151.091 248.208 154.014 249.48 156.903 250.875C157.405 251.117 157.905 251.362 158.403 251.612C160.143 252.481 161.861 253.392 163.557 254.345L139.264 261.586ZM144.67 245.54C141.001 244.247 137.208 243.115 133.399 242.175L133.208 242.127L135.142 248.592L144.996 245.655L144.67 245.54ZM135.293 248.313L133.536 242.44C137.162 243.341 140.77 244.416 144.27 245.637L135.293 248.313ZM163.898 254.279C162.19 253.315 160.457 252.392 158.7 251.509C158.215 251.266 157.729 251.026 157.242 250.789C154.266 249.344 151.246 248.027 148.179 246.837L148.143 246.823L135.721 250.527L139.113 261.866L164.128 254.409L163.898 254.279ZM139.264 261.586L136 250.677L148.134 247.06C151.091 248.208 154.014 249.48 156.903 250.875C157.405 251.117 157.905 251.362 158.403 251.612C160.143 252.481 161.861 253.392 163.557 254.345L139.264 261.586Z" fill="white"/>
<path d="M147.527 246.552C148.342 249.274 145.218 256.81 145.218 256.81C145.218 256.81 138.467 252.218 137.652 249.496C137.261 248.189 137.406 246.78 138.056 245.58C138.705 244.379 139.806 243.486 141.115 243.095C142.425 242.705 143.836 242.85 145.039 243.498C146.241 244.146 147.136 245.245 147.527 246.552H147.527Z" fill="#FFBD00"/>
<path d="M144.783 247.137C144.916 247.583 144.914 248.058 144.777 248.502C144.64 248.947 144.374 249.34 144.012 249.634C143.651 249.927 143.211 250.107 142.747 250.151C142.283 250.194 141.816 250.1 141.406 249.879C140.997 249.658 140.661 249.32 140.444 248.909C140.226 248.498 140.135 248.032 140.183 247.569C140.23 247.107 140.414 246.668 140.711 246.31C141.008 245.952 141.405 245.69 141.852 245.557C142.148 245.468 142.459 245.439 142.767 245.47C143.075 245.502 143.373 245.594 143.645 245.74C143.918 245.887 144.158 246.086 144.353 246.326C144.549 246.565 144.695 246.841 144.783 247.137Z" fill="white"/>
<path d="M145.885 260.425C146.652 260.425 147.274 259.804 147.274 259.038C147.274 258.273 146.652 257.652 145.885 257.652C145.118 257.652 144.496 258.273 144.496 259.038C144.496 259.804 145.118 260.425 145.885 260.425Z" fill="#FFBD00"/>
<path d="M161.042 240.808L151.388 243.685C151.376 243.689 151.364 243.692 151.352 243.693L153.555 234.438C153.569 234.381 153.597 234.328 153.637 234.285C153.678 234.242 153.729 234.21 153.785 234.193C153.842 234.176 153.902 234.175 153.959 234.189C154.017 234.202 154.069 234.231 154.112 234.272L158.761 238.656L158.984 238.866L161.042 240.808Z" fill="white"/>
<path opacity="0.2" d="M161.042 240.808L157.746 241.79L158.662 238.962L158.728 238.758L158.761 238.656L158.984 238.866L161.042 240.808Z" fill="black"/>
<path d="M166.417 239.205L158.068 241.694L158.984 238.866L159.05 238.662L160.243 234.977C160.267 234.919 160.302 234.867 160.347 234.823C160.392 234.78 160.445 234.746 160.504 234.725C160.562 234.704 160.625 234.695 160.687 234.699C160.749 234.703 160.81 234.721 160.865 234.75C160.88 234.759 160.894 234.768 160.907 234.779L166.417 239.205Z" fill="white"/>
</g>
<path d="M47.707 38.1934V40H28.8594V38.1934H47.707ZM29.7383 4.45312V40H27.7363V4.45312H29.7383ZM55.3486 13.584V40H53.3955V13.584H55.3486ZM52.7852 5.57617C52.7852 5.13672 52.9316 4.76237 53.2246 4.45312C53.5339 4.1276 53.9245 3.96484 54.3965 3.96484C54.8522 3.96484 55.2347 4.1276 55.5439 4.45312C55.8532 4.76237 56.0078 5.13672 56.0078 5.57617C56.0078 6.01562 55.8532 6.38997 55.5439 6.69922C55.2347 6.99219 54.8522 7.13867 54.3965 7.13867C53.9245 7.13867 53.5339 6.99219 53.2246 6.69922C52.9316 6.38997 52.7852 6.01562 52.7852 5.57617ZM79.8848 33.4326C79.8848 32.6514 79.6732 31.8783 79.25 31.1133C78.8431 30.3483 78.0863 29.6322 76.9795 28.9648C75.889 28.2975 74.3021 27.736 72.2188 27.2803C70.7376 26.9548 69.4274 26.5967 68.2881 26.2061C67.165 25.8154 66.221 25.3434 65.4561 24.79C64.6911 24.2204 64.1133 23.5449 63.7227 22.7637C63.3483 21.9824 63.1611 21.0465 63.1611 19.9561C63.1611 19.012 63.3646 18.125 63.7715 17.2949C64.1784 16.4648 64.7725 15.7406 65.5537 15.1221C66.3512 14.4873 67.3034 13.9909 68.4102 13.6328C69.5169 13.2747 70.7702 13.0957 72.1699 13.0957C74.1719 13.0957 75.8809 13.4294 77.2969 14.0967C78.7292 14.7477 79.8278 15.651 80.5928 16.8066C81.3577 17.946 81.7402 19.2725 81.7402 20.7861H79.7871C79.7871 19.7607 79.4941 18.8005 78.9082 17.9053C78.3223 17.0101 77.4596 16.2858 76.3203 15.7324C75.1973 15.1628 73.8138 14.8779 72.1699 14.8779C70.5098 14.8779 69.1589 15.1302 68.1172 15.6348C67.0755 16.1393 66.3105 16.7822 65.8223 17.5635C65.3503 18.3285 65.1143 19.1097 65.1143 19.9072C65.1143 20.542 65.2038 21.1361 65.3828 21.6895C65.5781 22.2266 65.9443 22.723 66.4814 23.1787C67.0186 23.6344 67.7917 24.0739 68.8008 24.4971C69.8099 24.904 71.1201 25.2865 72.7314 25.6445C74.8473 26.1165 76.5726 26.6943 77.9072 27.3779C79.2419 28.0452 80.2266 28.8672 80.8613 29.8438C81.4961 30.804 81.8135 31.984 81.8135 33.3838C81.8135 34.4255 81.5938 35.3857 81.1543 36.2646C80.7148 37.1273 80.0801 37.876 79.25 38.5107C78.4362 39.1455 77.4434 39.6338 76.2715 39.9756C75.0996 40.3174 73.7975 40.4883 72.3652 40.4883C70.2005 40.4883 68.3613 40.1465 66.8477 39.4629C65.3503 38.763 64.2109 37.8434 63.4297 36.7041C62.6647 35.5648 62.2822 34.3359 62.2822 33.0176H64.2354C64.3493 34.4661 64.8213 35.6055 65.6514 36.4355C66.4977 37.2656 67.5231 37.8516 68.7275 38.1934C69.9482 38.5352 71.1608 38.7061 72.3652 38.7061C74.0091 38.7061 75.3844 38.4538 76.4912 37.9492C77.6143 37.4284 78.4606 36.7692 79.0303 35.9717C79.5999 35.1579 79.8848 34.3115 79.8848 33.4326ZM98.1953 13.584V15.3418H85.5488V13.584H98.1953ZM90.4316 6.60156H92.3848V33.6279C92.3848 35.0439 92.5557 36.1182 92.8975 36.8506C93.2555 37.5667 93.7194 38.055 94.2891 38.3154C94.875 38.5596 95.5016 38.6816 96.1689 38.6816C96.641 38.6816 97.0723 38.6572 97.4629 38.6084C97.8698 38.5596 98.2767 38.5026 98.6836 38.4375L98.8545 40.1465C98.4964 40.2604 98.0326 40.3418 97.4629 40.3906C96.8932 40.4557 96.3887 40.4883 95.9492 40.4883C94.8424 40.4883 93.874 40.2848 93.0439 39.8779C92.2139 39.471 91.571 38.7712 91.1152 37.7783C90.6595 36.7692 90.4316 35.3857 90.4316 33.6279V6.60156ZM143.679 27.3291C143.63 28.8753 143.41 30.4297 143.02 31.9922C142.645 33.5384 142.084 34.9544 141.335 36.2402C140.586 37.526 139.642 38.5596 138.503 39.3408C137.38 40.1058 136.029 40.4883 134.45 40.4883C133.457 40.4883 132.578 40.3092 131.813 39.9512C131.049 39.5768 130.414 39.056 129.909 38.3887C129.405 37.7051 129.038 36.8831 128.811 35.9229C128.583 34.9463 128.518 33.8639 128.615 32.6758L129.812 18.54H131.594L130.397 32.6758C130.284 34.043 130.357 35.1416 130.617 35.9717C130.894 36.7855 131.268 37.404 131.74 37.8271C132.212 38.234 132.709 38.5107 133.229 38.6572C133.767 38.7874 134.23 38.8525 134.621 38.8525C135.76 38.8525 136.77 38.5677 137.648 37.998C138.527 37.4121 139.276 36.5983 139.895 35.5566C140.513 34.515 140.993 33.2943 141.335 31.8945C141.677 30.4948 141.88 28.973 141.945 27.3291C142.076 24.8551 141.97 22.5765 141.628 20.4932C141.286 18.3936 140.692 16.5299 139.846 14.9023C138.999 13.2585 137.884 11.8669 136.501 10.7275C135.134 9.58822 133.482 8.71745 131.545 8.11523C129.624 7.51302 127.403 7.21191 124.88 7.21191C122.748 7.21191 120.738 7.5293 118.85 8.16406C116.962 8.78255 115.228 9.70215 113.649 10.9229C112.087 12.1273 110.72 13.5921 109.548 15.3174C108.392 17.0426 107.465 18.9958 106.765 21.1768C106.081 23.3577 105.674 25.7422 105.544 28.3301C105.43 30.7389 105.585 33.0176 106.008 35.166C106.431 37.2982 107.106 39.235 108.034 40.9766C108.962 42.7181 110.134 44.2155 111.55 45.4688C112.982 46.722 114.642 47.6823 116.53 48.3496C118.418 49.0332 120.518 49.375 122.829 49.375C124.261 49.375 125.71 49.196 127.175 48.8379C128.656 48.4961 129.893 48.0322 130.886 47.4463L131.545 48.8867C130.487 49.5866 129.112 50.1237 127.419 50.498C125.743 50.8724 124.18 51.0596 122.731 51.0596C120.257 51.0596 117.995 50.7178 115.944 50.0342C113.91 49.3669 112.103 48.3822 110.524 47.0801C108.962 45.7943 107.66 44.2236 106.618 42.3682C105.576 40.529 104.812 38.4294 104.323 36.0693C103.835 33.7093 103.648 31.1296 103.762 28.3301C103.892 25.5632 104.315 22.9997 105.031 20.6396C105.747 18.2796 106.724 16.1719 107.961 14.3164C109.198 12.4447 110.671 10.8496 112.38 9.53125C114.089 8.21289 116.001 7.20378 118.117 6.50391C120.233 5.80404 122.52 5.4541 124.978 5.4541C127.631 5.4541 129.991 5.78776 132.058 6.45508C134.141 7.10612 135.939 8.05827 137.453 9.31152C138.967 10.5485 140.204 12.0622 141.164 13.8525C142.124 15.6266 142.808 17.653 143.215 19.9316C143.638 22.194 143.793 24.6598 143.679 27.3291ZM116.481 29.4531C116.335 30.7715 116.319 31.9922 116.433 33.1152C116.563 34.2383 116.815 35.223 117.189 36.0693C117.58 36.9157 118.093 37.5749 118.728 38.0469C119.379 38.5189 120.152 38.7549 121.047 38.7549C121.779 38.7549 122.512 38.641 123.244 38.4131C123.993 38.1689 124.717 37.7539 125.417 37.168C126.133 36.582 126.8 35.7601 127.419 34.7021C128.037 33.6279 128.575 32.2526 129.03 30.5762L129.958 31.9189C129.551 33.335 129.047 34.5801 128.444 35.6543C127.858 36.7122 127.183 37.6074 126.418 38.3398C125.653 39.056 124.807 39.5931 123.879 39.9512C122.951 40.3092 121.95 40.4883 120.876 40.4883C119.753 40.4883 118.768 40.2279 117.922 39.707C117.092 39.1862 116.408 38.4375 115.871 37.4609C115.334 36.4844 114.96 35.3206 114.748 33.9697C114.553 32.6188 114.528 31.1133 114.675 29.4531C114.821 27.793 115.106 26.263 115.529 24.8633C115.969 23.4473 116.514 22.1859 117.165 21.0791C117.832 19.9723 118.589 19.0365 119.436 18.2715C120.282 17.4902 121.201 16.8962 122.194 16.4893C123.187 16.0824 124.229 15.8789 125.319 15.8789C126.882 15.8789 128.111 16.1475 129.006 16.6846C129.917 17.2217 130.78 17.8402 131.594 18.54L130.202 19.6631C129.681 19.0446 129.022 18.54 128.225 18.1494C127.427 17.7588 126.459 17.5635 125.319 17.5635C124.294 17.5635 123.293 17.7995 122.316 18.2715C121.356 18.7435 120.469 19.4678 119.655 20.4443C118.858 21.4209 118.182 22.6579 117.629 24.1553C117.076 25.6364 116.693 27.4023 116.481 29.4531ZM164.846 18.6621V50.1562H162.893V13.584H164.772L164.846 18.6621ZM183.547 26.5234V27.0361C183.547 29.0381 183.319 30.861 182.863 32.5049C182.424 34.1488 181.773 35.5648 180.91 36.7529C180.064 37.9411 179.022 38.8607 177.785 39.5117C176.548 40.1628 175.14 40.4883 173.562 40.4883C172.048 40.4883 170.689 40.2686 169.484 39.8291C168.28 39.3734 167.238 38.7386 166.359 37.9248C165.48 37.111 164.772 36.1833 164.235 35.1416C163.698 34.0837 163.324 32.9525 163.112 31.748V22.5684C163.389 21.1849 163.804 19.9235 164.357 18.7842C164.927 17.6286 165.635 16.6276 166.481 15.7812C167.344 14.9186 168.361 14.2594 169.533 13.8037C170.705 13.3317 172.032 13.0957 173.513 13.0957C175.091 13.0957 176.499 13.4131 177.736 14.0479C178.99 14.6663 180.048 15.5615 180.91 16.7334C181.773 17.889 182.424 19.2969 182.863 20.957C183.319 22.6009 183.547 24.4564 183.547 26.5234ZM181.569 27.0361V26.5234C181.569 24.8633 181.398 23.3252 181.057 21.9092C180.731 20.4932 180.227 19.2643 179.543 18.2227C178.859 17.181 177.997 16.3672 176.955 15.7812C175.913 15.1953 174.685 14.9023 173.269 14.9023C171.722 14.9023 170.412 15.1628 169.338 15.6836C168.264 16.1882 167.377 16.8473 166.677 17.6611C165.993 18.4749 165.464 19.3538 165.09 20.2979C164.715 21.2256 164.439 22.1045 164.26 22.9346V31.6016C164.553 32.9036 165.074 34.0918 165.822 35.166C166.571 36.2402 167.564 37.1029 168.801 37.7539C170.054 38.3887 171.56 38.7061 173.317 38.7061C174.733 38.7061 175.954 38.4131 176.979 37.8271C178.005 37.2412 178.859 36.4274 179.543 35.3857C180.227 34.3441 180.731 33.1152 181.057 31.6992C181.398 30.2669 181.569 28.7126 181.569 27.0361ZM206.862 35.1416V21.4941C206.862 20.1107 206.569 18.9225 205.983 17.9297C205.397 16.9368 204.543 16.18 203.42 15.6592C202.297 15.1221 200.922 14.8535 199.294 14.8535C197.78 14.8535 196.421 15.1221 195.217 15.6592C194.029 16.18 193.093 16.8962 192.409 17.8076C191.726 18.7191 191.384 19.7363 191.384 20.8594L189.431 20.835C189.431 19.8258 189.667 18.8574 190.139 17.9297C190.627 17.002 191.311 16.18 192.189 15.4639C193.085 14.7314 194.134 14.1536 195.339 13.7305C196.56 13.3073 197.894 13.0957 199.343 13.0957C201.198 13.0957 202.834 13.4131 204.25 14.0479C205.682 14.6663 206.797 15.6022 207.595 16.8555C208.392 18.1087 208.791 19.6712 208.791 21.543V34.5801C208.791 35.5241 208.856 36.4762 208.986 37.4365C209.117 38.3968 209.296 39.1699 209.523 39.7559V40H207.399C207.22 39.3815 207.082 38.6247 206.984 37.7295C206.903 36.8343 206.862 35.9717 206.862 35.1416ZM207.497 25.0098L207.546 26.6943H201.101C199.473 26.6943 198.016 26.849 196.73 27.1582C195.445 27.4674 194.354 27.9069 193.459 28.4766C192.564 29.0462 191.88 29.7217 191.408 30.5029C190.936 31.2842 190.7 32.1631 190.7 33.1396C190.7 34.1488 190.969 35.0765 191.506 35.9229C192.043 36.7692 192.8 37.4447 193.776 37.9492C194.753 38.4375 195.884 38.6816 197.17 38.6816C198.928 38.6816 200.482 38.3805 201.833 37.7783C203.2 37.1598 204.348 36.3298 205.275 35.2881C206.203 34.2301 206.879 33.0094 207.302 31.626L208.156 33.042C207.88 33.9046 207.448 34.7754 206.862 35.6543C206.276 36.5332 205.52 37.3389 204.592 38.0713C203.664 38.7874 202.574 39.3734 201.32 39.8291C200.067 40.2686 198.643 40.4883 197.048 40.4883C195.371 40.4883 193.907 40.179 192.653 39.5605C191.416 38.9258 190.456 38.0632 189.772 36.9727C189.089 35.8659 188.747 34.6045 188.747 33.1885C188.747 31.9678 189.024 30.8529 189.577 29.8438C190.131 28.8346 190.928 27.972 191.97 27.2559C193.028 26.5234 194.305 25.9701 195.803 25.5957C197.316 25.2051 199.017 25.0098 200.905 25.0098H207.497ZM218.972 18.0762V40H217.043V13.584H218.947L218.972 18.0762ZM229.03 13.3887L228.908 15.1465C228.615 15.0977 228.322 15.057 228.029 15.0244C227.736 14.9919 227.427 14.9756 227.102 14.9756C225.702 14.9756 224.473 15.2523 223.415 15.8057C222.373 16.359 221.494 17.1159 220.778 18.0762C220.078 19.0365 219.549 20.1514 219.191 21.4209C218.833 22.6904 218.646 24.0495 218.63 25.498L217.678 25.6934C217.678 23.8867 217.865 22.2184 218.239 20.6885C218.63 19.1585 219.216 17.8239 219.997 16.6846C220.778 15.5452 221.763 14.6663 222.951 14.0479C224.139 13.4131 225.539 13.0957 227.15 13.0957C227.541 13.0957 227.899 13.1283 228.225 13.1934C228.55 13.2422 228.819 13.3073 229.03 13.3887ZM249.245 35.1416V21.4941C249.245 20.1107 248.952 18.9225 248.366 17.9297C247.78 16.9368 246.926 16.18 245.803 15.6592C244.68 15.1221 243.304 14.8535 241.677 14.8535C240.163 14.8535 238.804 15.1221 237.6 15.6592C236.411 16.18 235.476 16.8962 234.792 17.8076C234.108 18.7191 233.767 19.7363 233.767 20.8594L231.813 20.835C231.813 19.8258 232.049 18.8574 232.521 17.9297C233.01 17.002 233.693 16.18 234.572 15.4639C235.467 14.7314 236.517 14.1536 237.722 13.7305C238.942 13.3073 240.277 13.0957 241.726 13.0957C243.581 13.0957 245.217 13.4131 246.633 14.0479C248.065 14.6663 249.18 15.6022 249.978 16.8555C250.775 18.1087 251.174 19.6712 251.174 21.543V34.5801C251.174 35.5241 251.239 36.4762 251.369 37.4365C251.499 38.3968 251.678 39.1699 251.906 39.7559V40H249.782C249.603 39.3815 249.465 38.6247 249.367 37.7295C249.286 36.8343 249.245 35.9717 249.245 35.1416ZM249.88 25.0098L249.929 26.6943H243.483C241.856 26.6943 240.399 26.849 239.113 27.1582C237.827 27.4674 236.737 27.9069 235.842 28.4766C234.947 29.0462 234.263 29.7217 233.791 30.5029C233.319 31.2842 233.083 32.1631 233.083 33.1396C233.083 34.1488 233.352 35.0765 233.889 35.9229C234.426 36.7692 235.183 37.4447 236.159 37.9492C237.136 38.4375 238.267 38.6816 239.553 38.6816C241.311 38.6816 242.865 38.3805 244.216 37.7783C245.583 37.1598 246.73 36.3298 247.658 35.2881C248.586 34.2301 249.261 33.0094 249.685 31.626L250.539 33.042C250.262 33.9046 249.831 34.7754 249.245 35.6543C248.659 36.5332 247.902 37.3389 246.975 38.0713C246.047 38.7874 244.956 39.3734 243.703 39.8291C242.45 40.2686 241.026 40.4883 239.431 40.4883C237.754 40.4883 236.289 40.179 235.036 39.5605C233.799 38.9258 232.839 38.0632 232.155 36.9727C231.472 35.8659 231.13 34.6045 231.13 33.1885C231.13 31.9678 231.407 30.8529 231.96 29.8438C232.513 28.8346 233.311 27.972 234.353 27.2559C235.41 26.5234 236.688 25.9701 238.186 25.5957C239.699 25.2051 241.4 25.0098 243.288 25.0098H249.88Z" fill="white"/>
<path d="M34.8164 49.4531V85H26.2715V49.4531H34.8164ZM48.7568 65.127V85H40.5293V58.584H48.2197L48.7568 65.127ZM56.5693 58.3887L56.4229 66.0303C56.0973 65.9977 55.6579 65.957 55.1045 65.9082C54.5511 65.8594 54.0872 65.835 53.7129 65.835C52.7526 65.835 51.9225 65.9489 51.2227 66.1768C50.5391 66.3883 49.9694 66.7139 49.5137 67.1533C49.0742 67.5765 48.7487 68.1136 48.5371 68.7646C48.3418 69.4157 48.2523 70.1725 48.2686 71.0352L46.7793 70.0586C46.7793 68.2845 46.9502 66.6732 47.292 65.2246C47.6501 63.7598 48.1546 62.4984 48.8057 61.4404C49.4567 60.3662 50.2461 59.5443 51.1738 58.9746C52.1016 58.3887 53.1432 58.0957 54.2988 58.0957C54.7057 58.0957 55.1045 58.1201 55.4951 58.1689C55.902 58.2178 56.2601 58.291 56.5693 58.3887ZM67.4824 64.2236V85H59.2549V58.584H66.9697L67.4824 64.2236ZM66.5059 70.8887L64.5771 70.9375C64.5771 68.9193 64.8213 67.1208 65.3096 65.542C65.7979 63.9469 66.4896 62.596 67.3848 61.4893C68.2799 60.3825 69.346 59.5443 70.583 58.9746C71.8363 58.3887 73.2279 58.0957 74.7578 58.0957C75.9785 58.0957 77.0934 58.2747 78.1025 58.6328C79.1279 58.9909 80.0068 59.5687 80.7393 60.3662C81.488 61.1637 82.0576 62.2217 82.4482 63.54C82.8551 64.8421 83.0586 66.4535 83.0586 68.374V85H74.7822V68.3496C74.7822 67.2917 74.6357 66.486 74.3428 65.9326C74.0498 65.363 73.6266 64.9723 73.0732 64.7607C72.5199 64.5492 71.8444 64.4434 71.0469 64.4434C70.2005 64.4434 69.4844 64.6061 68.8984 64.9316C68.3125 65.2572 67.8405 65.7129 67.4824 66.2988C67.1406 66.8685 66.8883 67.5439 66.7256 68.3252C66.5791 69.1064 66.5059 69.9609 66.5059 70.8887ZM86.5986 72.0605V71.5479C86.5986 69.611 86.8753 67.8288 87.4287 66.2012C87.9821 64.5573 88.7959 63.1331 89.8701 61.9287C90.9443 60.7243 92.2708 59.7884 93.8496 59.1211C95.4284 58.4375 97.2513 58.0957 99.3184 58.0957C101.402 58.0957 103.233 58.4375 104.812 59.1211C106.407 59.7884 107.741 60.7243 108.815 61.9287C109.89 63.1331 110.703 64.5573 111.257 66.2012C111.81 67.8288 112.087 69.611 112.087 71.5479V72.0605C112.087 73.9811 111.81 75.7633 111.257 77.4072C110.703 79.0348 109.89 80.459 108.815 81.6797C107.741 82.8841 106.415 83.82 104.836 84.4873C103.257 85.1546 101.434 85.4883 99.3672 85.4883C97.3001 85.4883 95.4691 85.1546 93.874 84.4873C92.279 83.82 90.9443 82.8841 89.8701 81.6797C88.7959 80.459 87.9821 79.0348 87.4287 77.4072C86.8753 75.7633 86.5986 73.9811 86.5986 72.0605ZM94.8262 71.5479V72.0605C94.8262 73.0534 94.8994 73.9811 95.0459 74.8438C95.1924 75.7064 95.4365 76.4632 95.7783 77.1143C96.1201 77.749 96.584 78.2454 97.1699 78.6035C97.7559 78.9616 98.4883 79.1406 99.3672 79.1406C100.23 79.1406 100.946 78.9616 101.516 78.6035C102.102 78.2454 102.565 77.749 102.907 77.1143C103.249 76.4632 103.493 75.7064 103.64 74.8438C103.786 73.9811 103.859 73.0534 103.859 72.0605V71.5479C103.859 70.5876 103.786 69.6842 103.64 68.8379C103.493 67.9753 103.249 67.2184 102.907 66.5674C102.565 65.9001 102.102 65.3792 101.516 65.0049C100.93 64.6305 100.197 64.4434 99.3184 64.4434C98.4557 64.4434 97.7314 64.6305 97.1455 65.0049C96.5758 65.3792 96.1201 65.9001 95.7783 66.5674C95.4365 67.2184 95.1924 67.9753 95.0459 68.8379C94.8994 69.6842 94.8262 70.5876 94.8262 71.5479ZM129.592 77.5781C129.592 77.1224 129.437 76.7318 129.128 76.4062C128.835 76.0645 128.314 75.7552 127.565 75.4785C126.817 75.1855 125.767 74.8926 124.416 74.5996C123.13 74.3229 121.918 73.9567 120.778 73.501C119.655 73.0452 118.671 72.4919 117.824 71.8408C116.978 71.1898 116.311 70.4167 115.822 69.5215C115.35 68.6263 115.114 67.6009 115.114 66.4453C115.114 65.3223 115.35 64.2643 115.822 63.2715C116.311 62.2624 117.019 61.3753 117.946 60.6104C118.89 59.8291 120.038 59.2188 121.389 58.7793C122.74 58.3236 124.278 58.0957 126.003 58.0957C128.379 58.0957 130.43 58.4619 132.155 59.1943C133.881 59.9105 135.207 60.9196 136.135 62.2217C137.079 63.5075 137.551 64.9967 137.551 66.6895H129.323C129.323 66.0221 129.209 65.4525 128.981 64.9805C128.77 64.5085 128.42 64.1504 127.932 63.9062C127.443 63.6458 126.792 63.5156 125.979 63.5156C125.409 63.5156 124.888 63.6214 124.416 63.833C123.96 64.0446 123.594 64.3376 123.317 64.7119C123.041 65.0863 122.902 65.5257 122.902 66.0303C122.902 66.3883 122.984 66.7139 123.146 67.0068C123.326 67.2835 123.594 67.5439 123.952 67.7881C124.31 68.016 124.766 68.2275 125.319 68.4229C125.873 68.6019 126.54 68.7646 127.321 68.9111C129.095 69.2367 130.756 69.7005 132.302 70.3027C133.848 70.9049 135.101 71.7594 136.062 72.8662C137.038 73.973 137.526 75.4622 137.526 77.334C137.526 78.5059 137.258 79.5882 136.721 80.5811C136.184 81.5576 135.41 82.4202 134.401 83.1689C133.392 83.9014 132.18 84.471 130.764 84.8779C129.348 85.2848 127.753 85.4883 125.979 85.4883C123.456 85.4883 121.324 85.0407 119.582 84.1455C117.84 83.234 116.522 82.0947 115.627 80.7275C114.748 79.3441 114.309 77.9443 114.309 76.5283H121.975C122.007 77.3421 122.202 78.0094 122.561 78.5303C122.935 79.0511 123.431 79.4336 124.05 79.6777C124.668 79.9219 125.384 80.0439 126.198 80.0439C126.947 80.0439 127.565 79.9382 128.054 79.7266C128.558 79.515 128.941 79.2301 129.201 78.8721C129.462 78.4977 129.592 78.0664 129.592 77.5781ZM154.47 73.7451H147.463C147.463 72.3128 147.561 71.0514 147.756 69.9609C147.967 68.8542 148.326 67.8613 148.83 66.9824C149.335 66.1035 150.018 65.2897 150.881 64.541C151.646 63.9062 152.305 63.2959 152.858 62.71C153.412 62.124 153.835 61.5299 154.128 60.9277C154.421 60.3255 154.567 59.6826 154.567 58.999C154.567 58.1527 154.445 57.4609 154.201 56.9238C153.973 56.3867 153.623 55.988 153.151 55.7275C152.696 55.4508 152.118 55.3125 151.418 55.3125C150.848 55.3125 150.311 55.4508 149.807 55.7275C149.318 56.0042 148.92 56.4355 148.61 57.0215C148.301 57.5911 148.13 58.348 148.098 59.292H139.821C139.87 56.8669 140.407 54.8975 141.433 53.3838C142.474 51.8538 143.858 50.7389 145.583 50.0391C147.325 49.3229 149.27 48.9648 151.418 48.9648C153.794 48.9648 155.837 49.3311 157.546 50.0635C159.255 50.7959 160.565 51.8864 161.477 53.335C162.388 54.7673 162.844 56.5332 162.844 58.6328C162.844 60.0326 162.575 61.2533 162.038 62.2949C161.517 63.3203 160.809 64.2806 159.914 65.1758C159.035 66.0547 158.05 66.9987 156.96 68.0078C156.016 68.8379 155.373 69.6842 155.031 70.5469C154.689 71.3932 154.502 72.4593 154.47 73.7451ZM146.462 81.167C146.462 79.9951 146.885 79.0186 147.731 78.2373C148.578 77.4398 149.676 77.041 151.027 77.041C152.378 77.041 153.477 77.4398 154.323 78.2373C155.17 79.0186 155.593 79.9951 155.593 81.167C155.593 82.3389 155.17 83.3236 154.323 84.1211C153.477 84.9023 152.378 85.293 151.027 85.293C149.676 85.293 148.578 84.9023 147.731 84.1211C146.885 83.3236 146.462 82.3389 146.462 81.167Z" fill="#FBCB0D"/>
<defs>
<clipPath id="clip0_878_777">
<rect width="306" height="211" fill="white" transform="translate(0 124)"/>
</clipPath>
</defs>
</svg>
