<svg width="353" height="63" viewBox="0 0 353 63" fill="none" xmlns="http://www.w3.org/2000/svg">
<circle r="6.51932" transform="matrix(1 0 0 -1 148.253 7.48385)" fill="#5F9032"/>
<circle r="6.01932" transform="matrix(1 0 0 -1 148.253 7.48385)" stroke="white" stroke-opacity="0.46"/>
<circle r="6.51932" transform="matrix(1 0 0 -1 167.418 7.48385)" fill="#FBCB0D"/>
<circle r="6.01932" transform="matrix(1 0 0 -1 167.418 7.48385)" stroke="white" stroke-opacity="0.46"/>
<circle r="6.51932" transform="matrix(1 0 0 -1 186.583 7.48385)" fill="#DF4949"/>
<circle r="6.01932" transform="matrix(1 0 0 -1 186.583 7.48385)" stroke="white" stroke-opacity="0.46"/>
<circle r="6.51932" transform="matrix(1 0 0 -1 205.748 7.48385)" fill="#41332B"/>
<circle r="6.01932" transform="matrix(1 0 0 -1 205.748 7.48385)" stroke="white" stroke-opacity="0.46"/>
<path d="M148.253 18.2229V39.5647H103.253" stroke="#5F9032"/>
<path d="M205.748 18.4177V39.7595H250.748" stroke="#41332B"/>
<path d="M7.03076 34.4553V41.5647H6.76709L2.17725 34.9045V41.5647H1.90869V34.4553H2.17725L6.76709 41.1008V34.4553H7.03076ZM12.1675 40.5735V37.844C12.1675 37.551 12.104 37.3004 11.9771 37.092C11.8534 36.8837 11.6711 36.7242 11.4302 36.6135C11.1925 36.5028 10.9012 36.4475 10.5562 36.4475C10.2371 36.4475 9.94906 36.5045 9.69189 36.6184C9.43799 36.7291 9.23617 36.8821 9.08643 37.0774C8.93994 37.2727 8.8667 37.4924 8.8667 37.7366L8.60303 37.7268C8.60303 37.5217 8.65023 37.3264 8.74463 37.1409C8.84229 36.9553 8.97738 36.7909 9.1499 36.6477C9.32568 36.5045 9.53239 36.3922 9.77002 36.3108C10.0109 36.2262 10.2729 36.1838 10.5562 36.1838C10.924 36.1838 11.2479 36.2457 11.5278 36.3694C11.811 36.4931 12.0324 36.6786 12.1919 36.926C12.3514 37.1734 12.4312 37.4827 12.4312 37.8538V40.5002C12.4312 40.689 12.4425 40.8795 12.4653 41.0715C12.4914 41.2636 12.5256 41.4133 12.5679 41.5208V41.5647H12.2651C12.2326 41.4377 12.2082 41.2847 12.1919 41.1057C12.1756 40.9234 12.1675 40.746 12.1675 40.5735ZM12.2847 38.6155L12.2944 38.884H10.9175C10.5757 38.884 10.2697 38.9182 9.99951 38.9866C9.72933 39.0517 9.49984 39.1444 9.31104 39.2649C9.12223 39.3853 8.97738 39.5286 8.87646 39.6946C8.77555 39.8606 8.7251 40.0445 8.7251 40.2463C8.7251 40.4579 8.78206 40.6516 8.896 40.8274C9.01318 41.0032 9.17432 41.1431 9.37939 41.2473C9.58447 41.3515 9.82048 41.4036 10.0874 41.4036C10.4585 41.4036 10.7873 41.3433 11.0737 41.2229C11.3602 41.0992 11.6027 40.9267 11.8013 40.7053C11.9998 40.484 12.1512 40.2219 12.2554 39.9192L12.3726 40.1633C12.3107 40.3456 12.2179 40.5263 12.0942 40.7053C11.9738 40.8811 11.8192 41.0422 11.6304 41.1887C11.4416 41.3319 11.2186 41.4475 10.9614 41.5354C10.7075 41.62 10.4162 41.6624 10.0874 41.6624C9.75863 41.6624 9.47217 41.6021 9.22803 41.4817C8.98389 41.358 8.79508 41.1887 8.66162 40.9739C8.52816 40.7558 8.46143 40.5068 8.46143 40.2268C8.46143 39.9924 8.51676 39.7776 8.62744 39.5823C8.73812 39.3837 8.89762 39.2128 9.10596 39.0696C9.31755 38.9231 9.57471 38.8108 9.87744 38.7327C10.1802 38.6545 10.522 38.6155 10.9028 38.6155H12.2847ZM15.9272 36.2815V36.55H13.481V36.2815H15.9272ZM14.4575 34.8557H14.7261V40.3C14.7261 40.6093 14.7619 40.8437 14.8335 41.0032C14.9084 41.1594 15.006 41.2652 15.1265 41.3206C15.2502 41.3726 15.382 41.3987 15.522 41.3987C15.6229 41.3987 15.7124 41.3954 15.7905 41.3889C15.8687 41.3792 15.9533 41.3678 16.0444 41.3547L16.0884 41.6038C16.0168 41.6265 15.924 41.6412 15.8101 41.6477C15.6961 41.6575 15.605 41.6624 15.5366 41.6624C15.312 41.6624 15.1183 41.6233 14.9556 41.5452C14.7961 41.4638 14.6724 41.3238 14.5845 41.1252C14.4998 40.9267 14.4575 40.6516 14.4575 40.3V34.8557ZM20.8394 40.344V36.2815H21.1079V41.5647H20.8394V40.344ZM20.8833 39.4993L21.1079 39.4895C21.1079 39.802 21.0672 40.0901 20.9858 40.3538C20.9045 40.6174 20.7791 40.8486 20.6099 41.0471C20.4406 41.2424 20.2241 41.3938 19.9604 41.5012C19.6968 41.6086 19.3826 41.6624 19.0181 41.6624C18.7609 41.6624 18.5249 41.6265 18.3101 41.5549C18.0985 41.4801 17.9146 41.3629 17.7583 41.2034C17.6053 41.0439 17.4865 40.8355 17.4019 40.5784C17.3205 40.318 17.2798 40.0038 17.2798 39.636V36.2815H17.5435V39.6458C17.5435 39.968 17.5793 40.2415 17.6509 40.4661C17.7257 40.6907 17.8283 40.8713 17.9585 41.0081C18.092 41.1448 18.2466 41.2441 18.4224 41.3059C18.6014 41.3678 18.7967 41.3987 19.0083 41.3987C19.4836 41.3987 19.8579 41.3075 20.1313 41.1252C20.4048 40.943 20.5985 40.7069 20.7124 40.4172C20.8263 40.1243 20.8833 39.8183 20.8833 39.4993ZM23.0415 37.1995V41.5647H22.7778V36.2815H23.0415V37.1995ZM25.1362 36.2375L25.1069 36.4719C25.0549 36.4654 24.9995 36.4589 24.9409 36.4524C24.8856 36.4459 24.827 36.4426 24.7651 36.4426C24.4689 36.4426 24.2085 36.5028 23.9839 36.6233C23.7625 36.7437 23.577 36.9097 23.4272 37.1213C23.2808 37.3329 23.1701 37.5771 23.0952 37.8538C23.0236 38.1272 22.9878 38.4202 22.9878 38.7327L22.812 38.7473C22.812 38.3762 22.8511 38.0344 22.9292 37.7219C23.0106 37.4094 23.131 37.1392 23.2905 36.9114C23.4533 36.6803 23.6567 36.5012 23.9009 36.3743C24.1483 36.2473 24.4364 36.1838 24.7651 36.1838C24.8465 36.1838 24.9181 36.1887 24.98 36.1985C25.0418 36.2083 25.0939 36.2213 25.1362 36.2375ZM29.2476 40.5735V37.844C29.2476 37.551 29.1841 37.3004 29.0571 37.092C28.9334 36.8837 28.7511 36.7242 28.5103 36.6135C28.2726 36.5028 27.9813 36.4475 27.6362 36.4475C27.3172 36.4475 27.0291 36.5045 26.772 36.6184C26.5181 36.7291 26.3162 36.8821 26.1665 37.0774C26.02 37.2727 25.9468 37.4924 25.9468 37.7366L25.6831 37.7268C25.6831 37.5217 25.7303 37.3264 25.8247 37.1409C25.9224 36.9553 26.0575 36.7909 26.23 36.6477C26.4058 36.5045 26.6125 36.3922 26.8501 36.3108C27.091 36.2262 27.353 36.1838 27.6362 36.1838C28.0041 36.1838 28.328 36.2457 28.6079 36.3694C28.8911 36.4931 29.1125 36.6786 29.272 36.926C29.4315 37.1734 29.5112 37.4827 29.5112 37.8538V40.5002C29.5112 40.689 29.5226 40.8795 29.5454 41.0715C29.5715 41.2636 29.6056 41.4133 29.6479 41.5208V41.5647H29.3452C29.3127 41.4377 29.2882 41.2847 29.272 41.1057C29.2557 40.9234 29.2476 40.746 29.2476 40.5735ZM29.3647 38.6155L29.3745 38.884H27.9976C27.6558 38.884 27.3498 38.9182 27.0796 38.9866C26.8094 39.0517 26.5799 39.1444 26.3911 39.2649C26.2023 39.3853 26.0575 39.5286 25.9565 39.6946C25.8556 39.8606 25.8052 40.0445 25.8052 40.2463C25.8052 40.4579 25.8621 40.6516 25.9761 40.8274C26.0933 41.0032 26.2544 41.1431 26.4595 41.2473C26.6646 41.3515 26.9006 41.4036 27.1675 41.4036C27.5386 41.4036 27.8674 41.3433 28.1538 41.2229C28.4403 41.0992 28.6828 40.9267 28.8813 40.7053C29.0799 40.484 29.2313 40.2219 29.3354 39.9192L29.4526 40.1633C29.3908 40.3456 29.298 40.5263 29.1743 40.7053C29.0539 40.8811 28.8993 41.0422 28.7104 41.1887C28.5216 41.3319 28.2987 41.4475 28.0415 41.5354C27.7876 41.62 27.4963 41.6624 27.1675 41.6624C26.8387 41.6624 26.5522 41.6021 26.3081 41.4817C26.064 41.358 25.8752 41.1887 25.7417 40.9739C25.6082 40.7558 25.5415 40.5068 25.5415 40.2268C25.5415 39.9924 25.5968 39.7776 25.7075 39.5823C25.8182 39.3837 25.9777 39.2128 26.186 39.0696C26.3976 38.9231 26.6548 38.8108 26.9575 38.7327C27.2603 38.6545 27.6021 38.6155 27.9829 38.6155H29.3647ZM31.5425 34.0647V41.5647H31.2788V34.0647H31.5425ZM35.1753 41.6624C34.853 41.6624 34.5519 41.5989 34.272 41.4719C33.992 41.3417 33.7463 41.1594 33.5347 40.925C33.3231 40.6907 33.1571 40.414 33.0366 40.095C32.9194 39.7727 32.8608 39.4195 32.8608 39.0354V38.8206C32.8608 38.4332 32.9178 38.08 33.0317 37.761C33.1489 37.4387 33.3084 37.1604 33.5103 36.926C33.7153 36.6884 33.9513 36.5061 34.2183 36.3792C34.4852 36.2489 34.7716 36.1838 35.0776 36.1838C35.3706 36.1838 35.6392 36.2392 35.8833 36.3499C36.1274 36.4573 36.339 36.6103 36.5181 36.8088C36.7004 37.0074 36.8403 37.245 36.938 37.5217C37.0356 37.7984 37.0845 38.1044 37.0845 38.4397V38.7473H33.0317V38.4836H36.8208V38.4202C36.8208 38.0653 36.7492 37.7398 36.606 37.4436C36.4627 37.1441 36.2609 36.9032 36.0005 36.7209C35.7401 36.5387 35.4325 36.4475 35.0776 36.4475C34.7847 36.4475 34.5177 36.5094 34.2769 36.6331C34.0392 36.7568 33.8341 36.9277 33.6616 37.1458C33.4891 37.3606 33.3556 37.6112 33.2612 37.8977C33.1701 38.1842 33.1245 38.4918 33.1245 38.8206V39.0354C33.1245 39.3642 33.1766 39.6718 33.2808 39.9583C33.3849 40.2447 33.5298 40.497 33.7153 40.7151C33.9009 40.9299 34.1174 41.0992 34.3647 41.2229C34.6154 41.3433 34.8856 41.4036 35.1753 41.4036C35.478 41.4036 35.7596 41.3531 36.02 41.2522C36.2837 41.1513 36.5246 40.9592 36.7427 40.676L36.9282 40.8079C36.811 40.9739 36.6694 41.122 36.5034 41.2522C36.3407 41.3792 36.1486 41.4801 35.9272 41.5549C35.7091 41.6265 35.4585 41.6624 35.1753 41.6624ZM42.0161 41.301V41.5647H37.9731V41.301H42.0161ZM41.728 36.5159L38.0659 41.5647H37.8999V41.3499L41.5669 36.2815H41.728V36.5159ZM41.606 36.2815V36.55H38.0513V36.2815H41.606ZM46.4058 40.5735V37.844C46.4058 37.551 46.3423 37.3004 46.2153 37.092C46.0916 36.8837 45.9093 36.7242 45.6685 36.6135C45.4308 36.5028 45.1395 36.4475 44.7944 36.4475C44.4754 36.4475 44.1873 36.5045 43.9302 36.6184C43.6763 36.7291 43.4744 36.8821 43.3247 37.0774C43.1782 37.2727 43.105 37.4924 43.105 37.7366L42.8413 37.7268C42.8413 37.5217 42.8885 37.3264 42.9829 37.1409C43.0806 36.9553 43.2157 36.7909 43.3882 36.6477C43.564 36.5045 43.7707 36.3922 44.0083 36.3108C44.2492 36.2262 44.5112 36.1838 44.7944 36.1838C45.1623 36.1838 45.4862 36.2457 45.7661 36.3694C46.0493 36.4931 46.2707 36.6786 46.4302 36.926C46.5897 37.1734 46.6694 37.4827 46.6694 37.8538V40.5002C46.6694 40.689 46.6808 40.8795 46.7036 41.0715C46.7297 41.2636 46.7638 41.4133 46.8062 41.5208V41.5647H46.5034C46.4709 41.4377 46.4465 41.2847 46.4302 41.1057C46.4139 40.9234 46.4058 40.746 46.4058 40.5735ZM46.5229 38.6155L46.5327 38.884H45.1558C44.814 38.884 44.508 38.9182 44.2378 38.9866C43.9676 39.0517 43.7381 39.1444 43.5493 39.2649C43.3605 39.3853 43.2157 39.5286 43.1147 39.6946C43.0138 39.8606 42.9634 40.0445 42.9634 40.2463C42.9634 40.4579 43.0203 40.6516 43.1343 40.8274C43.2515 41.0032 43.4126 41.1431 43.6177 41.2473C43.8228 41.3515 44.0588 41.4036 44.3257 41.4036C44.6968 41.4036 45.0256 41.3433 45.312 41.2229C45.5985 41.0992 45.841 40.9267 46.0396 40.7053C46.2381 40.484 46.3895 40.2219 46.4937 39.9192L46.6108 40.1633C46.549 40.3456 46.4562 40.5263 46.3325 40.7053C46.2121 40.8811 46.0575 41.0422 45.8687 41.1887C45.6799 41.3319 45.4569 41.4475 45.1997 41.5354C44.9458 41.62 44.6545 41.6624 44.3257 41.6624C43.9969 41.6624 43.7104 41.6021 43.4663 41.4817C43.2222 41.358 43.0334 41.1887 42.8999 40.9739C42.7664 40.7558 42.6997 40.5068 42.6997 40.2268C42.6997 39.9924 42.755 39.7776 42.8657 39.5823C42.9764 39.3837 43.1359 39.2128 43.3442 39.0696C43.5558 38.9231 43.813 38.8108 44.1157 38.7327C44.4185 38.6545 44.7603 38.6155 45.1411 38.6155H46.5229ZM52.4165 41.0569L54.2427 36.2815H54.5356L52.187 42.4436C52.1447 42.5543 52.0926 42.6812 52.0308 42.8245C51.9722 42.9677 51.8924 43.106 51.7915 43.2395C51.6906 43.373 51.5588 43.482 51.396 43.5667C51.2365 43.6545 51.0363 43.6985 50.7954 43.6985C50.7433 43.6985 50.675 43.6936 50.5903 43.6838C50.5057 43.6741 50.4438 43.6611 50.4048 43.6448L50.3999 43.3958C50.4487 43.4088 50.5122 43.4185 50.5903 43.425C50.6685 43.4348 50.7238 43.4397 50.7563 43.4397C50.9744 43.4397 51.1551 43.3941 51.2983 43.303C51.4448 43.2151 51.5669 43.0914 51.6646 42.9319C51.7622 42.7756 51.8485 42.5966 51.9233 42.3948L52.4165 41.0569ZM50.4243 36.2815L52.4214 41.2522L52.5044 41.5159L52.2944 41.6672L50.1362 36.2815H50.4243ZM60.1118 34.6799L57.5435 41.5647H57.2554L59.9165 34.4553H60.1704L60.1118 34.6799ZM62.6118 41.5647L60.0435 34.6799L59.9897 34.4553H60.2388L62.8999 41.5647H62.6118ZM61.8599 39.177V39.4407H58.3003V39.177H61.8599ZM64.1743 37.1995V41.5647H63.9106V36.2815H64.1743V37.1995ZM66.269 36.2375L66.2397 36.4719C66.1877 36.4654 66.1323 36.4589 66.0737 36.4524C66.0184 36.4459 65.9598 36.4426 65.8979 36.4426C65.6017 36.4426 65.3413 36.5028 65.1167 36.6233C64.8953 36.7437 64.7098 36.9097 64.5601 37.1213C64.4136 37.3329 64.3029 37.5771 64.228 37.8538C64.1564 38.1272 64.1206 38.4202 64.1206 38.7327L63.9448 38.7473C63.9448 38.3762 63.9839 38.0344 64.062 37.7219C64.1434 37.4094 64.2638 37.1392 64.4233 36.9114C64.5861 36.6803 64.7896 36.5012 65.0337 36.3743C65.2811 36.2473 65.5692 36.1838 65.8979 36.1838C65.9793 36.1838 66.0509 36.1887 66.1128 36.1985C66.1746 36.2083 66.2267 36.2213 66.269 36.2375ZM67.4751 37.4143V41.5647H67.2065V36.2815H67.4751V37.4143ZM67.4409 38.469L67.2993 38.1907C67.3319 37.9303 67.4019 37.6812 67.5093 37.4436C67.62 37.2027 67.7632 36.9879 67.939 36.7991C68.118 36.6103 68.3247 36.4605 68.5591 36.3499C68.7967 36.2392 69.0588 36.1838 69.3452 36.1838C69.6121 36.1838 69.8498 36.2196 70.0581 36.2913C70.2697 36.3596 70.4471 36.4687 70.5903 36.6184C70.7368 36.7649 70.8475 36.9569 70.9224 37.1946C71.0005 37.4322 71.0396 37.717 71.0396 38.0491V41.5647H70.7759V38.0491C70.7759 37.6259 70.714 37.2987 70.5903 37.0676C70.4666 36.8365 70.2957 36.6754 70.0776 36.5842C69.8595 36.4898 69.6105 36.4426 69.3306 36.4426C68.9985 36.4426 68.7153 36.5175 68.481 36.6672C68.2466 36.8137 68.0545 36.9976 67.9048 37.219C67.755 37.4403 67.6427 37.665 67.5679 37.8928C67.493 38.1207 67.4507 38.3127 67.4409 38.469ZM71.0396 38.0491L70.8589 37.8879C70.8914 37.6633 70.9631 37.4501 71.0737 37.2483C71.1877 37.0432 71.3341 36.8609 71.5132 36.7014C71.6922 36.5419 71.9006 36.4166 72.1382 36.3254C72.3791 36.231 72.6427 36.1838 72.9292 36.1838C73.1961 36.1838 73.4338 36.2213 73.6421 36.2961C73.8537 36.3678 74.0311 36.4833 74.1743 36.6428C74.3208 36.7991 74.4315 37.0009 74.5063 37.2483C74.5845 37.4957 74.6235 37.7952 74.6235 38.1467V41.5647H74.3599V38.1467C74.3599 37.6975 74.298 37.3492 74.1743 37.1018C74.0506 36.8544 73.8797 36.6819 73.6616 36.5842C73.4435 36.4866 73.1945 36.4394 72.9146 36.4426C72.6021 36.4459 72.3302 36.5045 72.0991 36.6184C71.8713 36.7291 71.6808 36.8691 71.5278 37.0383C71.3748 37.2076 71.2576 37.3834 71.1763 37.5657C71.0981 37.7447 71.0526 37.9058 71.0396 38.0491ZM75.8247 39.0256V38.8206C75.8247 38.4332 75.88 38.0784 75.9907 37.7561C76.1047 37.4338 76.2625 37.1555 76.4644 36.9211C76.6694 36.6868 76.9136 36.5061 77.1968 36.3792C77.48 36.2489 77.7925 36.1838 78.1343 36.1838C78.4793 36.1838 78.7935 36.2489 79.0767 36.3792C79.3599 36.5061 79.604 36.6868 79.8091 36.9211C80.0142 37.1555 80.172 37.4338 80.2827 37.7561C80.3934 38.0784 80.4487 38.4332 80.4487 38.8206V39.0256C80.4487 39.413 80.3934 39.7678 80.2827 40.0901C80.172 40.4124 80.0142 40.6907 79.8091 40.925C79.6073 41.1594 79.3647 41.3417 79.0815 41.4719C78.7983 41.5989 78.4858 41.6624 78.144 41.6624C77.799 41.6624 77.4849 41.5989 77.2017 41.4719C76.9185 41.3417 76.6743 41.1594 76.4692 40.925C76.2642 40.6907 76.1047 40.4124 75.9907 40.0901C75.88 39.7678 75.8247 39.413 75.8247 39.0256ZM76.0884 38.8206V39.0256C76.0884 39.3414 76.134 39.6425 76.2251 39.929C76.3195 40.2122 76.4546 40.4644 76.6304 40.6858C76.8062 40.9071 77.021 41.0813 77.2749 41.2083C77.5288 41.3352 77.8185 41.3987 78.144 41.3987C78.4663 41.3987 78.7528 41.3352 79.0034 41.2083C79.2573 41.0813 79.4722 40.9071 79.6479 40.6858C79.8237 40.4644 79.9572 40.2122 80.0483 39.929C80.1395 39.6425 80.1851 39.3414 80.1851 39.0256V38.8206C80.1851 38.5113 80.1395 38.2151 80.0483 37.9319C79.9572 37.6487 79.8221 37.3964 79.6431 37.175C79.4673 36.9504 79.2524 36.773 78.9985 36.6428C78.7446 36.5126 78.4565 36.4475 78.1343 36.4475C77.812 36.4475 77.5239 36.5126 77.27 36.6428C77.0194 36.773 76.8045 36.9504 76.6255 37.175C76.4497 37.3964 76.3162 37.6487 76.2251 37.9319C76.134 38.2151 76.0884 38.5113 76.0884 38.8206ZM81.9966 37.4094V41.5647H81.7329V36.2815H81.9966V37.4094ZM81.9526 38.469L81.811 38.1907C81.8436 37.9303 81.9152 37.6812 82.0259 37.4436C82.1366 37.2027 82.2814 36.9879 82.4604 36.7991C82.6395 36.6103 82.8478 36.4605 83.0854 36.3499C83.3231 36.2392 83.5851 36.1838 83.8716 36.1838C84.1385 36.1838 84.3761 36.2213 84.5845 36.2961C84.7928 36.3678 84.9686 36.4833 85.1118 36.6428C85.255 36.7991 85.3641 37.0009 85.439 37.2483C85.5138 37.4957 85.5513 37.7952 85.5513 38.1467V41.5647H85.2876V38.1467C85.2876 37.6975 85.2257 37.3508 85.1021 37.1067C84.9816 36.8593 84.814 36.6868 84.5991 36.5891C84.3843 36.4915 84.1369 36.4426 83.8569 36.4426C83.5249 36.4426 83.2401 36.5175 83.0024 36.6672C82.7681 36.8137 82.5744 36.9976 82.4214 37.219C82.2716 37.4403 82.1577 37.665 82.0796 37.8928C82.0047 38.1207 81.9624 38.3127 81.9526 38.469ZM87.519 36.2815V41.5647H87.2554V36.2815H87.519ZM87.1968 35.4807L88.1196 34.1819H88.4419L87.4897 35.4807H87.1968ZM92.5093 40.5735V37.844C92.5093 37.551 92.4458 37.3004 92.3188 37.092C92.1951 36.8837 92.0129 36.7242 91.772 36.6135C91.5343 36.5028 91.243 36.4475 90.8979 36.4475C90.5789 36.4475 90.2909 36.5045 90.0337 36.6184C89.7798 36.7291 89.578 36.8821 89.4282 37.0774C89.2817 37.2727 89.2085 37.4924 89.2085 37.7366L88.9448 37.7268C88.9448 37.5217 88.992 37.3264 89.0864 37.1409C89.1841 36.9553 89.3192 36.7909 89.4917 36.6477C89.6675 36.5045 89.8742 36.3922 90.1118 36.3108C90.3527 36.2262 90.6147 36.1838 90.8979 36.1838C91.2658 36.1838 91.5897 36.2457 91.8696 36.3694C92.1528 36.4931 92.3742 36.6786 92.5337 36.926C92.6932 37.1734 92.7729 37.4827 92.7729 37.8538V40.5002C92.7729 40.689 92.7843 40.8795 92.8071 41.0715C92.8332 41.2636 92.8674 41.4133 92.9097 41.5208V41.5647H92.6069C92.5744 41.4377 92.55 41.2847 92.5337 41.1057C92.5174 40.9234 92.5093 40.746 92.5093 40.5735ZM92.6265 38.6155L92.6362 38.884H91.2593C90.9175 38.884 90.6115 38.9182 90.3413 38.9866C90.0711 39.0517 89.8416 39.1444 89.6528 39.2649C89.464 39.3853 89.3192 39.5286 89.2183 39.6946C89.1174 39.8606 89.0669 40.0445 89.0669 40.2463C89.0669 40.4579 89.1239 40.6516 89.2378 40.8274C89.355 41.0032 89.5161 41.1431 89.7212 41.2473C89.9263 41.3515 90.1623 41.4036 90.4292 41.4036C90.8003 41.4036 91.1291 41.3433 91.4155 41.2229C91.702 41.0992 91.9445 40.9267 92.1431 40.7053C92.3416 40.484 92.493 40.2219 92.5972 39.9192L92.7144 40.1633C92.6525 40.3456 92.5597 40.5263 92.436 40.7053C92.3156 40.8811 92.161 41.0422 91.9722 41.1887C91.7834 41.3319 91.5604 41.4475 91.3032 41.5354C91.0493 41.62 90.758 41.6624 90.4292 41.6624C90.1004 41.6624 89.814 41.6021 89.5698 41.4817C89.3257 41.358 89.1369 41.1887 89.0034 40.9739C88.87 40.7558 88.8032 40.5068 88.8032 40.2268C88.8032 39.9924 88.8586 39.7776 88.9692 39.5823C89.0799 39.3837 89.2394 39.2128 89.4478 39.0696C89.6593 38.9231 89.9165 38.8108 90.2192 38.7327C90.522 38.6545 90.8638 38.6155 91.2446 38.6155H92.6265Z" fill="white"/>
<path d="M85.5854 58.0806C85.5854 57.856 85.5464 57.6558 85.4683 57.48C85.3901 57.3042 85.2648 57.1463 85.0923 57.0063C84.9198 56.8664 84.6935 56.7378 84.4136 56.6206C84.1369 56.5034 83.7967 56.3895 83.3931 56.2788C83.0317 56.1812 82.7062 56.077 82.4165 55.9663C82.1268 55.8524 81.8794 55.7222 81.6743 55.5757C81.4725 55.4292 81.3179 55.255 81.2104 55.0532C81.103 54.8481 81.0493 54.6024 81.0493 54.3159C81.0493 54.0457 81.1079 53.8032 81.2251 53.5884C81.3455 53.3735 81.5116 53.1912 81.7231 53.0415C81.938 52.8918 82.1886 52.7778 82.4751 52.6997C82.7616 52.6183 83.0724 52.5776 83.4077 52.5776C83.87 52.5776 84.2785 52.6655 84.6333 52.8413C84.9881 53.0171 85.2664 53.2629 85.4683 53.5786C85.6733 53.8911 85.7759 54.2573 85.7759 54.6772H85.5122C85.5122 54.3257 85.4243 54.0116 85.2485 53.7349C85.0728 53.4582 84.827 53.2401 84.5112 53.0806C84.1987 52.9211 83.8309 52.8413 83.4077 52.8413C82.9618 52.8413 82.5825 52.9097 82.27 53.0464C81.9575 53.1831 81.7199 53.3638 81.5571 53.5884C81.3944 53.8097 81.313 54.049 81.313 54.3062C81.313 54.495 81.3455 54.6707 81.4106 54.8335C81.479 54.9963 81.5929 55.1476 81.7524 55.2876C81.9119 55.4243 82.1317 55.5545 82.4116 55.6782C82.6916 55.7987 83.0431 55.9142 83.4663 56.0249C83.8179 56.116 84.1385 56.2186 84.4282 56.3325C84.7212 56.4465 84.9735 56.5815 85.1851 56.7378C85.3999 56.894 85.5643 57.0812 85.6782 57.2993C85.7954 57.5142 85.854 57.7713 85.854 58.0708C85.854 58.3605 85.7905 58.6177 85.6636 58.8423C85.5399 59.0669 85.3674 59.2573 85.146 59.4136C84.9246 59.5666 84.6675 59.6838 84.3745 59.7651C84.0848 59.8433 83.7739 59.8823 83.4419 59.8823C83.1392 59.8823 82.8332 59.8465 82.5239 59.7749C82.2147 59.7033 81.9315 59.5877 81.6743 59.4282C81.4172 59.2655 81.2104 59.049 81.0542 58.7788C80.8979 58.5086 80.8198 58.175 80.8198 57.7778H81.0835C81.0835 58.1326 81.1567 58.4289 81.3032 58.6665C81.4497 58.9041 81.6401 59.0929 81.8745 59.2329C82.1121 59.3696 82.3677 59.4689 82.6411 59.5308C82.9178 59.5894 83.1847 59.6187 83.4419 59.6187C83.8586 59.6187 84.228 59.5535 84.5503 59.4233C84.8726 59.2931 85.1248 59.1125 85.3071 58.8813C85.4927 58.6502 85.5854 58.3833 85.5854 58.0806ZM86.7085 57.2456V57.0405C86.7085 56.6532 86.7638 56.2983 86.8745 55.9761C86.9884 55.6538 87.1463 55.3755 87.3481 55.1411C87.5532 54.9067 87.7974 54.7261 88.0806 54.5991C88.3638 54.4689 88.6763 54.4038 89.0181 54.4038C89.3631 54.4038 89.6772 54.4689 89.9604 54.5991C90.2437 54.7261 90.4878 54.9067 90.6929 55.1411C90.8979 55.3755 91.0558 55.6538 91.1665 55.9761C91.2772 56.2983 91.3325 56.6532 91.3325 57.0405V57.2456C91.3325 57.633 91.2772 57.9878 91.1665 58.3101C91.0558 58.6323 90.8979 58.9106 90.6929 59.145C90.491 59.3794 90.2485 59.5617 89.9653 59.6919C89.6821 59.8188 89.3696 59.8823 89.0278 59.8823C88.6828 59.8823 88.3687 59.8188 88.0854 59.6919C87.8022 59.5617 87.5581 59.3794 87.353 59.145C87.1479 58.9106 86.9884 58.6323 86.8745 58.3101C86.7638 57.9878 86.7085 57.633 86.7085 57.2456ZM86.9722 57.0405V57.2456C86.9722 57.5614 87.0177 57.8625 87.1089 58.1489C87.2033 58.4321 87.3384 58.6844 87.5142 58.9058C87.6899 59.1271 87.9048 59.3013 88.1587 59.4282C88.4126 59.5552 88.7023 59.6187 89.0278 59.6187C89.3501 59.6187 89.6366 59.5552 89.8872 59.4282C90.1411 59.3013 90.356 59.1271 90.5317 58.9058C90.7075 58.6844 90.841 58.4321 90.9321 58.1489C91.0233 57.8625 91.0688 57.5614 91.0688 57.2456V57.0405C91.0688 56.7313 91.0233 56.4351 90.9321 56.1519C90.841 55.8687 90.7059 55.6164 90.5269 55.395C90.3511 55.1704 90.1362 54.993 89.8823 54.8628C89.6284 54.7326 89.3403 54.6675 89.0181 54.6675C88.6958 54.6675 88.4077 54.7326 88.1538 54.8628C87.9032 54.993 87.6883 55.1704 87.5093 55.395C87.3335 55.6164 87.2 55.8687 87.1089 56.1519C87.0177 56.4351 86.9722 56.7313 86.9722 57.0405ZM92.9438 52.2847V59.7847H92.6802V52.2847H92.9438ZM101.777 57.6069H102.041C101.992 58.118 101.857 58.5428 101.635 58.8813C101.417 59.2166 101.126 59.4673 100.761 59.6333C100.4 59.7993 99.9816 59.8823 99.5063 59.8823C99.1157 59.8823 98.7625 59.8075 98.4468 59.6577C98.131 59.508 97.8592 59.2948 97.6313 59.0181C97.4067 58.7414 97.2342 58.4126 97.1138 58.0317C96.9933 57.6476 96.9331 57.2244 96.9331 56.7622V55.6978C96.9331 55.2323 96.9933 54.8091 97.1138 54.4282C97.2342 54.0474 97.4067 53.7186 97.6313 53.4419C97.8592 53.1652 98.131 52.952 98.4468 52.8022C98.7625 52.6525 99.1157 52.5776 99.5063 52.5776C99.9816 52.5776 100.4 52.6606 100.761 52.8267C101.126 52.9927 101.417 53.2433 101.635 53.5786C101.857 53.9139 101.992 54.3354 102.041 54.8433H101.777C101.728 54.4071 101.609 54.0409 101.42 53.7446C101.235 53.4484 100.981 53.2238 100.659 53.0708C100.34 52.9178 99.9556 52.8413 99.5063 52.8413C99.1613 52.8413 98.8472 52.9097 98.564 53.0464C98.2808 53.1799 98.0366 53.3719 97.8315 53.6226C97.6297 53.8732 97.4735 54.1727 97.3628 54.521C97.2521 54.8693 97.1968 55.2583 97.1968 55.688V56.7622C97.1968 57.1919 97.2521 57.5825 97.3628 57.9341C97.4735 58.2856 97.6297 58.5868 97.8315 58.8374C98.0366 59.0881 98.2808 59.2817 98.564 59.4185C98.8472 59.5519 99.1613 59.6187 99.5063 59.6187C99.9458 59.6187 100.327 59.5487 100.649 59.4087C100.971 59.2655 101.227 59.0457 101.416 58.7495C101.608 58.45 101.728 58.0692 101.777 57.6069ZM106.87 58.7935V56.064C106.87 55.771 106.806 55.5203 106.679 55.312C106.556 55.1037 106.373 54.9442 106.132 54.8335C105.895 54.7228 105.603 54.6675 105.258 54.6675C104.939 54.6675 104.651 54.7244 104.394 54.8384C104.14 54.9491 103.938 55.1021 103.789 55.2974C103.642 55.4927 103.569 55.7124 103.569 55.9565L103.305 55.9468C103.305 55.7417 103.352 55.5464 103.447 55.3608C103.544 55.1753 103.68 55.0109 103.852 54.8677C104.028 54.7244 104.235 54.6121 104.472 54.5308C104.713 54.4461 104.975 54.4038 105.258 54.4038C105.626 54.4038 105.95 54.4657 106.23 54.5894C106.513 54.7131 106.735 54.8986 106.894 55.146C107.054 55.3934 107.133 55.7026 107.133 56.0737V58.7202C107.133 58.909 107.145 59.0994 107.167 59.2915C107.194 59.4836 107.228 59.6333 107.27 59.7407V59.7847H106.967C106.935 59.6577 106.91 59.5047 106.894 59.3257C106.878 59.1434 106.87 58.966 106.87 58.7935ZM106.987 56.8354L106.997 57.104H105.62C105.278 57.104 104.972 57.1382 104.702 57.2065C104.431 57.2716 104.202 57.3644 104.013 57.4849C103.824 57.6053 103.68 57.7485 103.579 57.9146C103.478 58.0806 103.427 58.2645 103.427 58.4663C103.427 58.6779 103.484 58.8716 103.598 59.0474C103.715 59.2231 103.876 59.3631 104.082 59.4673C104.287 59.5715 104.523 59.6235 104.79 59.6235C105.161 59.6235 105.489 59.5633 105.776 59.4429C106.062 59.3192 106.305 59.1466 106.503 58.9253C106.702 58.7039 106.853 58.4419 106.958 58.1392L107.075 58.3833C107.013 58.5656 106.92 58.7463 106.796 58.9253C106.676 59.1011 106.521 59.2622 106.333 59.4087C106.144 59.5519 105.921 59.6675 105.664 59.7554C105.41 59.84 105.118 59.8823 104.79 59.8823C104.461 59.8823 104.174 59.8221 103.93 59.7017C103.686 59.578 103.497 59.4087 103.364 59.1938C103.23 58.9757 103.164 58.7267 103.164 58.4468C103.164 58.2124 103.219 57.9976 103.33 57.8022C103.44 57.6037 103.6 57.4328 103.808 57.2896C104.02 57.1431 104.277 57.0308 104.58 56.9526C104.882 56.8745 105.224 56.8354 105.605 56.8354H106.987ZM109.101 55.4194V59.7847H108.837V54.5015H109.101V55.4194ZM111.196 54.4575L111.167 54.6919C111.114 54.6854 111.059 54.6789 111 54.6724C110.945 54.6659 110.887 54.6626 110.825 54.6626C110.528 54.6626 110.268 54.7228 110.043 54.8433C109.822 54.9637 109.637 55.1297 109.487 55.3413C109.34 55.5529 109.23 55.797 109.155 56.0737C109.083 56.3472 109.047 56.6401 109.047 56.9526L108.872 56.9673C108.872 56.5962 108.911 56.2544 108.989 55.9419C109.07 55.6294 109.191 55.3592 109.35 55.1313C109.513 54.9002 109.716 54.7212 109.96 54.5942C110.208 54.4673 110.496 54.4038 110.825 54.4038C110.906 54.4038 110.978 54.4087 111.04 54.4185C111.101 54.4282 111.153 54.4412 111.196 54.4575ZM112.514 54.5015V59.7847H112.25V54.5015H112.514ZM112.114 52.8511C112.114 52.7762 112.14 52.7127 112.192 52.6606C112.244 52.6053 112.307 52.5776 112.382 52.5776C112.457 52.5776 112.521 52.6053 112.573 52.6606C112.628 52.7127 112.656 52.7762 112.656 52.8511C112.656 52.9259 112.628 52.9894 112.573 53.0415C112.521 53.0936 112.457 53.1196 112.382 53.1196C112.307 53.1196 112.244 53.0936 112.192 53.0415C112.14 52.9894 112.114 52.9259 112.114 52.8511ZM114.238 52.2847H114.501V58.7593V59.7847H114.238V52.2847ZM118.286 57.0894V57.1919C118.286 57.5955 118.24 57.9618 118.149 58.2905C118.061 58.6193 117.932 58.9025 117.763 59.1401C117.594 59.3778 117.386 59.5617 117.138 59.6919C116.894 59.8188 116.616 59.8823 116.303 59.8823C116.007 59.8823 115.74 59.84 115.502 59.7554C115.268 59.6707 115.065 59.5552 114.892 59.4087C114.72 59.259 114.58 59.0897 114.472 58.9009C114.365 58.7088 114.29 58.5086 114.248 58.3003V56.147C114.306 55.8996 114.391 55.6701 114.501 55.4585C114.615 55.2469 114.757 55.063 114.926 54.9067C115.096 54.7472 115.294 54.6235 115.522 54.5356C115.75 54.4478 116.007 54.4038 116.293 54.4038C116.606 54.4038 116.886 54.4657 117.133 54.5894C117.381 54.7131 117.589 54.8921 117.758 55.1265C117.931 55.3576 118.061 55.6392 118.149 55.9712C118.24 56.3 118.286 56.6727 118.286 57.0894ZM118.012 57.1919V57.0894C118.012 56.7378 117.976 56.4155 117.905 56.1226C117.836 55.8263 117.731 55.5708 117.587 55.356C117.447 55.1379 117.27 54.9686 117.055 54.8481C116.84 54.7277 116.588 54.6675 116.298 54.6675C115.966 54.6675 115.688 54.7228 115.463 54.8335C115.239 54.9409 115.056 55.0809 114.917 55.2534C114.777 55.4227 114.667 55.6034 114.589 55.7954C114.514 55.9842 114.459 56.16 114.423 56.3228V58.1782C114.482 58.4419 114.588 58.6828 114.741 58.9009C114.897 59.119 115.105 59.2931 115.366 59.4233C115.626 59.5535 115.94 59.6187 116.308 59.6187C116.598 59.6187 116.848 59.5584 117.06 59.438C117.275 59.3175 117.452 59.1499 117.592 58.9351C117.732 58.717 117.836 58.4598 117.905 58.1636C117.976 57.8674 118.012 57.5435 118.012 57.1919ZM121.625 59.8823C121.303 59.8823 121.002 59.8188 120.722 59.6919C120.442 59.5617 120.196 59.3794 119.985 59.145C119.773 58.9106 119.607 58.634 119.487 58.3149C119.37 57.9927 119.311 57.6395 119.311 57.2554V57.0405C119.311 56.6532 119.368 56.3 119.482 55.981C119.599 55.6587 119.759 55.3804 119.96 55.146C120.166 54.9084 120.402 54.7261 120.668 54.5991C120.935 54.4689 121.222 54.4038 121.528 54.4038C121.821 54.4038 122.089 54.4591 122.333 54.5698C122.578 54.6772 122.789 54.8302 122.968 55.0288C123.151 55.2274 123.291 55.465 123.388 55.7417C123.486 56.0184 123.535 56.3244 123.535 56.6597V56.9673H119.482V56.7036H123.271V56.6401C123.271 56.2853 123.199 55.9598 123.056 55.6636C122.913 55.3641 122.711 55.1232 122.451 54.9409C122.19 54.7586 121.883 54.6675 121.528 54.6675C121.235 54.6675 120.968 54.7293 120.727 54.853C120.489 54.9767 120.284 55.1476 120.112 55.3657C119.939 55.5806 119.806 55.8312 119.711 56.1177C119.62 56.4041 119.575 56.7118 119.575 57.0405V57.2554C119.575 57.5841 119.627 57.8918 119.731 58.1782C119.835 58.4647 119.98 58.717 120.166 58.9351C120.351 59.1499 120.568 59.3192 120.815 59.4429C121.066 59.5633 121.336 59.6235 121.625 59.6235C121.928 59.6235 122.21 59.5731 122.47 59.4722C122.734 59.3713 122.975 59.1792 123.193 58.896L123.378 59.0278C123.261 59.1938 123.12 59.342 122.954 59.4722C122.791 59.5991 122.599 59.7 122.377 59.7749C122.159 59.8465 121.909 59.8823 121.625 59.8823ZM125.029 55.6294V59.7847H124.765V54.5015H125.029V55.6294ZM124.985 56.689L124.843 56.4106C124.876 56.1502 124.947 55.9012 125.058 55.6636C125.169 55.4227 125.314 55.2078 125.493 55.019C125.672 54.8302 125.88 54.6805 126.118 54.5698C126.355 54.4591 126.617 54.4038 126.904 54.4038C127.171 54.4038 127.408 54.4412 127.617 54.5161C127.825 54.5877 128.001 54.7033 128.144 54.8628C128.287 55.019 128.396 55.2209 128.471 55.4683C128.546 55.7157 128.583 56.0151 128.583 56.3667V59.7847H128.32V56.3667C128.32 55.9175 128.258 55.5708 128.134 55.3267C128.014 55.0793 127.846 54.9067 127.631 54.8091C127.417 54.7114 127.169 54.6626 126.889 54.6626C126.557 54.6626 126.272 54.7375 126.035 54.8872C125.8 55.0337 125.607 55.2176 125.454 55.439C125.304 55.6603 125.19 55.8849 125.112 56.1128C125.037 56.3407 124.995 56.5327 124.985 56.689ZM128.081 52.5386H128.349C128.349 52.7176 128.31 52.8755 128.232 53.0122C128.157 53.1489 128.055 53.2563 127.924 53.3345C127.794 53.4093 127.649 53.4468 127.49 53.4468C127.314 53.4468 127.167 53.4159 127.05 53.354C126.936 53.2922 126.834 53.2222 126.743 53.144C126.652 53.0627 126.556 52.991 126.455 52.9292C126.354 52.8674 126.232 52.8364 126.088 52.8364C125.926 52.8364 125.786 52.8869 125.668 52.9878C125.555 53.0887 125.498 53.2417 125.498 53.4468H125.229C125.229 53.2677 125.266 53.1131 125.341 52.9829C125.419 52.8527 125.524 52.7518 125.654 52.6802C125.784 52.6086 125.929 52.5728 126.088 52.5728C126.258 52.5728 126.401 52.6037 126.518 52.6655C126.635 52.7241 126.741 52.7941 126.835 52.8755C126.933 52.9569 127.032 53.0285 127.133 53.0903C127.234 53.1489 127.353 53.1782 127.49 53.1782C127.653 53.1782 127.791 53.1229 127.905 53.0122C128.022 52.9015 128.081 52.7437 128.081 52.5386ZM129.843 57.2456V57.0405C129.843 56.6532 129.899 56.2983 130.009 55.9761C130.123 55.6538 130.281 55.3755 130.483 55.1411C130.688 54.9067 130.932 54.7261 131.215 54.5991C131.499 54.4689 131.811 54.4038 132.153 54.4038C132.498 54.4038 132.812 54.4689 133.095 54.5991C133.378 54.7261 133.623 54.9067 133.828 55.1411C134.033 55.3755 134.191 55.6538 134.301 55.9761C134.412 56.2983 134.467 56.6532 134.467 57.0405V57.2456C134.467 57.633 134.412 57.9878 134.301 58.3101C134.191 58.6323 134.033 58.9106 133.828 59.145C133.626 59.3794 133.383 59.5617 133.1 59.6919C132.817 59.8188 132.504 59.8823 132.163 59.8823C131.818 59.8823 131.503 59.8188 131.22 59.6919C130.937 59.5617 130.693 59.3794 130.488 59.145C130.283 58.9106 130.123 58.6323 130.009 58.3101C129.899 57.9878 129.843 57.633 129.843 57.2456ZM130.107 57.0405V57.2456C130.107 57.5614 130.153 57.8625 130.244 58.1489C130.338 58.4321 130.473 58.6844 130.649 58.9058C130.825 59.1271 131.04 59.3013 131.293 59.4282C131.547 59.5552 131.837 59.6187 132.163 59.6187C132.485 59.6187 132.771 59.5552 133.022 59.4282C133.276 59.3013 133.491 59.1271 133.667 58.9058C133.842 58.6844 133.976 58.4321 134.067 58.1489C134.158 57.8625 134.204 57.5614 134.204 57.2456V57.0405C134.204 56.7313 134.158 56.4351 134.067 56.1519C133.976 55.8687 133.841 55.6164 133.662 55.395C133.486 55.1704 133.271 54.993 133.017 54.8628C132.763 54.7326 132.475 54.6675 132.153 54.6675C131.831 54.6675 131.542 54.7326 131.289 54.8628C131.038 54.993 130.823 55.1704 130.644 55.395C130.468 55.6164 130.335 55.8687 130.244 56.1519C130.153 56.4351 130.107 56.7313 130.107 57.0405Z" fill="white"/>
<path d="M219.76 52.8999L217.192 59.7847H216.904L219.565 52.6753H219.819L219.76 52.8999ZM222.26 59.7847L219.692 52.8999L219.638 52.6753H219.887L222.549 59.7847H222.26ZM221.509 57.397V57.6606H217.949V57.397H221.509ZM223.774 55.6343V59.7847H223.506V54.5015H223.774V55.6343ZM223.74 56.689L223.598 56.4106C223.631 56.1502 223.701 55.9012 223.808 55.6636C223.919 55.4227 224.062 55.2078 224.238 55.019C224.417 54.8302 224.624 54.6805 224.858 54.5698C225.096 54.4591 225.358 54.4038 225.644 54.4038C225.911 54.4038 226.149 54.4396 226.357 54.5112C226.569 54.5796 226.746 54.6886 226.889 54.8384C227.036 54.9849 227.147 55.1769 227.221 55.4146C227.3 55.6522 227.339 55.937 227.339 56.269V59.7847H227.075V56.269C227.075 55.8459 227.013 55.5187 226.889 55.2876C226.766 55.0565 226.595 54.8953 226.377 54.8042C226.159 54.7098 225.91 54.6626 225.63 54.6626C225.298 54.6626 225.014 54.7375 224.78 54.8872C224.546 55.0337 224.354 55.2176 224.204 55.439C224.054 55.6603 223.942 55.8849 223.867 56.1128C223.792 56.3407 223.75 56.5327 223.74 56.689ZM227.339 56.269L227.158 56.1079C227.191 55.8833 227.262 55.6701 227.373 55.4683C227.487 55.2632 227.633 55.0809 227.812 54.9214C227.991 54.7619 228.2 54.6366 228.437 54.5454C228.678 54.451 228.942 54.4038 229.228 54.4038C229.495 54.4038 229.733 54.4412 229.941 54.5161C230.153 54.5877 230.33 54.7033 230.473 54.8628C230.62 55.019 230.731 55.2209 230.805 55.4683C230.884 55.7157 230.923 56.0151 230.923 56.3667V59.7847H230.659V56.3667C230.659 55.9175 230.597 55.5692 230.473 55.3218C230.35 55.0744 230.179 54.9019 229.961 54.8042C229.743 54.7065 229.494 54.6593 229.214 54.6626C228.901 54.6659 228.629 54.7244 228.398 54.8384C228.17 54.9491 227.98 55.089 227.827 55.2583C227.674 55.4276 227.557 55.6034 227.475 55.7856C227.397 55.9647 227.352 56.1258 227.339 56.269ZM232.124 57.2456V57.0405C232.124 56.6532 232.179 56.2983 232.29 55.9761C232.404 55.6538 232.562 55.3755 232.763 55.1411C232.969 54.9067 233.213 54.7261 233.496 54.5991C233.779 54.4689 234.092 54.4038 234.433 54.4038C234.778 54.4038 235.093 54.4689 235.376 54.5991C235.659 54.7261 235.903 54.9067 236.108 55.1411C236.313 55.3755 236.471 55.6538 236.582 55.9761C236.692 56.2983 236.748 56.6532 236.748 57.0405V57.2456C236.748 57.633 236.692 57.9878 236.582 58.3101C236.471 58.6323 236.313 58.9106 236.108 59.145C235.906 59.3794 235.664 59.5617 235.381 59.6919C235.097 59.8188 234.785 59.8823 234.443 59.8823C234.098 59.8823 233.784 59.8188 233.501 59.6919C233.218 59.5617 232.973 59.3794 232.768 59.145C232.563 58.9106 232.404 58.6323 232.29 58.3101C232.179 57.9878 232.124 57.633 232.124 57.2456ZM232.387 57.0405V57.2456C232.387 57.5614 232.433 57.8625 232.524 58.1489C232.619 58.4321 232.754 58.6844 232.929 58.9058C233.105 59.1271 233.32 59.3013 233.574 59.4282C233.828 59.5552 234.118 59.6187 234.443 59.6187C234.765 59.6187 235.052 59.5552 235.302 59.4282C235.556 59.3013 235.771 59.1271 235.947 58.9058C236.123 58.6844 236.256 58.4321 236.347 58.1489C236.439 57.8625 236.484 57.5614 236.484 57.2456V57.0405C236.484 56.7313 236.439 56.4351 236.347 56.1519C236.256 55.8687 236.121 55.6164 235.942 55.395C235.766 55.1704 235.552 54.993 235.298 54.8628C235.044 54.7326 234.756 54.6675 234.433 54.6675C234.111 54.6675 233.823 54.7326 233.569 54.8628C233.318 54.993 233.104 55.1704 232.925 55.395C232.749 55.6164 232.615 55.8687 232.524 56.1519C232.433 56.4351 232.387 56.7313 232.387 57.0405ZM238.296 55.4194V59.7847H238.032V54.5015H238.296V55.4194ZM240.39 54.4575L240.361 54.6919C240.309 54.6854 240.254 54.6789 240.195 54.6724C240.14 54.6659 240.081 54.6626 240.019 54.6626C239.723 54.6626 239.463 54.7228 239.238 54.8433C239.017 54.9637 238.831 55.1297 238.681 55.3413C238.535 55.5529 238.424 55.797 238.349 56.0737C238.278 56.3472 238.242 56.6401 238.242 56.9526L238.066 56.9673C238.066 56.5962 238.105 56.2544 238.183 55.9419C238.265 55.6294 238.385 55.3592 238.545 55.1313C238.707 54.9002 238.911 54.7212 239.155 54.5942C239.402 54.4673 239.691 54.4038 240.019 54.4038C240.101 54.4038 240.172 54.4087 240.234 54.4185C240.296 54.4282 240.348 54.4412 240.39 54.4575ZM244.028 55.5171V61.8159H243.764V54.5015H244.028V55.5171ZM247.812 57.0894V57.1919C247.812 57.5955 247.767 57.9618 247.676 58.2905C247.588 58.6193 247.459 58.9025 247.29 59.1401C247.121 59.3778 246.912 59.5617 246.665 59.6919C246.421 59.8188 246.142 59.8823 245.83 59.8823C245.534 59.8823 245.267 59.84 245.029 59.7554C244.791 59.6707 244.585 59.5535 244.409 59.4038C244.236 59.2541 244.096 59.0848 243.989 58.896C243.882 58.7039 243.807 58.5037 243.764 58.2954V56.147C243.823 55.8996 243.909 55.6701 244.023 55.4585C244.137 55.2469 244.279 55.063 244.448 54.9067C244.617 54.7472 244.816 54.6235 245.044 54.5356C245.275 54.4478 245.534 54.4038 245.82 54.4038C246.133 54.4038 246.413 54.4657 246.66 54.5894C246.907 54.7131 247.116 54.8921 247.285 55.1265C247.457 55.3576 247.588 55.6392 247.676 55.9712C247.767 56.3 247.812 56.6727 247.812 57.0894ZM247.544 57.1919V57.0894C247.544 56.7378 247.508 56.4155 247.436 56.1226C247.368 55.8263 247.262 55.5708 247.119 55.356C246.979 55.1379 246.8 54.9686 246.582 54.8481C246.367 54.7277 246.115 54.6675 245.825 54.6675C245.493 54.6675 245.213 54.7228 244.985 54.8335C244.76 54.9409 244.577 55.0809 244.433 55.2534C244.293 55.4227 244.184 55.6034 244.106 55.7954C244.031 55.9842 243.976 56.16 243.94 56.3228V58.1733C243.999 58.4403 244.106 58.6828 244.262 58.9009C244.419 59.119 244.627 59.2931 244.887 59.4233C245.151 59.5535 245.467 59.6187 245.835 59.6187C246.124 59.6187 246.375 59.5584 246.587 59.438C246.802 59.3175 246.979 59.1499 247.119 58.9351C247.262 58.717 247.368 58.4598 247.436 58.1636C247.508 57.8674 247.544 57.5435 247.544 57.1919ZM248.852 57.2456V57.0405C248.852 56.6532 248.908 56.2983 249.018 55.9761C249.132 55.6538 249.29 55.3755 249.492 55.1411C249.697 54.9067 249.941 54.7261 250.224 54.5991C250.508 54.4689 250.82 54.4038 251.162 54.4038C251.507 54.4038 251.821 54.4689 252.104 54.5991C252.387 54.7261 252.632 54.9067 252.837 55.1411C253.042 55.3755 253.2 55.6538 253.31 55.9761C253.421 56.2983 253.476 56.6532 253.476 57.0405V57.2456C253.476 57.633 253.421 57.9878 253.31 58.3101C253.2 58.6323 253.042 58.9106 252.837 59.145C252.635 59.3794 252.392 59.5617 252.109 59.6919C251.826 59.8188 251.513 59.8823 251.172 59.8823C250.827 59.8823 250.512 59.8188 250.229 59.6919C249.946 59.5617 249.702 59.3794 249.497 59.145C249.292 58.9106 249.132 58.6323 249.018 58.3101C248.908 57.9878 248.852 57.633 248.852 57.2456ZM249.116 57.0405V57.2456C249.116 57.5614 249.162 57.8625 249.253 58.1489C249.347 58.4321 249.482 58.6844 249.658 58.9058C249.834 59.1271 250.049 59.3013 250.302 59.4282C250.556 59.5552 250.846 59.6187 251.172 59.6187C251.494 59.6187 251.78 59.5552 252.031 59.4282C252.285 59.3013 252.5 59.1271 252.676 58.9058C252.851 58.6844 252.985 58.4321 253.076 58.1489C253.167 57.8625 253.213 57.5614 253.213 57.2456V57.0405C253.213 56.7313 253.167 56.4351 253.076 56.1519C252.985 55.8687 252.85 55.6164 252.671 55.395C252.495 55.1704 252.28 54.993 252.026 54.8628C251.772 54.7326 251.484 54.6675 251.162 54.6675C250.84 54.6675 250.552 54.7326 250.298 54.8628C250.047 54.993 249.832 55.1704 249.653 55.395C249.477 55.6164 249.344 55.8687 249.253 56.1519C249.162 56.4351 249.116 56.7313 249.116 57.0405ZM255.024 55.4194V59.7847H254.76V54.5015H255.024V55.4194ZM257.119 54.4575L257.09 54.6919C257.038 54.6854 256.982 54.6789 256.924 54.6724C256.868 54.6659 256.81 54.6626 256.748 54.6626C256.452 54.6626 256.191 54.7228 255.967 54.8433C255.745 54.9637 255.56 55.1297 255.41 55.3413C255.263 55.5529 255.153 55.797 255.078 56.0737C255.006 56.3472 254.97 56.6401 254.97 56.9526L254.795 56.9673C254.795 56.5962 254.834 56.2544 254.912 55.9419C254.993 55.6294 255.114 55.3592 255.273 55.1313C255.436 54.9002 255.639 54.7212 255.884 54.5942C256.131 54.4673 256.419 54.4038 256.748 54.4038C256.829 54.4038 256.901 54.4087 256.963 54.4185C257.024 54.4282 257.077 54.4412 257.119 54.4575ZM262.402 59.8823C262.08 59.8823 261.779 59.8188 261.499 59.6919C261.219 59.5617 260.973 59.3794 260.761 59.145C260.55 58.9106 260.384 58.634 260.263 58.3149C260.146 57.9927 260.088 57.6395 260.088 57.2554V57.0405C260.088 56.6532 260.145 56.3 260.259 55.981C260.376 55.6587 260.535 55.3804 260.737 55.146C260.942 54.9084 261.178 54.7261 261.445 54.5991C261.712 54.4689 261.998 54.4038 262.304 54.4038C262.597 54.4038 262.866 54.4591 263.11 54.5698C263.354 54.6772 263.566 54.8302 263.745 55.0288C263.927 55.2274 264.067 55.465 264.165 55.7417C264.262 56.0184 264.311 56.3244 264.311 56.6597V56.9673H260.259V56.7036H264.048V56.6401C264.048 56.2853 263.976 55.9598 263.833 55.6636C263.69 55.3641 263.488 55.1232 263.227 54.9409C262.967 54.7586 262.659 54.6675 262.304 54.6675C262.011 54.6675 261.745 54.7293 261.504 54.853C261.266 54.9767 261.061 55.1476 260.888 55.3657C260.716 55.5806 260.582 55.8312 260.488 56.1177C260.397 56.4041 260.351 56.7118 260.351 57.0405V57.2554C260.351 57.5841 260.403 57.8918 260.508 58.1782C260.612 58.4647 260.757 58.717 260.942 58.9351C261.128 59.1499 261.344 59.3192 261.592 59.4429C261.842 59.5633 262.112 59.6235 262.402 59.6235C262.705 59.6235 262.986 59.5731 263.247 59.4722C263.51 59.3713 263.751 59.1792 263.969 58.896L264.155 59.0278C264.038 59.1938 263.896 59.342 263.73 59.4722C263.567 59.5991 263.375 59.7 263.154 59.7749C262.936 59.8465 262.685 59.8823 262.402 59.8823ZM265.869 52.2847V59.7847H265.605V52.2847H265.869ZM271.787 54.5015V54.77H269.341V54.5015H271.787ZM270.317 53.0757H270.586V58.52C270.586 58.8293 270.622 59.0636 270.693 59.2231C270.768 59.3794 270.866 59.4852 270.986 59.5405C271.11 59.5926 271.242 59.6187 271.382 59.6187C271.483 59.6187 271.572 59.6154 271.65 59.6089C271.728 59.5991 271.813 59.5877 271.904 59.5747L271.948 59.8237C271.876 59.8465 271.784 59.8612 271.67 59.8677C271.556 59.8774 271.465 59.8823 271.396 59.8823C271.172 59.8823 270.978 59.8433 270.815 59.7651C270.656 59.6838 270.532 59.5438 270.444 59.3452C270.359 59.1466 270.317 58.8716 270.317 58.52V53.0757ZM276.699 58.564V54.5015H276.968V59.7847H276.699V58.564ZM276.743 57.7192L276.968 57.7095C276.968 58.022 276.927 58.3101 276.845 58.5737C276.764 58.8374 276.639 59.0685 276.469 59.2671C276.3 59.4624 276.084 59.6138 275.82 59.7212C275.556 59.8286 275.242 59.8823 274.878 59.8823C274.621 59.8823 274.385 59.8465 274.17 59.7749C273.958 59.7 273.774 59.5828 273.618 59.4233C273.465 59.2638 273.346 59.0555 273.261 58.7983C273.18 58.5379 273.139 58.2238 273.139 57.856V54.5015H273.403V57.8657C273.403 58.188 273.439 58.4614 273.51 58.686C273.585 58.9106 273.688 59.0913 273.818 59.228C273.952 59.3647 274.106 59.464 274.282 59.5259C274.461 59.5877 274.656 59.6187 274.868 59.6187C275.343 59.6187 275.718 59.5275 275.991 59.3452C276.264 59.1629 276.458 58.9269 276.572 58.6372C276.686 58.3442 276.743 58.0382 276.743 57.7192ZM278.901 55.4194V59.7847H278.637V54.5015H278.901V55.4194ZM280.996 54.4575L280.967 54.6919C280.914 54.6854 280.859 54.6789 280.801 54.6724C280.745 54.6659 280.687 54.6626 280.625 54.6626C280.329 54.6626 280.068 54.7228 279.844 54.8433C279.622 54.9637 279.437 55.1297 279.287 55.3413C279.14 55.5529 279.03 55.797 278.955 56.0737C278.883 56.3472 278.847 56.6401 278.847 56.9526L278.672 56.9673C278.672 56.5962 278.711 56.2544 278.789 55.9419C278.87 55.6294 278.991 55.3592 279.15 55.1313C279.313 54.9002 279.516 54.7212 279.76 54.5942C280.008 54.4673 280.296 54.4038 280.625 54.4038C280.706 54.4038 280.778 54.4087 280.84 54.4185C280.901 54.4282 280.954 54.4412 280.996 54.4575ZM282.314 54.5015V59.7847H282.051V54.5015H282.314ZM281.914 52.8511C281.914 52.7762 281.94 52.7127 281.992 52.6606C282.044 52.6053 282.108 52.5776 282.182 52.5776C282.257 52.5776 282.321 52.6053 282.373 52.6606C282.428 52.7127 282.456 52.7762 282.456 52.8511C282.456 52.9259 282.428 52.9894 282.373 53.0415C282.321 53.0936 282.257 53.1196 282.182 53.1196C282.108 53.1196 282.044 53.0936 281.992 53.0415C281.94 52.9894 281.914 52.9259 281.914 52.8511ZM287.304 58.4907C287.304 58.3312 287.26 58.1701 287.173 58.0073C287.085 57.8413 286.925 57.6867 286.694 57.5435C286.463 57.4002 286.129 57.2814 285.693 57.187C285.397 57.1219 285.136 57.0503 284.912 56.9722C284.691 56.894 284.505 56.8013 284.355 56.6938C284.205 56.5832 284.093 56.4497 284.018 56.2935C283.943 56.1372 283.906 55.9517 283.906 55.7368C283.906 55.5513 283.945 55.3787 284.023 55.2192C284.105 55.0565 284.222 54.9149 284.375 54.7944C284.528 54.6707 284.713 54.5747 284.931 54.5063C285.149 54.438 285.397 54.4038 285.674 54.4038C286.067 54.4038 286.404 54.4673 286.684 54.5942C286.968 54.7212 287.184 54.8986 287.334 55.1265C287.487 55.3511 287.563 55.6131 287.563 55.9126H287.295C287.295 55.6945 287.231 55.491 287.104 55.3022C286.981 55.1134 286.798 54.9604 286.557 54.8433C286.316 54.7261 286.022 54.6675 285.674 54.6675C285.319 54.6675 285.031 54.7212 284.809 54.8286C284.588 54.936 284.425 55.0711 284.321 55.2339C284.22 55.3966 284.17 55.561 284.17 55.7271C284.17 55.8638 284.189 55.9907 284.228 56.1079C284.267 56.2218 284.342 56.3293 284.453 56.4302C284.567 56.5278 284.73 56.6206 284.941 56.7085C285.153 56.7964 285.429 56.8794 285.771 56.9575C286.191 57.0519 286.533 57.1659 286.797 57.2993C287.06 57.4328 287.254 57.5972 287.378 57.7925C287.505 57.9845 287.568 58.2189 287.568 58.4956C287.568 58.7007 287.524 58.8879 287.436 59.0571C287.352 59.2264 287.228 59.3729 287.065 59.4966C286.906 59.6203 286.71 59.7163 286.479 59.7847C286.251 59.8498 285.996 59.8823 285.713 59.8823C285.286 59.8823 284.925 59.8172 284.629 59.687C284.336 59.5535 284.113 59.3778 283.96 59.1597C283.81 58.9383 283.735 58.6991 283.735 58.4419H283.999C284.022 58.7446 284.121 58.9823 284.297 59.1548C284.476 59.3241 284.692 59.4445 284.946 59.5161C285.203 59.5845 285.459 59.6187 285.713 59.6187C286.061 59.6187 286.352 59.5633 286.587 59.4526C286.824 59.342 287.003 59.2004 287.124 59.0278C287.244 58.8521 287.304 58.673 287.304 58.4907ZM289.243 55.6343V59.7847H288.974V54.5015H289.243V55.6343ZM289.209 56.689L289.067 56.4106C289.1 56.1502 289.17 55.9012 289.277 55.6636C289.388 55.4227 289.531 55.2078 289.707 55.019C289.886 54.8302 290.093 54.6805 290.327 54.5698C290.565 54.4591 290.827 54.4038 291.113 54.4038C291.38 54.4038 291.618 54.4396 291.826 54.5112C292.038 54.5796 292.215 54.6886 292.358 54.8384C292.505 54.9849 292.615 55.1769 292.69 55.4146C292.768 55.6522 292.807 55.937 292.807 56.269V59.7847H292.544V56.269C292.544 55.8459 292.482 55.5187 292.358 55.2876C292.234 55.0565 292.064 54.8953 291.845 54.8042C291.627 54.7098 291.378 54.6626 291.098 54.6626C290.766 54.6626 290.483 54.7375 290.249 54.8872C290.014 55.0337 289.822 55.2176 289.673 55.439C289.523 55.6603 289.411 55.8849 289.336 56.1128C289.261 56.3407 289.219 56.5327 289.209 56.689ZM292.807 56.269L292.627 56.1079C292.659 55.8833 292.731 55.6701 292.842 55.4683C292.955 55.2632 293.102 55.0809 293.281 54.9214C293.46 54.7619 293.668 54.6366 293.906 54.5454C294.147 54.451 294.411 54.4038 294.697 54.4038C294.964 54.4038 295.202 54.4412 295.41 54.5161C295.622 54.5877 295.799 54.7033 295.942 54.8628C296.089 55.019 296.199 55.2209 296.274 55.4683C296.352 55.7157 296.391 56.0151 296.391 56.3667V59.7847H296.128V56.3667C296.128 55.9175 296.066 55.5692 295.942 55.3218C295.818 55.0744 295.648 54.9019 295.429 54.8042C295.211 54.7065 294.962 54.6593 294.682 54.6626C294.37 54.6659 294.098 54.7244 293.867 54.8384C293.639 54.9491 293.449 55.089 293.296 55.2583C293.143 55.4276 293.025 55.6034 292.944 55.7856C292.866 55.9647 292.82 56.1258 292.807 56.269ZM297.593 57.2456V57.0405C297.593 56.6532 297.648 56.2983 297.759 55.9761C297.872 55.6538 298.03 55.3755 298.232 55.1411C298.437 54.9067 298.681 54.7261 298.965 54.5991C299.248 54.4689 299.56 54.4038 299.902 54.4038C300.247 54.4038 300.561 54.4689 300.844 54.5991C301.128 54.7261 301.372 54.9067 301.577 55.1411C301.782 55.3755 301.94 55.6538 302.051 55.9761C302.161 56.2983 302.217 56.6532 302.217 57.0405V57.2456C302.217 57.633 302.161 57.9878 302.051 58.3101C301.94 58.6323 301.782 58.9106 301.577 59.145C301.375 59.3794 301.133 59.5617 300.849 59.6919C300.566 59.8188 300.254 59.8823 299.912 59.8823C299.567 59.8823 299.253 59.8188 298.969 59.6919C298.686 59.5617 298.442 59.3794 298.237 59.145C298.032 58.9106 297.872 58.6323 297.759 58.3101C297.648 57.9878 297.593 57.633 297.593 57.2456ZM297.856 57.0405V57.2456C297.856 57.5614 297.902 57.8625 297.993 58.1489C298.087 58.4321 298.222 58.6844 298.398 58.9058C298.574 59.1271 298.789 59.3013 299.043 59.4282C299.297 59.5552 299.586 59.6187 299.912 59.6187C300.234 59.6187 300.521 59.5552 300.771 59.4282C301.025 59.3013 301.24 59.1271 301.416 58.9058C301.592 58.6844 301.725 58.4321 301.816 58.1489C301.907 57.8625 301.953 57.5614 301.953 57.2456V57.0405C301.953 56.7313 301.907 56.4351 301.816 56.1519C301.725 55.8687 301.59 55.6164 301.411 55.395C301.235 55.1704 301.02 54.993 300.766 54.8628C300.512 54.7326 300.224 54.6675 299.902 54.6675C299.58 54.6675 299.292 54.7326 299.038 54.8628C298.787 54.993 298.572 55.1704 298.393 55.395C298.218 55.6164 298.084 55.8687 297.993 56.1519C297.902 56.4351 297.856 56.7313 297.856 57.0405Z" fill="white"/>
<path d="M253.074 38.054H250.867L250.857 37.7903H252.674C253.103 37.7903 253.463 37.7349 253.753 37.6243C254.046 37.5136 254.265 37.3443 254.412 37.1165C254.558 36.8886 254.632 36.6021 254.632 36.2571C254.632 35.9153 254.553 35.6305 254.397 35.4026C254.244 35.1747 254.015 35.0038 253.709 34.8899C253.406 34.776 253.028 34.719 252.576 34.719H250.969V41.5647H250.706V34.4553H252.576C252.934 34.4553 253.256 34.4911 253.543 34.5627C253.829 34.6344 254.073 34.745 254.275 34.8948C254.477 35.0445 254.632 35.2349 254.739 35.4661C254.846 35.6939 254.9 35.9641 254.9 36.2766C254.9 36.5696 254.845 36.8333 254.734 37.0676C254.627 37.302 254.469 37.4924 254.26 37.6389C254.052 37.7854 253.795 37.8749 253.489 37.9075L253.074 38.054ZM253.025 41.5647H250.857L250.94 41.301H253.025C253.426 41.301 253.769 41.2343 254.055 41.1008C254.345 40.9674 254.568 40.7753 254.724 40.5247C254.881 40.2708 254.959 39.968 254.959 39.6165C254.959 39.343 254.889 39.0875 254.749 38.8499C254.612 38.6122 254.404 38.4202 254.124 38.2737C253.844 38.1272 253.494 38.054 253.074 38.054H251.922L251.931 37.7903H253.616L253.635 37.8831C253.935 37.9189 254.204 38.0181 254.441 38.1809C254.682 38.3437 254.872 38.5504 255.012 38.801C255.152 39.0484 255.222 39.317 255.222 39.6067C255.222 40.0266 255.128 40.3831 254.939 40.676C254.754 40.9657 254.497 41.1871 254.168 41.3401C253.839 41.4898 253.458 41.5647 253.025 41.5647ZM256.931 36.2815V41.5647H256.668V36.2815H256.931ZM256.531 34.6311C256.531 34.5562 256.557 34.4928 256.609 34.4407C256.661 34.3853 256.725 34.3577 256.8 34.3577C256.874 34.3577 256.938 34.3853 256.99 34.4407C257.045 34.4928 257.073 34.5562 257.073 34.6311C257.073 34.706 257.045 34.7694 256.99 34.8215C256.938 34.8736 256.874 34.8997 256.8 34.8997C256.725 34.8997 256.661 34.8736 256.609 34.8215C256.557 34.7694 256.531 34.706 256.531 34.6311ZM260.564 41.6624C260.242 41.6624 259.941 41.5989 259.661 41.4719C259.381 41.3417 259.135 41.1594 258.924 40.925C258.712 40.6907 258.546 40.414 258.426 40.095C258.308 39.7727 258.25 39.4195 258.25 39.0354V38.8206C258.25 38.4332 258.307 38.08 258.421 37.761C258.538 37.4387 258.697 37.1604 258.899 36.926C259.104 36.6884 259.34 36.5061 259.607 36.3792C259.874 36.2489 260.161 36.1838 260.467 36.1838C260.76 36.1838 261.028 36.2392 261.272 36.3499C261.516 36.4573 261.728 36.6103 261.907 36.8088C262.089 37.0074 262.229 37.245 262.327 37.5217C262.425 37.7984 262.473 38.1044 262.473 38.4397V38.7473H258.421V38.4836H262.21V38.4202C262.21 38.0653 262.138 37.7398 261.995 37.4436C261.852 37.1441 261.65 36.9032 261.389 36.7209C261.129 36.5387 260.821 36.4475 260.467 36.4475C260.174 36.4475 259.907 36.5094 259.666 36.6331C259.428 36.7568 259.223 36.9277 259.051 37.1458C258.878 37.3606 258.745 37.6112 258.65 37.8977C258.559 38.1842 258.513 38.4918 258.513 38.8206V39.0354C258.513 39.3642 258.566 39.6718 258.67 39.9583C258.774 40.2447 258.919 40.497 259.104 40.7151C259.29 40.9299 259.506 41.0992 259.754 41.2229C260.004 41.3433 260.274 41.4036 260.564 41.4036C260.867 41.4036 261.149 41.3531 261.409 41.2522C261.673 41.1513 261.913 40.9592 262.132 40.676L262.317 40.8079C262.2 40.9739 262.058 41.122 261.892 41.2522C261.73 41.3792 261.538 41.4801 261.316 41.5549C261.098 41.6265 260.847 41.6624 260.564 41.6624ZM263.968 37.4094V41.5647H263.704V36.2815H263.968V37.4094ZM263.924 38.469L263.782 38.1907C263.815 37.9303 263.886 37.6812 263.997 37.4436C264.108 37.2027 264.252 36.9879 264.431 36.7991C264.61 36.6103 264.819 36.4605 265.056 36.3499C265.294 36.2392 265.556 36.1838 265.843 36.1838C266.109 36.1838 266.347 36.2213 266.555 36.2961C266.764 36.3678 266.94 36.4833 267.083 36.6428C267.226 36.7991 267.335 37.0009 267.41 37.2483C267.485 37.4957 267.522 37.7952 267.522 38.1467V41.5647H267.259V38.1467C267.259 37.6975 267.197 37.3508 267.073 37.1067C266.953 36.8593 266.785 36.6868 266.57 36.5891C266.355 36.4915 266.108 36.4426 265.828 36.4426C265.496 36.4426 265.211 36.5175 264.973 36.6672C264.739 36.8137 264.545 36.9976 264.392 37.219C264.243 37.4403 264.129 37.665 264.051 37.8928C263.976 38.1207 263.933 38.3127 263.924 38.469ZM271.082 41.6624C270.76 41.6624 270.458 41.5989 270.178 41.4719C269.899 41.3417 269.653 41.1594 269.441 40.925C269.23 40.6907 269.064 40.414 268.943 40.095C268.826 39.7727 268.767 39.4195 268.767 39.0354V38.8206C268.767 38.4332 268.824 38.08 268.938 37.761C269.055 37.4387 269.215 37.1604 269.417 36.926C269.622 36.6884 269.858 36.5061 270.125 36.3792C270.392 36.2489 270.678 36.1838 270.984 36.1838C271.277 36.1838 271.546 36.2392 271.79 36.3499C272.034 36.4573 272.246 36.6103 272.425 36.8088C272.607 37.0074 272.747 37.245 272.844 37.5217C272.942 37.7984 272.991 38.1044 272.991 38.4397V38.7473H268.938V38.4836H272.727V38.4202C272.727 38.0653 272.656 37.7398 272.512 37.4436C272.369 37.1441 272.167 36.9032 271.907 36.7209C271.647 36.5387 271.339 36.4475 270.984 36.4475C270.691 36.4475 270.424 36.5094 270.183 36.6331C269.946 36.7568 269.741 36.9277 269.568 37.1458C269.396 37.3606 269.262 37.6112 269.168 37.8977C269.077 38.1842 269.031 38.4918 269.031 38.8206V39.0354C269.031 39.3642 269.083 39.6718 269.187 39.9583C269.291 40.2447 269.436 40.497 269.622 40.7151C269.807 40.9299 270.024 41.0992 270.271 41.2229C270.522 41.3433 270.792 41.4036 271.082 41.4036C271.385 41.4036 271.666 41.3531 271.927 41.2522C272.19 41.1513 272.431 40.9592 272.649 40.676L272.835 40.8079C272.718 40.9739 272.576 41.122 272.41 41.2522C272.247 41.3792 272.055 41.4801 271.834 41.5549C271.616 41.6265 271.365 41.6624 271.082 41.6624ZM277.478 40.2708C277.478 40.1112 277.434 39.9501 277.346 39.7874C277.259 39.6213 277.099 39.4667 276.868 39.3235C276.637 39.1803 276.303 39.0614 275.867 38.967C275.571 38.9019 275.31 38.8303 275.086 38.7522C274.864 38.6741 274.679 38.5813 274.529 38.4739C274.379 38.3632 274.267 38.2297 274.192 38.0735C274.117 37.9172 274.08 37.7317 274.08 37.5168C274.08 37.3313 274.119 37.1588 274.197 36.9993C274.278 36.8365 274.396 36.6949 274.549 36.5745C274.702 36.4508 274.887 36.3547 275.105 36.2864C275.323 36.218 275.571 36.1838 275.847 36.1838C276.241 36.1838 276.578 36.2473 276.858 36.3743C277.141 36.5012 277.358 36.6786 277.508 36.9065C277.661 37.1311 277.737 37.3931 277.737 37.6926H277.469C277.469 37.4745 277.405 37.2711 277.278 37.0823C277.154 36.8935 276.972 36.7405 276.731 36.6233C276.49 36.5061 276.196 36.4475 275.847 36.4475C275.493 36.4475 275.205 36.5012 274.983 36.6086C274.762 36.7161 274.599 36.8512 274.495 37.0139C274.394 37.1767 274.344 37.3411 274.344 37.5071C274.344 37.6438 274.363 37.7708 274.402 37.8879C274.441 38.0019 274.516 38.1093 274.627 38.2102C274.741 38.3079 274.903 38.4006 275.115 38.4885C275.327 38.5764 275.603 38.6594 275.945 38.7375C276.365 38.8319 276.707 38.9459 276.97 39.0793C277.234 39.2128 277.428 39.3772 277.552 39.5725C277.678 39.7646 277.742 39.9989 277.742 40.2756C277.742 40.4807 277.698 40.6679 277.61 40.8372C277.525 41.0064 277.402 41.1529 277.239 41.2766C277.08 41.4003 276.884 41.4963 276.653 41.5647C276.425 41.6298 276.17 41.6624 275.886 41.6624C275.46 41.6624 275.099 41.5972 274.802 41.467C274.51 41.3336 274.287 41.1578 274.134 40.9397C273.984 40.7183 273.909 40.4791 273.909 40.2219H274.173C274.195 40.5247 274.295 40.7623 274.47 40.9348C274.649 41.1041 274.866 41.2245 275.12 41.2961C275.377 41.3645 275.633 41.3987 275.886 41.3987C276.235 41.3987 276.526 41.3433 276.76 41.2327C276.998 41.122 277.177 40.9804 277.298 40.8079C277.418 40.6321 277.478 40.453 277.478 40.2708ZM280.994 36.2815V36.55H278.548V36.2815H280.994ZM279.524 34.8557H279.793V40.3C279.793 40.6093 279.829 40.8437 279.9 41.0032C279.975 41.1594 280.073 41.2652 280.193 41.3206C280.317 41.3726 280.449 41.3987 280.589 41.3987C280.69 41.3987 280.779 41.3954 280.857 41.3889C280.935 41.3792 281.02 41.3678 281.111 41.3547L281.155 41.6038C281.083 41.6265 280.991 41.6412 280.877 41.6477C280.763 41.6575 280.672 41.6624 280.603 41.6624C280.379 41.6624 280.185 41.6233 280.022 41.5452C279.863 41.4638 279.739 41.3238 279.651 41.1252C279.566 40.9267 279.524 40.6516 279.524 40.3V34.8557ZM285.681 40.5735V37.844C285.681 37.551 285.618 37.3004 285.491 37.092C285.367 36.8837 285.185 36.7242 284.944 36.6135C284.706 36.5028 284.415 36.4475 284.07 36.4475C283.751 36.4475 283.463 36.5045 283.206 36.6184C282.952 36.7291 282.75 36.8821 282.6 37.0774C282.454 37.2727 282.381 37.4924 282.381 37.7366L282.117 37.7268C282.117 37.5217 282.164 37.3264 282.259 37.1409C282.356 36.9553 282.491 36.7909 282.664 36.6477C282.84 36.5045 283.046 36.3922 283.284 36.3108C283.525 36.2262 283.787 36.1838 284.07 36.1838C284.438 36.1838 284.762 36.2457 285.042 36.3694C285.325 36.4931 285.546 36.6786 285.706 36.926C285.865 37.1734 285.945 37.4827 285.945 37.8538V40.5002C285.945 40.689 285.956 40.8795 285.979 41.0715C286.005 41.2636 286.039 41.4133 286.082 41.5208V41.5647H285.779C285.747 41.4377 285.722 41.2847 285.706 41.1057C285.69 40.9234 285.681 40.746 285.681 40.5735ZM285.799 38.6155L285.808 38.884H284.431C284.09 38.884 283.784 38.9182 283.513 38.9866C283.243 39.0517 283.014 39.1444 282.825 39.2649C282.636 39.3853 282.491 39.5286 282.39 39.6946C282.289 39.8606 282.239 40.0445 282.239 40.2463C282.239 40.4579 282.296 40.6516 282.41 40.8274C282.527 41.0032 282.688 41.1431 282.893 41.2473C283.098 41.3515 283.334 41.4036 283.601 41.4036C283.972 41.4036 284.301 41.3433 284.588 41.2229C284.874 41.0992 285.117 40.9267 285.315 40.7053C285.514 40.484 285.665 40.2219 285.769 39.9192L285.886 40.1633C285.825 40.3456 285.732 40.5263 285.608 40.7053C285.488 40.8811 285.333 41.0422 285.144 41.1887C284.955 41.3319 284.733 41.4475 284.475 41.5354C284.221 41.62 283.93 41.6624 283.601 41.6624C283.273 41.6624 282.986 41.6021 282.742 41.4817C282.498 41.358 282.309 41.1887 282.176 40.9739C282.042 40.7558 281.975 40.5068 281.975 40.2268C281.975 39.9924 282.031 39.7776 282.141 39.5823C282.252 39.3837 282.412 39.2128 282.62 39.0696C282.831 38.9231 283.089 38.8108 283.391 38.7327C283.694 38.6545 284.036 38.6155 284.417 38.6155H285.799ZM287.913 37.1995V41.5647H287.649V36.2815H287.913V37.1995ZM290.008 36.2375L289.978 36.4719C289.926 36.4654 289.871 36.4589 289.812 36.4524C289.757 36.4459 289.698 36.4426 289.636 36.4426C289.34 36.4426 289.08 36.5028 288.855 36.6233C288.634 36.7437 288.448 36.9097 288.299 37.1213C288.152 37.3329 288.041 37.5771 287.967 37.8538C287.895 38.1272 287.859 38.4202 287.859 38.7327L287.683 38.7473C287.683 38.3762 287.722 38.0344 287.801 37.7219C287.882 37.4094 288.002 37.1392 288.162 36.9114C288.325 36.6803 288.528 36.5012 288.772 36.3743C289.02 36.2473 289.308 36.1838 289.636 36.1838C289.718 36.1838 289.789 36.1887 289.851 36.1985C289.913 36.2083 289.965 36.2213 290.008 36.2375ZM295.042 41.0569L296.868 36.2815H297.161L294.812 42.4436C294.77 42.5543 294.718 42.6812 294.656 42.8245C294.597 42.9677 294.518 43.106 294.417 43.2395C294.316 43.373 294.184 43.482 294.021 43.5667C293.862 43.6545 293.662 43.6985 293.421 43.6985C293.369 43.6985 293.3 43.6936 293.216 43.6838C293.131 43.6741 293.069 43.6611 293.03 43.6448L293.025 43.3958C293.074 43.4088 293.137 43.4185 293.216 43.425C293.294 43.4348 293.349 43.4397 293.382 43.4397C293.6 43.4397 293.78 43.3941 293.924 43.303C294.07 43.2151 294.192 43.0914 294.29 42.9319C294.387 42.7756 294.474 42.5966 294.549 42.3948L295.042 41.0569ZM293.05 36.2815L295.047 41.2522L295.13 41.5159L294.92 41.6672L292.761 36.2815H293.05ZM302.644 34.4553V41.5647H302.381V34.4553H302.644ZM305.232 34.4553V34.719H299.793V34.4553H305.232ZM306.233 37.1995V41.5647H305.969V36.2815H306.233V37.1995ZM308.328 36.2375L308.299 36.4719C308.247 36.4654 308.191 36.4589 308.133 36.4524C308.077 36.4459 308.019 36.4426 307.957 36.4426C307.661 36.4426 307.4 36.5028 307.176 36.6233C306.954 36.7437 306.769 36.9097 306.619 37.1213C306.472 37.3329 306.362 37.5771 306.287 37.8538C306.215 38.1272 306.179 38.4202 306.179 38.7327L306.004 38.7473C306.004 38.3762 306.043 38.0344 306.121 37.7219C306.202 37.4094 306.323 37.1392 306.482 36.9114C306.645 36.6803 306.848 36.5012 307.093 36.3743C307.34 36.2473 307.628 36.1838 307.957 36.1838C308.038 36.1838 308.11 36.1887 308.172 36.1985C308.233 36.2083 308.286 36.2213 308.328 36.2375ZM312.439 40.5735V37.844C312.439 37.551 312.376 37.3004 312.249 37.092C312.125 36.8837 311.943 36.7242 311.702 36.6135C311.464 36.5028 311.173 36.4475 310.828 36.4475C310.509 36.4475 310.221 36.5045 309.964 36.6184C309.71 36.7291 309.508 36.8821 309.358 37.0774C309.212 37.2727 309.138 37.4924 309.138 37.7366L308.875 37.7268C308.875 37.5217 308.922 37.3264 309.016 37.1409C309.114 36.9553 309.249 36.7909 309.422 36.6477C309.597 36.5045 309.804 36.3922 310.042 36.3108C310.283 36.2262 310.545 36.1838 310.828 36.1838C311.196 36.1838 311.52 36.2457 311.8 36.3694C312.083 36.4931 312.304 36.6786 312.464 36.926C312.623 37.1734 312.703 37.4827 312.703 37.8538V40.5002C312.703 40.689 312.714 40.8795 312.737 41.0715C312.763 41.2636 312.797 41.4133 312.84 41.5208V41.5647H312.537C312.504 41.4377 312.48 41.2847 312.464 41.1057C312.447 40.9234 312.439 40.746 312.439 40.5735ZM312.556 38.6155L312.566 38.884H311.189C310.847 38.884 310.541 38.9182 310.271 38.9866C310.001 39.0517 309.772 39.1444 309.583 39.2649C309.394 39.3853 309.249 39.5286 309.148 39.6946C309.047 39.8606 308.997 40.0445 308.997 40.2463C308.997 40.4579 309.054 40.6516 309.168 40.8274C309.285 41.0032 309.446 41.1431 309.651 41.2473C309.856 41.3515 310.092 41.4036 310.359 41.4036C310.73 41.4036 311.059 41.3433 311.345 41.2229C311.632 41.0992 311.874 40.9267 312.073 40.7053C312.272 40.484 312.423 40.2219 312.527 39.9192L312.644 40.1633C312.582 40.3456 312.49 40.5263 312.366 40.7053C312.246 40.8811 312.091 41.0422 311.902 41.1887C311.713 41.3319 311.49 41.4475 311.233 41.5354C310.979 41.62 310.688 41.6624 310.359 41.6624C310.03 41.6624 309.744 41.6021 309.5 41.4817C309.256 41.358 309.067 41.1887 308.933 40.9739C308.8 40.7558 308.733 40.5068 308.733 40.2268C308.733 39.9924 308.788 39.7776 308.899 39.5823C309.01 39.3837 309.169 39.2128 309.378 39.0696C309.589 38.9231 309.846 38.8108 310.149 38.7327C310.452 38.6545 310.794 38.6155 311.175 38.6155H312.556ZM314.671 37.4094V41.5647H314.407V36.2815H314.671V37.4094ZM314.627 38.469L314.485 38.1907C314.518 37.9303 314.589 37.6812 314.7 37.4436C314.811 37.2027 314.955 36.9879 315.135 36.7991C315.314 36.6103 315.522 36.4605 315.76 36.3499C315.997 36.2392 316.259 36.1838 316.546 36.1838C316.813 36.1838 317.05 36.2213 317.259 36.2961C317.467 36.3678 317.643 36.4833 317.786 36.6428C317.929 36.7991 318.038 37.0009 318.113 37.2483C318.188 37.4957 318.225 37.7952 318.225 38.1467V41.5647H317.962V38.1467C317.962 37.6975 317.9 37.3508 317.776 37.1067C317.656 36.8593 317.488 36.6868 317.273 36.5891C317.058 36.4915 316.811 36.4426 316.531 36.4426C316.199 36.4426 315.914 36.5175 315.677 36.6672C315.442 36.8137 315.248 36.9976 315.095 37.219C314.946 37.4403 314.832 37.665 314.754 37.8928C314.679 38.1207 314.636 38.3127 314.627 38.469ZM323.426 43.5959V37.2971V36.2815H323.689V43.5959H323.426ZM319.641 38.9719V38.8694C319.641 38.4527 319.685 38.08 319.773 37.7512C319.864 37.4192 319.995 37.1376 320.164 36.9065C320.336 36.6721 320.546 36.4931 320.794 36.3694C321.041 36.2457 321.321 36.1838 321.634 36.1838C321.923 36.1838 322.182 36.2278 322.41 36.3157C322.638 36.4036 322.836 36.5273 323.006 36.6868C323.178 36.843 323.32 37.0269 323.43 37.2385C323.544 37.4501 323.631 37.6796 323.689 37.927V40.0803C323.647 40.2887 323.572 40.4889 323.465 40.6809C323.357 40.8697 323.216 41.039 323.04 41.1887C322.867 41.3352 322.662 41.4508 322.425 41.5354C322.19 41.62 321.923 41.6624 321.624 41.6624C321.311 41.6624 321.031 41.5989 320.784 41.4719C320.54 41.3417 320.333 41.1578 320.164 40.9202C319.995 40.6825 319.864 40.3993 319.773 40.0706C319.685 39.7418 319.641 39.3756 319.641 38.9719ZM319.915 38.8694V38.9719C319.915 39.3235 319.949 39.6474 320.017 39.9436C320.089 40.2398 320.195 40.497 320.335 40.7151C320.475 40.9299 320.652 41.0976 320.867 41.218C321.082 41.3385 321.332 41.3987 321.619 41.3987C321.99 41.3987 322.306 41.3336 322.566 41.2034C322.827 41.0732 323.035 40.899 323.191 40.6809C323.347 40.4628 323.455 40.2219 323.513 39.9583V38.1028C323.481 37.9498 323.426 37.7789 323.347 37.5901C323.269 37.4013 323.159 37.2206 323.015 37.0481C322.872 36.8723 322.687 36.7291 322.459 36.6184C322.234 36.5045 321.957 36.4475 321.629 36.4475C321.339 36.4475 321.087 36.5077 320.872 36.6282C320.657 36.7486 320.478 36.9179 320.335 37.136C320.195 37.3508 320.089 37.6064 320.017 37.9026C319.949 38.1956 319.915 38.5178 319.915 38.8694ZM328.904 40.344V36.2815H329.173V41.5647H328.904V40.344ZM328.948 39.4993L329.173 39.4895C329.173 39.802 329.132 40.0901 329.051 40.3538C328.969 40.6174 328.844 40.8486 328.675 41.0471C328.505 41.2424 328.289 41.3938 328.025 41.5012C327.761 41.6086 327.447 41.6624 327.083 41.6624C326.826 41.6624 326.59 41.6265 326.375 41.5549C326.163 41.4801 325.979 41.3629 325.823 41.2034C325.67 41.0439 325.551 40.8355 325.467 40.5784C325.385 40.318 325.344 40.0038 325.344 39.636V36.2815H325.608V39.6458C325.608 39.968 325.644 40.2415 325.716 40.4661C325.79 40.6907 325.893 40.8713 326.023 41.0081C326.157 41.1448 326.311 41.2441 326.487 41.3059C326.666 41.3678 326.861 41.3987 327.073 41.3987C327.548 41.3987 327.923 41.3075 328.196 41.1252C328.469 40.943 328.663 40.7069 328.777 40.4172C328.891 40.1243 328.948 39.8183 328.948 39.4993ZM331.17 36.2815V41.5647H330.906V36.2815H331.17ZM330.769 34.6311C330.769 34.5562 330.795 34.4928 330.847 34.4407C330.899 34.3853 330.963 34.3577 331.038 34.3577C331.113 34.3577 331.176 34.3853 331.228 34.4407C331.284 34.4928 331.311 34.5562 331.311 34.6311C331.311 34.706 331.284 34.7694 331.228 34.8215C331.176 34.8736 331.113 34.8997 331.038 34.8997C330.963 34.8997 330.899 34.8736 330.847 34.8215C330.795 34.7694 330.769 34.706 330.769 34.6311ZM333.23 34.0647V41.5647H332.967V34.0647H333.23ZM335.291 36.2815V41.5647H335.027V36.2815H335.291ZM334.89 34.6311C334.89 34.5562 334.916 34.4928 334.969 34.4407C335.021 34.3853 335.084 34.3577 335.159 34.3577C335.234 34.3577 335.297 34.3853 335.349 34.4407C335.405 34.4928 335.432 34.5562 335.432 34.6311C335.432 34.706 335.405 34.7694 335.349 34.8215C335.297 34.8736 335.234 34.8997 335.159 34.8997C335.084 34.8997 335.021 34.8736 334.969 34.8215C334.916 34.7694 334.89 34.706 334.89 34.6311ZM340.564 40.5393V34.0647H340.828V41.5647H340.564V40.5393ZM336.78 38.9719V38.8694C336.78 38.4527 336.824 38.08 336.912 37.7512C337.003 37.4192 337.133 37.1376 337.302 36.9065C337.475 36.6721 337.685 36.4931 337.932 36.3694C338.18 36.2457 338.46 36.1838 338.772 36.1838C339.062 36.1838 339.319 36.2278 339.544 36.3157C339.772 36.4036 339.969 36.5273 340.135 36.6868C340.304 36.843 340.444 37.0269 340.554 37.2385C340.665 37.4501 340.75 37.6796 340.808 37.927V40.0803C340.766 40.2887 340.691 40.4889 340.584 40.6809C340.48 40.8697 340.341 41.039 340.169 41.1887C339.999 41.3352 339.798 41.4508 339.563 41.5354C339.329 41.62 339.062 41.6624 338.762 41.6624C338.45 41.6624 338.17 41.5989 337.923 41.4719C337.678 41.3417 337.472 41.1578 337.302 40.9202C337.133 40.6825 337.003 40.3993 336.912 40.0706C336.824 39.7418 336.78 39.3756 336.78 38.9719ZM337.053 38.8694V38.9719C337.053 39.3235 337.088 39.6474 337.156 39.9436C337.228 40.2398 337.333 40.497 337.473 40.7151C337.613 40.9299 337.791 41.0976 338.006 41.218C338.22 41.3385 338.471 41.3987 338.758 41.3987C339.129 41.3987 339.444 41.3336 339.705 41.2034C339.965 41.0732 340.174 40.899 340.33 40.6809C340.486 40.4628 340.594 40.2219 340.652 39.9583V38.1028C340.616 37.94 340.559 37.7642 340.481 37.5754C340.406 37.3834 340.297 37.2027 340.154 37.0334C340.014 36.8609 339.83 36.7209 339.602 36.6135C339.378 36.5028 339.099 36.4475 338.767 36.4475C338.478 36.4475 338.225 36.5077 338.01 36.6282C337.796 36.7486 337.617 36.9179 337.473 37.136C337.333 37.3508 337.228 37.6064 337.156 37.9026C337.088 38.1956 337.053 38.5178 337.053 38.8694ZM345.818 40.5735V37.844C345.818 37.551 345.755 37.3004 345.628 37.092C345.504 36.8837 345.322 36.7242 345.081 36.6135C344.843 36.5028 344.552 36.4475 344.207 36.4475C343.888 36.4475 343.6 36.5045 343.343 36.6184C343.089 36.7291 342.887 36.8821 342.737 37.0774C342.591 37.2727 342.517 37.4924 342.517 37.7366L342.254 37.7268C342.254 37.5217 342.301 37.3264 342.395 37.1409C342.493 36.9553 342.628 36.7909 342.801 36.6477C342.976 36.5045 343.183 36.3922 343.421 36.3108C343.662 36.2262 343.924 36.1838 344.207 36.1838C344.575 36.1838 344.899 36.2457 345.178 36.3694C345.462 36.4931 345.683 36.6786 345.843 36.926C346.002 37.1734 346.082 37.4827 346.082 37.8538V40.5002C346.082 40.689 346.093 40.8795 346.116 41.0715C346.142 41.2636 346.176 41.4133 346.219 41.5208V41.5647H345.916C345.883 41.4377 345.859 41.2847 345.843 41.1057C345.826 40.9234 345.818 40.746 345.818 40.5735ZM345.935 38.6155L345.945 38.884H344.568C344.226 38.884 343.92 38.9182 343.65 38.9866C343.38 39.0517 343.15 39.1444 342.962 39.2649C342.773 39.3853 342.628 39.5286 342.527 39.6946C342.426 39.8606 342.376 40.0445 342.376 40.2463C342.376 40.4579 342.433 40.6516 342.547 40.8274C342.664 41.0032 342.825 41.1431 343.03 41.2473C343.235 41.3515 343.471 41.4036 343.738 41.4036C344.109 41.4036 344.438 41.3433 344.724 41.2229C345.011 41.0992 345.253 40.9267 345.452 40.7053C345.65 40.484 345.802 40.2219 345.906 39.9192L346.023 40.1633C345.961 40.3456 345.869 40.5263 345.745 40.7053C345.624 40.8811 345.47 41.0422 345.281 41.1887C345.092 41.3319 344.869 41.4475 344.612 41.5354C344.358 41.62 344.067 41.6624 343.738 41.6624C343.409 41.6624 343.123 41.6021 342.879 41.4817C342.635 41.358 342.446 41.1887 342.312 40.9739C342.179 40.7558 342.112 40.5068 342.112 40.2268C342.112 39.9924 342.167 39.7776 342.278 39.5823C342.389 39.3837 342.548 39.2128 342.757 39.0696C342.968 38.9231 343.225 38.8108 343.528 38.7327C343.831 38.6545 344.173 38.6155 344.553 38.6155H345.935ZM351.326 40.5393V34.0647H351.59V41.5647H351.326V40.5393ZM347.542 38.9719V38.8694C347.542 38.4527 347.586 38.08 347.674 37.7512C347.765 37.4192 347.895 37.1376 348.064 36.9065C348.237 36.6721 348.447 36.4931 348.694 36.3694C348.941 36.2457 349.221 36.1838 349.534 36.1838C349.824 36.1838 350.081 36.2278 350.305 36.3157C350.533 36.4036 350.73 36.5273 350.896 36.6868C351.066 36.843 351.205 37.0269 351.316 37.2385C351.427 37.4501 351.511 37.6796 351.57 37.927V40.0803C351.528 40.2887 351.453 40.4889 351.345 40.6809C351.241 40.8697 351.103 41.039 350.93 41.1887C350.761 41.3352 350.559 41.4508 350.325 41.5354C350.091 41.62 349.824 41.6624 349.524 41.6624C349.212 41.6624 348.932 41.5989 348.684 41.4719C348.44 41.3417 348.233 41.1578 348.064 40.9202C347.895 40.6825 347.765 40.3993 347.674 40.0706C347.586 39.7418 347.542 39.3756 347.542 38.9719ZM347.815 38.8694V38.9719C347.815 39.3235 347.849 39.6474 347.918 39.9436C347.989 40.2398 348.095 40.497 348.235 40.7151C348.375 40.9299 348.552 41.0976 348.767 41.218C348.982 41.3385 349.233 41.3987 349.519 41.3987C349.89 41.3987 350.206 41.3336 350.467 41.2034C350.727 41.0732 350.935 40.899 351.092 40.6809C351.248 40.4628 351.355 40.2219 351.414 39.9583V38.1028C351.378 37.94 351.321 37.7642 351.243 37.5754C351.168 37.3834 351.059 37.2027 350.916 37.0334C350.776 36.8609 350.592 36.7209 350.364 36.6135C350.139 36.5028 349.861 36.4475 349.529 36.4475C349.239 36.4475 348.987 36.5077 348.772 36.6282C348.557 36.7486 348.378 36.9179 348.235 37.136C348.095 37.3508 347.989 37.6064 347.918 37.9026C347.849 38.1956 347.815 38.5178 347.815 38.8694Z" fill="white"/>
<path d="M167.418 18.4177V58.2615H147.713" stroke="#FBCB0D"/>
<path d="M186.582 18.4177V58.2615H206.287" stroke="#DF4949"/>
</svg>
