<svg width="16" height="14" viewBox="0 0 16 14" fill="none" xmlns="http://www.w3.org/2000/svg">
<path fill-rule="evenodd" clip-rule="evenodd" d="M7.95316 0.246736C7.76852 0.291589 7.6991 0.36104 7.56912 0.630904C7.51437 0.744587 7.44252 0.893409 7.40946 0.961619C7.37639 1.02983 7.30909 1.16935 7.2599 1.27166C7.08234 1.64101 7.0197 1.77069 6.9354 1.94343C6.77095 2.28039 6.66804 2.49227 6.59214 2.65017C6.5501 2.7376 6.47804 2.88643 6.43197 2.98089C6.38592 3.07533 6.31007 3.23167 6.2634 3.3283C6.10344 3.65953 6.01863 3.83488 5.9435 3.98973C5.90215 4.075 5.83177 4.2215 5.78711 4.31528C5.74246 4.40908 5.69829 4.4861 5.68897 4.48647C5.66776 4.48727 5.3753 4.52948 4.90451 4.59968C4.70518 4.62938 4.38859 4.67613 4.20098 4.70356C4.01337 4.73099 3.73515 4.77219 3.58272 4.79511C3.43029 4.81803 3.16691 4.8561 2.99744 4.87971C2.82798 4.90331 2.68347 4.92611 2.67635 4.93039C2.66921 4.93467 2.54464 4.95319 2.3995 4.97155C2.25436 4.9899 2.12964 5.0085 2.12235 5.01288C2.11506 5.01727 1.99454 5.03533 1.85454 5.05305C1.42048 5.10796 1.2667 5.14261 1.17603 5.2059C1.00731 5.3237 0.947128 5.54019 1.03471 5.71429C1.07892 5.80222 1.1759 5.90249 2.15887 6.87655C2.48968 7.20437 2.89091 7.6028 3.05048 7.76196C3.21006 7.92111 3.4809 8.19085 3.65237 8.36138C3.82384 8.5319 4.03464 8.74183 4.12084 8.82787L4.27756 8.9843L4.24585 9.13792C4.22844 9.2224 4.20339 9.36593 4.19023 9.45687C4.17706 9.54782 4.15307 9.69199 4.13693 9.77726C4.0941 10.0036 4.02812 10.3983 3.91411 11.1105C3.89044 11.2582 3.8652 11.4024 3.85801 11.4308C3.85083 11.4593 3.82672 11.5965 3.80444 11.7357C3.72765 12.2158 3.61088 12.9116 3.56082 13.1878C3.51057 13.4649 3.52394 13.6192 3.60689 13.7192C3.69705 13.828 3.83471 13.8985 3.95683 13.8985C4.06957 13.8985 4.12143 13.8769 4.48879 13.6777C4.63536 13.5982 4.80804 13.5055 4.87253 13.4716C5.19818 13.3008 5.27783 13.2583 5.40551 13.1874C5.48173 13.1451 5.61124 13.0751 5.69332 13.0319C5.7754 12.9888 5.88093 12.9318 5.92784 12.9055C5.97474 12.8791 6.0371 12.8462 6.06641 12.8322C6.09572 12.8183 6.34036 12.6869 6.61005 12.5402C6.87974 12.3935 7.11958 12.2652 7.14303 12.2552C7.16648 12.2452 7.20006 12.228 7.21765 12.2169C7.30393 12.1625 7.9806 11.807 8.02217 11.7942C8.0579 11.7833 8.12218 11.8078 8.278 11.8918C8.5459 12.0361 8.72304 12.1304 8.81659 12.1785C8.85763 12.1996 8.9056 12.2255 8.92319 12.236C8.94078 12.2465 9.07988 12.3212 9.23232 12.4019C9.38475 12.4826 9.52386 12.5578 9.54145 12.569C9.55903 12.5802 9.6118 12.6085 9.6587 12.6319C9.7056 12.6553 9.78235 12.6968 9.82926 12.724C9.87616 12.7513 9.93852 12.7851 9.96783 12.7991C9.99714 12.8132 10.2034 12.9235 10.4262 13.0443C10.649 13.1651 10.8936 13.2964 10.9698 13.336C11.1589 13.4345 11.2966 13.508 11.6094 13.6777C11.9861 13.882 12.0296 13.8996 12.1532 13.8979C12.2814 13.8961 12.4055 13.8294 12.497 13.7131C12.5741 13.615 12.5862 13.4555 12.5367 13.1878C12.5167 13.0798 12.4828 12.8844 12.4612 12.7537C12.4397 12.623 12.4018 12.3951 12.377 12.2473C12.3522 12.0995 12.3142 11.867 12.2926 11.7305C12.2709 11.5941 12.2474 11.4593 12.2402 11.4308C12.233 11.4024 12.2087 11.2629 12.1861 11.1208C12.1636 10.9787 12.1197 10.7136 12.0886 10.5317C12.0291 10.184 11.981 9.89577 11.9107 9.46721C11.8874 9.3251 11.8579 9.15803 11.8451 9.09592L11.822 8.983L11.9793 8.82721C12.1518 8.6564 12.7188 8.09183 13.0979 7.71345C13.2306 7.58097 13.625 7.18889 13.9743 6.84215C14.9572 5.86669 15.0177 5.804 15.0631 5.71429C15.1512 5.54066 15.0911 5.32384 14.9222 5.20588C14.827 5.1394 14.5963 5.0941 13.7733 4.98031C13.703 4.97059 13.5159 4.94294 13.3576 4.91888C12.862 4.84354 12.5613 4.79881 12.4728 4.78734C12.4259 4.78124 12.2628 4.75751 12.1104 4.73461C11.958 4.71169 11.7085 4.67429 11.5561 4.6515C11.4037 4.62872 11.1782 4.59492 11.0551 4.57642C10.8287 4.54238 10.4386 4.48792 10.4114 4.48655C10.3978 4.48587 10.3045 4.30546 10.1412 3.9639C10.1044 3.88715 10.0444 3.7616 10.0077 3.68485C9.92008 3.50158 9.7725 3.19806 9.65849 2.96658C9.60809 2.86427 9.53236 2.70848 9.4902 2.62036C9.44803 2.53227 9.37904 2.3881 9.33687 2.29998C9.2947 2.21189 9.21891 2.05608 9.16842 1.95377C9.11796 1.85145 9.04087 1.69333 8.99714 1.60238C8.95342 1.51143 8.8794 1.35796 8.83265 1.26133C8.78589 1.1647 8.72085 1.02983 8.68812 0.961619C8.3992 0.359469 8.3978 0.357236 8.26229 0.290329C8.17009 0.244793 8.03789 0.226149 7.95316 0.246736Z" fill="#FFC107"/>
</svg>
