<svg width="203" height="64" viewBox="0 0 203 64" fill="none" xmlns="http://www.w3.org/2000/svg">
<path d="M51.1114 4.13884C53.2585 1.8454 54.3818 1.04278 56.0283 0.62529C58.1947 0.0763617 60.1105 1.07019 63.1304 4.30996C64.8343 6.13777 65.659 6.66097 66.885 6.67529C68.204 6.67765 68.8955 6.22923 71.0931 3.95377C73.4101 1.55459 74.7221 0.738349 76.4881 0.597541C78.5956 0.429662 80.256 1.30072 82.3871 3.69258C84.5391 6.10793 85.6149 6.78746 87.0479 6.63626C88.2083 6.51401 88.8392 6.09841 90.6098 4.29038C93.3804 1.46129 94.873 0.549523 96.7339 0.549523C98.6594 0.549523 100.027 1.36747 102.35 3.90882C104.048 5.76554 104.743 6.32945 105.684 6.61328C106.588 6.88622 107.642 6.6945 108.514 6.09858C108.843 5.87417 109.765 4.99237 110.564 4.13884C112.711 1.8454 113.835 1.04278 115.481 0.62529C117.647 0.0763617 119.563 1.07019 122.583 4.30996C124.311 6.16379 125.135 6.6756 126.39 6.6756C127.601 6.6756 128.42 6.1849 130.181 4.40394C131.801 2.76499 132.258 2.55062 133.119 3.02549C133.822 3.41335 134.132 4.12607 134.037 5.13233C133.969 5.85118 133.866 6.01752 132.739 7.24155C130.53 9.64039 129.005 10.5353 126.82 10.7146C124.442 10.9097 122.979 10.1384 120.23 7.24138C118.241 5.14425 117.533 4.64555 116.538 4.63959C115.598 4.63397 114.679 5.27093 112.974 7.10926C110.208 10.0914 108.788 10.8678 106.356 10.7272C104.031 10.5925 102.812 9.88336 100.368 7.24479C98.4276 5.14936 97.9176 4.76388 96.964 4.67194C95.9057 4.56995 95.0562 5.11905 93.2339 7.08303C90.993 9.49805 89.3403 10.5843 87.5096 10.8455C85.8545 11.0815 83.6202 10.3179 82.1898 9.0271C81.8554 8.72539 80.9674 7.80818 80.2165 6.98922C79.4402 6.1425 78.5064 5.30395 78.0522 5.0455C76.8175 4.34316 75.8986 4.57409 74.1854 6.21126C73.9987 6.46005 73.7175 6.77346 73.2864 7.24155C72.0218 8.61484 70.9813 9.49524 69.9128 10.0307C69.2401 10.4235 68.5983 10.6492 67.8846 10.7779C65.704 11.1712 63.675 10.4401 61.8565 8.6057C61.0449 7.78694 60.4959 7.1429 60.1581 6.59841C58.6266 5.03924 57.9692 4.64489 57.0851 4.63959C56.1456 4.63397 55.2264 5.27093 53.5214 7.10926C50.7554 10.0914 49.335 10.8678 46.9036 10.7272C44.5784 10.5925 43.3589 9.88336 40.9155 7.24479C38.9748 5.14936 38.4647 4.76388 37.5112 4.67194C36.4529 4.56995 35.6034 5.11905 33.7811 7.08303C31.5402 9.49805 29.8875 10.5843 28.0568 10.8455C26.4017 11.0815 24.1674 10.3179 22.737 9.0271C22.4026 8.72539 21.5146 7.80818 20.7637 6.98922C19.9874 6.1425 19.0536 5.30395 18.5994 5.0455C17.1788 4.23743 16.1762 4.66478 13.901 7.04796C11.4995 9.56343 10.1818 10.4623 8.43174 10.7779C6.25119 11.1712 4.22221 10.4401 2.40364 8.6057C0.984114 7.17362 0.368067 6.27599 0.279767 5.51083C0.137726 4.28017 0.924076 3.27374 2.0276 3.27374C2.61993 3.27374 2.95482 3.52589 4.21459 4.92103C5.44024 6.27803 6.15689 6.67032 7.42018 6.67526C8.74701 6.68036 9.43598 6.23615 11.6403 3.95377C13.9573 1.55459 15.2693 0.738349 17.0353 0.597541C19.1428 0.429662 20.8032 1.30072 22.9343 3.69258C25.0863 6.10793 26.1621 6.78746 27.5951 6.63626C28.7554 6.51401 29.3864 6.09841 31.157 4.29038C33.9276 1.46129 35.4202 0.549523 37.2811 0.549523C39.2066 0.549523 40.574 1.36747 42.8974 3.90882C44.5949 5.76554 45.29 6.32945 46.2307 6.61328C47.1357 6.88622 48.1893 6.6945 49.0616 6.09858C49.3899 5.87417 50.3123 4.99237 51.1114 4.13884Z" fill="#474C54"/>
<path d="M170.096 4.03765C172.243 1.74421 173.367 0.941582 175.013 0.524097C177.18 -0.0248318 179.095 0.968998 182.115 4.20877C183.819 6.03658 184.644 6.55977 185.87 6.5741C187.189 6.57646 187.88 6.12803 190.078 3.85258C192.395 1.4534 193.707 0.637156 195.473 0.496348C197.581 0.328468 199.241 1.19953 201.372 3.59139C203.524 6.00674 204.6 6.68626 206.033 6.53507C207.193 6.41282 207.824 5.99721 209.595 4.18919C212.365 1.36009 213.858 0.448329 215.719 0.448329C217.644 0.448329 219.012 1.26628 221.335 3.80763C223.033 5.66435 223.728 6.22826 224.668 6.51209C225.573 6.78502 226.627 6.5933 227.499 5.99738C227.828 5.77298 228.75 4.89118 229.549 4.03765C231.696 1.74421 232.82 0.941582 234.466 0.524097C236.632 -0.0248318 238.548 0.968998 241.568 4.20877C243.296 6.06259 244.12 6.5744 245.375 6.5744C246.586 6.5744 247.405 6.0837 249.166 4.30275C250.786 2.66379 251.243 2.44943 252.104 2.92429C252.806 3.31215 253.117 4.02488 253.022 5.03114C252.954 5.74999 252.851 5.91633 251.724 7.14035C249.515 9.53919 247.99 10.4341 245.805 10.6134C243.427 10.8085 241.964 10.0372 239.215 7.14019C237.226 5.04306 236.518 4.54436 235.523 4.5384C234.583 4.53278 233.664 5.16973 231.959 7.00807C229.193 9.99023 227.773 10.7666 225.341 10.626C223.016 10.4913 221.797 9.78216 219.353 7.14359C217.413 5.04816 216.903 4.66269 215.949 4.57074C214.891 4.46876 214.041 5.01785 212.219 6.98184C209.978 9.39685 208.325 10.4831 206.495 10.7443C204.839 10.9803 202.605 10.2167 201.175 8.9259C200.84 8.6242 199.952 7.70699 199.201 6.88802C198.425 6.0413 197.491 5.20276 197.037 4.9443C195.802 4.24197 194.883 4.47289 193.17 6.11007C192.984 6.35885 192.702 6.67226 192.271 7.14035C191.007 8.51365 189.966 9.39405 188.898 9.92946C188.225 10.3223 187.583 10.548 186.87 10.6767C184.689 11.07 182.66 10.3389 180.841 8.50451C180.03 7.68575 179.481 7.0417 179.143 6.49722C177.612 4.93805 176.954 4.54369 176.07 4.5384C175.131 4.53278 174.211 5.16973 172.506 7.00807C169.74 9.99023 168.32 10.7666 165.889 10.626C163.563 10.4913 162.344 9.78216 159.9 7.14359C157.96 5.04816 157.45 4.66269 156.496 4.57074C155.438 4.46876 154.588 5.01785 152.766 6.98184C150.525 9.39685 148.872 10.4831 147.042 10.7443C145.387 10.9803 143.152 10.2167 141.722 8.9259C141.387 8.6242 140.5 7.70699 139.749 6.88802C138.972 6.0413 138.039 5.20276 137.584 4.9443C136.164 4.13623 135.161 4.56359 132.886 6.94676C130.484 9.46223 129.167 10.3611 127.417 10.6767C125.236 11.07 123.207 10.3389 121.389 8.50451C119.969 7.07242 119.353 6.1748 119.265 5.40964C119.123 4.17897 119.909 3.17254 121.013 3.17254C121.605 3.17254 121.94 3.4247 123.2 4.81984C124.425 6.17684 125.142 6.56913 126.405 6.57406C127.732 6.57917 128.421 6.13495 130.625 3.85258C132.942 1.4534 134.254 0.637156 136.02 0.496348C138.128 0.328468 139.788 1.19953 141.919 3.59139C144.071 6.00674 145.147 6.68626 146.58 6.53507C147.74 6.41282 148.371 5.99721 150.142 4.18919C152.913 1.36009 154.405 0.448329 156.266 0.448329C158.192 0.448329 159.559 1.26628 161.882 3.80763C163.58 5.66435 164.275 6.22826 165.216 6.51209C166.121 6.78502 167.174 6.5933 168.047 5.99738C168.375 5.77298 169.297 4.89118 170.096 4.03765Z" fill="#474C54"/>
<path d="M92.18 30.6457C94.3271 28.3522 95.4504 27.5496 97.0969 27.1321C99.2633 26.5832 101.179 27.577 104.199 30.8168C105.903 32.6446 106.728 33.1678 107.954 33.1821C109.273 33.1845 109.964 32.7361 112.162 30.4606C114.479 28.0614 115.791 27.2452 117.557 27.1044C119.664 26.9365 121.325 27.8076 123.456 30.1994C125.608 32.6148 126.684 33.2943 128.117 33.1431C129.277 33.0208 129.908 32.6052 131.678 30.7972C134.449 27.9681 135.942 27.0564 137.803 27.0564C139.728 27.0564 141.095 27.8743 143.419 30.4157C145.116 32.2724 145.811 32.8363 146.752 33.1201C147.657 33.3931 148.711 33.2013 149.583 32.6054C149.911 32.381 150.834 31.4992 151.633 30.6457C153.78 28.3522 154.903 27.5496 156.55 27.1321C158.716 26.5832 160.632 27.577 163.652 30.8168C165.38 32.6706 166.204 33.1824 167.459 33.1824C168.67 33.1824 169.488 32.6917 171.249 30.9108C172.87 29.2718 173.327 29.0575 174.187 29.5323C174.89 29.9202 175.201 30.6329 175.106 31.6392C175.037 32.358 174.935 32.5244 173.808 33.7484C171.599 36.1472 170.074 37.0421 167.889 37.2214C165.511 37.4165 164.048 36.6452 161.299 33.7482C159.309 31.6511 158.601 31.1524 157.607 31.1464C156.667 31.1408 155.748 31.7778 154.043 33.6161C151.277 36.5983 149.856 37.3747 147.425 37.234C145.1 37.0993 143.88 36.3902 141.437 33.7516C139.496 31.6562 138.986 31.2707 138.033 31.1788C136.974 31.0768 136.125 31.6259 134.302 33.5899C132.062 36.0049 130.409 37.0912 128.578 37.3523C126.923 37.5883 124.689 36.8247 123.258 35.5339C122.924 35.2322 122.036 34.315 121.285 33.4961C120.509 32.6493 119.575 31.8108 119.121 31.5523C117.886 30.85 116.967 31.0809 115.254 32.7181C115.067 32.9669 114.786 33.2803 114.355 33.7484C113.09 35.1217 112.05 36.0021 110.981 36.5375C110.309 36.9303 109.667 37.156 108.953 37.2848C106.773 37.6781 104.744 36.947 102.925 35.1125C102.113 34.2938 101.565 33.6497 101.227 33.1052C99.6952 31.5461 99.0378 31.1517 98.1537 31.1464C97.2142 31.1408 96.295 31.7778 94.59 33.6161C91.824 36.5983 90.4036 37.3747 87.9722 37.234C85.647 37.0993 84.4275 36.3902 81.9841 33.7516C80.0434 31.6562 79.5333 31.2707 78.5798 31.1788C77.5215 31.0768 76.672 31.6259 74.8497 33.5899C72.6088 36.0049 70.9561 37.0912 69.1254 37.3523C67.4703 37.5883 65.236 36.8247 63.8056 35.5339C63.4712 35.2322 62.5832 34.315 61.8323 33.4961C61.056 32.6493 60.1222 31.8108 59.668 31.5523C58.2474 30.7443 57.2448 31.1716 54.9696 33.5548C52.5681 36.0703 51.2504 36.9691 49.5003 37.2848C47.3198 37.6781 45.2908 36.947 43.4722 35.1125C42.0527 33.6805 41.4367 32.7828 41.3484 32.0177C41.2063 30.787 41.9927 29.7806 43.0962 29.7806C43.6885 29.7806 44.0234 30.0327 45.2832 31.4279C46.5088 32.7849 47.2255 33.1772 48.4888 33.1821C49.8156 33.1872 50.5046 32.743 52.7089 30.4606C55.0259 28.0614 56.3379 27.2452 58.1039 27.1044C60.2114 26.9365 61.8718 27.8076 64.0029 30.1994C66.1549 32.6148 67.2307 33.2943 68.6637 33.1431C69.824 33.0208 70.455 32.6052 72.2256 30.7972C74.9962 27.9681 76.4888 27.0564 78.3497 27.0564C80.2752 27.0564 81.6426 27.8743 83.966 30.4157C85.6635 32.2724 86.3586 32.8363 87.2993 33.1201C88.2043 33.3931 89.2579 33.2013 90.1302 32.6054C90.4585 32.381 91.3809 31.4992 92.18 30.6457Z" fill="#474C54"/>
<path d="M211.165 30.5445C213.312 28.251 214.435 27.4484 216.082 27.0309C218.248 26.482 220.164 27.4758 223.184 30.7156C224.888 32.5434 225.713 33.0666 226.939 33.0809C228.258 33.0833 228.949 32.6349 231.147 30.3594C233.464 27.9602 234.776 27.144 236.542 27.0032C238.649 26.8353 240.31 27.7064 242.441 30.0982C244.593 32.5136 245.668 33.1931 247.101 33.0419C248.262 32.9197 248.893 32.504 250.663 30.696C253.434 27.8669 254.927 26.9552 256.787 26.9552C258.713 26.9552 260.08 27.7731 262.404 30.3145C264.101 32.1712 264.796 32.7351 265.737 33.0189C266.642 33.2919 267.696 33.1001 268.568 32.5042C268.896 32.2798 269.819 31.398 270.618 30.5445C272.765 28.251 273.888 27.4484 275.535 27.0309C277.701 26.482 279.617 27.4758 282.637 30.7156C284.365 32.5694 285.189 33.0812 286.444 33.0812C287.655 33.0812 288.473 32.5905 290.234 30.8096C291.855 29.1706 292.312 28.9563 293.172 29.4311C293.875 29.819 294.186 30.5317 294.09 31.538C294.022 32.2568 293.92 32.4232 292.793 33.6472C290.584 36.046 289.059 36.9409 286.874 37.1202C284.496 37.3153 283.033 36.5441 280.284 33.647C278.294 31.5499 277.586 31.0512 276.592 31.0452C275.652 31.0396 274.733 31.6766 273.028 33.5149C270.262 36.4971 268.841 37.2735 266.41 37.1328C264.085 36.9981 262.865 36.289 260.422 33.6504C258.481 31.555 257.971 31.1695 257.018 31.0776C255.959 30.9756 255.11 31.5247 253.287 33.4887C251.047 35.9037 249.394 36.99 247.563 37.2512C245.908 37.4871 243.674 36.7235 242.243 35.4327C241.909 35.131 241.021 34.2138 240.27 33.3949C239.494 32.5481 238.56 31.7096 238.106 31.4511C236.871 30.7488 235.952 30.9797 234.239 32.6169C234.052 32.8657 233.771 33.1791 233.34 33.6472C232.075 35.0205 231.035 35.9009 229.966 36.4363C229.294 36.8291 228.652 37.0548 227.938 37.1836C225.758 37.5769 223.729 36.8458 221.91 35.0113C221.098 34.1926 220.55 33.5485 220.212 33.0041C218.68 31.4449 218.023 31.0505 217.139 31.0452C216.199 31.0396 215.28 31.6766 213.575 33.5149C210.809 36.4971 209.389 37.2735 206.957 37.1328C204.632 36.9981 203.412 36.289 200.969 33.6504C199.028 31.555 198.518 31.1695 197.565 31.0776C196.506 30.9756 195.657 31.5247 193.835 33.4887C191.594 35.9037 189.941 36.99 188.11 37.2512C186.455 37.4871 184.221 36.7235 182.791 35.4327C182.456 35.131 181.568 34.2138 180.817 33.3949C180.041 32.5481 179.107 31.7096 178.653 31.4511C177.232 30.6431 176.23 31.0704 173.955 33.4536C171.553 35.9691 170.235 36.8679 168.485 37.1836C166.305 37.5769 164.276 36.8458 162.457 35.0113C161.038 33.5793 160.422 32.6816 160.333 31.9165C160.191 30.6858 160.978 29.6794 162.081 29.6794C162.673 29.6794 163.008 29.9315 164.268 31.3267C165.494 32.6837 166.21 33.076 167.474 33.0809C168.801 33.086 169.49 32.6418 171.694 30.3594C174.011 27.9602 175.323 27.144 177.089 27.0032C179.196 26.8353 180.857 27.7064 182.988 30.0982C185.14 32.5136 186.216 33.1931 187.649 33.0419C188.809 32.9197 189.44 32.504 191.211 30.696C193.981 27.8669 195.474 26.9552 197.335 26.9552C199.26 26.9552 200.628 27.7731 202.951 30.3145C204.648 32.1712 205.344 32.7351 206.284 33.0189C207.189 33.2919 208.243 33.1001 209.115 32.5042C209.443 32.2798 210.366 31.398 211.165 30.5445Z" fill="#474C54"/>
<path d="M143.713 57.1525C145.86 54.8591 146.983 54.0564 148.63 53.639C150.796 53.09 152.712 54.0839 155.732 57.3236C157.436 59.1514 158.26 59.6746 159.486 59.689C160.805 59.6913 161.497 59.2429 163.694 56.9674C166.011 54.5683 167.323 53.752 169.089 53.6112C171.197 53.4433 172.857 54.3144 174.988 56.7063C177.14 59.1216 178.216 59.8011 179.649 59.6499C180.81 59.5277 181.441 59.1121 183.211 57.3041C185.982 54.475 187.474 53.5632 189.335 53.5632C191.261 53.5632 192.628 54.3811 194.952 56.9225C196.649 58.7792 197.344 59.3431 198.285 59.627C199.19 59.8999 200.243 59.7082 201.116 59.1122C201.444 58.8878 202.366 58.006 203.165 57.1525C205.313 54.8591 206.436 54.0564 208.082 53.639C210.249 53.09 212.165 54.0839 215.184 57.3236C216.913 59.1775 217.736 59.6893 218.992 59.6893C220.202 59.6893 221.021 59.1986 222.782 57.4176C224.402 55.7787 224.859 55.5643 225.72 56.0392C226.423 56.427 226.734 57.1397 226.638 58.146C226.57 58.8649 226.468 59.0312 225.341 60.2552C223.131 62.6541 221.606 63.549 219.421 63.7283C217.044 63.9234 215.58 63.1521 212.832 60.2551C210.842 58.1579 210.134 57.6592 209.139 57.6533C208.2 57.6476 207.281 58.2846 205.575 60.1229C202.81 63.1051 201.389 63.8815 198.958 63.7409C196.632 63.6062 195.413 62.897 192.97 60.2585C191.029 58.163 190.519 57.7776 189.565 57.6856C188.507 57.5836 187.658 58.1327 185.835 60.0967C183.594 62.5117 181.942 63.598 180.111 63.8592C178.456 64.0952 176.222 63.3315 174.791 62.0408C174.457 61.7391 173.569 60.8219 172.818 60.0029C172.042 59.1562 171.108 58.3176 170.654 58.0592C169.419 57.3568 168.5 57.5878 166.787 59.2249C166.6 59.4737 166.319 59.7871 165.888 60.2552C164.623 61.6285 163.583 62.5089 162.514 63.0443C161.841 63.4371 161.2 63.6629 160.486 63.7916C158.305 64.1849 156.276 63.4538 154.458 61.6194C153.646 60.8006 153.097 60.1566 152.759 59.6121C151.228 58.0529 150.57 57.6586 149.686 57.6533C148.747 57.6476 147.828 58.2846 146.123 60.1229C143.357 63.1051 141.936 63.8815 139.505 63.7409C137.18 63.6062 135.96 62.897 133.517 60.2585C131.576 58.163 131.066 57.7776 130.112 57.6856C129.054 57.5836 128.205 58.1327 126.382 60.0967C124.141 62.5117 122.489 63.598 120.658 63.8592C119.003 64.0952 116.769 63.3315 115.338 62.0408C115.004 61.7391 114.116 60.8219 113.365 60.0029C112.589 59.1562 111.655 58.3176 111.201 58.0592C109.78 57.2511 108.778 57.6785 106.502 60.0616C104.101 62.5771 102.783 63.4759 101.033 63.7916C98.8525 64.1849 96.8235 63.4538 95.005 61.6194C93.5854 60.1873 92.9694 59.2897 92.8811 58.5245C92.739 57.2938 93.5254 56.2874 94.6289 56.2874C95.2212 56.2874 95.5561 56.5396 96.8159 57.9347C98.0416 59.2917 98.7582 59.684 100.021 59.6889C101.348 59.694 102.037 59.2498 104.242 56.9674C106.559 54.5683 107.871 53.752 109.637 53.6112C111.744 53.4433 113.405 54.3144 115.536 56.7063C117.688 59.1216 118.763 59.8011 120.196 59.6499C121.357 59.5277 121.988 59.1121 123.758 57.3041C126.529 54.475 128.022 53.5632 129.882 53.5632C131.808 53.5632 133.175 54.3811 135.499 56.9225C137.196 58.7792 137.891 59.3431 138.832 59.627C139.737 59.8999 140.791 59.7082 141.663 59.1122C141.991 58.8878 142.914 58.006 143.713 57.1525Z" fill="#474C54"/>
<path d="M262.698 57.0513C264.845 54.7579 265.968 53.9553 267.615 53.5378C269.781 52.9888 271.697 53.9827 274.717 57.2224C276.421 59.0503 277.245 59.5734 278.471 59.5878C279.79 59.5901 280.482 59.1417 282.679 56.8662C284.996 54.4671 286.308 53.6508 288.074 53.51C290.182 53.3421 291.842 54.2132 293.973 56.6051C296.125 59.0204 297.201 59.6999 298.634 59.5487C299.795 59.4265 300.426 59.0109 302.196 57.2029C304.967 54.3738 306.459 53.462 308.32 53.462C310.246 53.462 311.613 54.28 313.937 56.8213C315.634 58.678 316.329 59.2419 317.27 59.5258C318.175 59.7987 319.228 59.607 320.101 59.0111C320.429 58.7866 321.351 57.9049 322.15 57.0513C324.298 54.7579 325.421 53.9553 327.067 53.5378C329.234 52.9888 331.15 53.9827 334.169 57.2224C335.898 59.0763 336.721 59.5881 337.977 59.5881C339.187 59.5881 340.006 59.0974 341.767 57.3164C343.387 55.6775 343.844 55.4631 344.705 55.938C345.408 56.3258 345.719 57.0386 345.623 58.0448C345.555 58.7637 345.453 58.93 344.326 60.154C342.116 62.5529 340.591 63.4478 338.406 63.6271C336.029 63.8222 334.565 63.0509 331.817 60.1539C329.827 58.0567 329.119 57.558 328.124 57.5521C327.185 57.5465 326.266 58.1834 324.56 60.0217C321.794 63.0039 320.374 63.7803 317.943 63.6397C315.617 63.505 314.398 62.7958 311.955 60.1573C310.014 58.0618 309.504 57.6764 308.55 57.5844C307.492 57.4824 306.642 58.0315 304.82 59.9955C302.579 62.4105 300.927 63.4968 299.096 63.758C297.441 63.994 295.206 63.2303 293.776 61.9396C293.442 61.6379 292.554 60.7207 291.803 59.9017C291.026 59.055 290.093 58.2164 289.638 57.958C288.404 57.2556 287.485 57.4866 285.772 59.1237C285.585 59.3725 285.304 59.6859 284.873 60.154C283.608 61.5273 282.568 62.4077 281.499 62.9431C280.826 63.3359 280.185 63.5617 279.471 63.6904C277.29 64.0837 275.261 63.3526 273.443 61.5182C272.631 60.6994 272.082 60.0554 271.744 59.5109C270.213 57.9517 269.555 57.5574 268.671 57.5521C267.732 57.5465 266.813 58.1834 265.108 60.0217C262.342 63.0039 260.921 63.7803 258.49 63.6397C256.165 63.505 254.945 62.7958 252.502 60.1573C250.561 58.0618 250.051 57.6764 249.097 57.5844C248.039 57.4824 247.19 58.0315 245.367 59.9955C243.126 62.4105 241.474 63.4968 239.643 63.758C237.988 63.994 235.754 63.2303 234.323 61.9396C233.989 61.6379 233.101 60.7207 232.35 59.9017C231.574 59.055 230.64 58.2164 230.186 57.958C228.765 57.1499 227.762 57.5773 225.487 59.9604C223.086 62.4759 221.768 63.3747 220.018 63.6904C217.837 64.0837 215.808 63.3526 213.99 61.5182C212.57 60.0861 211.954 59.1885 211.866 58.4233C211.724 57.1926 212.51 56.1862 213.614 56.1862C214.206 56.1862 214.541 56.4384 215.801 57.8335C217.027 59.1905 217.743 59.5828 219.006 59.5877C220.333 59.5928 221.022 59.1486 223.227 56.8662C225.544 54.4671 226.856 53.6508 228.622 53.51C230.729 53.3421 232.389 54.2132 234.521 56.6051C236.673 59.0204 237.748 59.6999 239.181 59.5487C240.342 59.4265 240.973 59.0109 242.743 57.2029C245.514 54.3738 247.007 53.462 248.867 53.462C250.793 53.462 252.16 54.28 254.484 56.8213C256.181 58.678 256.876 59.2419 257.817 59.5258C258.722 59.7987 259.776 59.607 260.648 59.0111C260.976 58.7866 261.899 57.9049 262.698 57.0513Z" fill="#474C54"/>
</svg>
