<svg width="254" height="9" viewBox="0 0 254 9" fill="none" xmlns="http://www.w3.org/2000/svg">
<path d="M51.4605 3.19688C53.6076 1.29442 54.7309 0.628625 56.3774 0.282312C58.5438 -0.173037 60.4596 0.651367 63.4795 3.33883C65.1834 4.85504 66.0081 5.28904 67.2342 5.30092C68.5531 5.30288 69.2446 4.9309 71.4422 3.04336C73.7592 1.05319 75.0713 0.376097 76.8373 0.259294C78.9447 0.120034 80.6051 0.842598 82.7362 2.8267C84.8882 4.83029 85.964 5.39397 87.397 5.26855C88.5574 5.16714 89.1884 4.82238 90.9589 3.32259C93.7296 0.975789 95.2222 0.219461 97.083 0.219461C99.0085 0.219461 100.376 0.897968 102.699 3.00607C104.397 4.54627 105.092 5.01404 106.033 5.24949C106.938 5.47589 107.991 5.31685 108.864 4.82252C109.192 4.63637 110.114 3.90491 110.913 3.19688C113.06 1.29442 114.184 0.628625 115.83 0.282312C117.997 -0.173037 119.912 0.651367 122.932 3.33883C124.661 4.87662 125.484 5.30118 126.74 5.30118C127.95 5.30118 128.769 4.89413 130.53 3.41679C132.15 2.05724 132.607 1.87942 133.468 2.27333C134.171 2.59507 134.481 3.18629 134.386 4.021C134.318 4.6173 134.216 4.75529 133.088 5.77064C130.879 7.76054 129.354 8.50288 127.169 8.6516C124.792 8.81346 123.328 8.17366 120.58 5.77051C118.59 4.03089 117.882 3.61721 116.887 3.61226C115.948 3.6076 115.028 4.13597 113.323 5.66091C110.557 8.13468 109.137 8.77872 106.706 8.66206C104.38 8.55034 103.161 7.96208 100.717 5.77333C98.7767 4.03512 98.2667 3.71536 97.3131 3.6391C96.2548 3.5545 95.4054 4.00998 93.583 5.63915C91.3421 7.64246 89.6895 8.54356 87.8587 8.76021C86.2036 8.95597 83.9693 8.32252 82.5389 7.2518C82.2045 7.00153 81.3165 6.24068 80.5656 5.56133C79.7894 4.85896 78.8556 4.16337 78.4013 3.94897C77.1666 3.36637 76.2477 3.55793 74.5345 4.916C74.3478 5.12237 74.0666 5.38235 73.6356 5.77064C72.3709 6.90982 71.3304 7.64013 70.2619 8.08427C69.5892 8.41011 68.9474 8.59736 68.2337 8.70414C66.0531 9.0304 64.0241 8.42393 62.2056 6.90224C61.394 6.22306 60.8451 5.68881 60.5072 5.23715C58.9757 3.94378 58.3183 3.61666 57.4343 3.61226C56.4947 3.6076 55.5756 4.13597 53.8705 5.66091C51.1045 8.13468 49.6841 8.77872 47.2527 8.66206C44.9275 8.55034 43.708 7.96208 41.2646 5.77333C39.3239 4.03512 38.8139 3.71536 37.8603 3.6391C36.802 3.5545 35.9525 4.00998 34.1302 5.63915C31.8893 7.64246 30.2366 8.54356 28.4059 8.76021C26.7508 8.95597 24.5165 8.32252 23.0861 7.2518C22.7517 7.00153 21.8637 6.24068 21.1128 5.56133C20.3365 4.85896 19.4027 4.16337 18.9485 3.94897C17.5279 3.27866 16.5253 3.63316 14.2502 5.61006C11.8486 7.6967 10.5309 8.44229 8.78086 8.70414C6.60032 9.0304 4.57133 8.42393 2.75276 6.90224C1.33323 5.7143 0.717188 4.96969 0.628888 4.33497C0.486847 3.31411 1.2732 2.47926 2.37672 2.47926C2.96905 2.47926 3.30394 2.68843 4.56371 3.84572C5.78936 4.97139 6.50601 5.2968 7.7693 5.30089C9.09613 5.30513 9.7851 4.93664 11.9894 3.04336C14.3064 1.05319 15.6184 0.376097 17.3844 0.259294C19.4919 0.120034 21.1523 0.842598 23.2834 2.8267C25.4354 4.83029 26.5112 5.39397 27.9442 5.26855C29.1046 5.16714 29.7355 4.82238 31.5061 3.32259C34.2768 0.975789 35.7694 0.219461 37.6302 0.219461C39.5557 0.219461 40.9231 0.897968 43.2466 3.00607C44.944 4.54627 45.6391 5.01404 46.5798 5.24949C47.4848 5.47589 48.5384 5.31685 49.4107 4.82252C49.739 4.63637 50.6614 3.90491 51.4605 3.19688Z" fill="white"/>
<path d="M170.445 3.11294C172.593 1.21048 173.716 0.544683 175.362 0.19837C177.529 -0.256979 179.445 0.567425 182.464 3.25489C184.168 4.7711 184.993 5.2051 186.219 5.21698C187.538 5.21894 188.23 4.84696 190.427 2.95942C192.744 0.969244 194.056 0.292154 195.822 0.175351C197.93 0.0360915 199.59 0.758655 201.721 2.74275C203.873 4.74635 204.949 5.31002 206.382 5.1846C207.542 5.0832 208.173 4.73844 209.944 3.23864C212.715 0.891846 214.207 0.135519 216.068 0.135519C217.993 0.135519 219.361 0.814026 221.684 2.92213C223.382 4.46232 224.077 4.9301 225.018 5.16554C225.923 5.39195 226.976 5.23291 227.848 4.73858C228.177 4.55243 229.099 3.82096 229.898 3.11294C232.045 1.21048 233.169 0.544683 234.815 0.19837C236.982 -0.256979 238.897 0.567425 241.917 3.25489C243.645 4.79268 244.469 5.21723 245.725 5.21723C246.935 5.21723 247.754 4.81019 249.515 3.33285C251.135 1.9733 251.592 1.79548 252.453 2.18939C253.156 2.51113 253.466 3.10235 253.371 3.93706C253.303 4.53336 253.201 4.67135 252.073 5.6867C249.864 7.67659 248.339 8.41894 246.154 8.56766C243.777 8.72952 242.313 8.08971 239.564 5.68656C237.575 3.94695 236.867 3.53327 235.872 3.52832C234.933 3.52366 234.013 4.05203 232.308 5.57697C229.542 8.05074 228.122 8.69477 225.69 8.57811C223.365 8.46639 222.146 7.87814 219.702 5.68939C217.762 3.95118 217.252 3.63142 216.298 3.55515C215.24 3.47055 214.39 3.92604 212.568 5.55521C210.327 7.55852 208.674 8.45961 206.844 8.67627C205.189 8.87203 202.954 8.23857 201.524 7.16786C201.189 6.91758 200.301 6.15674 199.551 5.47739C198.774 4.77502 197.84 4.07943 197.386 3.86503C196.152 3.28243 195.233 3.47398 193.519 4.83206C193.333 5.03843 193.052 5.29841 192.62 5.6867C191.356 6.82588 190.315 7.55619 189.247 8.00033C188.574 8.32617 187.932 8.51341 187.219 8.6202C185.038 8.94646 183.009 8.33999 181.191 6.8183C180.379 6.13912 179.83 5.60487 179.492 5.15321C177.961 3.85984 177.303 3.53271 176.419 3.52832C175.48 3.52366 174.561 4.05203 172.855 5.57697C170.089 8.05074 168.669 8.69477 166.238 8.57811C163.912 8.46639 162.693 7.87814 160.25 5.68939C158.309 3.95118 157.799 3.63142 156.845 3.55515C155.787 3.47055 154.937 3.92604 153.115 5.55521C150.874 7.55852 149.222 8.45961 147.391 8.67627C145.736 8.87203 143.501 8.23857 142.071 7.16786C141.737 6.91758 140.849 6.15674 140.098 5.47739C139.321 4.77502 138.388 4.07943 137.933 3.86503C136.513 3.19472 135.51 3.54922 133.235 5.52612C130.834 7.61275 129.516 8.35835 127.766 8.6202C125.585 8.94646 123.556 8.33999 121.738 6.8183C120.318 5.63035 119.702 4.88575 119.614 4.25103C119.472 3.23017 120.258 2.39532 121.362 2.39532C121.954 2.39532 122.289 2.60449 123.549 3.76178C124.774 4.88744 125.491 5.21286 126.754 5.21695C128.081 5.22119 128.77 4.8527 130.974 2.95942C133.291 0.969244 134.603 0.292154 136.369 0.175351C138.477 0.0360915 140.137 0.758655 142.268 2.74275C144.42 4.74635 145.496 5.31002 146.929 5.1846C148.09 5.0832 148.72 4.73844 150.491 3.23864C153.262 0.891846 154.754 0.135519 156.615 0.135519C158.541 0.135519 159.908 0.814026 162.232 2.92213C163.929 4.46232 164.624 4.9301 165.565 5.16554C166.47 5.39195 167.523 5.23291 168.396 4.73858C168.724 4.55243 169.646 3.82096 170.445 3.11294Z" fill="white"/>
</svg>
