<svg width="46" height="43" viewBox="0 0 46 43" fill="none" xmlns="http://www.w3.org/2000/svg">
<path fill-rule="evenodd" clip-rule="evenodd" d="M39.2933 1.04765C39.0443 1.13366 38.706 1.32227 38.5413 1.46682C38.3767 1.61137 37.1141 2.95163 35.7355 4.44512C31.4811 9.05436 22.0939 18.4823 21.7591 18.4823C21.6967 18.4823 19.9125 16.882 17.7943 14.9261C13.7192 11.1632 10.1039 7.84452 9.1652 7.00487C8.21611 6.15601 7.27387 5.84453 6.32802 6.06702C5.68769 6.21771 5.22192 6.50988 4.66979 7.10729C4.40922 7.38928 4.01945 7.70954 3.80364 7.81889C2.87676 8.28852 1.652 9.46721 1.07196 10.4477C0.48288 11.4435 0.539927 12.2424 1.2883 13.4765C3.13487 16.5214 5.63758 19.216 11.6082 24.5874L13.3984 26.1979L13.0125 26.5424C12.8002 26.7319 11.8564 27.5598 10.9151 28.3822C6.83364 31.9484 5.69813 33.2902 5.25615 35.0696C4.90676 36.4761 5.47653 37.9079 6.98284 39.4086C7.70655 40.1295 8.97071 41.1352 9.32177 41.2691C9.79983 41.4515 10.3447 41.5091 10.7396 41.4189C13.6624 40.7515 16.7338 38.7874 20.3591 35.2676C20.9433 34.7003 21.4582 34.2361 21.503 34.2361C21.5479 34.2361 21.8004 34.4563 22.0643 34.7255C22.7126 35.387 24.9351 37.4238 25.7474 38.1009C27.7506 39.7707 29.9424 41.2405 31.8013 42.1607C32.2913 42.4032 32.4613 42.4419 33.0301 42.44C33.5896 42.438 33.7636 42.3985 34.1728 42.18C34.4383 42.0383 34.9221 41.8752 35.2479 41.8176C35.9889 41.6867 36.5056 41.3878 36.9951 40.8075C37.2048 40.559 37.5127 40.2327 37.6795 40.0824C38.877 39.0033 39.0412 38.7007 39.0427 37.5689C39.0444 36.3064 38.9291 36.0917 37.2057 34.1484C35.6493 32.3932 34.2224 30.8683 31.6564 28.218L29.356 25.842L30.9087 24.3635C38.4945 17.1398 41.3231 14.0793 43.6046 10.6274C45.4156 7.88726 45.7663 7.05341 45.4876 6.15074C45.4355 5.98215 45.3596 5.54271 45.319 5.17418C45.2335 4.39852 45.0306 3.95381 44.5585 3.50735C43.8982 2.88308 42.1466 1.49683 41.7832 1.31104C40.9327 0.876161 40.0573 0.783569 39.2933 1.04765Z" fill="#EC0000"/>
</svg>
