<svg width="50" height="99" viewBox="0 0 50 99" fill="none" xmlns="http://www.w3.org/2000/svg">
<path d="M25.7404 98.0974C30.4801 98.0974 34.3224 94.257 34.3224 89.5196C34.3224 84.7822 30.4801 80.9418 25.7404 80.9418C21.0007 80.9418 17.1584 84.7822 17.1584 89.5196C17.1584 94.257 21.0007 98.0974 25.7404 98.0974Z" fill="#FFC107"/>
<path d="M24.8209 0.0126089C11.4084 0.107304 0.426406 11.0015 0.235879 24.4065C0.234114 24.5303 0.233301 25.4005 0.233408 26.5387C0.233496 28.2075 0.89678 29.808 2.07737 30.9881C3.25796 32.1682 4.85917 32.8313 6.52883 32.8314C7.35651 32.8313 8.17605 32.6681 8.9406 32.3512C9.70515 32.0343 10.3997 31.57 10.9847 30.9847C11.5696 30.3994 12.0334 29.7047 12.3496 28.9401C12.6658 28.1756 12.8282 27.3563 12.8275 26.529C12.8269 25.7548 12.8265 25.2189 12.8265 25.186C12.826 23.1143 13.3652 21.0781 14.3909 19.2778C15.4165 17.4775 16.8934 15.9751 18.6762 14.9184C20.459 13.8617 22.4864 13.287 24.5588 13.2509C26.6312 13.2148 28.6773 13.7186 30.4959 14.7126C32.3144 15.7067 33.8427 17.1568 34.9305 18.9203C36.0183 20.6838 36.628 22.7 36.6998 24.7704C36.7715 26.8409 36.3028 28.8944 35.3397 30.7289C34.3766 32.5634 32.9523 34.1157 31.2069 35.2331L31.2091 35.2358C31.2091 35.2358 22.2487 41.0015 19.5169 48.911L19.5192 48.9115C19.0389 50.5318 18.7955 52.2131 18.7965 53.903C18.7965 54.5977 18.8374 60.676 18.9164 65.6095C18.9441 67.3117 19.6401 68.9348 20.8544 70.1287C22.0686 71.3226 23.7038 71.9914 25.407 71.9911C26.2629 71.991 27.1103 71.8218 27.9005 71.4932C28.6907 71.1646 29.4081 70.6831 30.0114 70.0763C30.6147 69.4696 31.092 68.7496 31.4158 67.9577C31.7397 67.1659 31.9037 66.3179 31.8984 65.4625C31.8709 60.9444 31.8561 55.6834 31.8561 55.3016C31.8561 50.4449 36.5436 45.6059 40.394 42.4503C44.8279 38.8165 48.0185 33.8645 49.3001 28.2784C49.5836 27.1283 49.74 25.9506 49.7663 24.7664C49.7663 21.5006 49.1198 18.267 47.864 15.252C46.6081 12.237 44.7678 9.50022 42.449 7.19927C40.1303 4.89832 37.3789 3.07872 34.3535 1.8453C31.328 0.611875 28.0883 -0.0109835 24.8209 0.0126089Z" fill="#FFC107"/>
</svg>
