<svg width="111" height="109" viewBox="0 0 111 109" fill="none" xmlns="http://www.w3.org/2000/svg">
<path fill-rule="evenodd" clip-rule="evenodd" d="M47.3501 1.24354C45.1028 2.05003 43.3238 3.92471 42.7367 6.10486C42.5803 6.6863 42.5149 12.6753 42.5584 22.4646C42.6268 37.8455 42.6293 37.9111 43.1686 38.9195C44.0009 40.4755 44.8018 41.306 46.2345 42.0997C47.5004 42.801 47.6768 42.8293 51.297 42.9099L55.0478 42.9933L55.0483 46.4763C55.0485 50.4748 55.3211 51.3661 56.7811 52.1478C57.4464 52.5042 57.8834 52.5718 58.622 52.4333C59.4568 52.2767 60.2362 51.6111 64.2807 47.6005L68.9709 42.9493H86.8418C104.237 42.9493 104.748 42.936 106.056 42.4465C107.674 41.841 109.257 40.3734 109.982 38.8064C110.503 37.6787 110.512 37.4286 110.579 22.4383C110.656 5.54999 110.664 5.65722 109.072 3.57225C108.613 2.9704 107.643 2.15014 106.915 1.74652L105.592 1.01382L76.9379 0.960942C53.2678 0.917407 48.1217 0.966598 47.3501 1.24354ZM63.491 20.086C64.324 20.7412 64.5619 21.9892 64.0444 22.9897C63.5753 23.8971 62.9762 24.2566 61.9346 24.2566C60.8929 24.2566 60.2938 23.8971 59.8248 22.9897C58.9858 21.3674 60.0906 19.5835 61.9346 19.5835C62.486 19.5835 63.1068 19.7839 63.491 20.086ZM78.2572 20.2318C79.1657 21.1404 79.1601 22.6112 78.2446 23.5667C76.8075 25.0668 74.2324 23.9913 74.2324 21.891C74.2324 19.8103 76.7837 18.7585 78.2572 20.2318ZM92.8497 20.177C93.4228 20.6699 93.5399 20.9658 93.5399 21.9201C93.5399 22.8744 93.4228 23.1703 92.8497 23.6632C91.5597 24.7727 89.6353 24.3395 88.9958 22.7954C88.0406 20.4896 90.9305 18.5261 92.8497 20.177ZM80.549 53.138C79.2329 54.0367 67.3006 64.8494 67.4071 65.0467C68.1585 66.4371 68.4379 67.4452 68.5254 69.0821L68.6275 70.9882H69.5277C70.3586 70.9882 70.9784 70.4939 77.5567 64.5858C81.4775 61.0644 84.9467 57.8899 85.2659 57.531C85.7549 56.9813 85.8279 56.6886 85.73 55.6704C85.5665 53.9666 84.3711 52.7666 82.68 52.6082C81.689 52.5152 81.3299 52.6045 80.549 53.138ZM92.1271 54.8277C91.7557 54.9908 87.5823 58.6105 82.8526 62.8717L74.2533 70.6193L75.818 70.6916C76.6786 70.7312 78.9257 70.6641 80.8114 70.5426C85.7104 70.2265 85.9406 70.1011 91.5162 64.7001C93.9819 62.3114 96.1999 60.0098 96.4451 59.5852C97.0615 58.5175 96.8915 56.6849 96.0963 55.8221C94.9977 54.6305 93.456 54.2443 92.1271 54.8277ZM102.366 57.6555C101.944 57.8864 98.7677 60.831 95.3063 64.1986C91.8448 67.5663 88.5371 70.6395 87.9559 71.0278C85.7765 72.4844 84.5163 72.6875 75.7369 72.9962L67.7145 73.2786L66.5546 74.439C65.9166 75.0773 64.8651 75.8623 64.218 76.1838C63.0507 76.7635 62.9681 76.7687 53.7337 76.8408C46.9047 76.8941 44.3337 76.8371 44.0799 76.6263C43.646 76.2662 43.6305 75.3156 44.0526 74.9651C44.2636 74.79 47.4409 74.6759 53.4604 74.6276C61.3689 74.5642 62.6459 74.5017 63.2925 74.147C65.8903 72.7217 67.0357 69.6633 65.9028 67.1759C65.3268 65.9107 63.7059 64.4527 62.5054 64.1192C61.2452 63.7692 38.6123 63.7677 35.4232 64.1175C30.1372 64.6969 25.3474 66.0812 22.741 67.7827C19.9691 69.5922 18.3692 71.5453 16.4888 75.4154C13.3089 81.9598 12.1785 83.5625 5.40262 91.1305C1.27597 95.7395 0.402584 96.8136 0.78111 96.8136C0.830547 96.8136 8.26063 99.3632 17.2924 102.479C26.3244 105.595 33.7404 108.114 33.7726 108.075C33.8049 108.036 35.2683 106.068 37.0244 103.7C41.1966 98.0766 43.1795 96.2275 46.798 94.5867C49.1906 93.5021 50.6103 93.2359 63.1643 91.5204C75.7826 89.7962 77.7003 89.3786 80.3126 87.7855C82.419 86.5012 107.141 65.0686 107.99 63.7906C109.288 61.8377 108.596 58.9325 106.557 57.772C105.377 57.1006 103.474 57.0477 102.366 57.6555Z" fill="white"/>
</svg>
