<svg width="93" height="81" viewBox="0 0 93 81" fill="none" xmlns="http://www.w3.org/2000/svg">
<path fill-rule="evenodd" clip-rule="evenodd" d="M41.6416 0.817212C35.1085 1.47753 27.9846 3.9065 22.3392 7.3986C20.6548 8.44048 17.7229 10.5815 16.5586 11.6196L15.875 12.2292L21.8912 18.2359L27.9072 24.2427L29.2373 23.2666C30.6273 22.2465 32.1926 21.2732 33.4973 20.6175C35.9552 19.3824 40.1552 18.0996 42.6771 17.8135L43.8025 17.686V9.15032C43.8025 1.13197 43.7834 0.616074 43.4874 0.638582C43.314 0.651727 42.4835 0.732039 41.6416 0.817212ZM49.2046 9.14564V17.6799L50.24 17.8047C54.9951 18.3786 60.2285 20.518 64.0346 23.4437L65.0893 24.2546L71.1245 18.2194L77.1598 12.1841L75.8321 11.0758C73.5569 9.17643 69.7652 6.75538 66.7614 5.28421C61.4519 2.68382 56.6282 1.3495 50.24 0.714392L49.2046 0.611572V9.14564ZM10.7733 17.5248C7.85184 21.0276 4.77517 26.4063 3.13635 30.8763C1.83408 34.4284 0.904379 38.6253 0.495979 42.7961L0.376953 44.0115H8.91012H17.4433L17.6749 42.376C18.3008 37.954 20.2126 33.2758 22.8537 29.7041L24.0308 28.1121L18.0092 22.0905L11.9877 16.0688L10.7733 17.5248ZM74.9809 22.1067L68.9768 28.1128L70.1536 29.7044C72.7835 33.2612 74.7158 38.0008 75.3439 42.4359L75.567 44.0115H84.0842C90.8001 44.0115 92.6015 43.9636 92.6015 43.7854C92.6015 42.8769 91.974 38.5282 91.5965 36.8206C90.0955 30.0309 86.527 22.6721 82.2471 17.5409C81.5864 16.7487 81.0322 16.1007 81.0154 16.1007C80.9987 16.1007 78.283 18.8033 74.9809 22.1067ZM44.9729 38.425C39.3004 39.6772 36.4472 45.4334 38.9433 50.5895C40.0477 52.871 43.5873 55.6792 55.0057 63.3327C58.005 65.343 62.192 68.0981 64.3101 69.4551C67.8633 71.7314 68.227 71.9224 69.0103 71.9224C70.9308 71.9224 72.2078 70.0259 71.4697 68.2702C70.9585 67.054 60.5002 51.2736 57.1232 46.6226C53.104 41.0872 51.5882 39.5634 49.3445 38.8028C48.0552 38.3658 46.0328 38.1911 44.9729 38.425ZM0.495979 50.6291C1.56145 61.508 5.76285 70.8641 12.9892 78.4498C14.5467 80.0848 15.241 80.4008 16.4768 80.0378C17.1177 79.8495 17.9667 79.0917 21.6996 75.3765C27.6369 69.4673 27.6435 69.4493 24.9855 66.415C20.794 61.6301 18.2543 56.149 17.5832 50.4393L17.4627 49.4136H8.91984H0.376953L0.495979 50.6291ZM75.4239 50.4393C75.1165 53.0538 74.2684 56.1137 73.2018 58.4564L72.5689 59.846L74.3267 62.5624C75.2935 64.0564 76.283 65.7699 76.5254 66.3703C77.3618 68.4409 77.2354 71.0028 76.1964 73.0396C75.7138 73.9857 74.0788 75.717 73.2432 76.167C72.897 76.3536 72.6137 76.554 72.6137 76.6125C72.6137 76.6712 73.3232 77.4133 74.1902 78.262C76.8607 80.875 77.7437 80.8627 80.2748 78.1768C85.9629 72.141 90.0206 64.3186 91.7084 56.1353C92.0166 54.6413 92.6015 50.3871 92.6015 49.6398C92.6015 49.4615 90.7979 49.4136 84.073 49.4136H75.5444L75.4239 50.4393Z" fill="white"/>
</svg>
