<svg width="37" height="37" viewBox="0 0 37 37" fill="none" xmlns="http://www.w3.org/2000/svg">
<path fill-rule="evenodd" clip-rule="evenodd" d="M12.6202 7.9428C11.4156 8.20465 10.5259 9.10779 10.279 10.3193C10.2214 10.6015 10.213 11.1759 10.213 14.8025V18.9619H9.69108H9.16918V17.639V16.3161H9.5032H9.83722V13.6064V10.8967L9.05436 10.9081L8.2715 10.9195L8.26077 13.6178L8.25 16.3161H8.58435H8.91866V17.765V19.2139H9.56583H10.213L10.2144 22.2902C10.216 25.5981 10.2239 25.7409 10.4334 26.2626C10.6606 26.8285 11.0497 27.3142 11.549 27.6552L11.7996 27.8264V28.6018V29.3771H13.1148H14.43V28.7682V28.1592H18.1459H21.8619V28.7682V29.3771H23.1771H24.4923V28.6247V27.8722L24.8159 27.6439C25.4705 27.1818 25.8697 26.5931 26.0613 25.8074C26.1059 25.6245 26.118 24.9322 26.1191 22.4792L26.1206 19.3819H26.8513H27.582V18.017V16.6521H27.916H28.25V13.9433V11.2345H27.4776H26.7052V13.9433V16.6521H27.0183H27.3314V17.891V19.1299H26.726H26.1206V14.811C26.1206 10.6262 26.118 10.4817 26.0369 10.1598C25.7765 9.12715 25.04 8.35538 23.9704 7.99441L23.6781 7.89576L18.2921 7.8882C13.6743 7.88178 12.8652 7.88955 12.6202 7.9428ZM21.7366 9.32365V10.1426H18.2294H14.7222V9.32365V8.50472H18.2294H21.7366V9.32365ZM24.8681 15.2194V19.4143L24.6989 19.6692C24.068 20.6195 22.4683 21.3403 20.4006 21.6058C18.95 21.7922 16.8663 21.7743 15.5155 21.5639C14.2547 21.3675 13.1062 20.9577 12.4036 20.4534C12.0806 20.2215 11.6804 19.7901 11.5595 19.5434L11.4656 19.3517V15.1881V11.0245H18.1668H24.8681V15.2194ZM15.4738 24.1275V25.0095H13.5323H11.5908V24.1275V23.2456H13.5323H15.4738V24.1275ZM24.8681 24.1275V25.0095H22.9266H20.9851V24.1556C20.9851 23.6859 20.9976 23.289 21.0129 23.2736C21.0282 23.2582 21.9019 23.2456 22.9544 23.2456H24.8681V24.1275Z" fill="white"/>
<rect x="1.25" y="1.63171" width="34" height="34" rx="17" stroke="#FFC107" stroke-width="2"/>
</svg>
