<svg width="37" height="37" viewBox="0 0 37 37" fill="none" xmlns="http://www.w3.org/2000/svg">
<path fill-rule="evenodd" clip-rule="evenodd" d="M17.0841 5.96262C14.5726 6.20306 12.2475 7.10779 10.2136 8.63604C9.22213 9.38098 7.93459 10.781 7.19054 11.923C6.8692 12.4162 6.24368 13.6661 6.0196 14.2625C5.76906 14.9295 5.50202 15.9488 5.37062 16.7396C5.20979 17.7076 5.20979 19.5455 5.37062 20.5135C5.598 21.8819 5.95772 22.9881 6.57342 24.2128C7.23894 25.5366 7.94543 26.4974 9.0408 27.5683C10.1099 28.6135 11.0148 29.2675 12.2741 29.905C15.1388 31.355 18.439 31.7137 21.5568 30.9139C22.4721 30.6791 23.0691 30.4598 23.9801 30.0238C25.3514 29.3675 26.3234 28.685 27.4436 27.5921C28.5637 26.4992 29.2631 25.5508 29.9358 24.2128C30.3826 23.3241 30.6074 22.7416 30.8481 21.8485C31.1687 20.659 31.25 20.007 31.25 18.6265C31.25 17.2461 31.1687 16.5941 30.8481 15.4046C30.6074 14.5115 30.3826 13.929 29.9358 13.0403C29.2631 11.7023 28.5637 10.7539 27.4436 9.66094C26.3234 8.56806 25.3514 7.88559 23.9801 7.22924C22.7261 6.62905 21.5698 6.27099 20.214 6.06288C19.4658 5.94807 17.7952 5.89455 17.0841 5.96262ZM19.3234 6.9105C23.9847 7.32493 27.9711 10.3267 29.5989 14.6479C29.838 15.2827 30.0754 16.2109 30.1974 16.9879C30.3216 17.7793 30.3216 19.4738 30.1974 20.2652C29.8796 22.2901 29.1306 24.0509 27.8949 25.6777C27.4029 26.3255 26.1769 27.528 25.5277 27.9996C23.7872 29.2639 21.9975 29.9777 19.756 30.3016C19.1773 30.3852 17.3039 30.386 16.7533 30.3029C14.4604 29.9567 12.7192 29.2618 10.9815 27.9996C10.3542 27.5439 9.11515 26.3349 8.64811 25.7229C5.07579 21.0412 5.45464 14.666 9.55197 10.5125C12.1316 7.89741 15.6861 6.58709 19.3234 6.9105ZM17.4149 7.93138C15.9552 8.08114 14.7685 8.38747 13.6026 8.91546C11.3068 9.95515 9.26916 11.9738 8.23624 14.232C6.89816 17.1573 6.96137 20.4909 8.40886 23.3365C9.20971 24.9109 10.2882 26.1793 11.6895 27.195C12.3929 27.7049 13.4379 28.3083 13.5046 28.2432C13.5177 28.2305 13.594 26.972 13.6741 25.4468C13.7543 23.9214 13.8335 22.4809 13.8502 22.2456L13.8805 21.8176L13.4272 21.6582C12.8525 21.456 12.4365 21.1907 12.0519 20.7812C11.1474 19.818 10.6572 18.2926 10.7373 16.69C10.8498 14.4389 12.6912 12.3699 14.5822 12.3699C15.1011 12.3699 15.7863 12.6007 16.3148 12.9536C16.9388 13.3703 17.6783 14.2799 17.9934 15.0183C18.3033 15.7447 18.3791 16.1324 18.3782 16.9879C18.3766 18.5986 17.9329 19.8678 17.0378 20.8222C16.6885 21.1946 16.2654 21.459 15.7064 21.6541L15.252 21.8127L15.2556 21.9948C15.2576 22.095 15.3434 23.7182 15.4464 25.6021L15.6337 29.0272L15.9136 29.0885C17.2937 29.3902 18.8683 29.4121 20.2827 29.1493C20.9454 29.0262 21.7196 28.8064 21.7431 28.7347C21.7614 28.6788 22.0738 22.7832 22.0724 22.5192C22.0716 22.3753 22.0511 22.3581 21.7681 22.2638C21.2727 22.0988 20.8067 21.8135 20.4099 21.4326C19.809 20.8558 19.8063 20.846 19.8097 19.2472C19.8112 18.5098 19.8414 17.5825 19.8767 17.1865C19.9518 16.3451 20.2615 13.4648 20.3467 12.8167L20.4055 12.3699H20.755H21.1046V15.97V19.57H21.4354H21.7662V15.97V12.3699H22.1479H22.5296V15.97V19.57H22.8604H23.1912V15.97V12.3699H23.5729H23.9546V15.97V19.57H24.2854H24.6162V15.97V12.3699H24.8895H25.1627L25.2214 12.8167C25.3066 13.4648 25.6164 16.3451 25.6914 17.1865C25.7268 17.5825 25.7569 18.5098 25.7585 19.2472C25.7619 20.846 25.7592 20.8558 25.1583 21.4326C24.7615 21.8135 24.2955 22.0988 23.8001 22.2638L23.4966 22.3649L23.4969 22.6433C23.497 22.7965 23.5542 23.972 23.624 25.2556C23.6937 26.5392 23.7508 27.6509 23.7509 27.726C23.751 27.801 23.7687 27.8625 23.7903 27.8625C23.8119 27.8625 24.0277 27.7341 24.2699 27.577C26.9272 25.8539 28.6405 23.2406 29.1285 20.1659C29.2533 19.38 29.2525 17.819 29.127 17.0624C28.587 13.8072 26.7132 11.0913 23.8386 9.39717C22.7065 8.72999 21.2734 8.23323 19.8832 8.02622C19.3625 7.94866 17.8229 7.88952 17.4149 7.93138ZM12.1085 15.5328C11.6913 16.1098 11.3865 17.2411 11.4499 17.9779C11.5111 18.691 11.9668 19.7215 12.4426 20.2229C12.7392 20.5356 13.2738 20.9107 13.4226 20.9107C13.6076 20.9107 13.5737 20.8031 13.2622 20.4012C12.8979 19.931 12.7067 19.5492 12.3986 18.6762L12.1795 18.0555L12.1807 17.261C12.1816 16.6723 12.2055 16.3701 12.2731 16.0941C12.3232 15.8893 12.367 15.6552 12.3704 15.5739C12.3787 15.3738 12.2393 15.352 12.1085 15.5328Z" fill="white"/>
<rect x="1.25" y="1.63171" width="34" height="34" rx="17" stroke="#FFC107" stroke-width="2"/>
</svg>
