<svg width="37" height="37" viewBox="0 0 37 37" fill="none" xmlns="http://www.w3.org/2000/svg">
<rect x="1.25" y="1.63171" width="34" height="34" rx="17" stroke="#FFC107" stroke-width="2"/>
<path fill-rule="evenodd" clip-rule="evenodd" d="M12.8336 9.63824C11.7351 10.1032 11.3029 10.3035 11.2635 10.3657C11.2149 10.4424 11.2175 10.506 11.2871 10.9608C11.7374 13.8995 11.1783 16.1509 9.72872 17.2361C9.60485 17.3289 9.49357 17.4318 9.48149 17.4649C9.46936 17.498 9.45947 19.5739 9.45947 22.0781C9.45947 25.5406 9.47013 26.6689 9.50401 26.7891C9.56683 27.0121 9.86784 27.3213 10.0821 27.383C10.2091 27.4195 11.0685 27.4279 13.8182 27.4193C17.7643 27.4069 17.4529 27.4271 17.8015 27.1614L17.9571 27.0427V25.6988V24.3549H17.461C16.9831 24.3549 16.9616 24.3514 16.875 24.2606C16.8255 24.2087 16.7851 24.1396 16.7851 24.107C16.7851 24.0539 16.4303 24.0476 13.4153 24.0476H10.0455V23.2795V22.5114H13.4153H16.7851V22.2985C16.7851 22.1235 16.8011 22.0686 16.875 21.9912C16.9616 21.9004 16.9831 21.897 17.461 21.897H17.9571V21.2825V20.668H17.461C16.9831 20.668 16.9616 20.6645 16.875 20.5737C16.8011 20.4963 16.7851 20.4414 16.7851 20.2665V20.0535H13.4153H10.0455V19.439V18.8245H13.4153H16.7851V18.6116C16.7851 18.4367 16.8011 18.3817 16.875 18.3043C16.9616 18.2135 16.9831 18.2101 17.461 18.2101H17.9571V16.4407V14.6714L16.5712 12.3218C15.809 11.0295 15.175 9.95316 15.1623 9.92996C15.1497 9.90676 15.3077 9.94663 15.5135 10.0186C16.5143 10.3685 17.2961 10.5085 18.2502 10.5085C19.1988 10.5085 19.9671 10.3719 20.9848 10.0224C21.1895 9.95216 21.3476 9.91206 21.3361 9.93342C21.3246 9.95473 20.6915 11.0291 19.9292 12.321L18.5432 14.6698V16.4399V18.2101H19.0393C19.5173 18.2101 19.5388 18.2135 19.6254 18.3043C19.6992 18.3817 19.7153 18.4367 19.7153 18.6116V18.8245H23.0851H26.4548V19.439V20.0535H23.0851H19.7153V20.2665C19.7153 20.4414 19.6992 20.4963 19.6254 20.5737C19.5388 20.6645 19.5173 20.668 19.0393 20.668H18.5432V21.2825V21.897H19.0393C19.5173 21.897 19.5388 21.9004 19.6254 21.9912C19.6992 22.0686 19.7153 22.1235 19.7153 22.2985V22.5114H23.0851H26.4548V23.2795V24.0476H23.0851C20.0701 24.0476 19.7153 24.0539 19.7153 24.107C19.7153 24.1396 19.6748 24.2087 19.6254 24.2606C19.5388 24.3514 19.5173 24.3549 19.0393 24.3549H18.5432V25.6971V27.0393L18.6622 27.1329C18.7277 27.1844 18.8554 27.2673 18.9461 27.3173L19.1109 27.4081L22.6821 27.4192C25.4278 27.4277 26.2915 27.4193 26.4182 27.3829C26.6325 27.3213 26.9335 27.0122 26.9963 26.7891C27.0302 26.6689 27.0409 25.5406 27.0409 22.0781C27.0409 19.5739 27.031 17.498 27.0189 17.4649C27.0068 17.4318 26.8947 17.3284 26.7699 17.235C25.322 16.1516 24.763 13.8989 25.2131 10.9611C25.2826 10.5078 25.2852 10.4427 25.2371 10.3657C25.1668 10.2533 22.1365 8.97383 22.0125 9.00432C21.9678 9.01527 21.6676 9.12234 21.3452 9.24224C20.1318 9.69354 19.1833 9.89294 18.2502 9.89294C17.3155 9.89294 16.3627 9.69235 15.1551 9.24132C14.8328 9.12092 14.5196 9.01661 14.4592 9.00951C14.3822 9.00048 13.8958 9.18859 12.8336 9.63824ZM17.3711 19.439V20.0535H18.2502H19.1292V19.439V18.8245H18.2502H17.3711V19.439ZM17.3711 23.1259V23.7404H18.2502H19.1292V23.1259V22.5114H18.2502H17.3711V23.1259Z" fill="white"/>
</svg>
