<svg width="37" height="37" viewBox="0 0 37 37" fill="none" xmlns="http://www.w3.org/2000/svg">
<path fill-rule="evenodd" clip-rule="evenodd" d="M15.8172 9.93005C15.6721 9.97356 15.5435 10.0574 15.3866 10.2106C15.0543 10.5351 15.0288 10.6521 15.0288 11.8551V12.8402H15.3655H15.7022L15.7149 11.8275L15.7276 10.815L15.866 10.6798L16.0045 10.5447H18.2474H20.4903L20.6288 10.6798L20.7672 10.815L20.7799 11.8275L20.7926 12.8402H21.1293H21.466V11.8523C21.466 10.66 21.4388 10.5367 21.1031 10.2069C20.7462 9.85626 20.7928 9.8618 18.2291 9.86515C16.3954 9.86755 15.9892 9.87847 15.8172 9.93005ZM10.9633 12.6747V12.8402H12.1491H13.3349V12.6747V12.5093H12.1491H10.9633V12.6747ZM23.1599 12.6747V12.8402H24.3457H25.5315V12.6747V12.5093H24.3457H23.1599V12.6747ZM9.66168 13.2348C8.96901 13.417 8.44485 13.9467 8.30057 14.6103C8.23314 14.9205 8.23314 25.6493 8.30057 25.9595C8.40779 26.4526 8.79385 26.957 9.22891 27.1723C9.71313 27.4119 9.19109 27.3988 18.233 27.3988C24.2291 27.3988 26.6062 27.3858 26.7682 27.3523C27.4568 27.2094 27.9945 26.696 28.1787 26.0053C28.2738 25.6487 28.2738 14.9211 28.1787 14.5646C27.9945 13.8738 27.4568 13.3604 26.7682 13.2176C26.606 13.1839 24.2337 13.1718 18.2136 13.1738C11.1848 13.176 9.84874 13.1856 9.66168 13.2348ZM8.88363 14.8821C8.91781 14.9224 8.92852 15.2961 8.92056 16.1701C8.91036 17.2908 8.90269 17.4055 8.83523 17.4471C8.78119 17.4804 8.74104 17.4804 8.687 17.4471C8.61954 17.4055 8.61188 17.2908 8.60167 16.1701C8.59007 14.8983 8.59871 14.8254 8.76112 14.8254C8.80198 14.8254 8.85712 14.8509 8.88363 14.8821ZM19.3273 14.9282C20.449 15.1553 21.3714 15.6425 22.1861 16.4383C22.997 17.2302 23.4656 18.067 23.7168 19.1715C23.8572 19.7888 23.8572 20.781 23.7168 21.3983C23.5656 22.0634 23.3184 22.6683 22.9987 23.1561C22.1516 24.4481 20.9126 25.2957 19.3874 25.6265C18.809 25.7519 17.7443 25.7622 17.1887 25.6477C15.1902 25.2359 13.5789 23.8592 12.9552 22.0307C12.7364 21.3896 12.6803 21.0332 12.6803 20.2849C12.6803 19.5366 12.7364 19.1802 12.9552 18.5391C13.6154 16.6035 15.4168 15.1528 17.512 14.8695C17.9209 14.8142 18.9247 14.8466 19.3273 14.9282ZM19.3824 16.8603C19.4194 16.8965 19.4332 17.2114 19.4332 18.0184V19.1268H20.5682C21.3944 19.1268 21.7169 19.1403 21.7539 19.1765C21.8263 19.2471 21.8263 21.3227 21.7539 21.3934C21.7169 21.4295 21.3944 21.443 20.5682 21.443H19.4332V22.5514C19.4332 23.3584 19.4194 23.6733 19.3824 23.7095C19.31 23.7801 17.1848 23.7801 17.1124 23.7095C17.0754 23.6733 17.0616 23.3584 17.0616 22.5514V21.443H15.9266C15.1004 21.443 14.7779 21.4295 14.7409 21.3934C14.6685 21.3227 14.6685 19.2471 14.7409 19.1765C14.7779 19.1403 15.1004 19.1268 15.9266 19.1268H17.0616V18.0184C17.0616 17.2114 17.0754 16.8965 17.1124 16.8603C17.1848 16.7897 19.31 16.7897 19.3824 16.8603ZM17.4004 18.25C17.4004 19.057 17.3866 19.3719 17.3496 19.4081C17.3126 19.4442 16.9901 19.4577 16.1638 19.4577H15.0288V20.2849V21.1121H16.1638C16.9901 21.1121 17.3126 21.1256 17.3496 21.1617C17.3866 21.1979 17.4004 21.5128 17.4004 22.3198V23.4283H18.2474H19.0944V22.3198C19.0944 21.5128 19.1082 21.1979 19.1452 21.1617C19.1822 21.1256 19.5047 21.1121 20.331 21.1121H21.466V20.2849V19.4577H20.331C19.5047 19.4577 19.1822 19.4442 19.1452 19.4081C19.1082 19.3719 19.0944 19.057 19.0944 18.25V17.1416H18.2474H17.4004V18.25ZM8.88456 18.192C8.91645 18.2295 8.92941 18.3913 8.92149 18.6529C8.91154 18.9835 8.896 19.0642 8.83523 19.1016C8.78127 19.1347 8.74096 19.1347 8.687 19.1016C8.62623 19.0642 8.61069 18.9835 8.60074 18.6529C8.58808 18.2344 8.61908 18.1342 8.76112 18.1342C8.80198 18.1342 8.85755 18.1602 8.88456 18.192Z" fill="white"/>
<rect x="1.25" y="1.63171" width="34" height="34" rx="17" stroke="#FFC107" stroke-width="2"/>
</svg>
