<svg width="36" height="36" viewBox="0 0 36 36" fill="none" xmlns="http://www.w3.org/2000/svg">
<rect x="1.51953" y="1.51654" width="33.0175" height="33.0175" rx="16.5087" stroke="#FFC107" stroke-width="2"/>
<path fill-rule="evenodd" clip-rule="evenodd" d="M14.4367 8.20964V8.57351H16.2866H18.1365V8.20964V7.84576H16.2866H14.4367V8.20964ZM14.8067 11.4845V13.6677H15.1766H15.5466V11.4845V9.30126H15.1766H14.8067V11.4845ZM17.0266 11.4845V13.6677H17.3965H17.7665V11.4845V9.30126H17.3965H17.0266V11.4845ZM20.7495 12.8759C19.5794 13.5879 18.5923 14.1881 18.5559 14.2098C18.4994 14.2434 18.4976 14.3369 18.544 14.8499C18.714 16.7298 19.3633 18.1547 20.6078 19.3792C20.9823 19.7477 21.3178 20.027 21.6282 20.2286C22.1194 20.5477 22.8161 20.8997 22.9563 20.8997C23.0867 20.8997 23.8443 20.5104 24.3088 20.2047C24.8935 19.82 25.7545 18.9622 26.1582 18.3622C26.8575 17.3228 27.2616 16.0837 27.3627 14.6684L27.3936 14.2363L25.197 12.9059C23.9889 12.1741 22.9727 11.5768 22.9387 11.5785C22.9047 11.5801 21.9196 12.164 20.7495 12.8759ZM24.7841 13.5113C25.7192 14.0757 26.5122 14.572 26.5463 14.6143C26.6895 14.7917 26.4686 15.9903 26.1407 16.8152C25.6853 17.9607 24.8688 18.953 23.8019 19.6577C23.4117 19.9154 23.064 20.081 22.9131 20.0809C22.8408 20.0809 22.6147 19.9805 22.3968 19.8515C21.0913 19.0793 20.1565 17.9711 19.6725 16.6216C19.4165 15.908 19.2264 14.8224 19.3266 14.6463C19.3518 14.6019 20.1402 14.0992 21.0784 13.5291C22.3402 12.7625 22.8234 12.4917 22.9341 12.4889C23.0517 12.486 23.4483 12.7051 24.7841 13.5113ZM21.4895 14.1363L20.0558 15.0109L20.0703 15.1694C20.0782 15.2566 20.1237 15.493 20.1714 15.6947C20.5105 17.1292 21.3026 18.2708 22.5046 19.0574L22.9151 19.3261L23.1504 19.197C23.9842 18.7397 24.7953 17.8913 25.2548 16.9959C25.4582 16.5994 25.7035 15.8596 25.7851 15.3966C25.8225 15.1842 25.8495 15.0076 25.845 15.0041C25.8005 14.9691 22.9505 13.2588 22.9388 13.26C22.9302 13.2609 22.278 13.6552 21.4895 14.1363ZM11.8548 14.4532C11.7701 14.4799 11.6003 14.5906 11.4774 14.6993C11.0799 15.0507 11.1068 14.6241 11.1068 20.5728C11.1068 24.5629 11.1203 25.8692 11.1631 26.0114C11.2381 26.2613 11.6212 26.638 11.8753 26.7119C12.1421 26.7894 20.4241 26.7918 20.6867 26.7144C20.9404 26.6396 21.2293 26.3791 21.3566 26.1102L21.4654 25.8802L21.4659 23.446L21.4664 21.0117L21.0585 20.7286C20.8341 20.5728 20.6015 20.3941 20.5416 20.3314C20.4818 20.2688 20.4156 20.2175 20.3946 20.2175C20.3736 20.2175 20.3564 21.2333 20.3564 22.475C20.3564 24.1146 20.341 24.7838 20.3002 24.9198C20.2251 25.1696 19.842 25.5464 19.588 25.6202C19.1782 25.7393 18.8326 25.6596 18.5059 25.3708C18.1149 25.025 18.1366 25.2993 18.136 20.6983C18.1356 17.3245 18.1245 16.6112 18.0696 16.4335C17.9871 16.1659 17.8285 15.2143 17.7887 14.748L17.7586 14.3955L14.8837 14.4001C12.9905 14.4032 11.9561 14.4213 11.8548 14.4532ZM24.6827 15.2349C24.757 15.3079 24.7962 15.398 24.7962 15.4953C24.7962 15.6286 24.6888 15.7497 23.766 16.6572C22.4927 17.9095 22.6229 17.8706 21.9428 17.2018C21.5343 16.7999 21.4664 16.7121 21.4664 16.5856C21.4664 16.3906 21.6426 16.2148 21.8382 16.2148C21.9528 16.2148 22.0453 16.2737 22.281 16.4962L22.579 16.7776L23.4245 15.9504C24.1714 15.2197 24.2875 15.1232 24.4196 15.1232C24.5167 15.1232 24.609 15.1623 24.6827 15.2349ZM13.6682 15.5424C13.9223 15.6162 14.3054 15.993 14.3804 16.2429C14.4615 16.5126 14.4615 24.6501 14.3804 24.9198C14.3054 25.1696 13.9223 25.5464 13.6682 25.6202C13.2585 25.7393 12.9129 25.6596 12.5862 25.3708C12.1945 25.0244 12.2168 25.3135 12.2168 20.5813C12.2168 15.8477 12.1943 16.1384 12.5874 15.7909C12.9151 15.5011 13.2561 15.4227 13.6682 15.5424ZM16.6281 15.5424C16.8821 15.6162 17.2652 15.993 17.3403 16.2429C17.4213 16.5126 17.4213 24.6501 17.3403 24.9198C17.2652 25.1696 16.8821 25.5464 16.6281 25.6202C16.2183 25.7393 15.8728 25.6596 15.5461 25.3708C15.1544 25.0244 15.1766 25.3135 15.1766 20.5813C15.1766 15.8477 15.1542 16.1384 15.5472 15.7909C15.875 15.5011 16.216 15.4227 16.6281 15.5424ZM13.0703 16.3265L12.9567 16.4381V20.5813V24.7245L13.0703 24.8361C13.1418 24.9066 13.2366 24.9478 13.3267 24.9478C13.4168 24.9478 13.5116 24.9066 13.5832 24.8361L13.6967 24.7245V20.5813V16.4381L13.5832 16.3265C13.5116 16.2561 13.4168 16.2148 13.3267 16.2148C13.2366 16.2148 13.1418 16.2561 13.0703 16.3265ZM16.0302 16.3265L15.9166 16.4381V20.5813V24.7245L16.0302 24.8361C16.1017 24.9066 16.1965 24.9478 16.2866 24.9478C16.3767 24.9478 16.4715 24.9066 16.543 24.8361L16.6566 24.7245V20.5813V16.4381L16.543 16.3265C16.4715 16.2561 16.3767 16.2148 16.2866 16.2148C16.1965 16.2148 16.1017 16.2561 16.0302 16.3265ZM18.8765 21.584V24.7245L18.99 24.8361C19.1402 24.9839 19.3527 24.9839 19.5029 24.8361L19.6164 24.7245V22.0772V19.4299L19.4373 19.1982C19.3388 19.0709 19.1797 18.849 19.0839 18.7051C18.988 18.5612 18.9022 18.4436 18.893 18.4436C18.8839 18.4436 18.8765 19.8568 18.8765 21.584ZM12.2347 27.6427C12.2692 27.8163 12.3804 27.9755 12.5583 28.1061C12.7374 28.2376 13.1761 28.2376 13.3552 28.1061C13.5331 27.9755 13.6443 27.8163 13.6788 27.6427L13.7083 27.4949H12.9567H12.2052L12.2347 27.6427ZM18.8944 27.6427C18.9289 27.8163 19.0401 27.9755 19.218 28.1061C19.3971 28.2376 19.8358 28.2376 20.0149 28.1061C20.1928 27.9755 20.304 27.8163 20.3385 27.6427L20.368 27.4949H19.6164H18.8649L18.8944 27.6427Z" fill="white"/>
</svg>
